<svg width="35" height="35" viewBox="0 0 35 35" fill="none" xmlns="http://www.w3.org/2000/svg">
<g clip-path="url(#clip0_1_3942)">
<path d="M19.2388 20.2846C19.0013 20.2847 18.7708 20.2036 18.5856 20.0548L16.8445 18.6619C16.7222 18.5643 16.6235 18.4403 16.5557 18.2992C16.4879 18.1582 16.4529 18.0036 16.4531 17.8471V14.365C16.4531 14.0879 16.5632 13.8222 16.7591 13.6263C16.955 13.4304 17.2207 13.3203 17.4978 13.3203C17.7748 13.3203 18.0405 13.4304 18.2364 13.6263C18.4324 13.8222 18.5424 14.0879 18.5424 14.365V17.3457L19.8921 18.4251C20.0608 18.5605 20.1833 18.7449 20.2428 18.9529C20.3022 19.1608 20.2957 19.3821 20.224 19.5862C20.1523 19.7903 20.019 19.9671 19.8425 20.0922C19.6661 20.2173 19.4551 20.2845 19.2388 20.2846Z" fill="black"/>
<path d="M17.4911 25.8566C12.8821 25.8566 9.13395 22.1084 9.13395 17.4994C9.13395 12.8905 12.8821 9.1423 17.4911 9.1423C22.1001 9.1423 25.8482 12.8905 25.8482 17.4994C25.8482 22.1084 22.1001 25.8566 17.4911 25.8566ZM17.4911 11.2316C14.0354 11.2316 11.2232 14.0438 11.2232 17.4994C11.2232 20.9551 14.0354 23.7673 17.4911 23.7673C20.9468 23.7673 23.7589 20.9551 23.7589 17.4994C23.7589 14.0438 20.9468 11.2316 17.4911 11.2316ZM4.67681 34.2137C4.40167 34.2137 4.13764 34.1052 3.94205 33.9117C3.74646 33.7182 3.6351 33.4553 3.63217 33.1802L3.56252 26.9124C3.56161 26.7744 3.58792 26.6376 3.63996 26.5098C3.69199 26.382 3.76873 26.2658 3.86577 26.1677C3.96281 26.0696 4.07825 25.9917 4.20547 25.9383C4.33269 25.8849 4.4692 25.8571 4.60717 25.8566H10.875C11.1521 25.8566 11.4178 25.9666 11.6137 26.1626C11.8096 26.3585 11.9197 26.6242 11.9197 26.9012C11.9197 27.1783 11.8096 27.444 11.6137 27.6399C11.4178 27.8358 11.1521 27.9459 10.875 27.9459H5.66434L5.72145 33.1579C5.72311 33.2952 5.69767 33.4314 5.64659 33.5588C5.59551 33.6862 5.5198 33.8022 5.42379 33.9003C5.32779 33.9984 5.21337 34.0765 5.0871 34.1303C4.96083 34.1841 4.82519 34.2125 4.68795 34.2137H4.67681ZM30.375 9.1423H24.1072C23.8301 9.1423 23.5644 9.03224 23.3685 8.83633C23.1726 8.64042 23.0625 8.37471 23.0625 8.09766C23.0625 7.8206 23.1726 7.55489 23.3685 7.35898C23.5644 7.16307 23.8301 7.05301 24.1072 7.05301H29.3304V1.8298C29.3304 1.55274 29.4404 1.28703 29.6363 1.09113C29.8323 0.895217 30.098 0.785156 30.375 0.785156C30.6521 0.785156 30.9178 0.895217 31.1137 1.09113C31.3096 1.28703 31.4197 1.55274 31.4197 1.8298V8.09766C31.4197 8.37471 31.3096 8.64042 31.1137 8.83633C30.9178 9.03224 30.6521 9.1423 30.375 9.1423Z" fill="black"/>
<path d="M2.49446 23.0709C2.26998 23.0708 2.05149 22.9984 1.87136 22.8645C1.69123 22.7305 1.55904 22.5421 1.49439 22.3271C1.02227 20.7613 0.782001 19.1348 0.78125 17.4994C0.78125 8.28291 8.279 0.785156 17.4955 0.785156C22.6338 0.785156 27.396 3.08755 30.5591 7.10316C30.6477 7.21051 30.7139 7.33447 30.7539 7.46776C30.7938 7.60105 30.8068 7.74099 30.7919 7.87935C30.7771 8.01771 30.7347 8.15171 30.6674 8.27348C30.6 8.39525 30.509 8.50233 30.3997 8.58845C30.2904 8.67456 30.165 8.73797 30.0308 8.77494C29.8967 8.81191 29.7565 8.82171 29.6185 8.80376C29.4805 8.78581 29.3475 8.74047 29.2272 8.6704C29.107 8.60033 29.002 8.50694 28.9184 8.39573C26.1549 4.88712 21.9917 2.87444 17.4955 2.87444C9.43089 2.87444 2.87054 9.4348 2.87054 17.4994C2.87054 18.9285 3.08086 20.3492 3.49454 21.7254C3.54145 21.8814 3.55123 22.0461 3.52311 22.2066C3.49499 22.367 3.42974 22.5187 3.33257 22.6494C3.2354 22.7801 3.10901 22.8863 2.96349 22.9595C2.81797 23.0327 2.65735 23.0708 2.49446 23.0709ZM17.4955 34.2137C12.3573 34.2137 7.59511 31.9113 4.43193 27.8957C4.34339 27.7884 4.27718 27.6644 4.23721 27.5311C4.19723 27.3978 4.18429 27.2579 4.19915 27.1195C4.214 26.9812 4.25635 26.8472 4.3237 26.7254C4.39106 26.6036 4.48206 26.4965 4.59137 26.4104C4.70068 26.3243 4.8261 26.2609 4.96025 26.2239C5.09441 26.187 5.2346 26.1772 5.37259 26.1951C5.51059 26.2131 5.6436 26.2584 5.76383 26.3285C5.88406 26.3986 5.98907 26.4919 6.07271 26.6032C8.83614 30.1118 12.9994 32.1244 17.4955 32.1244C25.5602 32.1244 32.1205 25.5641 32.1205 17.4994C32.1199 16.0679 31.9097 14.6442 31.4965 13.2735C31.4548 13.1416 31.4397 13.0027 31.4521 12.8648C31.4645 12.727 31.5041 12.593 31.5687 12.4707C31.6333 12.3483 31.7216 12.24 31.8284 12.152C31.9352 12.064 32.0584 11.9982 32.1909 11.9582C32.3234 11.9183 32.4625 11.905 32.6002 11.9193C32.7378 11.9336 32.8712 11.975 32.9927 12.0413C33.1142 12.1075 33.2213 12.1973 33.3078 12.3053C33.3943 12.4133 33.4585 12.5374 33.4967 12.6704C33.9689 14.2415 34.2098 15.8656 34.2098 17.4994C34.2098 26.716 26.7121 34.2137 17.4955 34.2137Z" fill="black"/>
</g>
<defs>
<clipPath id="clip0_1_3942">
<rect width="33.4286" height="33.4286" fill="white" transform="translate(0.78125 0.785156)"/>
</clipPath>
</defs>
</svg>
