<?xml version="1.0" standalone="no"?>
<!DOCTYPE svg PUBLIC "-//W3C//DTD SVG 1.1//EN" "http://www.w3.org/Graphics/SVG/1.1/DTD/svg11.dtd" >
<svg xmlns="http://www.w3.org/2000/svg" xmlns:xlink="http://www.w3.org/1999/xlink" version="1.1">
<metadata>
Created by FontForge 20201107 at Sat Aug 10 16:21:47 2024
 By 
copyright missing
</metadata>
<defs>
<font id="FormulaCondensed-Bold" horiz-adv-x="811" >
  <font-face 
    font-family="Formula Condensed"
    font-weight="700"
    font-stretch="normal"
    units-per-em="2048"
    panose-1="0 0 8 0 0 0 0 0 0 0"
    ascent="1638"
    descent="-410"
    x-height="1331"
    cap-height="1638"
    bbox="-737 -614 3064 2032"
    underline-thickness="102"
    underline-position="-204"
    unicode-range="U+0020-25CA"
  />
<missing-glyph horiz-adv-x="1126" 
d="M924 1638v-2252h-715v2252h715zM750 1487h-371v-74h145v-84h-147v-74h373v74h-148v84h148v74zM602 1196h-225v-233h373v75h-148v158zM524 1120v-82h-73v82h73zM750 901h-373v-74h147v-84h-147v-73h225v157h148v74zM750 766h-74v-148h-299v-77h373v225zM750 492h-226v-125
h78v51h74v-107h-225v181h-74v-254h373v254zM750 102h-373v-254h373v254zM676 29v-107h-225v107h225zM750 -205h-373v-74h158l-158 -106v-74h373v74h-230l158 106h72v74z" />
    <glyph glyph-name=".notdef" horiz-adv-x="1126" 
d="M924 1638v-2252h-715v2252h715zM750 1487h-371v-74h145v-84h-147v-74h373v74h-148v84h148v74zM602 1196h-225v-233h373v75h-148v158zM524 1120v-82h-73v82h73zM750 901h-373v-74h147v-84h-147v-73h225v157h148v74zM750 766h-74v-148h-299v-77h373v225zM750 492h-226v-125
h78v51h74v-107h-225v181h-74v-254h373v254zM750 102h-373v-254h373v254zM676 29v-107h-225v107h225zM750 -205h-373v-74h158l-158 -106v-74h373v74h-230l158 106h72v74z" />
    <glyph glyph-name=".null" horiz-adv-x="0" 
 />
    <glyph glyph-name="nonmarkingreturn" horiz-adv-x="682" 
 />
    <glyph glyph-name="space" unicode=" " horiz-adv-x="286" 
 />
    <glyph glyph-name="exclam" unicode="!" horiz-adv-x="368" 
d="M31 1638h307l-21 -1126h-266zM184 -20q-69 0 -116.5 44.5t-47.5 116.5q0 75 47.5 120.5t116.5 45.5t116.5 -45.5t47.5 -120.5q0 -72 -47.5 -116.5t-116.5 -44.5z" />
    <glyph glyph-name="quotedbl" unicode="&#x22;" horiz-adv-x="307" 
d="M20 1659h103v-512h-103v512zM184 1659h103v-512h-103v512z" />
    <glyph glyph-name="numbersign" unicode="#" horiz-adv-x="1476" 
d="M1456 1034h-360l-158 -430h360v-102h-397l-188 -522h-109l189 522h-342l-189 -522h-108l188 522h-322v102h359l158 430h-359v103h395l189 522h108l-188 -522h342l188 522h109l-188 -522h323v-103zM829 604l158 430h-342l-158 -430h342z" />
    <glyph glyph-name="dollar" unicode="$" horiz-adv-x="790" 
d="M770 477q0 -152 -80 -238.5t-244 -95.5v-163h-102v167q-159 18 -241.5 131.5t-82.5 342.5h103q0 -183 52.5 -268t168.5 -103v551q-147 54 -225 140t-78 230q0 136 77 223t226 99v166h102v-166q84 -10 145 -46.5t94.5 -93.5t49 -121.5t15.5 -141.5h-103q0 267 -201 299
v-521q42 -18 71 -31.5t66 -34.5t61.5 -41.5t50.5 -50t41 -62.5t24.5 -76.5t9.5 -94.5zM143 1171q0 -100 54 -160t147 -102v482q-201 -19 -201 -220zM446 246q123 7 172.5 66t49.5 165q0 58 -18 104.5t-52 79.5t-69 54.5t-83 42.5v-512z" />
    <glyph glyph-name="percent" unicode="%" horiz-adv-x="1003" 
d="M270 1044q67 0 117 25.5t78 70.5t41.5 98t13.5 114t-13.5 114t-41.5 97.5t-78 70t-117 25.5t-117 -25.5t-78 -70t-41.5 -97.5t-13.5 -114t13.5 -114t41.5 -98t78 -70.5t117 -25.5zM860 1659l-608 -1679h-109l609 1679h108zM270 1147q-147 0 -147 205q0 204 147 204
q148 0 148 -204q0 -205 -148 -205zM733 -20q67 0 117 25.5t78 70t41.5 97.5t13.5 114t-13.5 114t-41.5 97.5t-78 70t-117 25.5t-117 -25.5t-78 -70t-41.5 -97.5t-13.5 -114t13.5 -114t41.5 -97.5t78 -70t117 -25.5zM733 82q-147 0 -147 205t147 205q148 0 148 -205
t-148 -205z" />
    <glyph glyph-name="ampersand" unicode="&#x26;" horiz-adv-x="927" 
d="M907 965v-267h-96v-190q0 -273 -100.5 -400.5t-298.5 -127.5q-191 0 -291.5 111.5t-100.5 314.5q0 321 207 425q-207 98 -207 402q0 203 100.5 314.5t291.5 111.5q399 0 399 -508h-307q0 201 -92 201q-84 0 -84 -160q0 -127 35.5 -177t130.5 -50h10v96h307v-96h96z
M504 508v190h-10q-96 0 -131 -54t-35 -198q0 -159 84 -159q92 0 92 221z" />
    <glyph glyph-name="quotesingle" unicode="'" horiz-adv-x="143" 
d="M20 1659h103v-512h-103v512z" />
    <glyph glyph-name="parenleft" unicode="(" horiz-adv-x="307" 
d="M184 1659h103q-86 -210 -125 -411.5t-39 -428.5t39 -428t125 -411h-103q-86 210 -125 411t-39 428t39 428.5t125 411.5z" />
    <glyph glyph-name="parenright" unicode=")" horiz-adv-x="307" 
d="M123 1659q86 -210 125 -411.5t39 -428.5t-39 -428t-125 -411h-103q86 210 125 411t39 428t-39 428.5t-125 411.5h103z" />
    <glyph glyph-name="asterisk" unicode="*" horiz-adv-x="544" 
d="M524 1450l-170 -98l170 -99l-41 -69l-170 98v-238h-82v238l-170 -98l-41 69l170 99l-170 98l41 70l170 -99v238h82v-238l170 99z" />
    <glyph glyph-name="plus" unicode="+" horiz-adv-x="880" 
d="M860 727v-102h-368v-369h-103v369h-369v102h369v369h103v-369h368z" />
    <glyph glyph-name="comma" unicode="," horiz-adv-x="368" 
d="M20 141q0 75 47.5 120.5t116.5 45.5q72 0 118 -52.5t46 -154.5q0 -28 -5.5 -59t-23.5 -75.5t-47.5 -83t-84 -77.5t-126.5 -63v102q131 55 144 156q-69 -15 -127 27t-58 114z" />
    <glyph glyph-name="hyphen" unicode="-" horiz-adv-x="880" 
d="M20 727h840v-102h-840v102z" />
    <glyph glyph-name="period" unicode="." horiz-adv-x="368" 
d="M184 -20q-69 0 -116.5 44.5t-47.5 116.5q0 75 47.5 120.5t116.5 45.5t116.5 -45.5t47.5 -120.5q0 -72 -47.5 -116.5t-116.5 -44.5z" />
    <glyph glyph-name="slash" unicode="/" horiz-adv-x="757" 
d="M737 1659l-608 -1679h-109l609 1679h108z" />
    <glyph glyph-name="zero" unicode="0" 
d="M406 1659q191 0 288 -112.5t97 -354.5v-746q0 -242 -97 -354t-288 -112t-288.5 112t-97.5 354v746q0 242 97.5 354.5t288.5 112.5zM406 1352q-49 0 -63.5 -36.5t-14.5 -144.5v-331l155 256v75q0 109 -14 145t-63 36zM406 287q49 0 63 35.5t14 144.5v332l-155 -256v-76
q0 -108 14.5 -144t63.5 -36z" />
    <glyph glyph-name="one" unicode="1" horiz-adv-x="770" 
d="M539 307h211v-307h-730v307h211v963q-19 -27 -34 -41t-60.5 -27.5t-116.5 -13.5v287q187 0 252 163h267v-1331z" />
    <glyph glyph-name="two" unicode="2" horiz-adv-x="831" 
d="M483 623q-100 -82 -127.5 -139.5t-27.5 -176.5h483v-307h-791v307q0 57 5 107t12 89t22 76.5t27 64t36 56.5t39.5 47.5t47.5 45t50 41.5t56 43q51 39 79.5 65t57 64t40.5 83t12 103q0 86 -18.5 123t-55.5 37q-40 0 -61 -51t-21 -191h-307q0 288 96 418.5t293 130.5
q381 0 381 -467q0 -64 -11.5 -122.5t-26.5 -102.5t-45 -90.5t-52 -75t-63.5 -67.5t-63 -57t-66.5 -54z" />
    <glyph glyph-name="three" unicode="3" horiz-adv-x="831" 
d="M604 831q207 -104 207 -425q0 -203 -100 -314.5t-291 -111.5q-198 0 -299 127.5t-101 400.5h308q0 -221 92 -221q84 0 84 159q0 144 -35 198t-131 54h-82v267h82q95 0 130.5 50t35.5 177q0 160 -84 160q-92 0 -92 -201h-308q0 508 400 508q191 0 291 -111.5t100 -314.5
q0 -304 -207 -402z" />
    <glyph glyph-name="four" unicode="4" horiz-adv-x="770" 
d="M750 598v-307h-109v-291h-307v291h-314v307l314 1040h307v-1040h109zM182 598h152v508z" />
    <glyph glyph-name="five" unicode="5" horiz-adv-x="831" 
d="M516 1098q295 0 295 -559q0 -294 -97 -426.5t-294 -132.5q-198 0 -299 127.5t-101 400.5h308q0 -221 92 -221q26 0 43 18t29 75.5t12 158.5t-12 158.5t-30 75.5t-46 18q-37 0 -57 -23t-31 -76h-287l41 946h663v-307h-395l-20 -307q90 74 186 74z" />
    <glyph glyph-name="six" unicode="6" horiz-adv-x="831" 
d="M522 1098q137 0 213 -135t76 -424q0 -293 -99.5 -426t-295.5 -133q-199 0 -297 132t-99 427v540q1 315 88.5 447.5t288.5 132.5q185 0 279 -114.5t94 -332.5h-307q0 74 -15.5 107t-50.5 33q-37 0 -53 -41t-16 -150v-168q82 105 194 105zM416 287q28 0 46 18t30 75.5
t12 158.5t-12 158.5t-30 75.5t-46 18t-46 -18t-30 -75.5t-12 -158.5t12 -158.5t30 -75.5t46 -18z" />
    <glyph glyph-name="seven" unicode="7" horiz-adv-x="770" 
d="M20 1638h730v-307q-56 -93 -99.5 -191.5t-72.5 -187.5t-49.5 -193t-31.5 -187.5t-17 -192.5t-7.5 -187.5t-1.5 -191.5h-307q0 151 5.5 268t25.5 263t54.5 269.5t96.5 262.5t148 268h-474v307z" />
    <glyph glyph-name="eight" unicode="8" 
d="M569 858q45 -18 82 -47t70 -74t51.5 -112.5t18.5 -151.5v-37q0 -235 -97.5 -345.5t-287.5 -110.5t-288 111t-98 345v37q0 84 18.5 151.5t51.5 112.5t70 74t82 47q-201 82 -201 354v41q0 198 96 302t269 104t268.5 -104t95.5 -302v-41q0 -272 -201 -354zM406 1352
q-49 0 -63.5 -34.5t-14.5 -135.5t14.5 -135.5t63.5 -34.5t63 34.5t14 135.5t-14 135.5t-63 34.5zM483 477v37q0 117 -14 154t-63 37q-50 0 -64 -37.5t-14 -153.5v-37q0 -116 14 -153t64 -37t63.5 37t13.5 153z" />
    <glyph glyph-name="nine" unicode="9" horiz-adv-x="831" 
d="M416 1659q199 0 296.5 -132t98.5 -427v-541q-1 -314 -88.5 -446.5t-288.5 -132.5q-185 0 -279 114t-94 332h308q0 -74 15 -106.5t50 -32.5q37 0 53.5 41t16.5 149v168q-81 -104 -195 -104q-137 0 -213 135t-76 424q0 293 100 426t296 133zM416 848q28 0 46 18t30 75.5
t12 158.5t-12 158.5t-30 75.5t-46 18t-46 -18t-30 -75.5t-12 -158.5t12 -158.5t30 -75.5t46 -18z" />
    <glyph glyph-name="colon" unicode=":" horiz-adv-x="368" 
d="M184 655q-69 0 -116.5 45t-47.5 117q0 75 47.5 120.5t116.5 45.5t116.5 -45.5t47.5 -120.5q0 -72 -47.5 -117t-116.5 -45zM184 -20q-69 0 -116.5 44.5t-47.5 116.5q0 75 47.5 120.5t116.5 45.5t116.5 -45.5t47.5 -120.5q0 -72 -47.5 -116.5t-116.5 -44.5z" />
    <glyph glyph-name="semicolon" unicode=";" horiz-adv-x="368" 
d="M184 655q-69 0 -116.5 45t-47.5 117q0 75 47.5 120.5t116.5 45.5t116.5 -45.5t47.5 -120.5q0 -72 -47.5 -117t-116.5 -45zM20 141q0 75 47.5 120.5t116.5 45.5q72 0 118 -52.5t46 -154.5q0 -28 -5.5 -59t-23.5 -75.5t-47.5 -83t-84 -77.5t-126.5 -63v102q131 55 144 156
q-69 -15 -127 27t-58 114z" />
    <glyph glyph-name="less" unicode="&#x3c;" horiz-adv-x="880" 
d="M860 1042v-102l-696 -264l696 -264v-103l-840 326v82z" />
    <glyph glyph-name="equal" unicode="=" horiz-adv-x="880" 
d="M20 829h840v-102h-840v102zM20 625h840v-103h-840v103z" />
    <glyph glyph-name="greater" unicode="&#x3e;" horiz-adv-x="880" 
d="M20 1042l840 -325v-82l-840 -326v103l697 264l-697 264v102z" />
    <glyph glyph-name="question" unicode="?" 
d="M414 1352q-86 0 -86 -201h-308q0 259 99 383.5t295 124.5q187 0 282 -104t95 -281q0 -66 -16.5 -123.5t-43 -101.5t-58 -86t-63.5 -87t-58.5 -94.5t-43 -119t-16.5 -150.5h-267q0 99 14 182.5t37 139.5t50.5 103t55 82.5t50.5 67.5t37 69t14 77q0 119 -69 119zM358 307
q69 0 116.5 -45.5t47.5 -120.5q0 -72 -47.5 -116.5t-116.5 -44.5t-116 44.5t-47 116.5q0 75 47 120.5t116 45.5z" />
    <glyph glyph-name="at" unicode="@" horiz-adv-x="1103" 
d="M729 1151h102v-653q0 -100 8 -155.5t22.5 -75t39.5 -19.5q27 0 43.5 35t26.5 131t10 262q0 106 -6.5 193t-22.5 174t-45 151.5t-71 115t-105 77t-143 26.5q-120 0 -210.5 -52.5t-145.5 -149t-82 -225.5t-27 -290q0 -131 15 -236.5t50.5 -196.5t91.5 -152.5t141.5 -96
t196.5 -34.5q197 0 349 61v-102q-154 -62 -349 -62q-133 0 -236 39.5t-170.5 109.5t-111 174t-62 225t-18.5 271q0 147 20.5 271t64.5 226.5t110 173.5t160.5 110t212.5 39q117 0 205 -44t142.5 -118t88.5 -184t46.5 -228.5t12.5 -265.5q0 -103 -4.5 -179.5t-16 -145.5
t-31.5 -112.5t-52.5 -68.5t-77.5 -25q-82 0 -120.5 56.5t-47.5 179.5q-73 -152 -205 -152q-130 0 -196 121.5t-66 349.5t66 349.5t196 121.5q128 0 201 -145v125zM559 332q90 0 130 86t40 282q0 195 -41 282t-129 87q-190 0 -190 -369q0 -368 190 -368z" />
    <glyph glyph-name="A" unicode="A" horiz-adv-x="862" 
d="M535 0l-23 279h-162l-22 -279h-308l201 1638h420l201 -1638h-307zM375 586h112l-55 727z" />
    <glyph glyph-name="B" unicode="B" horiz-adv-x="815" 
d="M610 862q185 -91 185 -352v-84q0 -231 -103.5 -328t-363.5 -98h-308v1638h308q133 0 217.5 -22.5t136.5 -77.5t72 -136.5t20 -209.5v-14q0 -234 -164 -316zM467 1192q0 89 -25 114t-114 25v-334q89 0 114 25.5t25 114.5v55zM328 307q93 0 126 26.5t33 112.5v105
q0 86 -33 112.5t-126 26.5v-383z" />
    <glyph glyph-name="C" unicode="C" 
d="M483 973v198q0 109 -14 145t-63 36t-63.5 -36.5t-14.5 -144.5v-704q0 -108 14.5 -144t63.5 -36t63 35.5t14 144.5v199h308v-220q0 -242 -97 -354t-288 -112t-288.5 112t-97.5 354v746q0 242 97.5 354.5t288.5 112.5t288 -112.5t97 -354.5v-219h-308z" />
    <glyph glyph-name="D" unicode="D" horiz-adv-x="815" 
d="M328 1638q262 0 364.5 -99t102.5 -347v-746q0 -246 -103 -346t-364 -100h-308v1638h308zM328 307q93 0 126 26.5t33 112.5v746q0 86 -33 112.5t-126 26.5v-1024z" />
    <glyph glyph-name="E" unicode="E" horiz-adv-x="624" 
d="M604 1331h-276v-358h276v-307h-276v-359h276v-307h-584v1638h584v-307z" />
    <glyph glyph-name="F" unicode="F" horiz-adv-x="624" 
d="M604 1331h-276v-440h276v-307h-276v-584h-308v1638h584v-307z" />
    <glyph glyph-name="G" unicode="G" 
d="M791 973h-308v198q0 108 -14.5 144.5t-62.5 36.5q-49 0 -63.5 -36.5t-14.5 -144.5v-704q0 -108 14.5 -144t63.5 -36t63 35.5t14 144.5v76h-77v307h385v-850h-123l-50 117q-108 -137 -260 -137q-169 0 -253.5 111.5t-84.5 354.5v746q0 242 97.5 354.5t288.5 112.5
t288 -112.5t97 -354.5v-219z" />
    <glyph glyph-name="H" unicode="H" horiz-adv-x="847" 
d="M520 1638h307v-1638h-307v666h-192v-666h-308v1638h308v-665h192v665z" />
    <glyph glyph-name="I" unicode="I" horiz-adv-x="348" 
d="M20 1638h308v-1638h-308v1638z" />
    <glyph glyph-name="J" unicode="J" 
d="M791 1638v-1192q0 -242 -97 -354t-288 -112t-288.5 112t-97.5 354v123h308v-102q0 -108 14.5 -144t63.5 -36t63 35.5t14 144.5v1171h308z" />
    <glyph glyph-name="K" unicode="K" horiz-adv-x="856" 
d="M20 1638h308v-1638h-308v1638zM836 1638l-203 -819l203 -819h-318l-190 819l190 819h318z" />
    <glyph glyph-name="L" unicode="L" horiz-adv-x="624" 
d="M328 307h276v-307h-584v1638h308v-1331z" />
    <glyph glyph-name="M" unicode="M" horiz-adv-x="1052" 
d="M725 1638h307v-1638h-307v702l-127 -702h-143l-127 702v-702h-308v1638h308l198 -946z" />
    <glyph glyph-name="N" unicode="N" horiz-adv-x="919" 
d="M592 1638h307v-1638h-307l-264 809v-809h-308v1638h308l264 -809v809z" />
    <glyph glyph-name="O" unicode="O" 
d="M406 1659q191 0 288 -112.5t97 -354.5v-746q0 -242 -97 -354t-288 -112t-288.5 112t-97.5 354v746q0 242 97.5 354.5t288.5 112.5zM483 467v704q0 109 -14 145t-63 36t-63.5 -36.5t-14.5 -144.5v-704q0 -108 14.5 -144t63.5 -36t63 35.5t14 144.5z" />
    <glyph glyph-name="P" unicode="P" horiz-adv-x="815" 
d="M328 1638q262 0 364.5 -99t102.5 -347v-207q0 -245 -102.5 -343.5t-364.5 -102.5v-539h-308v1638h308zM328 846q93 0 126 26.5t33 112.5v207q0 86 -33 112.5t-126 26.5v-485z" />
    <glyph glyph-name="Q" unicode="Q" 
d="M406 1659q191 0 288 -112.5t97 -354.5v-746q0 -396 -275 -456q76 -9 132.5 -30t121.5 -62v-308q-124 74 -215 101t-252 43v254q-283 58 -283 458v746q0 242 97.5 354.5t288.5 112.5zM483 467v704q0 109 -14 145t-63 36t-63.5 -36.5t-14.5 -144.5v-704q0 -108 14.5 -144
t63.5 -36t63 35.5t14 144.5z" />
    <glyph glyph-name="R" unicode="R" horiz-adv-x="817" 
d="M795 145q0 -117 22 -145h-307q-23 29 -23 145v316q0 86 -33 112.5t-126 26.5v-600h-308v1638h308q262 0 364.5 -99t102.5 -347v-145q0 -256 -152 -367q79 -33 115.5 -99.5t36.5 -181.5v-254zM487 1192q0 86 -33 112.5t-126 26.5v-424q93 0 126 27t33 113v145z" />
    <glyph glyph-name="S" unicode="S" 
d="M496 979q61 -46 98 -78.5t79 -83t64.5 -102t38 -125.5t15.5 -164q0 -222 -90 -334t-287 -112q-105 0 -175 25.5t-121.5 91t-74.5 181t-23 291.5h308q0 -118 10.5 -180.5t27.5 -82t48 -19.5q41 0 55 31t14 108q0 92 -28 145t-127 134q-10 8 -44.5 35.5t-46 37t-41.5 36
t-42 41t-35.5 43.5t-34 51t-26 56t-21.5 66.5t-11.5 74.5t-5.5 87q0 426 371 426q194 0 286.5 -123t92.5 -385h-307q0 115 -17.5 158t-54.5 43q-34 0 -48.5 -29t-14.5 -90q0 -44 9 -76.5t33 -63t50 -53.5t76 -61z" />
    <glyph glyph-name="T" unicode="T" horiz-adv-x="770" 
d="M750 1638v-307h-211v-1331h-308v1331h-211v307h730z" />
    <glyph glyph-name="U" unicode="U" 
d="M791 1638v-1192q0 -242 -97 -354t-288 -112t-288.5 112t-97.5 354v1192h308v-1171q0 -108 14.5 -144t63.5 -36t63 35.5t14 144.5v1171h308z" />
    <glyph glyph-name="V" unicode="V" horiz-adv-x="862" 
d="M535 1638h307l-201 -1638h-420l-201 1638h308l104 -1312z" />
    <glyph glyph-name="W" unicode="W" horiz-adv-x="1542" 
d="M1174 1638h348l-283 -1638h-528v1198l-162 -1198h-529v1638h308v-1296l155 1296h535v-1296z" />
    <glyph glyph-name="X" unicode="X" horiz-adv-x="937" 
d="M20 0l244 819l-244 819h328l121 -594l121 594h328l-244 -819l244 -819h-328l-121 594l-121 -594h-328z" />
    <glyph glyph-name="Y" unicode="Y" horiz-adv-x="937" 
d="M315 573l-295 1065h328l121 -700l121 700h328l-295 -1065v-573h-308v573z" />
    <glyph glyph-name="Z" unicode="Z" horiz-adv-x="747" 
d="M727 1638v-307l-399 -1024h399v-307h-707v307l400 1024h-400v307h707z" />
    <glyph glyph-name="bracketleft" unicode="[" horiz-adv-x="307" 
d="M287 1577h-164v-1516h164v-81h-267v1679h267v-82z" />
    <glyph glyph-name="backslash" unicode="\" horiz-adv-x="757" 
d="M20 1659h109l608 -1679h-108z" />
    <glyph glyph-name="bracketright" unicode="]" horiz-adv-x="307" 
d="M287 1659v-1679h-267v81h164v1516h-164v82h267z" />
    <glyph glyph-name="asciicircum" unicode="^" horiz-adv-x="688" 
d="M668 1024h-111l-213 524l-213 -524h-111l250 614h148z" />
    <glyph glyph-name="underscore" unicode="_" horiz-adv-x="1228" 
d="M20 -10h1188v-103h-1188v103z" />
    <glyph glyph-name="grave" unicode="`" horiz-adv-x="624" 
d="M604 1532l-20 -78l-564 150l21 79z" />
    <glyph glyph-name="a" unicode="a" horiz-adv-x="851" 
d="M811 197q0 -53 0.5 -77t5 -56t14.5 -64h-266q-34 20 -47.5 65t-13.5 85q-36 -90 -87.5 -130t-137.5 -40q-111 0 -185 87.5t-74 258.5q0 96 26.5 172t69 124t94 86t103 66t94.5 54.5t70 62t27 78.5q0 56 -17 76t-59 20q-44 0 -62 -32.5t-18 -106.5v-41h-307v41
q0 218 93.5 322t293.5 104q199 0 291 -104t92 -322v-729zM504 317v322q-19 -28 -53.5 -61t-59 -56t-44 -60.5t-19.5 -80.5q0 -58 23 -86.5t63 -28.5q49 0 90 51z" />
    <glyph glyph-name="b" unicode="b" 
d="M567 1352q56 0 95.5 -17.5t64.5 -49t39 -85.5t19.5 -118t5.5 -156v-520q0 -92 -5.5 -156t-19.5 -118t-39 -85.5t-64.5 -49t-95.5 -17.5q-91 0 -149.5 50t-89.5 120q0 -40 -14 -85t-48 -65h-266q10 32 14.5 64t5 56t0.5 77v1441h308v-456q31 70 89.5 120t149.5 50z
M483 385v561q0 70 -18 94.5t-59 24.5t-59.5 -24.5t-18.5 -94.5v-561q0 -70 18.5 -94.5t59.5 -24.5t59 24.5t18 94.5z" />
    <glyph glyph-name="c" unicode="c" 
d="M483 809v76q0 108 -14.5 144t-62.5 36q-49 0 -63.5 -36t-14.5 -144v-439q0 -108 14.5 -144t63.5 -36t63 35.5t14 144.5v76h308v-76q0 -242 -97 -354t-288 -112t-288.5 112t-97.5 354v439q0 242 97.5 354.5t288.5 112.5t288 -112.5t97 -354.5v-76h-308z" />
    <glyph glyph-name="d" unicode="d" 
d="M791 197q0 -53 0.5 -77t5 -56t14.5 -64h-266q-34 20 -48 65t-14 85q-31 -70 -89.5 -120t-149.5 -50q-56 0 -95.5 17.5t-64.5 49t-39 85.5t-19.5 118t-5.5 156v520q0 92 5.5 156t19.5 118t39 85.5t64.5 49t95.5 17.5q91 0 149.5 -50t89.5 -120v456h308v-1441zM483 385v561
q0 70 -18 94.5t-59 24.5t-59.5 -24.5t-18.5 -94.5v-561q0 -70 18.5 -94.5t59.5 -24.5t59 24.5t18 94.5z" />
    <glyph glyph-name="e" unicode="e" 
d="M406 1352q191 0 288 -112.5t97 -354.5v-281h-463v-158q0 -108 14.5 -144t63.5 -36t63 35.5t14 144.5v76h308v-76q0 -242 -97 -354t-288 -112t-288.5 112t-97.5 354v439q0 242 97.5 354.5t288.5 112.5zM483 809v76q0 108 -14.5 144t-62.5 36q-49 0 -63.5 -36t-14.5 -144
v-76h155z" />
    <glyph glyph-name="f" unicode="f" horiz-adv-x="675" 
d="M590 1413q-76 0 -107.5 -21t-31.5 -81v-62q18 29 41 47t54 25t51.5 8.5t57.5 1.5v-287h-204v-1044h-308v1044h-123v287h123q0 60 8 106t29 89.5t57 71.5t94 44.5t136 16.5q93 0 188 -21v-225h-65z" />
    <glyph glyph-name="g" unicode="g" 
d="M483 1331h308v-1294q0 -87 -5.5 -148t-20 -114t-38.5 -86t-63 -56t-92 -33t-126 -10h-364v287h283q64 0 91 31t27 129v113q-31 -70 -89.5 -120t-149.5 -50q-56 0 -95.5 17.5t-64.5 49t-39 85.5t-19.5 118t-5.5 156v520q0 92 5.5 156t19.5 118t39 85.5t64.5 49t95.5 17.5
q91 0 149.5 -50t89.5 -120v149zM406 266q41 0 59 24.5t18 94.5v561q0 70 -18 94.5t-59 24.5t-59.5 -24.5t-18.5 -94.5v-561q0 -70 18.5 -94.5t59.5 -24.5z" />
    <glyph glyph-name="h" unicode="h" 
d="M567 1352q56 0 95.5 -17.5t64.5 -49t39 -85.5t19.5 -118t5.5 -156v-926h-308v946q0 70 -18 94.5t-59 24.5t-59.5 -24.5t-18.5 -94.5v-946h-308v1638h308v-456q31 70 89.5 120t149.5 50z" />
    <glyph glyph-name="i" unicode="i" horiz-adv-x="348" 
d="M174 1393q-63 0 -108.5 38.5t-45.5 92.5q0 57 45.5 96t108.5 39t108.5 -39t45.5 -96q0 -54 -45.5 -92.5t-108.5 -38.5zM20 1331h308v-1331h-308v1331z" />
    <glyph glyph-name="j" unicode="j" horiz-adv-x="532" 
d="M358 1393q-63 0 -108 38.5t-45 92.5q0 57 45 96t108 39t108.5 -39t45.5 -96q0 -54 -45.5 -92.5t-108.5 -38.5zM205 37v1294h307v-1294q0 -105 -8 -174t-29.5 -125t-61 -86.5t-98.5 -46t-147 -15.5h-168v287h86q64 0 91.5 31t27.5 129z" />
    <glyph glyph-name="k" unicode="k" horiz-adv-x="856" 
d="M20 1638h308v-1638h-308v1638zM836 1331l-203 -665l203 -666h-318l-190 666l190 665h318z" />
    <glyph glyph-name="l" unicode="l" horiz-adv-x="348" 
d="M20 1638h308v-1638h-308v1638z" />
    <glyph glyph-name="m" unicode="m" horiz-adv-x="1232" 
d="M999 1352q53 0 90.5 -17t61.5 -49t37.5 -86t18.5 -118t5 -156v-926h-307v946q0 69 -16.5 94t-50.5 25t-51 -25t-17 -94v-20v-926h-307v946q0 69 -17 94t-51 25t-50.5 -25t-16.5 -94v-946h-308v1331h308v-149q31 69 88 119.5t141 50.5q86 0 132 -44t65 -137
q29 74 94.5 127.5t150.5 53.5z" />
    <glyph glyph-name="n" unicode="n" 
d="M567 1352q56 0 95.5 -17.5t64.5 -49t39 -85.5t19.5 -118t5.5 -156v-926h-308v946q0 70 -18 94.5t-59 24.5t-59.5 -24.5t-18.5 -94.5v-946h-308v1331h308v-149q31 70 89.5 120t149.5 50z" />
    <glyph glyph-name="o" unicode="o" 
d="M20 446v439q0 242 97.5 354.5t288.5 112.5t288 -112.5t97 -354.5v-439q0 -242 -97 -354t-288 -112t-288.5 112t-97.5 354zM328 446q0 -108 14.5 -144t63.5 -36t63 35.5t14 144.5v439q0 108 -14.5 144t-62.5 36q-49 0 -63.5 -36t-14.5 -144v-439z" />
    <glyph glyph-name="p" unicode="p" 
d="M567 1352q56 0 95.5 -17.5t64.5 -49t39 -85.5t19.5 -118t5.5 -156v-520q0 -92 -5.5 -156t-19.5 -118t-39 -85.5t-64.5 -49t-95.5 -17.5q-91 0 -149.5 50t-89.5 120v-560h-308v1741h308v-149q31 70 89.5 120t149.5 50zM483 385v561q0 70 -18 94.5t-59 24.5t-59.5 -24.5
t-18.5 -94.5v-561q0 -70 18.5 -94.5t59.5 -24.5t59 24.5t18 94.5z" />
    <glyph glyph-name="q" unicode="q" 
d="M483 1331h308v-1741h-308v560q-31 -70 -89.5 -120t-149.5 -50q-56 0 -95.5 17.5t-64.5 49t-39 85.5t-19.5 118t-5.5 156v520q0 92 5.5 156t19.5 118t39 85.5t64.5 49t95.5 17.5q91 0 149.5 -50t89.5 -120v149zM483 385v561q0 70 -18 94.5t-59 24.5t-59.5 -24.5
t-18.5 -94.5v-561q0 -70 18.5 -94.5t59.5 -24.5t59 24.5t18 94.5z" />
    <glyph glyph-name="r" unicode="r" 
d="M573 1352q54 0 92.5 -17t63 -49t38.5 -86t19 -118t5 -156v-82h-308v102q0 67 -18.5 93t-58.5 26t-59 -26.5t-19 -92.5v-946h-308v1331h308v-149q31 70 90.5 120t154.5 50z" />
    <glyph glyph-name="s" unicode="s" 
d="M535 776q68 -50 107.5 -85t77.5 -84.5t54.5 -108t16.5 -133.5q0 -179 -92 -282t-285 -103q-104 0 -175.5 24t-121.5 80.5t-73.5 150t-23.5 232.5h308q0 -115 20.5 -158t65.5 -43q40 0 54.5 25.5t14.5 73.5q0 34 -12.5 60t-58 68t-136.5 105q-41 28 -55.5 38.5t-50 38.5
t-50 45.5t-38.5 49.5t-34.5 61t-19 70t-8.5 86q0 164 93 264.5t278 100.5q379 0 379 -447h-307q0 87 -17.5 123.5t-54.5 36.5q-32 0 -47.5 -23t-15.5 -55q0 -11 2 -20t4 -17t8.5 -17.5t12 -16t17.5 -17.5t20.5 -18t27.5 -21t32 -23.5t38.5 -28t44.5 -32.5z" />
    <glyph glyph-name="t" unicode="t" horiz-adv-x="675" 
d="M655 1044h-204v-598q0 -98 27 -128.5t91 -30.5h86v-287h-168q-73 0 -126 9.5t-91.5 33t-63 56t-38.5 85.5t-19.5 114t-5.5 148v598h-123v287q148 43 144 307h307q0 -55 -7.5 -103.5t-23 -91.5t-44.5 -72.5t-68 -39.5h327v-287z" />
    <glyph glyph-name="u" unicode="u" 
d="M791 197q0 -53 0.5 -77t5 -56t14.5 -64h-266q-34 20 -48 65t-14 85q-31 -70 -89.5 -120t-149.5 -50q-56 0 -95.5 17.5t-64.5 49t-39 85.5t-19.5 118t-5.5 156v925h308v-946q0 -70 18.5 -94.5t59.5 -24.5t59 24.5t18 94.5v946h308v-1134z" />
    <glyph glyph-name="v" unicode="v" horiz-adv-x="821" 
d="M494 1331h307l-180 -1331h-420l-181 1331h308l84 -946z" />
    <glyph glyph-name="w" unicode="w" horiz-adv-x="1542" 
d="M1174 1331h348l-283 -1331h-528v973l-162 -973h-529v1331h308v-1055l155 1055h535v-1055z" />
    <glyph glyph-name="x" unicode="x" horiz-adv-x="937" 
d="M20 0l244 666l-244 665h328l121 -473l121 473h328l-244 -665l244 -666h-328l-121 473l-121 -473h-328z" />
    <glyph glyph-name="y" unicode="y" 
d="M483 1331h308v-1294q0 -87 -5.5 -148t-20 -114t-38.5 -86t-63 -56t-92 -33t-126 -10h-364v287h283q64 0 91 31t27 129v113q-31 -70 -89.5 -120t-149.5 -50q-56 0 -95.5 17.5t-64.5 49t-39 85.5t-19.5 118t-5.5 156v925h308v-946q0 -70 18.5 -94.5t59.5 -24.5t59 24.5
t18 94.5v946z" />
    <glyph glyph-name="z" unicode="z" horiz-adv-x="747" 
d="M727 1331v-287l-375 -757h375v-287h-707v287l375 757h-375v287h707z" />
    <glyph glyph-name="braceleft" unicode="{" horiz-adv-x="307" 
d="M287 1659v-82q-54 0 -78.5 -48.5t-23.5 -122.5t5.5 -164l8.5 -170t-14 -143.5t-62 -82.5v-53q44 -19 62 -82.5t14 -144t-8.5 -170.5t-5.5 -164t23.5 -122.5t78.5 -48.5v-81q-80 0 -127 41.5t-60.5 107.5t-14 146t6.5 160.5t8 146.5t-17.5 107.5t-62.5 41.5v176
q44 0 62.5 41.5t17.5 108t-8 146.5t-6.5 160t14 146.5t60.5 108t127 41.5z" />
    <glyph glyph-name="bar" unicode="|" horiz-adv-x="143" 
d="M20 1659h103v-1679h-103v1679z" />
    <glyph glyph-name="braceright" unicode="}" horiz-adv-x="307" 
d="M20 1659q80 0 127 -41.5t60.5 -108t14 -146.5t-6.5 -160t-8 -146.5t17.5 -108t62.5 -41.5v-176q-44 0 -62.5 -41.5t-17.5 -107.5t8 -146t6.5 -160.5t-14 -146.5t-60.5 -107.5t-127 -41.5v81q54 0 78.5 48.5t23.5 122.5t-5.5 164t-8.5 170.5t14 144t62 82.5v53
q-44 19 -62 82.5t-14 143.5l8.5 170t5.5 164t-23.5 122.5t-78.5 48.5v82z" />
    <glyph glyph-name="asciitilde" unicode="~" horiz-adv-x="880" 
d="M20 594q0 69 19.5 116.5t53 69.5t65 30.5t67.5 8.5q55 0 107 -19t92 -46t77 -54t77 -46t77 -19q47 0 75 31.5t28 91.5h102q0 -56 -14 -98t-34.5 -66t-49.5 -38.5t-54 -19t-53 -4.5q-67 0 -131.5 29t-107 63.5t-94.5 63.5t-97 29q-47 0 -74.5 -31.5t-27.5 -91.5h-103z" />
    <glyph glyph-name="exclamdown" unicode="&#xa1;" horiz-adv-x="368" 
d="M184 1352q69 0 116.5 -45t47.5 -117q0 -75 -47.5 -120.5t-116.5 -45.5t-116.5 45.5t-47.5 120.5q0 72 47.5 117t116.5 45zM31 -307l20 1126h266l21 -1126h-307z" />
    <glyph glyph-name="cent" unicode="&#xa2;" 
d="M457 412q104 14 167.5 95.5t63.5 225.5h103q0 -176 -90.5 -292.5t-243.5 -131.5v-329h-103v331q-151 24 -242.5 157t-91.5 351t91.5 351t242.5 157v332h103v-330q153 -15 243.5 -131.5t90.5 -292.5h-103q0 144 -64 226t-167 96v-815zM123 819q0 -183 64 -282t167 -121
v807q-103 -22 -167 -121.5t-64 -282.5z" />
    <glyph glyph-name="sterling" unicode="&#xa3;" horiz-adv-x="782" 
d="M260 618q15 -94 18 -164t-8 -142.5t-47.5 -130t-99.5 -99.5h639v-82h-742v82q51 34 84.5 79.5t49.5 94t20.5 111t0 120t-16.5 131.5h-138v103h119q-1 7 -10.5 57.5t-12 62.5t-10 57t-10 64t-8 57.5t-7 64t-3.5 58t-2 62.5q0 123 27.5 214t76 142t107 75t129.5 24
t130.5 -26.5t109.5 -83.5t78 -158.5t28 -239.5h-103q0 405 -243 405q-55 0 -96.5 -17t-74.5 -56.5t-50 -109.5t-17 -169q0 -34 1.5 -68t6 -73t8 -66t11.5 -73t11.5 -65.5t13.5 -72t12 -65.5h368v-103h-350z" />
    <glyph glyph-name="currency" unicode="&#xa4;" horiz-adv-x="684" 
d="M621 819q0 -168 -70 -280l113 -154l-72 -72l-109 152q-59 -47 -141 -47t-141 47l-109 -152l-72 72l113 154q-70 112 -70 280q0 169 70 281l-113 153l72 72l109 -151q59 47 141 47q80 0 141 -45l109 149l72 -72l-113 -155q70 -112 70 -279zM166 819q0 -85 18 -150.5
t58.5 -107t99.5 -41.5t99.5 41.5t58.5 107t18 150.5t-18 150.5t-58.5 107t-99.5 41.5t-99.5 -41.5t-58.5 -107t-18 -150.5z" />
    <glyph glyph-name="yen" unicode="&#xa5;" horiz-adv-x="937" 
d="M918 1638l-369 -989h239v-102h-268v-82h268v-103h-268v-362h-102v362h-268v103h268v82h-268v102h239l-369 989h113l336 -919l336 919h113z" />
    <glyph glyph-name="brokenbar" unicode="&#xa6;" horiz-adv-x="143" 
d="M20 1659h103v-655h-103v655zM20 635h103v-655h-103v655z" />
    <glyph glyph-name="section" unicode="&#xa7;" horiz-adv-x="749" 
d="M559 514q78 -44 114 -102t36 -150q0 -121 -79 -201.5t-245 -80.5q-344 0 -344 405h102q0 -66 10 -116t35 -94.5t75 -68.5t122 -24q125 0 173 48t48 132q0 98 -70.5 153t-216.5 97q-167 48 -233 95t-66 132q0 90 45 132.5t125 54.5q-78 44 -113.5 102t-35.5 150
q0 121 79 201.5t245 80.5q344 0 344 -405h-103q0 66 -10 116t-35 94.5t-74.5 68.5t-121.5 24q-125 0 -173.5 -48t-48.5 -132q0 -98 70.5 -153t216.5 -97q167 -48 233 -95.5t66 -132.5q0 -90 -45 -132t-125 -54zM123 762q0 -58 47.5 -89t189.5 -77h2q64 -21 112.5 -26.5
t76.5 2t46 25t24 37.5t6 44q0 58 -48 89t-190 77h-2q-64 21 -112.5 26.5t-76.5 -2t-45.5 -25t-23.5 -37t-6 -44.5z" />
    <glyph glyph-name="dieresis" unicode="&#xa8;" horiz-adv-x="542" 
d="M123 1446q-42 0 -72.5 28.5t-30.5 71.5q0 48 30 76.5t73 28.5q42 0 72 -28.5t30 -76.5q0 -43 -30.5 -71.5t-71.5 -28.5zM420 1446q-42 0 -72.5 28.5t-30.5 71.5q0 48 30 76.5t73 28.5q42 0 72 -28.5t30 -76.5q0 -43 -30.5 -71.5t-71.5 -28.5z" />
    <glyph glyph-name="copyright" unicode="&#xa9;" horiz-adv-x="1236" 
d="M618 -20q599 0 599 839q0 840 -599 840q-598 0 -598 -840q0 -839 598 -839zM618 82q-111 0 -196.5 37t-141.5 101t-91.5 158.5t-50.5 202t-15 238.5t15 238.5t50.5 202t91.5 158.5t141.5 101t196.5 37t197 -37t142 -101t91.5 -158.5t50.5 -202t15 -238.5t-15 -238.5
t-50.5 -202t-91.5 -158.5t-142 -101t-197 -37zM860 905q0 131 -66 207t-165 76q-118 0 -185 -90t-67 -279t67 -278.5t185 -89.5q100 0 165.5 75.5t65.5 206.5h103q0 -104 -39.5 -191t-117 -140.5t-177.5 -53.5q-169 0 -262 126t-93 345t93 345t262 126q100 0 177.5 -53.5
t117 -140.5t39.5 -191h-103z" />
    <glyph glyph-name="guillemotleft" unicode="&#xab;" horiz-adv-x="632" 
d="M326 920l-228 -244l228 -244v-123l-306 326v82l306 325v-122zM612 1042v-122l-227 -244l227 -244v-123l-305 326v82z" />
    <glyph glyph-name="logicalnot" unicode="&#xac;" horiz-adv-x="880" 
d="M20 727h840v-387h-102v285h-738v102z" />
    <glyph glyph-name="registered" unicode="&#xae;" horiz-adv-x="827" 
d="M414 635q69 0 125.5 17t96.5 46t71 70.5t49.5 85.5t30 96.5t16 99.5t4.5 97t-4.5 97t-16 99.5t-30 96.5t-49.5 85.5t-71 70.5t-96.5 46t-125.5 17q-80 0 -143.5 -22.5t-105.5 -62.5t-71.5 -89t-45 -109.5t-22 -115t-6.5 -113.5t6.5 -113.5t22 -115t45 -109.5t71.5 -89
t105.5 -62.5t143.5 -22.5zM414 737q-62 0 -110.5 19t-79 53.5t-51.5 74t-31.5 89t-14.5 90t-4 84.5q0 54 5.5 102.5t23.5 107t48.5 100.5t85.5 70.5t128 28.5t128 -28.5t85.5 -70.5t48.5 -100.5t23.5 -107t5.5 -102.5q0 -44 -4 -84.5t-14.5 -90t-31.5 -89t-51.5 -74
t-79 -53.5t-110.5 -19zM264 926v454h144q99 0 141.5 -41.5t42.5 -121.5q0 -100 -64 -138l62 -153h-111l-51 127h-61v-127h-103zM367 1155h41q43 0 62 14.5t19 47.5t-19 47t-62 14h-41v-123z" />
    <glyph glyph-name="macron" unicode="&#xaf;" horiz-adv-x="624" 
d="M20 1610h584v-82h-584v82z" />
    <glyph glyph-name="degree" unicode="&#xb0;" horiz-adv-x="540" 
d="M270 1044q67 0 117 25.5t78 70.5t41.5 98t13.5 114t-13.5 114t-41.5 97.5t-78 70t-117 25.5t-117 -25.5t-78 -70t-41.5 -97.5t-13.5 -114t13.5 -114t41.5 -98t78 -70.5t117 -25.5zM270 1147q-147 0 -147 205q0 204 147 204q148 0 148 -204q0 -205 -148 -205z" />
    <glyph glyph-name="plusminus" unicode="&#xb1;" horiz-adv-x="880" 
d="M860 625h-368v-277h368v-102h-840v102h369v277h-369v102h369v369h103v-369h368v-102z" />
    <glyph glyph-name="acute" unicode="&#xb4;" horiz-adv-x="624" 
d="M20 1532l564 151l20 -79l-563 -150z" />
    <glyph glyph-name="paragraph" unicode="&#xb6;" horiz-adv-x="620" 
d="M293 1638h102v-1638h-102v926q-74 0 -120.5 13t-83.5 50.5t-53 108.5t-16 184t16 184t53 108.5t83.5 50.5t120.5 13zM498 1638h102v-1638h-102v1638z" />
    <glyph glyph-name="periodcentered" unicode="&#xb7;" horiz-adv-x="368" 
d="M184 510q-69 0 -116.5 45t-47.5 117q0 75 47.5 120.5t116.5 45.5t116.5 -45.5t47.5 -120.5q0 -72 -47.5 -117t-116.5 -45z" />
    <glyph glyph-name="cedilla" unicode="&#xb8;" horiz-adv-x="411" 
d="M94 0h103l-33 -137q227 37 227 -123q0 -34 -14 -60.5t-33.5 -43.5t-54.5 -29t-62 -18t-72 -9t-68.5 -3.5t-66.5 -0.5l3 82q147 0 206.5 15.5t59.5 66.5q0 27 -13 42t-44.5 19.5t-69 2t-99.5 -10.5z" />
    <glyph glyph-name="guillemotright" unicode="&#xbb;" horiz-adv-x="632" 
d="M326 717v-82l-306 -326v123l228 244l-228 244v122zM307 1042l305 -325v-82l-305 -326v123l228 244l-228 244v122z" />
    <glyph glyph-name="questiondown" unicode="&#xbf;" 
d="M453 1024q-69 0 -116.5 45.5t-47.5 120.5q0 72 47.5 117t116.5 45t116 -45t47 -117q0 -75 -47 -120.5t-116 -45.5zM483 180h308q0 -259 -99 -383.5t-295 -124.5q-187 0 -282 104t-95 281q0 66 16.5 123.5t43 101.5t58 86t63.5 87t58.5 94.5t43 119t16.5 150.5h267
q0 -99 -14 -182.5t-37 -139.5t-50.5 -103t-55 -82.5t-50.5 -67.5t-37 -69t-14 -77q0 -118 69 -118q86 0 86 200z" />
    <glyph glyph-name="Agrave" unicode="&#xc0;" horiz-adv-x="862" 
d="M723 1839l-21 -78l-563 150l21 80zM535 0l-23 279h-162l-22 -279h-308l201 1638h420l201 -1638h-307zM375 586h112l-55 727z" />
    <glyph glyph-name="Aacute" unicode="&#xc1;" horiz-adv-x="862" 
d="M723 1911l-563 -150l-21 78l563 152zM535 0l-23 279h-162l-22 -279h-308l201 1638h420l201 -1638h-307zM375 586h112l-55 727z" />
    <glyph glyph-name="Acircumflex" unicode="&#xc2;" horiz-adv-x="862" 
d="M434 1929l-162 -168h-133l223 230h144l217 -230h-133zM535 0l-23 279h-162l-22 -279h-308l201 1638h420l201 -1638h-307zM375 586h112l-55 727z" />
    <glyph glyph-name="Atilde" unicode="&#xc3;" horiz-adv-x="862" 
d="M309 1909q-67 0 -67 -123h-103q0 205 164 205q44 0 77.5 -15t53.5 -37t37 -44t37.5 -37t44.5 -15q68 0 68 123h102q0 -205 -164 -205q-44 0 -77.5 15t-53.5 37t-37 44t-37.5 37t-44.5 15zM535 0l-23 279h-162l-22 -279h-308l201 1638h420l201 -1638h-307zM375 586h112
l-55 727z" />
    <glyph glyph-name="Adieresis" unicode="&#xc4;" horiz-adv-x="862" 
d="M283 1753q-42 0 -72.5 28.5t-30.5 71.5q0 48 30 76.5t73 28.5q42 0 72 -28.5t30 -76.5q0 -43 -30.5 -71.5t-71.5 -28.5zM580 1753q-42 0 -72.5 28.5t-30.5 71.5q0 48 30 76.5t73 28.5q42 0 72 -28.5t30 -76.5q0 -43 -30.5 -71.5t-71.5 -28.5zM535 0l-23 279h-162
l-22 -279h-308l201 1638h420l201 -1638h-307zM375 586h112l-55 727z" />
    <glyph glyph-name="Aring" unicode="&#xc5;" horiz-adv-x="862" 
d="M432 1761q-55 0 -95 39t-40 96q0 58 40 97t95 39t95 -39t40 -97q0 -57 -40 -96t-95 -39zM432 1950q-24 0 -38.5 -15t-14.5 -39t14.5 -38.5t38.5 -14.5t38.5 14.5t14.5 38.5t-14.5 39t-38.5 15zM535 0l-23 279h-162l-22 -279h-308l201 1638h420l201 -1638h-307zM375 586
h112l-55 727z" />
    <glyph glyph-name="AE" unicode="&#xc6;" horiz-adv-x="1187" 
d="M1167 1331h-276v-358h276v-307h-276v-359h276v-307h-583v279h-226l-30 -279h-308l201 1638h946v-307zM393 586h191v745h-107z" />
    <glyph glyph-name="Ccedilla" unicode="&#xc7;" 
d="M791 973h-308v198q0 109 -14 145t-63 36t-63.5 -36.5t-14.5 -144.5v-704q0 -108 14.5 -144t63.5 -36t63 35.5t14 144.5v199h308v-220q0 -227 -85.5 -339.5t-252.5 -124.5l-29 -119q227 37 227 -123q0 -34 -14 -60.5t-33.5 -43.5t-54 -29t-62 -18t-72 -9t-68 -3.5
t-66.5 -0.5l2 82q147 0 206.5 15.5t59.5 66.5q0 52 -56.5 62t-168.5 -9l28 189q-165 15 -248.5 127.5t-83.5 336.5v746q0 242 97.5 354.5t288.5 112.5t288 -112.5t97 -354.5v-219z" />
    <glyph glyph-name="Egrave" unicode="&#xc8;" horiz-adv-x="624" 
d="M604 1839l-20 -78l-564 150l21 80zM604 1638v-307h-276v-358h276v-307h-276v-359h276v-307h-584v1638h584z" />
    <glyph glyph-name="Eacute" unicode="&#xc9;" horiz-adv-x="624" 
d="M604 1911l-563 -150l-21 78l564 152zM604 1638v-307h-276v-358h276v-307h-276v-359h276v-307h-584v1638h584z" />
    <glyph glyph-name="Ecircumflex" unicode="&#xca;" horiz-adv-x="624" 
d="M315 1929l-161 -168h-134l224 230h143l217 -230h-133zM604 1638v-307h-276v-358h276v-307h-276v-359h276v-307h-584v1638h584z" />
    <glyph glyph-name="Edieresis" unicode="&#xcb;" horiz-adv-x="624" 
d="M164 1753q-42 0 -72.5 28.5t-30.5 71.5q0 48 30 76.5t73 28.5q42 0 72 -28.5t30 -76.5q0 -43 -30.5 -71.5t-71.5 -28.5zM461 1753q-42 0 -72.5 28.5t-30.5 71.5q0 48 30 76.5t73 28.5q42 0 72 -28.5t30 -76.5q0 -43 -30.5 -71.5t-71.5 -28.5zM604 1331h-276v-358h276
v-307h-276v-359h276v-307h-584v1638h584v-307z" />
    <glyph glyph-name="Igrave" unicode="&#xcc;" horiz-adv-x="348" 
d="M465 1839l-21 -78l-563 150l21 80zM20 1638h308v-1638h-308v1638z" />
    <glyph glyph-name="Iacute" unicode="&#xcd;" horiz-adv-x="348" 
d="M-119 1839l563 152l21 -80l-563 -150zM20 1638h308v-1638h-308v1638z" />
    <glyph glyph-name="Icircumflex" unicode="&#xce;" horiz-adv-x="348" 
d="M104 1991h144l217 -230h-133l-156 168l-162 -168h-133zM20 1638h308v-1638h-308v1638z" />
    <glyph glyph-name="Idieresis" unicode="&#xcf;" horiz-adv-x="348" 
d="M25 1753q-42 0 -72.5 28.5t-30.5 71.5q0 48 30 76.5t73 28.5q42 0 72 -28.5t30 -76.5q0 -43 -30.5 -71.5t-71.5 -28.5zM322 1753q-42 0 -72.5 28.5t-30.5 71.5q0 48 30 76.5t73 28.5q42 0 72 -28.5t30 -76.5q0 -43 -30.5 -71.5t-71.5 -28.5zM20 1638h308v-1638h-308v1638
z" />
    <glyph glyph-name="Eth" unicode="&#xd0;" horiz-adv-x="933" 
d="M446 1638q262 0 364.5 -99t102.5 -347v-746q0 -246 -103 -346t-364 -100h-307v778h-139v82h139v778h307zM446 307q93 0 126.5 26.5t33.5 112.5v746q0 86 -33.5 112.5t-126.5 26.5v-471h138v-82h-138v-471z" />
    <glyph glyph-name="Ntilde" unicode="&#xd1;" horiz-adv-x="919" 
d="M338 1909q-68 0 -68 -123h-102q0 205 164 205q44 0 77.5 -15t53.5 -37t37 -44t37.5 -37t44.5 -15q67 0 67 123h103q0 -205 -164 -205q-44 0 -77.5 15t-53.5 37t-37 44t-37.5 37t-44.5 15zM592 1638h307v-1638h-307l-264 809v-809h-308v1638h308l264 -809v809z" />
    <glyph glyph-name="Ograve" unicode="&#xd2;" 
d="M696 1839l-20 -78l-563 150l20 80zM406 1659q191 0 288 -112.5t97 -354.5v-746q0 -242 -97 -354t-288 -112t-288.5 112t-97.5 354v746q0 242 97.5 354.5t288.5 112.5zM483 467v704q0 109 -14 145t-63 36t-63.5 -36.5t-14.5 -144.5v-704q0 -108 14.5 -144t63.5 -36
t63 35.5t14 144.5z" />
    <glyph glyph-name="Oacute" unicode="&#xd3;" 
d="M696 1911l-563 -150l-20 78l563 152zM406 1659q191 0 288 -112.5t97 -354.5v-746q0 -242 -97 -354t-288 -112t-288.5 112t-97.5 354v746q0 242 97.5 354.5t288.5 112.5zM483 467v704q0 109 -14 145t-63 36t-63.5 -36.5t-14.5 -144.5v-704q0 -108 14.5 -144t63.5 -36
t63 35.5t14 144.5z" />
    <glyph glyph-name="Ocircumflex" unicode="&#xd4;" 
d="M408 1929l-162 -168h-133l223 230h143l217 -230h-133zM406 1659q191 0 288 -112.5t97 -354.5v-746q0 -242 -97 -354t-288 -112t-288.5 112t-97.5 354v746q0 242 97.5 354.5t288.5 112.5zM483 467v704q0 109 -14 145t-63 36t-63.5 -36.5t-14.5 -144.5v-704
q0 -108 14.5 -144t63.5 -36t63 35.5t14 144.5z" />
    <glyph glyph-name="Otilde" unicode="&#xd5;" 
d="M283 1909q-68 0 -68 -123h-102q0 205 163 205q44 0 77.5 -15t53.5 -37t37 -44t37.5 -37t44.5 -15q68 0 68 123h102q0 -205 -164 -205q-44 0 -77.5 15t-53.5 37t-36.5 44t-37 37t-44.5 15zM406 1659q191 0 288 -112.5t97 -354.5v-746q0 -242 -97 -354t-288 -112
t-288.5 112t-97.5 354v746q0 242 97.5 354.5t288.5 112.5zM483 467v704q0 109 -14 145t-63 36t-63.5 -36.5t-14.5 -144.5v-704q0 -108 14.5 -144t63.5 -36t63 35.5t14 144.5z" />
    <glyph glyph-name="Odieresis" unicode="&#xd6;" 
d="M256 1753q-42 0 -72 28.5t-30 71.5q0 48 29.5 76.5t72.5 28.5q42 0 72 -28.5t30 -76.5q0 -43 -30.5 -71.5t-71.5 -28.5zM553 1753q-42 0 -72 28.5t-30 71.5q0 48 29.5 76.5t72.5 28.5q42 0 72 -28.5t30 -76.5q0 -43 -30.5 -71.5t-71.5 -28.5zM406 1659q191 0 288 -112.5
t97 -354.5v-746q0 -242 -97 -354t-288 -112t-288.5 112t-97.5 354v746q0 242 97.5 354.5t288.5 112.5zM483 467v704q0 109 -14 145t-63 36t-63.5 -36.5t-14.5 -144.5v-704q0 -108 14.5 -144t63.5 -36t63 35.5t14 144.5z" />
    <glyph glyph-name="multiply" unicode="&#xd7;" horiz-adv-x="692" 
d="M680 936l-260 -260l260 -260l-72 -72l-260 260l-262 -262l-72 72l262 262l-262 262l72 72l262 -262l260 260z" />
    <glyph glyph-name="Oslash" unicode="&#xd8;" 
d="M713 1520q78 -116 78 -328v-746q0 -242 -97 -354t-288 -112q-142 0 -230 59l-20 -59h-109l51 139q-78 116 -78 327v746q0 242 97.5 354.5t288.5 112.5q140 0 229 -60l20 60h109zM328 1171v-417l155 430q0 100 -14.5 134t-62.5 34q-49 0 -63.5 -36.5t-14.5 -144.5z
M483 467v418l-155 -430q0 -100 15 -134t63 -34q49 0 63 35.5t14 144.5z" />
    <glyph glyph-name="Ugrave" unicode="&#xd9;" 
d="M696 1839l-20 -78l-563 150l20 80zM791 1638v-1192q0 -242 -97 -354t-288 -112t-288.5 112t-97.5 354v1192h308v-1171q0 -108 14.5 -144t63.5 -36t63 35.5t14 144.5v1171h308z" />
    <glyph glyph-name="Uacute" unicode="&#xda;" 
d="M113 1839l563 152l20 -80l-563 -150zM791 1638v-1192q0 -242 -97 -354t-288 -112t-288.5 112t-97.5 354v1192h308v-1171q0 -108 14.5 -144t63.5 -36t63 35.5t14 144.5v1171h308z" />
    <glyph glyph-name="Ucircumflex" unicode="&#xdb;" 
d="M336 1991h143l217 -230h-133l-155 168l-162 -168h-133zM791 1638v-1192q0 -242 -97 -354t-288 -112t-288.5 112t-97.5 354v1192h308v-1171q0 -108 14.5 -144t63.5 -36t63 35.5t14 144.5v1171h308z" />
    <glyph glyph-name="Udieresis" unicode="&#xdc;" 
d="M256 1753q-42 0 -72 28.5t-30 71.5q0 48 29.5 76.5t72.5 28.5q42 0 72 -28.5t30 -76.5q0 -43 -30.5 -71.5t-71.5 -28.5zM553 1753q-42 0 -72 28.5t-30 71.5q0 48 29.5 76.5t72.5 28.5q42 0 72 -28.5t30 -76.5q0 -43 -30.5 -71.5t-71.5 -28.5zM791 1638v-1192
q0 -242 -97 -354t-288 -112t-288.5 112t-97.5 354v1192h308v-1171q0 -108 14.5 -144t63.5 -36t63 35.5t14 144.5v1171h308z" />
    <glyph glyph-name="Yacute" unicode="&#xdd;" horiz-adv-x="937" 
d="M176 1839l563 152l21 -80l-563 -150zM315 573l-295 1065h328l121 -700l121 700h328l-295 -1065v-573h-308v573z" />
    <glyph glyph-name="Thorn" unicode="&#xde;" horiz-adv-x="815" 
d="M328 1331q262 0 364.5 -99t102.5 -347v-207q0 -245 -102.5 -344t-364.5 -103v-231h-308v1638h308v-307zM328 539q93 0 126 26.5t33 112.5v207q0 86 -33 112.5t-126 26.5v-485z" />
    <glyph glyph-name="germandbls" unicode="&#xdf;" horiz-adv-x="851" 
d="M657 860q174 -103 174 -403q0 -254 -92.5 -355.5t-318.5 -101.5h-45v287h45q54 0 79 44.5t25 166.5q0 116 -25.5 163.5t-78.5 47.5h-45v286h45q63 0 63 187q0 101 -16 145.5t-57 44.5q-43 0 -62.5 -51t-19.5 -170v-1151h-308v1151q0 265 91.5 386.5t298.5 121.5
q190 0 285.5 -109t95.5 -307q0 -278 -134 -383z" />
    <glyph glyph-name="agrave" unicode="&#xe0;" horiz-adv-x="851" 
d="M717 1532l-21 -78l-563 150l21 79zM811 197q0 -53 0.5 -77t5 -56t14.5 -64h-266q-34 20 -47.5 65t-13.5 85q-36 -90 -87.5 -130t-137.5 -40q-111 0 -185 87.5t-74 258.5q0 96 26.5 172t69 124t94 86t103 66t94.5 54.5t70 62t27 78.5q0 56 -17 76t-59 20q-44 0 -62 -32.5
t-18 -106.5v-41h-307v41q0 218 93.5 322t293.5 104q199 0 291 -104t92 -322v-729zM504 317v322q-19 -28 -53.5 -61t-59 -56t-44 -60.5t-19.5 -80.5q0 -58 23 -86.5t63 -28.5q49 0 90 51z" />
    <glyph glyph-name="aacute" unicode="&#xe1;" horiz-adv-x="851" 
d="M717 1604l-563 -150l-21 78l563 151zM811 197q0 -53 0.5 -77t5 -56t14.5 -64h-266q-34 20 -47.5 65t-13.5 85q-36 -90 -87.5 -130t-137.5 -40q-111 0 -185 87.5t-74 258.5q0 96 26.5 172t69 124t94 86t103 66t94.5 54.5t70 62t27 78.5q0 56 -17 76t-59 20
q-44 0 -62 -32.5t-18 -106.5v-41h-307v41q0 218 93.5 322t293.5 104q199 0 291 -104t92 -322v-729zM504 317v322q-19 -28 -53.5 -61t-59 -56t-44 -60.5t-19.5 -80.5q0 -58 23 -86.5t63 -28.5q49 0 90 51z" />
    <glyph glyph-name="acircumflex" unicode="&#xe2;" horiz-adv-x="851" 
d="M428 1622l-162 -168h-133l223 229h144l217 -229h-133zM811 197q0 -53 0.5 -77t5 -56t14.5 -64h-266q-34 20 -47.5 65t-13.5 85q-36 -90 -87.5 -130t-137.5 -40q-111 0 -185 87.5t-74 258.5q0 96 26.5 172t69 124t94 86t103 66t94.5 54.5t70 62t27 78.5q0 56 -17 76
t-59 20q-44 0 -62 -32.5t-18 -106.5v-41h-307v41q0 218 93.5 322t293.5 104q199 0 291 -104t92 -322v-729zM504 317v322q-19 -28 -53.5 -61t-59 -56t-44 -60.5t-19.5 -80.5q0 -58 23 -86.5t63 -28.5q49 0 90 51z" />
    <glyph glyph-name="atilde" unicode="&#xe3;" horiz-adv-x="851" 
d="M303 1602q-67 0 -67 -123h-103q0 204 164 204q44 0 77.5 -15t53.5 -36.5t37 -43.5t37.5 -37t44.5 -15q67 0 67 123h103q0 -205 -164 -205q-44 0 -77.5 15t-53.5 37t-37 44t-37.5 37t-44.5 15zM811 197q0 -53 0.5 -77t5 -56t14.5 -64h-266q-34 20 -47.5 65t-13.5 85
q-36 -90 -87.5 -130t-137.5 -40q-111 0 -185 87.5t-74 258.5q0 96 26.5 172t69 124t94 86t103 66t94.5 54.5t70 62t27 78.5q0 56 -17 76t-59 20q-44 0 -62 -32.5t-18 -106.5v-41h-307v41q0 218 93.5 322t293.5 104q199 0 291 -104t92 -322v-729zM504 317v322
q-19 -28 -53.5 -61t-59 -56t-44 -60.5t-19.5 -80.5q0 -58 23 -86.5t63 -28.5q49 0 90 51z" />
    <glyph glyph-name="adieresis" unicode="&#xe4;" horiz-adv-x="851" 
d="M276 1446q-42 0 -72 28.5t-30 71.5q0 48 29.5 76.5t72.5 28.5q42 0 72.5 -29t30.5 -76q0 -43 -31 -71.5t-72 -28.5zM573 1446q-42 0 -72 28.5t-30 71.5q0 48 29.5 76.5t72.5 28.5q42 0 72.5 -29t30.5 -76q0 -43 -31 -71.5t-72 -28.5zM811 197q0 -53 0.5 -77t5 -56
t14.5 -64h-266q-34 20 -47.5 65t-13.5 85q-36 -90 -87.5 -130t-137.5 -40q-111 0 -185 87.5t-74 258.5q0 96 26.5 172t69 124t94 86t103 66t94.5 54.5t70 62t27 78.5q0 56 -17 76t-59 20q-44 0 -62 -32.5t-18 -106.5v-41h-307v41q0 218 93.5 322t293.5 104q199 0 291 -104
t92 -322v-729zM504 317v322q-19 -28 -53.5 -61t-59 -56t-44 -60.5t-19.5 -80.5q0 -58 23 -86.5t63 -28.5q49 0 90 51z" />
    <glyph glyph-name="aring" unicode="&#xe5;" horiz-adv-x="851" 
d="M426 1454q-55 0 -95 39t-40 96t40 96t95 39t95 -39t40 -96t-40 -96t-95 -39zM426 1642q-24 0 -38.5 -14.5t-14.5 -38.5t14.5 -38.5t38.5 -14.5t38.5 14.5t14.5 38.5t-14.5 38.5t-38.5 14.5zM811 197q0 -53 0.5 -77t5 -56t14.5 -64h-266q-34 20 -47.5 65t-13.5 85
q-36 -90 -87.5 -130t-137.5 -40q-111 0 -185 87.5t-74 258.5q0 96 26.5 172t69 124t94 86t103 66t94.5 54.5t70 62t27 78.5q0 56 -17 76t-59 20q-44 0 -62 -32.5t-18 -106.5v-41h-307v41q0 218 93.5 322t293.5 104q199 0 291 -104t92 -322v-729zM504 317v322
q-19 -28 -53.5 -61t-59 -56t-44 -60.5t-19.5 -80.5q0 -58 23 -86.5t63 -28.5q49 0 90 51z" />
    <glyph glyph-name="ae" unicode="&#xe6;" horiz-adv-x="1294" 
d="M889 1352q191 0 288 -112.5t97 -354.5v-281h-463v-158q0 -108 14.5 -144t63.5 -36t63.5 36t14.5 144v76h307v-76q0 -242 -97 -354t-288 -112q-236 0 -326 167q-55 -91 -112.5 -129t-155.5 -38q-53 0 -101 17t-87.5 50.5t-63 92t-23.5 134.5q0 94 26.5 172t69 130t94 96
t103 78t94.5 66t70 71t27 82q0 56 -17 76t-59 20q-44 0 -62 -32.5t-18 -106.5v-41h-307v41q0 426 344 426q139 0 229 -99q92 99 275 99zM967 809v76q0 107 -15 143.5t-63 36.5q-49 0 -63.5 -36t-14.5 -144v-76h156zM414 266q11 0 20.5 2t20.5 7.5t17.5 9.5t21 13t20.5 13
q-10 68 -10 135v193q-19 -28 -53.5 -61t-59 -56t-44 -60.5t-19.5 -80.5q0 -58 23 -86.5t63 -28.5z" />
    <glyph glyph-name="ccedilla" unicode="&#xe7;" 
d="M791 809h-308v76q0 108 -14.5 144t-62.5 36q-49 0 -63.5 -36t-14.5 -144v-439q0 -108 14.5 -144t63.5 -36t63 35.5t14 144.5v76h308v-76q0 -227 -85.5 -339.5t-252.5 -124.5l-29 -119q227 37 227 -123q0 -34 -14 -60.5t-33.5 -43.5t-54 -29t-62 -18t-72 -9t-68 -3.5
t-66.5 -0.5l2 82q147 0 206.5 15.5t59.5 66.5q0 52 -56.5 62t-168.5 -9l28 189q-165 15 -248.5 127.5t-83.5 336.5v439q0 242 97.5 354.5t288.5 112.5t288 -112.5t97 -354.5v-76z" />
    <glyph glyph-name="egrave" unicode="&#xe8;" 
d="M696 1532l-20 -78l-563 150l20 79zM406 1352q191 0 288 -112.5t97 -354.5v-281h-463v-158q0 -108 14.5 -144t63.5 -36t63 35.5t14 144.5v76h308v-76q0 -242 -97 -354t-288 -112t-288.5 112t-97.5 354v439q0 242 97.5 354.5t288.5 112.5zM483 809v76q0 108 -14.5 144
t-62.5 36q-49 0 -63.5 -36t-14.5 -144v-76h155z" />
    <glyph glyph-name="eacute" unicode="&#xe9;" 
d="M696 1604l-563 -150l-20 78l563 151zM406 1352q191 0 288 -112.5t97 -354.5v-281h-463v-158q0 -108 14.5 -144t63.5 -36t63 35.5t14 144.5v76h308v-76q0 -242 -97 -354t-288 -112t-288.5 112t-97.5 354v439q0 242 97.5 354.5t288.5 112.5zM483 809v76q0 108 -14.5 144
t-62.5 36q-49 0 -63.5 -36t-14.5 -144v-76h155z" />
    <glyph glyph-name="ecircumflex" unicode="&#xea;" 
d="M408 1622l-162 -168h-133l223 229h143l217 -229h-133zM406 1352q191 0 288 -112.5t97 -354.5v-281h-463v-158q0 -108 14.5 -144t63.5 -36t63 35.5t14 144.5v76h308v-76q0 -242 -97 -354t-288 -112t-288.5 112t-97.5 354v439q0 242 97.5 354.5t288.5 112.5zM483 809v76
q0 108 -14.5 144t-62.5 36q-49 0 -63.5 -36t-14.5 -144v-76h155z" />
    <glyph glyph-name="edieresis" unicode="&#xeb;" 
d="M256 1446q-42 0 -72 28.5t-30 71.5q0 48 29.5 76.5t72.5 28.5q42 0 72 -28.5t30 -76.5q0 -43 -30.5 -71.5t-71.5 -28.5zM553 1446q-42 0 -72 28.5t-30 71.5q0 48 29.5 76.5t72.5 28.5q42 0 72 -28.5t30 -76.5q0 -43 -30.5 -71.5t-71.5 -28.5zM406 1352q191 0 288 -112.5
t97 -354.5v-281h-463v-158q0 -108 14.5 -144t63.5 -36t63 35.5t14 144.5v76h308v-76q0 -242 -97 -354t-288 -112t-288.5 112t-97.5 354v439q0 242 97.5 354.5t288.5 112.5zM483 809v76q0 108 -14.5 144t-62.5 36q-49 0 -63.5 -36t-14.5 -144v-76h155z" />
    <glyph glyph-name="igrave" unicode="&#xec;" horiz-adv-x="348" 
d="M465 1532l-21 -78l-563 150l21 79zM20 1331h308v-1331h-308v1331z" />
    <glyph glyph-name="iacute" unicode="&#xed;" horiz-adv-x="348" 
d="M-119 1532l563 151l21 -79l-563 -150zM20 1331h308v-1331h-308v1331z" />
    <glyph glyph-name="icircumflex" unicode="&#xee;" horiz-adv-x="348" 
d="M104 1683h144l217 -229h-133l-156 168l-162 -168h-133zM20 1331h308v-1331h-308v1331z" />
    <glyph glyph-name="idieresis" unicode="&#xef;" horiz-adv-x="348" 
d="M25 1446q-42 0 -72.5 28.5t-30.5 71.5q0 48 30 76.5t73 28.5q42 0 72 -28.5t30 -76.5q0 -43 -30.5 -71.5t-71.5 -28.5zM322 1446q-42 0 -72.5 28.5t-30.5 71.5q0 48 30 76.5t73 28.5q42 0 72 -28.5t30 -76.5q0 -43 -30.5 -71.5t-71.5 -28.5zM20 1331h308v-1331h-308v1331
z" />
    <glyph glyph-name="eth" unicode="&#xf0;" horiz-adv-x="950" 
d="M659 1384q128 -142 199.5 -331t71.5 -412q0 -306 -127 -483.5t-348 -177.5q-205 0 -320 144.5t-115 399.5q0 101 22 188t66 156.5t118.5 109.5t170.5 40q136 0 226 -125q-52 193 -215 336l-271 -166v115l187 114q-82 59 -187 105l123 262q183 -68 330 -203l254 158v-115z
M477 266q78 0 112 57t34 185q0 122 -36.5 172.5t-109.5 50.5t-111 -50.5t-38 -172.5q0 -137 35.5 -189.5t113.5 -52.5z" />
    <glyph glyph-name="ntilde" unicode="&#xf1;" 
d="M283 1602q-68 0 -68 -123h-102q0 204 163 204q44 0 77.5 -15t53.5 -36.5t37 -43.5t37.5 -37t44.5 -15q68 0 68 123h102q0 -205 -164 -205q-44 0 -77.5 15t-53.5 37t-36.5 44t-37 37t-44.5 15zM567 1352q56 0 95.5 -17.5t64.5 -49t39 -85.5t19.5 -118t5.5 -156v-926h-308
v946q0 70 -18 94.5t-59 24.5t-59.5 -24.5t-18.5 -94.5v-946h-308v1331h308v-149q31 70 89.5 120t149.5 50z" />
    <glyph glyph-name="ograve" unicode="&#xf2;" 
d="M696 1532l-20 -78l-563 150l20 79zM20 446v439q0 242 97.5 354.5t288.5 112.5t288 -112.5t97 -354.5v-439q0 -242 -97 -354t-288 -112t-288.5 112t-97.5 354zM328 446q0 -108 14.5 -144t63.5 -36t63 35.5t14 144.5v439q0 108 -14.5 144t-62.5 36q-49 0 -63.5 -36
t-14.5 -144v-439z" />
    <glyph glyph-name="oacute" unicode="&#xf3;" 
d="M113 1532l563 151l20 -79l-563 -150zM20 446v439q0 242 97.5 354.5t288.5 112.5t288 -112.5t97 -354.5v-439q0 -242 -97 -354t-288 -112t-288.5 112t-97.5 354zM328 446q0 -108 14.5 -144t63.5 -36t63 35.5t14 144.5v439q0 108 -14.5 144t-62.5 36q-49 0 -63.5 -36
t-14.5 -144v-439z" />
    <glyph glyph-name="ocircumflex" unicode="&#xf4;" 
d="M336 1683h143l217 -229h-133l-155 168l-162 -168h-133zM20 446v439q0 242 97.5 354.5t288.5 112.5t288 -112.5t97 -354.5v-439q0 -242 -97 -354t-288 -112t-288.5 112t-97.5 354zM328 446q0 -108 14.5 -144t63.5 -36t63 35.5t14 144.5v439q0 108 -14.5 144t-62.5 36
q-49 0 -63.5 -36t-14.5 -144v-439z" />
    <glyph glyph-name="otilde" unicode="&#xf5;" 
d="M113 1479q0 204 163 204q44 0 77.5 -15t53.5 -36.5t37 -43.5t37.5 -37t44.5 -15q68 0 68 123h102q0 -205 -164 -205q-44 0 -77.5 15t-53.5 37t-36.5 44t-37 37t-44.5 15q-68 0 -68 -123h-102zM20 446v439q0 242 97.5 354.5t288.5 112.5t288 -112.5t97 -354.5v-439
q0 -242 -97 -354t-288 -112t-288.5 112t-97.5 354zM328 446q0 -108 14.5 -144t63.5 -36t63 35.5t14 144.5v439q0 108 -14.5 144t-62.5 36q-49 0 -63.5 -36t-14.5 -144v-439z" />
    <glyph glyph-name="odieresis" unicode="&#xf6;" 
d="M256 1446q-42 0 -72 28.5t-30 71.5q0 48 29.5 76.5t72.5 28.5q42 0 72 -28.5t30 -76.5q0 -43 -30.5 -71.5t-71.5 -28.5zM553 1446q-42 0 -72 28.5t-30 71.5q0 48 29.5 76.5t72.5 28.5q42 0 72 -28.5t30 -76.5q0 -43 -30.5 -71.5t-71.5 -28.5zM20 446v439
q0 242 97.5 354.5t288.5 112.5t288 -112.5t97 -354.5v-439q0 -242 -97 -354t-288 -112t-288.5 112t-97.5 354zM328 446q0 -108 14.5 -144t63.5 -36t63 35.5t14 144.5v439q0 108 -14.5 144t-62.5 36q-49 0 -63.5 -36t-14.5 -144v-439z" />
    <glyph glyph-name="divide" unicode="&#xf7;" horiz-adv-x="880" 
d="M440 850q-26 0 -43.5 17.5t-17.5 43.5q0 25 17.5 43.5t43.5 18.5q25 0 43.5 -18.5t18.5 -43.5q0 -26 -18.5 -43.5t-43.5 -17.5zM20 727h840v-102h-840v102zM440 379q-26 0 -43.5 17.5t-17.5 43.5q0 25 17.5 43.5t43.5 18.5q25 0 43.5 -18.5t18.5 -43.5q0 -26 -18.5 -43.5
t-43.5 -17.5z" />
    <glyph glyph-name="oslash" unicode="&#xf8;" 
d="M674 1260q117 -117 117 -375v-439q0 -242 -97 -354t-288 -112q-112 0 -183 32l-67 -186h-109l90 246q-117 117 -117 374v439q0 242 97.5 354.5t288.5 112.5q109 0 182 -33l67 186h109zM328 885v-285l147 408q-7 32 -23 44.5t-46 12.5q-49 0 -63.5 -36t-14.5 -144z
M406 266q49 0 63 35.5t14 144.5v285l-147 -407q6 -32 22.5 -45t47.5 -13z" />
    <glyph glyph-name="ugrave" unicode="&#xf9;" 
d="M696 1532l-20 -78l-563 150l20 79zM791 197q0 -53 0.5 -77t5 -56t14.5 -64h-266q-34 20 -48 65t-14 85q-31 -70 -89.5 -120t-149.5 -50q-56 0 -95.5 17.5t-64.5 49t-39 85.5t-19.5 118t-5.5 156v925h308v-946q0 -70 18.5 -94.5t59.5 -24.5t59 24.5t18 94.5v946h308v-1134
z" />
    <glyph glyph-name="uacute" unicode="&#xfa;" 
d="M696 1604l-563 -150l-20 78l563 151zM791 197q0 -53 0.5 -77t5 -56t14.5 -64h-266q-34 20 -48 65t-14 85q-31 -70 -89.5 -120t-149.5 -50q-56 0 -95.5 17.5t-64.5 49t-39 85.5t-19.5 118t-5.5 156v925h308v-946q0 -70 18.5 -94.5t59.5 -24.5t59 24.5t18 94.5v946h308
v-1134z" />
    <glyph glyph-name="ucircumflex" unicode="&#xfb;" 
d="M408 1622l-162 -168h-133l223 229h143l217 -229h-133zM791 197q0 -53 0.5 -77t5 -56t14.5 -64h-266q-34 20 -48 65t-14 85q-31 -70 -89.5 -120t-149.5 -50q-56 0 -95.5 17.5t-64.5 49t-39 85.5t-19.5 118t-5.5 156v925h308v-946q0 -70 18.5 -94.5t59.5 -24.5t59 24.5
t18 94.5v946h308v-1134z" />
    <glyph glyph-name="udieresis" unicode="&#xfc;" 
d="M256 1446q-42 0 -72 28.5t-30 71.5q0 48 29.5 76.5t72.5 28.5q42 0 72 -28.5t30 -76.5q0 -43 -30.5 -71.5t-71.5 -28.5zM553 1446q-42 0 -72 28.5t-30 71.5q0 48 29.5 76.5t72.5 28.5q42 0 72 -28.5t30 -76.5q0 -43 -30.5 -71.5t-71.5 -28.5zM791 197q0 -53 0.5 -77
t5 -56t14.5 -64h-266q-34 20 -48 65t-14 85q-31 -70 -89.5 -120t-149.5 -50q-56 0 -95.5 17.5t-64.5 49t-39 85.5t-19.5 118t-5.5 156v925h308v-946q0 -70 18.5 -94.5t59.5 -24.5t59 24.5t18 94.5v946h308v-1134z" />
    <glyph glyph-name="yacute" unicode="&#xfd;" 
d="M696 1604l-563 -150l-20 78l563 151zM483 1331h308v-1294q0 -87 -5.5 -148t-20 -114t-38.5 -86t-63 -56t-92 -33t-126 -10h-364v287h283q64 0 91 31t27 129v113q-31 -70 -89.5 -120t-149.5 -50q-56 0 -95.5 17.5t-64.5 49t-39 85.5t-19.5 118t-5.5 156v925h308v-946
q0 -70 18.5 -94.5t59.5 -24.5t59 24.5t18 94.5v946z" />
    <glyph glyph-name="thorn" unicode="&#xfe;" 
d="M567 1352q56 0 95.5 -17.5t64.5 -49t39 -85.5t19.5 -118t5.5 -156v-520q0 -92 -5.5 -156t-19.5 -118t-39 -85.5t-64.5 -49t-95.5 -17.5q-91 0 -149.5 50t-89.5 120v-560h-308v2048h308v-456q31 70 89.5 120t149.5 50zM483 385v561q0 70 -18 94.5t-59 24.5t-59.5 -24.5
t-18.5 -94.5v-561q0 -70 18.5 -94.5t59.5 -24.5t59 24.5t18 94.5z" />
    <glyph glyph-name="ydieresis" unicode="&#xff;" 
d="M256 1446q-42 0 -72 28.5t-30 71.5q0 48 29.5 76.5t72.5 28.5q42 0 72 -28.5t30 -76.5q0 -43 -30.5 -71.5t-71.5 -28.5zM553 1446q-42 0 -72 28.5t-30 71.5q0 48 29.5 76.5t72.5 28.5q42 0 72 -28.5t30 -76.5q0 -43 -30.5 -71.5t-71.5 -28.5zM483 1331h308v-1294
q0 -87 -5.5 -148t-20 -114t-38.5 -86t-63 -56t-92 -33t-126 -10h-364v287h283q64 0 91 31t27 129v113q-31 -70 -89.5 -120t-149.5 -50q-56 0 -95.5 17.5t-64.5 49t-39 85.5t-19.5 118t-5.5 156v925h308v-946q0 -70 18.5 -94.5t59.5 -24.5t59 24.5t18 94.5v946z" />
    <glyph glyph-name="Amacron" unicode="&#x100;" horiz-adv-x="862" 
d="M723 1917v-82h-584v82h584zM535 0l-23 279h-162l-22 -279h-308l201 1638h420l201 -1638h-307zM375 586h112l-55 727z" />
    <glyph glyph-name="amacron" unicode="&#x101;" horiz-adv-x="851" 
d="M717 1610v-82h-584v82h584zM811 197q0 -53 0.5 -77t5 -56t14.5 -64h-266q-34 20 -47.5 65t-13.5 85q-36 -90 -87.5 -130t-137.5 -40q-111 0 -185 87.5t-74 258.5q0 96 26.5 172t69 124t94 86t103 66t94.5 54.5t70 62t27 78.5q0 56 -17 76t-59 20q-44 0 -62 -32.5
t-18 -106.5v-41h-307v41q0 218 93.5 322t293.5 104q199 0 291 -104t92 -322v-729zM504 317v322q-19 -28 -53.5 -61t-59 -56t-44 -60.5t-19.5 -80.5q0 -58 23 -86.5t63 -28.5q49 0 90 51z" />
    <glyph glyph-name="Abreve" unicode="&#x102;" horiz-adv-x="862" 
d="M434 1761q-57 0 -107 11.5t-93.5 36.5t-69 71.5t-25.5 110.5h103q0 -41 19 -72t49 -46.5t61 -22.5t63 -7t62 7t59.5 22.5t47.5 46t18 72.5h102q0 -64 -24.5 -110.5t-67 -71.5t-91.5 -36.5t-106 -11.5zM535 0l-23 279h-162l-22 -279h-308l201 1638h420l201 -1638h-307z
M375 586h112l-55 727z" />
    <glyph glyph-name="abreve" unicode="&#x103;" horiz-adv-x="851" 
d="M428 1454q-58 0 -107.5 11t-93 36t-69 71.5t-25.5 110.5h103q0 -41 19 -71.5t49.5 -46t61 -22.5t62.5 -7t62 7t59 22.5t47 45.5t18 72h103q0 -64 -24.5 -110.5t-67 -71.5t-91.5 -36t-106 -11zM811 197q0 -53 0.5 -77t5 -56t14.5 -64h-266q-34 20 -47.5 65t-13.5 85
q-36 -90 -87.5 -130t-137.5 -40q-111 0 -185 87.5t-74 258.5q0 96 26.5 172t69 124t94 86t103 66t94.5 54.5t70 62t27 78.5q0 56 -17 76t-59 20q-44 0 -62 -32.5t-18 -106.5v-41h-307v41q0 218 93.5 322t293.5 104q199 0 291 -104t92 -322v-729zM504 317v322
q-19 -28 -53.5 -61t-59 -56t-44 -60.5t-19.5 -80.5q0 -58 23 -86.5t63 -28.5q49 0 90 51z" />
    <glyph glyph-name="Aogonek" unicode="&#x104;" horiz-adv-x="862" 
d="M602 -184q0 -65 59.5 -99.5t206.5 -38.5l-82 -81q-40 0 -73.5 2.5t-73.5 9t-70 21t-56 35.5t-40 55t-14 77q0 142 196 203h-120l-23 279h-162l-22 -279h-308l201 1638h420l199 -1618h8q-1 -1 -4 -2t-4 -2l2 -16h-45q-103 -42 -149 -85t-46 -99zM375 586h112l-55 727z" />
    <glyph glyph-name="aogonek" unicode="&#x105;" horiz-adv-x="851" 
d="M586 -205q0 -65 59.5 -99t206.5 -38l-82 -82q-49 0 -89 3.5t-86.5 15.5t-78 33t-53 59t-21.5 90q0 50 24.5 90t67 65.5t90.5 42t105 25.5h-164q-34 20 -47.5 65t-13.5 85q-36 -90 -87.5 -130t-137.5 -40q-111 0 -185 87.5t-74 258.5q0 96 26.5 172t69 124t94 86t103 66
t94.5 54.5t70 62t27 78.5q0 56 -17 76t-59 20q-44 0 -62 -32.5t-18 -106.5v-41h-307v41q0 218 93.5 322t293.5 104q199 0 291 -104t92 -322v-729q0 -53 0.5 -77t5 -56t14.5 -64q-130 -48 -187.5 -95.5t-57.5 -109.5zM504 317v322q-19 -28 -53.5 -61t-59 -56t-44 -60.5
t-19.5 -80.5q0 -58 23 -86.5t63 -28.5q49 0 90 51z" />
    <glyph glyph-name="Cacute" unicode="&#x106;" 
d="M113 1839l563 152l20 -80l-563 -150zM483 973v198q0 109 -14 145t-63 36t-63.5 -36.5t-14.5 -144.5v-704q0 -108 14.5 -144t63.5 -36t63 35.5t14 144.5v199h308v-220q0 -242 -97 -354t-288 -112t-288.5 112t-97.5 354v746q0 242 97.5 354.5t288.5 112.5t288 -112.5
t97 -354.5v-219h-308z" />
    <glyph glyph-name="cacute" unicode="&#x107;" 
d="M113 1532l563 151l20 -79l-563 -150zM483 809v76q0 108 -14.5 144t-62.5 36q-49 0 -63.5 -36t-14.5 -144v-439q0 -108 14.5 -144t63.5 -36t63 35.5t14 144.5v76h308v-76q0 -242 -97 -354t-288 -112t-288.5 112t-97.5 354v439q0 242 97.5 354.5t288.5 112.5t288 -112.5
t97 -354.5v-76h-308z" />
    <glyph glyph-name="Cdotaccent" unicode="&#x10a;" 
d="M406 1753q-42 0 -72.5 28.5t-30.5 71.5q0 48 30 76.5t73 28.5q42 0 72 -28.5t30 -76.5q0 -43 -30.5 -71.5t-71.5 -28.5zM483 973v198q0 109 -14 145t-63 36t-63.5 -36.5t-14.5 -144.5v-704q0 -108 14.5 -144t63.5 -36t63 35.5t14 144.5v199h308v-220q0 -242 -97 -354
t-288 -112t-288.5 112t-97.5 354v746q0 242 97.5 354.5t288.5 112.5t288 -112.5t97 -354.5v-219h-308z" />
    <glyph glyph-name="cdotaccent" unicode="&#x10b;" 
d="M406 1446q-42 0 -72.5 28.5t-30.5 71.5q0 48 30 76.5t73 28.5q42 0 72 -28.5t30 -76.5q0 -43 -30.5 -71.5t-71.5 -28.5zM483 809v76q0 108 -14.5 144t-62.5 36q-49 0 -63.5 -36t-14.5 -144v-439q0 -108 14.5 -144t63.5 -36t63 35.5t14 144.5v76h308v-76q0 -242 -97 -354
t-288 -112t-288.5 112t-97.5 354v439q0 242 97.5 354.5t288.5 112.5t288 -112.5t97 -354.5v-76h-308z" />
    <glyph glyph-name="Ccaron" unicode="&#x10c;" 
d="M336 1761l-223 230h133l162 -168l155 168h133l-217 -230h-143zM483 973v198q0 109 -14 145t-63 36t-63.5 -36.5t-14.5 -144.5v-704q0 -108 14.5 -144t63.5 -36t63 35.5t14 144.5v199h308v-220q0 -242 -97 -354t-288 -112t-288.5 112t-97.5 354v746q0 242 97.5 354.5
t288.5 112.5t288 -112.5t97 -354.5v-219h-308z" />
    <glyph glyph-name="ccaron" unicode="&#x10d;" 
d="M336 1454l-223 229h133l162 -167l155 167h133l-217 -229h-143zM483 809v76q0 108 -14.5 144t-62.5 36q-49 0 -63.5 -36t-14.5 -144v-439q0 -108 14.5 -144t63.5 -36t63 35.5t14 144.5v76h308v-76q0 -242 -97 -354t-288 -112t-288.5 112t-97.5 354v439q0 242 97.5 354.5
t288.5 112.5t288 -112.5t97 -354.5v-76h-308z" />
    <glyph glyph-name="Dcaron" unicode="&#x10e;" horiz-adv-x="815" 
d="M481 1761h-143l-223 230h133l162 -168l155 168h133zM328 1638q262 0 364.5 -99t102.5 -347v-746q0 -246 -103 -346t-364 -100h-308v1638h308zM328 307q93 0 126 26.5t33 112.5v746q0 86 -33 112.5t-126 26.5v-1024z" />
    <glyph glyph-name="dcaron" unicode="&#x10f;" horiz-adv-x="1056" 
d="M954 1659h103l-82 -512h-82zM791 1638v-1441q0 -53 0.5 -77t5 -56t14.5 -64h-266q-34 20 -48 65t-14 85q-31 -70 -89.5 -120t-149.5 -50q-56 0 -95.5 17.5t-64.5 49t-39 85.5t-19.5 118t-5.5 156v520q0 92 5.5 156t19.5 118t39 85.5t64.5 49t95.5 17.5q91 0 149.5 -50
t89.5 -120v456h308zM483 385v561q0 70 -18 94.5t-59 24.5t-59.5 -24.5t-18.5 -94.5v-561q0 -70 18.5 -94.5t59.5 -24.5t59 24.5t18 94.5z" />
    <glyph glyph-name="Dcroat" unicode="&#x110;" horiz-adv-x="933" 
d="M446 1638q262 0 364.5 -99t102.5 -347v-746q0 -246 -103 -346t-364 -100h-307v778h-139v82h139v778h307zM446 307q93 0 126.5 26.5t33.5 112.5v746q0 86 -33.5 112.5t-126.5 26.5v-471h138v-82h-138v-471z" />
    <glyph glyph-name="dcroat" unicode="&#x111;" 
d="M932 1423h-141v-1226q0 -53 0.5 -77t5 -56t14.5 -64h-266q-34 20 -48 65t-14 85q-31 -70 -89.5 -120t-149.5 -50q-56 0 -95.5 17.5t-64.5 49t-39 85.5t-19.5 118t-5.5 156v520q0 92 5.5 156t19.5 118t39 85.5t64.5 49t95.5 17.5q91 0 149.5 -50t89.5 -120v241h-135v82
h135v133h308v-133h141v-82zM483 385v561q0 70 -18 94.5t-59 24.5t-59.5 -24.5t-18.5 -94.5v-561q0 -70 18.5 -94.5t59.5 -24.5t59 24.5t18 94.5z" />
    <glyph glyph-name="Emacron" unicode="&#x112;" horiz-adv-x="624" 
d="M20 1917h584v-82h-584v82zM604 1638v-307h-276v-358h276v-307h-276v-359h276v-307h-584v1638h584z" />
    <glyph glyph-name="emacron" unicode="&#x113;" 
d="M696 1610v-82h-583v82h583zM406 1352q191 0 288 -112.5t97 -354.5v-281h-463v-158q0 -108 14.5 -144t63.5 -36t63 35.5t14 144.5v76h308v-76q0 -242 -97 -354t-288 -112t-288.5 112t-97.5 354v439q0 242 97.5 354.5t288.5 112.5zM483 809v76q0 108 -14.5 144t-62.5 36
q-49 0 -63.5 -36t-14.5 -144v-76h155z" />
    <glyph glyph-name="Edotaccent" unicode="&#x116;" horiz-adv-x="624" 
d="M313 1753q-42 0 -72 28.5t-30 71.5q0 48 29.5 76.5t72.5 28.5q42 0 72.5 -29t30.5 -76q0 -43 -31 -71.5t-72 -28.5zM604 1331h-276v-358h276v-307h-276v-359h276v-307h-584v1638h584v-307z" />
    <glyph glyph-name="edotaccent" unicode="&#x117;" 
d="M406 1446q-42 0 -72.5 28.5t-30.5 71.5q0 48 30 76.5t73 28.5q42 0 72 -28.5t30 -76.5q0 -43 -30.5 -71.5t-71.5 -28.5zM406 1352q191 0 288 -112.5t97 -354.5v-281h-463v-158q0 -108 14.5 -144t63.5 -36t63 35.5t14 144.5v76h308v-76q0 -242 -97 -354t-288 -112
t-288.5 112t-97.5 354v439q0 242 97.5 354.5t288.5 112.5zM483 809v76q0 108 -14.5 144t-62.5 36q-49 0 -63.5 -36t-14.5 -144v-76h155z" />
    <glyph glyph-name="Eogonek" unicode="&#x118;" horiz-adv-x="624" 
d="M358 -205q0 -65 60 -99t207 -38l-82 -82q-49 0 -89 3.5t-86.5 15.5t-78 33t-53 59t-21.5 90q0 50 24.5 90t67 65.5t90.5 42t105 25.5h-482v1638h584v-307h-276v-358h276v-307h-276v-359h276v-307q-130 -48 -188 -95.5t-58 -109.5z" />
    <glyph glyph-name="eogonek" unicode="&#x119;" 
d="M406 1352q191 0 288 -112.5t97 -354.5v-281h-463v-158q0 -108 14.5 -144t63.5 -36t63 35.5t14 144.5v76h308v-76q0 -379 -248 -448q-125 -48 -181.5 -95t-56.5 -108q0 -65 59.5 -99t206.5 -38l-82 -82q-40 0 -73.5 2.5t-73.5 9.5t-70 21.5t-56 35.5t-40 55t-14 77
q0 144 200 205q-169 11 -255.5 124t-86.5 340v439q0 242 97.5 354.5t288.5 112.5zM483 809v76q0 108 -14.5 144t-62.5 36q-49 0 -63.5 -36t-14.5 -144v-76h155z" />
    <glyph glyph-name="Ecaron" unicode="&#x11a;" horiz-adv-x="624" 
d="M387 1761h-143l-224 230h134l161 -168l156 168h133zM604 1638v-307h-276v-358h276v-307h-276v-359h276v-307h-584v1638h584z" />
    <glyph glyph-name="ecaron" unicode="&#x11b;" 
d="M479 1454h-143l-223 229h133l162 -167l155 167h133zM406 1352q191 0 288 -112.5t97 -354.5v-281h-463v-158q0 -108 14.5 -144t63.5 -36t63 35.5t14 144.5v76h308v-76q0 -242 -97 -354t-288 -112t-288.5 112t-97.5 354v439q0 242 97.5 354.5t288.5 112.5zM483 809v76
q0 108 -14.5 144t-62.5 36q-49 0 -63.5 -36t-14.5 -144v-76h155z" />
    <glyph glyph-name="Gbreve" unicode="&#x11e;" 
d="M408 1761q-57 0 -107 11.5t-93.5 36.5t-69 71.5t-25.5 110.5h102q0 -41 19 -72t49.5 -46.5t61.5 -22.5t63 -7t62 7t59 22.5t47 46t18 72.5h102q0 -64 -24.5 -110.5t-66.5 -71.5t-91 -36.5t-106 -11.5zM791 973h-308v198q0 108 -14.5 144.5t-62.5 36.5q-49 0 -63.5 -36.5
t-14.5 -144.5v-704q0 -108 14.5 -144t63.5 -36t63 35.5t14 144.5v76h-77v307h385v-850h-123l-50 117q-108 -137 -260 -137q-169 0 -253.5 111.5t-84.5 354.5v746q0 242 97.5 354.5t288.5 112.5t288 -112.5t97 -354.5v-219z" />
    <glyph glyph-name="gbreve" unicode="&#x11f;" 
d="M408 1454q-58 0 -107.5 11t-93 36t-69 71.5t-25.5 110.5h102q0 -41 19 -71.5t49.5 -46t61.5 -22.5t63 -7t62 7t59 22.5t47 45.5t18 72h102q0 -64 -24.5 -110.5t-66.5 -71.5t-91 -36t-106 -11zM483 1331h308v-1294q0 -87 -5.5 -148t-20 -114t-38.5 -86t-63 -56t-92 -33
t-126 -10h-364v287h283q64 0 91 31t27 129v113q-31 -70 -89.5 -120t-149.5 -50q-56 0 -95.5 17.5t-64.5 49t-39 85.5t-19.5 118t-5.5 156v520q0 92 5.5 156t19.5 118t39 85.5t64.5 49t95.5 17.5q91 0 149.5 -50t89.5 -120v149zM406 266q41 0 59 24.5t18 94.5v561
q0 70 -18 94.5t-59 24.5t-59.5 -24.5t-18.5 -94.5v-561q0 -70 18.5 -94.5t59.5 -24.5z" />
    <glyph glyph-name="Gdotaccent" unicode="&#x120;" 
d="M406 1753q-42 0 -72.5 28.5t-30.5 71.5q0 48 30 76.5t73 28.5q42 0 72 -28.5t30 -76.5q0 -43 -30.5 -71.5t-71.5 -28.5zM791 973h-308v198q0 108 -14.5 144.5t-62.5 36.5q-49 0 -63.5 -36.5t-14.5 -144.5v-704q0 -108 14.5 -144t63.5 -36t63 35.5t14 144.5v76h-77v307
h385v-850h-123l-50 117q-108 -137 -260 -137q-169 0 -253.5 111.5t-84.5 354.5v746q0 242 97.5 354.5t288.5 112.5t288 -112.5t97 -354.5v-219z" />
    <glyph glyph-name="gdotaccent" unicode="&#x121;" 
d="M406 1446q-42 0 -72.5 28.5t-30.5 71.5q0 48 30 76.5t73 28.5q42 0 72 -28.5t30 -76.5q0 -43 -30.5 -71.5t-71.5 -28.5zM483 1331h308v-1294q0 -87 -5.5 -148t-20 -114t-38.5 -86t-63 -56t-92 -33t-126 -10h-364v287h283q64 0 91 31t27 129v113q-31 -70 -89.5 -120
t-149.5 -50q-56 0 -95.5 17.5t-64.5 49t-39 85.5t-19.5 118t-5.5 156v520q0 92 5.5 156t19.5 118t39 85.5t64.5 49t95.5 17.5q91 0 149.5 -50t89.5 -120v149zM406 266q41 0 59 24.5t18 94.5v561q0 70 -18 94.5t-59 24.5t-59.5 -24.5t-18.5 -94.5v-561q0 -70 18.5 -94.5
t59.5 -24.5z" />
    <glyph glyph-name="Gcommaaccent" unicode="&#x122;" 
d="M791 973h-308v198q0 108 -14.5 144.5t-62.5 36.5q-49 0 -63.5 -36.5t-14.5 -144.5v-704q0 -108 14.5 -144t63.5 -36t63 35.5t14 144.5v76h-77v307h385v-850h-123l-50 117q-108 -137 -260 -137q-169 0 -253.5 111.5t-84.5 354.5v746q0 242 97.5 354.5t288.5 112.5
t288 -112.5t97 -354.5v-219zM406 -117q40 0 67 -26.5t27 -77.5q0 -164 -164 -244v90q61 28 72 80q-44 -7 -71.5 16.5t-27.5 65.5q0 41 28 68.5t69 27.5z" />
    <glyph glyph-name="gcommaaccent" unicode="&#x123;" 
d="M410 1454q-50 0 -74.5 34t-24.5 91q0 56 38 113.5t126 89.5v-90q-61 -28 -72 -80q44 21 71.5 1.5t27.5 -63.5q0 -42 -25.5 -69t-66.5 -27zM483 1331h308v-1294q0 -87 -5.5 -148t-20 -114t-38.5 -86t-63 -56t-92 -33t-126 -10h-364v287h283q64 0 91 31t27 129v113
q-31 -70 -89.5 -120t-149.5 -50q-56 0 -95.5 17.5t-64.5 49t-39 85.5t-19.5 118t-5.5 156v520q0 92 5.5 156t19.5 118t39 85.5t64.5 49t95.5 17.5q91 0 149.5 -50t89.5 -120v149zM406 266q41 0 59 24.5t18 94.5v561q0 70 -18 94.5t-59 24.5t-59.5 -24.5t-18.5 -94.5v-561
q0 -70 18.5 -94.5t59.5 -24.5z" />
    <glyph glyph-name="Hbar" unicode="&#x126;" horiz-adv-x="993" 
d="M993 1505v-82h-92v-1423h-307v666h-193v-666h-307v1423h-94v82h94v133h307v-133h193v133h307v-133h92zM594 973v450h-193v-450h193z" />
    <glyph glyph-name="hbar" unicode="&#x127;" 
d="M567 1352q56 0 95.5 -17.5t64.5 -49t39 -85.5t19.5 -118t5.5 -156v-926h-308v946q0 70 -18 94.5t-59 24.5t-59.5 -24.5t-18.5 -94.5v-946h-308v1423h-139v82h139v133h308v-133h137v-82h-137v-241q31 70 89.5 120t149.5 50z" />
    <glyph glyph-name="Imacron" unicode="&#x12a;" horiz-adv-x="348" 
d="M-119 1917h584v-82h-584v82zM20 1638h308v-1638h-308v1638z" />
    <glyph glyph-name="imacron" unicode="&#x12b;" horiz-adv-x="348" 
d="M-119 1610h584v-82h-584v82zM20 1331h308v-1331h-308v1331z" />
    <glyph glyph-name="Iogonek" unicode="&#x12e;" horiz-adv-x="348" 
d="M82 -205q0 -65 59.5 -99t206.5 -38l-82 -82q-40 0 -73.5 2.5t-73.5 9.5t-70 21.5t-56 35.5t-40 55t-14 77q0 50 24 90t66.5 65.5t90.5 42t105 25.5h-205v1638h308v-1638q-130 -48 -188 -95.5t-58 -109.5z" />
    <glyph glyph-name="iogonek" unicode="&#x12f;" horiz-adv-x="348" 
d="M174 1446q-42 0 -72 28.5t-30 71.5q0 48 29.5 76.5t72.5 28.5q42 0 72 -28.5t30 -76.5q0 -43 -30.5 -71.5t-71.5 -28.5zM82 -205q0 -65 59.5 -99t206.5 -38l-82 -82q-40 0 -73.5 2.5t-73.5 9.5t-70 21.5t-56 35.5t-40 55t-14 77q0 50 24 90t66.5 65.5t90.5 42t105 25.5
h-205v1331h308v-1331q-130 -48 -188 -95.5t-58 -109.5z" />
    <glyph glyph-name="Idotaccent" unicode="&#x130;" horiz-adv-x="348" 
d="M174 1753q-42 0 -72 28.5t-30 71.5q0 48 29.5 76.5t72.5 28.5q42 0 72 -28.5t30 -76.5q0 -43 -30.5 -71.5t-71.5 -28.5zM20 1638h308v-1638h-308v1638z" />
    <glyph glyph-name="dotlessi" unicode="&#x131;" horiz-adv-x="348" 
d="M20 1331h308v-1331h-308v1331z" />
    <glyph glyph-name="Kcommaaccent" unicode="&#x136;" horiz-adv-x="856" 
d="M20 1638h308v-1638h-308v1638zM836 1638l-203 -819l203 -819h-318l-190 819l190 819h318zM428 -117q40 0 67 -26.5t27 -77.5q0 -164 -164 -244v90q61 28 72 80q-43 -7 -70.5 16.5t-27.5 65.5q0 41 27.5 68.5t68.5 27.5z" />
    <glyph glyph-name="kcommaaccent" unicode="&#x137;" horiz-adv-x="856" 
d="M20 1638h308v-1638h-308v1638zM836 1331l-203 -665l203 -666h-318l-190 666l190 665h318zM428 -117q40 0 67 -26.5t27 -77.5q0 -164 -164 -244v90q61 28 72 80q-43 -7 -70.5 16.5t-27.5 65.5q0 41 27.5 68.5t68.5 27.5z" />
    <glyph glyph-name="Lacute" unicode="&#x139;" horiz-adv-x="624" 
d="M444 1991l21 -80l-563 -150l-21 78zM328 307h276v-307h-584v1638h308v-1331z" />
    <glyph glyph-name="lacute" unicode="&#x13a;" horiz-adv-x="348" 
d="M-119 1839l563 152l21 -80l-563 -150zM20 1638h308v-1638h-308v1638z" />
    <glyph glyph-name="Lcommaaccent" unicode="&#x13b;" horiz-adv-x="624" 
d="M328 307h276v-307h-584v1638h308v-1331zM313 -117q40 0 67.5 -26.5t27.5 -77.5q0 -164 -164 -244v90q60 28 71 80q-43 -7 -70.5 16.5t-27.5 65.5q0 41 27.5 68.5t68.5 27.5z" />
    <glyph glyph-name="lcommaaccent" unicode="&#x13c;" horiz-adv-x="348" 
d="M20 1638h308v-1638h-308v1638zM176 -295q-43 -7 -70.5 16.5t-27.5 65.5q0 41 27.5 68.5t68.5 27.5q40 0 67 -26.5t27 -77.5q0 -164 -164 -244v90q61 28 72 80z" />
    <glyph glyph-name="Lcaron" unicode="&#x13d;" horiz-adv-x="624" 
d="M604 1659l-82 -512h-82l62 512h102zM328 1638v-1331h276v-307h-584v1638h308z" />
    <glyph glyph-name="lcaron" unicode="&#x13e;" horiz-adv-x="573" 
d="M471 1659h102l-81 -512h-82zM20 1638h308v-1638h-308v1638z" />
    <glyph glyph-name="Lslash" unicode="&#x141;" horiz-adv-x="727" 
d="M707 1159l-277 -170v-682h277v-307h-584v799l-123 -76v115l123 75v725h307v-534l277 170v-115z" />
    <glyph glyph-name="lslash" unicode="&#x142;" horiz-adv-x="706" 
d="M707 1274v-115l-199 -123v-1036h-307v848l-201 -125v115l201 125v675h307v-487z" />
    <glyph glyph-name="Nacute" unicode="&#x143;" horiz-adv-x="919" 
d="M752 1911l-564 -150l-20 78l563 152zM592 1638h307v-1638h-307l-264 809v-809h-308v1638h308l264 -809v809z" />
    <glyph glyph-name="nacute" unicode="&#x144;" 
d="M696 1604l-563 -150l-20 78l563 151zM567 1352q56 0 95.5 -17.5t64.5 -49t39 -85.5t19.5 -118t5.5 -156v-926h-308v946q0 70 -18 94.5t-59 24.5t-59.5 -24.5t-18.5 -94.5v-946h-308v1331h308v-149q31 70 89.5 120t149.5 50z" />
    <glyph glyph-name="Ncommaaccent" unicode="&#x145;" horiz-adv-x="919" 
d="M592 1638h307v-1638h-307l-264 809v-809h-308v1638h308l264 -809v809zM461 -117q40 0 67 -26.5t27 -77.5q0 -164 -164 -244v90q61 28 72 80q-43 -7 -70.5 16.5t-27.5 65.5q0 41 27.5 68.5t68.5 27.5z" />
    <glyph glyph-name="ncommaaccent" unicode="&#x146;" 
d="M567 1352q56 0 95.5 -17.5t64.5 -49t39 -85.5t19.5 -118t5.5 -156v-926h-308v946q0 70 -18 94.5t-59 24.5t-59.5 -24.5t-18.5 -94.5v-946h-308v1331h308v-149q31 70 89.5 120t149.5 50zM406 -117q40 0 67 -26.5t27 -77.5q0 -164 -164 -244v90q61 28 72 80
q-44 -7 -71.5 16.5t-27.5 65.5q0 41 28 68.5t69 27.5z" />
    <glyph glyph-name="Ncaron" unicode="&#x147;" horiz-adv-x="919" 
d="M535 1761h-144l-223 230h133l162 -168l155 168h134zM592 1638h307v-1638h-307l-264 809v-809h-308v1638h308l264 -809v809z" />
    <glyph glyph-name="ncaron" unicode="&#x148;" 
d="M479 1454h-143l-223 229h133l162 -167l155 167h133zM567 1352q56 0 95.5 -17.5t64.5 -49t39 -85.5t19.5 -118t5.5 -156v-926h-308v946q0 70 -18 94.5t-59 24.5t-59.5 -24.5t-18.5 -94.5v-946h-308v1331h308v-149q31 70 89.5 120t149.5 50z" />
    <glyph glyph-name="Eng" unicode="&#x14a;" horiz-adv-x="919" 
d="M592 1638h307v-1638q0 -77 -5.5 -132.5t-19.5 -104t-38.5 -79t-63 -53t-91.5 -32t-126 -9.5h-168v287h86q86 0 113.5 25t5.5 98l-264 809v-809h-308v1638h308l264 -809v809z" />
    <glyph glyph-name="eng" unicode="&#x14b;" 
d="M567 1352q56 0 95.5 -17.5t64.5 -49t39 -85.5t19.5 -118t5.5 -156v-926q0 -93 -8.5 -156t-30 -114.5t-60.5 -80.5t-99 -44t-147 -15h-167v287h86q63 0 90.5 25t27.5 98v946q0 70 -18 94.5t-59 24.5t-59.5 -24.5t-18.5 -94.5v-946h-308v1331h308v-149q31 70 89.5 120
t149.5 50z" />
    <glyph glyph-name="Omacron" unicode="&#x14c;" 
d="M696 1917v-82h-583v82h583zM406 1659q191 0 288 -112.5t97 -354.5v-746q0 -242 -97 -354t-288 -112t-288.5 112t-97.5 354v746q0 242 97.5 354.5t288.5 112.5zM483 467v704q0 109 -14 145t-63 36t-63.5 -36.5t-14.5 -144.5v-704q0 -108 14.5 -144t63.5 -36t63 35.5
t14 144.5z" />
    <glyph glyph-name="omacron" unicode="&#x14d;" 
d="M113 1610h583v-82h-583v82zM20 446v439q0 242 97.5 354.5t288.5 112.5t288 -112.5t97 -354.5v-439q0 -242 -97 -354t-288 -112t-288.5 112t-97.5 354zM328 446q0 -108 14.5 -144t63.5 -36t63 35.5t14 144.5v439q0 108 -14.5 144t-62.5 36q-49 0 -63.5 -36t-14.5 -144
v-439z" />
    <glyph glyph-name="Ohungarumlaut" unicode="&#x150;" 
d="M565 1991l-215 -230h-143l235 230h123zM575 1761h-143l236 230h123zM406 1659q191 0 288 -112.5t97 -354.5v-746q0 -242 -97 -354t-288 -112t-288.5 112t-97.5 354v746q0 242 97.5 354.5t288.5 112.5zM483 467v704q0 109 -14 145t-63 36t-63.5 -36.5t-14.5 -144.5v-704
q0 -108 14.5 -144t63.5 -36t63 35.5t14 144.5z" />
    <glyph glyph-name="ohungarumlaut" unicode="&#x151;" 
d="M350 1454h-143l235 229h123zM575 1454h-143l236 229h123zM20 446v439q0 242 97.5 354.5t288.5 112.5t288 -112.5t97 -354.5v-439q0 -242 -97 -354t-288 -112t-288.5 112t-97.5 354zM328 446q0 -108 14.5 -144t63.5 -36t63 35.5t14 144.5v439q0 108 -14.5 144t-62.5 36
q-49 0 -63.5 -36t-14.5 -144v-439z" />
    <glyph glyph-name="OE" unicode="&#x152;" horiz-adv-x="1226" 
d="M1206 1331h-276v-358h276v-307h-276v-359h276v-307h-583v172q-79 -192 -279 -192q-148 0 -236 114.5t-88 351.5v746q0 237 88 352t236 115q199 0 279 -193v172h583v-307zM483 467v704q0 109 -14 145t-63 36t-63.5 -36.5t-14.5 -144.5v-704q0 -108 14.5 -144t63.5 -36
t63 35.5t14 144.5z" />
    <glyph glyph-name="oe" unicode="&#x153;" horiz-adv-x="1273" 
d="M868 1352q191 0 288 -112.5t97 -354.5v-281h-462v-158q0 -109 14 -144.5t63 -35.5t63.5 36t14.5 144v76h307v-76q0 -242 -97 -354t-288 -112q-194 0 -288 114q-81 -114 -236 -114q-148 0 -236 114.5t-88 351.5v439q0 237 88 352t236 115q154 0 236 -115q95 115 288 115z
M406 266q49 0 63 35.5t14 144.5v439q0 108 -14.5 144t-62.5 36q-49 0 -63.5 -36t-14.5 -144v-439q0 -108 14.5 -144t63.5 -36zM946 809v76q0 107 -15 143.5t-63 36.5q-49 0 -63 -35.5t-14 -144.5v-76h155z" />
    <glyph glyph-name="Racute" unicode="&#x154;" horiz-adv-x="817" 
d="M700 1911l-563 -150l-20 78l563 152zM795 145q0 -117 22 -145h-307q-23 29 -23 145v316q0 86 -33 112.5t-126 26.5v-600h-308v1638h308q262 0 364.5 -99t102.5 -347v-145q0 -256 -152 -367q79 -33 115.5 -99.5t36.5 -181.5v-254zM487 1192q0 86 -33 112.5t-126 26.5v-424
q93 0 126 27t33 113v145z" />
    <glyph glyph-name="racute" unicode="&#x155;" 
d="M696 1604l-563 -150l-20 78l563 151zM573 1352q54 0 92.5 -17t63 -49t38.5 -86t19 -118t5 -156v-82h-308v102q0 67 -18.5 93t-58.5 26t-59 -26.5t-19 -92.5v-946h-308v1331h308v-149q31 70 90.5 120t154.5 50z" />
    <glyph glyph-name="Rcommaaccent" unicode="&#x156;" horiz-adv-x="817" 
d="M795 145q0 -117 22 -145h-307q-23 29 -23 145v316q0 86 -33 112.5t-126 26.5v-600h-308v1638h308q262 0 364.5 -99t102.5 -347v-145q0 -256 -152 -367q79 -33 115.5 -99.5t36.5 -181.5v-254zM487 1192q0 86 -33 112.5t-126 26.5v-424q93 0 126 27t33 113v145zM410 -117
q40 0 67 -26.5t27 -77.5q0 -164 -164 -244v90q61 28 72 80q-44 -7 -71.5 16.5t-27.5 65.5q0 41 28 68.5t69 27.5z" />
    <glyph glyph-name="rcommaaccent" unicode="&#x157;" 
d="M573 1352q54 0 92.5 -17t63 -49t38.5 -86t19 -118t5 -156v-82h-308v102q0 67 -18.5 93t-58.5 26t-59 -26.5t-19 -92.5v-946h-308v1331h308v-149q31 70 90.5 120t154.5 50zM174 -117q40 0 67 -26.5t27 -77.5q0 -164 -164 -244v90q61 28 72 80q-43 -7 -70.5 16.5
t-27.5 65.5q0 41 27.5 68.5t68.5 27.5z" />
    <glyph glyph-name="Rcaron" unicode="&#x158;" horiz-adv-x="817" 
d="M483 1761h-143l-223 230h133l162 -168l155 168h133zM795 145q0 -117 22 -145h-307q-23 29 -23 145v316q0 86 -33 112.5t-126 26.5v-600h-308v1638h308q262 0 364.5 -99t102.5 -347v-145q0 -256 -152 -367q79 -33 115.5 -99.5t36.5 -181.5v-254zM487 1192q0 86 -33 112.5
t-126 26.5v-424q93 0 126 27t33 113v145z" />
    <glyph glyph-name="rcaron" unicode="&#x159;" 
d="M479 1454h-143l-223 229h133l162 -167l155 167h133zM573 1352q54 0 92.5 -17t63 -49t38.5 -86t19 -118t5 -156v-82h-308v102q0 67 -18.5 93t-58.5 26t-59 -26.5t-19 -92.5v-946h-308v1331h308v-149q31 70 90.5 120t154.5 50z" />
    <glyph glyph-name="Sacute" unicode="&#x15a;" 
d="M696 1911l-563 -150l-20 78l563 152zM496 979q61 -46 98 -78.5t79 -83t64.5 -102t38 -125.5t15.5 -164q0 -222 -90 -334t-287 -112q-105 0 -175 25.5t-121.5 91t-74.5 181t-23 291.5h308q0 -118 10.5 -180.5t27.5 -82t48 -19.5q41 0 55 31t14 108q0 92 -28 145t-127 134
q-10 8 -44.5 35.5t-46 37t-41.5 36t-42 41t-35.5 43.5t-34 51t-26 56t-21.5 66.5t-11.5 74.5t-5.5 87q0 426 371 426q194 0 286.5 -123t92.5 -385h-307q0 115 -17.5 158t-54.5 43q-34 0 -48.5 -29t-14.5 -90q0 -44 9 -76.5t33 -63t50 -53.5t76 -61z" />
    <glyph glyph-name="sacute" unicode="&#x15b;" 
d="M696 1604l-563 -150l-20 78l563 151zM535 776q68 -50 107.5 -85t77.5 -84.5t54.5 -108t16.5 -133.5q0 -179 -92 -282t-285 -103q-104 0 -175.5 24t-121.5 80.5t-73.5 150t-23.5 232.5h308q0 -115 20.5 -158t65.5 -43q40 0 54.5 25.5t14.5 73.5q0 34 -12.5 60t-58 68
t-136.5 105q-41 28 -55.5 38.5t-50 38.5t-50 45.5t-38.5 49.5t-34.5 61t-19 70t-8.5 86q0 164 93 264.5t278 100.5q379 0 379 -447h-307q0 87 -17.5 123.5t-54.5 36.5q-32 0 -47.5 -23t-15.5 -55q0 -11 2 -20t4 -17t8.5 -17.5t12 -16t17.5 -17.5t20.5 -18t27.5 -21t32 -23.5
t38.5 -28t44.5 -32.5z" />
    <glyph glyph-name="Scedilla" unicode="&#x15e;" 
d="M791 426q0 -206 -76.5 -316.5t-243.5 -127.5l-29 -119q228 37 228 -123q0 -34 -14 -60.5t-33.5 -43.5t-54.5 -29t-62 -18t-72 -9t-68.5 -3.5t-66.5 -0.5l2 82q147 0 206.5 15.5t59.5 66.5q0 52 -56.5 62t-168.5 -9l29 189q-125 6 -199 58.5t-113 180.5t-39 348h308
q0 -118 10.5 -180.5t27.5 -82t48 -19.5q41 0 55 31t14 108q0 92 -28 145t-127 134q-10 8 -44.5 35.5t-46 37t-41.5 36t-42 41t-35.5 43.5t-34 51t-26 56t-21.5 66.5t-11.5 74.5t-5.5 87q0 426 371 426q194 0 286.5 -123t92.5 -385h-307q0 115 -17.5 158t-54.5 43
q-34 0 -48.5 -29t-14.5 -90q0 -44 9 -76.5t33 -63t50 -53.5t76 -61q61 -46 98 -78.5t79 -83t64.5 -102t38 -125.5t15.5 -164z" />
    <glyph glyph-name="scedilla" unicode="&#x15f;" 
d="M791 365q0 -171 -82.5 -272t-255.5 -111l-29 -119q227 37 227 -123q0 -34 -14 -60.5t-33.5 -43.5t-54 -29t-62 -18t-72 -9t-68 -3.5t-66.5 -0.5l2 82q147 0 206.5 15.5t59.5 66.5q0 52 -56.5 62t-168.5 -9l28 189q-173 14 -252.5 125t-79.5 360h308q0 -115 20.5 -158
t65.5 -43q40 0 54.5 25.5t14.5 73.5q0 34 -12.5 60t-58 68t-136.5 105q-41 28 -55.5 38.5t-50 38.5t-50 45.5t-38.5 49.5t-34.5 61t-19 70t-8.5 86q0 164 93 264.5t278 100.5q379 0 379 -447h-307q0 87 -17.5 123.5t-54.5 36.5q-32 0 -47.5 -23t-15.5 -55q0 -11 2 -20t4 -17
t8.5 -17.5t12 -16t17.5 -17.5t20.5 -18t27.5 -21t32 -23.5t38.5 -28t44.5 -32.5q68 -50 107.5 -85t77.5 -84.5t54.5 -108t16.5 -133.5z" />
    <glyph glyph-name="Scaron" unicode="&#x160;" 
d="M479 1761h-143l-223 230h133l162 -168l155 168h133zM496 979q61 -46 98 -78.5t79 -83t64.5 -102t38 -125.5t15.5 -164q0 -222 -90 -334t-287 -112q-105 0 -175 25.5t-121.5 91t-74.5 181t-23 291.5h308q0 -118 10.5 -180.5t27.5 -82t48 -19.5q41 0 55 31t14 108
q0 92 -28 145t-127 134q-10 8 -44.5 35.5t-46 37t-41.5 36t-42 41t-35.5 43.5t-34 51t-26 56t-21.5 66.5t-11.5 74.5t-5.5 87q0 426 371 426q194 0 286.5 -123t92.5 -385h-307q0 115 -17.5 158t-54.5 43q-34 0 -48.5 -29t-14.5 -90q0 -44 9 -76.5t33 -63t50 -53.5t76 -61z
" />
    <glyph glyph-name="scaron" unicode="&#x161;" 
d="M479 1454h-143l-223 229h133l162 -167l155 167h133zM535 776q68 -50 107.5 -85t77.5 -84.5t54.5 -108t16.5 -133.5q0 -179 -92 -282t-285 -103q-104 0 -175.5 24t-121.5 80.5t-73.5 150t-23.5 232.5h308q0 -115 20.5 -158t65.5 -43q40 0 54.5 25.5t14.5 73.5
q0 34 -12.5 60t-58 68t-136.5 105q-41 28 -55.5 38.5t-50 38.5t-50 45.5t-38.5 49.5t-34.5 61t-19 70t-8.5 86q0 164 93 264.5t278 100.5q379 0 379 -447h-307q0 87 -17.5 123.5t-54.5 36.5q-32 0 -47.5 -23t-15.5 -55q0 -11 2 -20t4 -17t8.5 -17.5t12 -16t17.5 -17.5
t20.5 -18t27.5 -21t32 -23.5t38.5 -28t44.5 -32.5z" />
    <glyph glyph-name="uni0162" unicode="&#x162;" horiz-adv-x="770" 
d="M539 0h-103l-33 -137q228 37 228 -123q0 -34 -14 -60.5t-33.5 -43.5t-54.5 -29t-62 -18t-72 -9t-68.5 -3.5t-66.5 -0.5l2 82q147 0 206.5 15.5t59.5 66.5q0 52 -56 62t-169 -9l31 207h-103v1331h-211v307h730v-307h-211v-1331z" />
    <glyph glyph-name="uni0163" unicode="&#x163;" horiz-adv-x="675" 
d="M655 1044h-204v-598q0 -98 27 -128.5t91 -30.5h86v-287h-168h-34l-31 -125q227 37 227 -123q0 -34 -14 -60.5t-33.5 -43.5t-54 -29t-62 -18t-72 -9t-68 -3.5t-66.5 -0.5l2 82q147 0 206.5 15.5t59.5 66.5q0 52 -56.5 62t-168.5 -9l30 207q-124 27 -166.5 124t-42.5 310
v598h-123v287q148 43 144 307h307q0 -55 -7.5 -103.5t-23 -91.5t-44.5 -72.5t-68 -39.5h327v-287z" />
    <glyph glyph-name="Tcaron" unicode="&#x164;" horiz-adv-x="770" 
d="M459 1761h-144l-223 230h133l162 -168l156 168h133zM750 1638v-307h-211v-1331h-308v1331h-211v307h730z" />
    <glyph glyph-name="tcaron" unicode="&#x165;" horiz-adv-x="675" 
d="M676 1659l-82 -246h-82l61 246h103zM328 1331h327v-287h-204v-598q0 -98 27 -128.5t91 -30.5h86v-287h-168q-73 0 -126 9.5t-91.5 33t-63 56t-38.5 85.5t-19.5 114t-5.5 148v598h-123v287q148 43 144 307h307q0 -55 -7.5 -103.5t-23 -91.5t-44.5 -72.5t-68 -39.5z" />
    <glyph glyph-name="Tbar" unicode="&#x166;" horiz-adv-x="770" 
d="M750 1331h-211v-471h137v-82h-137v-778h-308v778h-139v82h139v471h-211v307h730v-307z" />
    <glyph glyph-name="tbar" unicode="&#x167;" horiz-adv-x="675" 
d="M655 1044h-204v-276h157v-82h-157v-240q0 -98 27 -128.5t91 -30.5h86v-287h-168q-73 0 -126 9.5t-91.5 33t-63 56t-38.5 85.5t-19.5 114t-5.5 148v240h-118v82h118v276h-123v287q148 43 144 307h307q0 -55 -7.5 -103.5t-23 -91.5t-44.5 -72.5t-68 -39.5h327v-287z" />
    <glyph glyph-name="Umacron" unicode="&#x16a;" 
d="M113 1917h583v-82h-583v82zM791 1638v-1192q0 -242 -97 -354t-288 -112t-288.5 112t-97.5 354v1192h308v-1171q0 -108 14.5 -144t63.5 -36t63 35.5t14 144.5v1171h308z" />
    <glyph glyph-name="umacron" unicode="&#x16b;" 
d="M696 1610v-82h-583v82h583zM791 197q0 -53 0.5 -77t5 -56t14.5 -64h-266q-34 20 -48 65t-14 85q-31 -70 -89.5 -120t-149.5 -50q-56 0 -95.5 17.5t-64.5 49t-39 85.5t-19.5 118t-5.5 156v925h308v-946q0 -70 18.5 -94.5t59.5 -24.5t59 24.5t18 94.5v946h308v-1134z" />
    <glyph glyph-name="Uring" unicode="&#x16e;" 
d="M406 1761q-55 0 -95.5 39t-40.5 96t40.5 96.5t95.5 39.5t95 -39t40 -97q0 -57 -40 -96t-95 -39zM406 1843q24 0 38.5 14.5t14.5 38.5t-14.5 39t-38.5 15t-39 -15t-15 -39t15 -38.5t39 -14.5zM791 1638v-1192q0 -242 -97 -354t-288 -112t-288.5 112t-97.5 354v1192h308
v-1171q0 -108 14.5 -144t63.5 -36t63 35.5t14 144.5v1171h308z" />
    <glyph glyph-name="uring" unicode="&#x16f;" 
d="M406 1454q-55 0 -95.5 39t-40.5 96t40.5 96t95.5 39t95 -39t40 -96t-40 -96t-95 -39zM406 1642q-24 0 -39 -15t-15 -38t15 -38t39 -15t38.5 14.5t14.5 38.5t-14.5 38.5t-38.5 14.5zM791 197q0 -53 0.5 -77t5 -56t14.5 -64h-266q-34 20 -48 65t-14 85q-31 -70 -89.5 -120
t-149.5 -50q-56 0 -95.5 17.5t-64.5 49t-39 85.5t-19.5 118t-5.5 156v925h308v-946q0 -70 18.5 -94.5t59.5 -24.5t59 24.5t18 94.5v946h308v-1134z" />
    <glyph glyph-name="Uhungarumlaut" unicode="&#x170;" 
d="M350 1761h-143l235 230h123zM575 1761h-143l236 230h123zM791 1638v-1192q0 -242 -97 -354t-288 -112t-288.5 112t-97.5 354v1192h308v-1171q0 -108 14.5 -144t63.5 -36t63 35.5t14 144.5v1171h308z" />
    <glyph glyph-name="uhungarumlaut" unicode="&#x171;" 
d="M565 1683l-215 -229h-143l235 229h123zM575 1454h-143l236 229h123zM791 197q0 -53 0.5 -77t5 -56t14.5 -64h-266q-34 20 -48 65t-14 85q-31 -70 -89.5 -120t-149.5 -50q-56 0 -95.5 17.5t-64.5 49t-39 85.5t-19.5 118t-5.5 156v925h308v-946q0 -70 18.5 -94.5
t59.5 -24.5t59 24.5t18 94.5v946h308v-1134z" />
    <glyph glyph-name="Uogonek" unicode="&#x172;" 
d="M483 1638h308v-1192q0 -379 -248 -448q-125 -48 -181.5 -95t-56.5 -108q0 -65 59.5 -99t206.5 -38l-82 -82q-40 0 -73.5 2.5t-73.5 9.5t-70 21.5t-56 35.5t-40 55t-14 77q0 144 200 205q-169 11 -255.5 124t-86.5 340v1192h308v-1171q0 -108 14.5 -144t63.5 -36t63 35.5
t14 144.5v1171z" />
    <glyph glyph-name="uogonek" unicode="&#x173;" 
d="M565 -205q0 -65 59.5 -99t206.5 -38l-81 -82q-49 0 -89 3.5t-86.5 15.5t-78 33t-53 59t-21.5 90q0 50 24.5 90t67 65.5t90.5 42t105 25.5h-164q-34 20 -48 65t-14 85q-31 -70 -89.5 -120t-149.5 -50q-56 0 -95.5 17.5t-64.5 49t-39 85.5t-19.5 118t-5.5 156v925h308v-946
q0 -70 18.5 -94.5t59.5 -24.5t59 24.5t18 94.5v946h308v-1134q0 -53 0.5 -77t5 -56t14.5 -64q-130 -48 -188 -95.5t-58 -109.5z" />
    <glyph glyph-name="Wcircumflex" unicode="&#x174;" horiz-adv-x="1542" 
d="M774 1929l-162 -168h-133l223 230h144l217 -230h-133zM1174 1638h348l-283 -1638h-528v1198l-162 -1198h-529v1638h308v-1296l155 1296h535v-1296z" />
    <glyph glyph-name="wcircumflex" unicode="&#x175;" horiz-adv-x="1542" 
d="M774 1622l-162 -168h-133l223 229h144l217 -229h-133zM1174 1331h348l-283 -1331h-528v973l-162 -973h-529v1331h308v-1055l155 1055h535v-1055z" />
    <glyph glyph-name="Ycircumflex" unicode="&#x176;" horiz-adv-x="937" 
d="M399 1991h144l217 -230h-133l-156 168l-162 -168h-133zM315 573l-295 1065h328l121 -700l121 700h328l-295 -1065v-573h-308v573z" />
    <glyph glyph-name="ycircumflex" unicode="&#x177;" 
d="M408 1622l-162 -168h-133l223 229h143l217 -229h-133zM483 1331h308v-1294q0 -87 -5.5 -148t-20 -114t-38.5 -86t-63 -56t-92 -33t-126 -10h-364v287h283q64 0 91 31t27 129v113q-31 -70 -89.5 -120t-149.5 -50q-56 0 -95.5 17.5t-64.5 49t-39 85.5t-19.5 118t-5.5 156
v925h308v-946q0 -70 18.5 -94.5t59.5 -24.5t59 24.5t18 94.5v946z" />
    <glyph glyph-name="Ydieresis" unicode="&#x178;" horiz-adv-x="937" 
d="M319 1753q-42 0 -72 28.5t-30 71.5q0 48 29.5 76.5t72.5 28.5q42 0 72.5 -29t30.5 -76q0 -43 -31 -71.5t-72 -28.5zM616 1753q-42 0 -72 28.5t-30 71.5q0 48 29.5 76.5t72.5 28.5q42 0 72.5 -29t30.5 -76q0 -43 -31 -71.5t-72 -28.5zM315 573l-295 1065h328l121 -700
l121 700h328l-295 -1065v-573h-308v573z" />
    <glyph glyph-name="Zacute" unicode="&#x179;" horiz-adv-x="747" 
d="M666 1911l-564 -150l-20 78l563 152zM727 1638v-307l-399 -1024h399v-307h-707v307l400 1024h-400v307h707z" />
    <glyph glyph-name="zacute" unicode="&#x17a;" horiz-adv-x="747" 
d="M666 1604l-564 -150l-20 78l563 151zM727 1331v-287l-375 -757h375v-287h-707v287l375 757h-375v287h707z" />
    <glyph glyph-name="Zdotaccent" unicode="&#x17b;" horiz-adv-x="747" 
d="M375 1753q-42 0 -72.5 28.5t-30.5 71.5q0 48 30 76.5t73 28.5q42 0 72 -28.5t30 -76.5q0 -43 -30.5 -71.5t-71.5 -28.5zM727 1638v-307l-399 -1024h399v-307h-707v307l400 1024h-400v307h707z" />
    <glyph glyph-name="zdotaccent" unicode="&#x17c;" horiz-adv-x="747" 
d="M375 1446q-42 0 -72.5 28.5t-30.5 71.5q0 48 30 76.5t73 28.5q42 0 72 -28.5t30 -76.5q0 -43 -30.5 -71.5t-71.5 -28.5zM727 1331v-287l-375 -757h375v-287h-707v287l375 757h-375v287h707z" />
    <glyph glyph-name="Zcaron" unicode="&#x17d;" horiz-adv-x="747" 
d="M449 1761h-144l-223 230h133l162 -168l155 168h134zM727 1638v-307l-399 -1024h399v-307h-707v307l400 1024h-400v307h707z" />
    <glyph glyph-name="zcaron" unicode="&#x17e;" horiz-adv-x="747" 
d="M449 1454h-144l-223 229h133l162 -167l155 167h134zM727 1331v-287l-375 -757h375v-287h-707v287l375 757h-375v287h707z" />
    <glyph glyph-name="Scommaaccent" unicode="&#x218;" 
d="M496 979q61 -46 98 -78.5t79 -83t64.5 -102t38 -125.5t15.5 -164q0 -222 -90 -334t-287 -112q-105 0 -175 25.5t-121.5 91t-74.5 181t-23 291.5h308q0 -118 10.5 -180.5t27.5 -82t48 -19.5q41 0 55 31t14 108q0 92 -28 145t-127 134q-10 8 -44.5 35.5t-46 37t-41.5 36
t-42 41t-35.5 43.5t-34 51t-26 56t-21.5 66.5t-11.5 74.5t-5.5 87q0 426 371 426q194 0 286.5 -123t92.5 -385h-307q0 115 -17.5 158t-54.5 43q-34 0 -48.5 -29t-14.5 -90q0 -44 9 -76.5t33 -63t50 -53.5t76 -61zM424 -117q40 0 67 -26.5t27 -77.5q0 -164 -164 -244v90
q61 28 72 80q-43 -7 -70.5 16.5t-27.5 65.5q0 41 27.5 68.5t68.5 27.5z" />
    <glyph glyph-name="scommaaccent" unicode="&#x219;" 
d="M535 776q68 -50 107.5 -85t77.5 -84.5t54.5 -108t16.5 -133.5q0 -179 -92 -282t-285 -103q-104 0 -175.5 24t-121.5 80.5t-73.5 150t-23.5 232.5h308q0 -115 20.5 -158t65.5 -43q40 0 54.5 25.5t14.5 73.5q0 34 -12.5 60t-58 68t-136.5 105q-41 28 -55.5 38.5t-50 38.5
t-50 45.5t-38.5 49.5t-34.5 61t-19 70t-8.5 86q0 164 93 264.5t278 100.5q379 0 379 -447h-307q0 87 -17.5 123.5t-54.5 36.5q-32 0 -47.5 -23t-15.5 -55q0 -11 2 -20t4 -17t8.5 -17.5t12 -16t17.5 -17.5t20.5 -18t27.5 -21t32 -23.5t38.5 -28t44.5 -32.5zM406 -117
q40 0 67 -26.5t27 -77.5q0 -164 -164 -244v90q61 28 72 80q-44 -7 -71.5 16.5t-27.5 65.5q0 41 28 68.5t69 27.5z" />
    <glyph glyph-name="uni021A" unicode="&#x21a;" horiz-adv-x="770" 
d="M750 1638v-307h-211v-1331h-308v1331h-211v307h730zM385 -117q40 0 67 -26.5t27 -77.5q0 -164 -164 -244v90q61 28 72 80q-43 -7 -70.5 16.5t-27.5 65.5q0 41 27.5 68.5t68.5 27.5z" />
    <glyph glyph-name="uni021B" unicode="&#x21b;" horiz-adv-x="675" 
d="M655 1044h-204v-598q0 -98 27 -128.5t91 -30.5h86v-287h-168q-73 0 -126 9.5t-91.5 33t-63 56t-38.5 85.5t-19.5 114t-5.5 148v598h-123v287q148 43 144 307h307q0 -55 -7.5 -103.5t-23 -91.5t-44.5 -72.5t-68 -39.5h327v-287zM403 -104q40 0 67.5 -27t27.5 -78
q0 -164 -164 -244v91q61 28 72 79q-44 -7 -71.5 16.5t-27.5 65.5q0 41 27.5 69t68.5 28z" />
    <glyph glyph-name="circumflex" unicode="&#x2c6;" horiz-adv-x="624" 
d="M244 1683h143l217 -229h-133l-156 168l-161 -168h-134z" />
    <glyph glyph-name="caron" unicode="&#x2c7;" horiz-adv-x="624" 
d="M244 1454l-224 229h134l161 -167l156 167h133l-217 -229h-143z" />
    <glyph glyph-name="breve" unicode="&#x2d8;" horiz-adv-x="624" 
d="M315 1454q-58 0 -107.5 11t-93 36t-69 71.5t-25.5 110.5h103q0 -41 19 -71.5t49.5 -46t61 -22.5t62.5 -7t62 7t59.5 22.5t47.5 45.5t18 72h102q0 -64 -24.5 -110.5t-67 -71.5t-91.5 -36t-106 -11z" />
    <glyph glyph-name="dotaccent" unicode="&#x2d9;" horiz-adv-x="245" 
d="M123 1446q-42 0 -72.5 28.5t-30.5 71.5q0 48 30 76.5t73 28.5q42 0 72 -28.5t30 -76.5q0 -43 -30.5 -71.5t-71.5 -28.5z" />
    <glyph glyph-name="ring" unicode="&#x2da;" horiz-adv-x="311" 
d="M156 1454q-55 0 -95.5 39t-40.5 96t40.5 96t95.5 39t95 -39t40 -96t-40 -96t-95 -39zM156 1536q24 0 38.5 14.5t14.5 38.5t-14.5 38.5t-38.5 14.5t-39 -15t-15 -38t15 -38t39 -15z" />
    <glyph glyph-name="ogonek" unicode="&#x2db;" horiz-adv-x="411" 
d="M369 0q-130 -48 -188 -95.5t-58 -109.5q0 -65 59.5 -99t206.5 -38l-82 -82q-40 0 -73.5 2.5t-73.5 9.5t-70 21.5t-56 35.5t-40 55t-14 77q0 50 24 90t66.5 65.5t90.5 42t105 25.5h103z" />
    <glyph glyph-name="tilde" unicode="&#x2dc;" horiz-adv-x="624" 
d="M20 1479q0 204 164 204q44 0 77.5 -15t53.5 -36.5t37 -43.5t37.5 -37t44.5 -15q68 0 68 123h102q0 -205 -164 -205q-44 0 -77.5 15t-53.5 37t-37 44t-37.5 37t-44.5 15q-67 0 -67 -123h-103z" />
    <glyph glyph-name="hungarumlaut" unicode="&#x2dd;" horiz-adv-x="624" 
d="M164 1454h-144l236 229h123zM389 1454h-143l235 229h123z" />
    <glyph glyph-name="gravecomb" unicode="&#x300;" horiz-adv-x="0" 
d="M-20 1532l-21 -78l-563 150l20 79z" />
    <glyph glyph-name="acutecomb" unicode="&#x301;" horiz-adv-x="0" 
d="M-604 1532l563 151l21 -79l-564 -150z" />
    <glyph glyph-name="uni0302" unicode="&#x302;" horiz-adv-x="0" 
d="M-381 1683h143l218 -229h-134l-155 168l-162 -168h-133z" />
    <glyph glyph-name="tildecomb" unicode="&#x303;" horiz-adv-x="0" 
d="M-604 1479q0 204 164 204q44 0 77.5 -15t53.5 -36.5t37 -43.5t37.5 -37t44.5 -15q67 0 67 123h103q0 -205 -164 -205q-44 0 -77.5 15t-53.5 37t-37 44t-37.5 37t-44.5 15q-68 0 -68 -123h-102z" />
    <glyph glyph-name="uni0304" unicode="&#x304;" horiz-adv-x="0" 
d="M-604 1610h584v-82h-584v82z" />
    <glyph glyph-name="uni0306" unicode="&#x306;" horiz-adv-x="0" 
d="M-309 1454q-58 0 -107.5 11t-93 36t-69 71.5t-25.5 110.5h102q0 -41 19 -71.5t49.5 -46t61.5 -22.5t63 -7t62 7t59 22.5t47 45.5t18 72h103q0 -64 -24.5 -110.5t-67 -71.5t-91.5 -36t-106 -11z" />
    <glyph glyph-name="uni0307" unicode="&#x307;" horiz-adv-x="0" 
d="M-123 1446q-42 0 -72 28.5t-30 71.5q0 48 29.5 76.5t72.5 28.5q42 0 72.5 -29t30.5 -76q0 -43 -31 -71.5t-72 -28.5z" />
    <glyph glyph-name="uni0308" unicode="&#x308;" horiz-adv-x="0" 
d="M-420 1446q-42 0 -72 28.5t-30 71.5q0 48 29.5 76.5t72.5 28.5q42 0 72.5 -29t30.5 -76q0 -43 -31 -71.5t-72 -28.5zM-123 1446q-42 0 -72 28.5t-30 71.5q0 48 29.5 76.5t72.5 28.5q42 0 72.5 -29t30.5 -76q0 -43 -31 -71.5t-72 -28.5z" />
    <glyph glyph-name="uni030A" unicode="&#x30a;" horiz-adv-x="0" 
d="M-156 1454q-55 0 -95 39t-40 96t40 96t95 39t95.5 -39t40.5 -96t-40.5 -96t-95.5 -39zM-156 1536q24 0 39 15t15 38t-15 38t-39 15t-38.5 -14.5t-14.5 -38.5t14.5 -38.5t38.5 -14.5z" />
    <glyph glyph-name="uni030B" unicode="&#x30b;" horiz-adv-x="0" 
d="M-461 1454h-143l235 229h123zM-236 1454h-143l236 229h123z" />
    <glyph glyph-name="uni030C" unicode="&#x30c;" horiz-adv-x="0" 
d="M-381 1454l-223 229h133l162 -167l155 167h134l-218 -229h-143z" />
    <glyph glyph-name="uni0312" unicode="&#x312;" horiz-adv-x="0" 
d="M-119 1612q44 21 71.5 1.5t27.5 -63.5q0 -42 -26 -69t-67 -27q-50 0 -74 34t-24 91q0 56 38 113.5t126 89.5v-90q-61 -28 -72 -80z" />
    <glyph glyph-name="uni0326" unicode="&#x326;" horiz-adv-x="0" 
d="M-113 -295q-43 -7 -70.5 16.5t-27.5 65.5q0 41 27.5 68.5t68.5 27.5q40 0 67.5 -26.5t27.5 -77.5q0 -164 -164 -244v90q60 28 71 80z" />
    <glyph glyph-name="uni0327" unicode="&#x327;" horiz-adv-x="0" 
d="M-317 0h102l-33 -137q228 37 228 -123q0 -34 -14 -60.5t-33.5 -43.5t-54.5 -29t-62 -18t-72 -9t-68.5 -3.5t-66.5 -0.5l2 82q147 0 206.5 15.5t59.5 66.5q0 52 -56.5 62t-168.5 -9z" />
    <glyph glyph-name="uni0328" unicode="&#x328;" horiz-adv-x="0" 
d="M-43 0q-130 -48 -188 -95.5t-58 -109.5q0 -65 59.5 -99t206.5 -38l-81 -82q-49 0 -89 3.5t-86.5 15.5t-78 33t-53 59t-21.5 90q0 50 24.5 90t67 65.5t90.5 42t105 25.5h102z" />
    <glyph glyph-name="uni0335" unicode="&#x335;" horiz-adv-x="0" 
d="M-604 717h584v-82h-584v82z" />
    <glyph glyph-name="uni0336" unicode="&#x336;" horiz-adv-x="0" 
d="M-604 717h584v-82h-584v82z" />
    <glyph glyph-name="uni0337" unicode="&#x337;" horiz-adv-x="0" 
d="M-20 1659l-609 -1679h-108l608 1679h109z" />
    <glyph glyph-name="uni0338" unicode="&#x338;" horiz-adv-x="0" 
d="M-20 1659l-609 -1679h-108l608 1679h109z" />
    <glyph glyph-name="Wgrave" unicode="&#x1e80;" horiz-adv-x="1542" 
d="M1063 1839l-21 -78l-563 150l21 80zM1174 1638h348l-283 -1638h-528v1198l-162 -1198h-529v1638h308v-1296l155 1296h535v-1296z" />
    <glyph glyph-name="wgrave" unicode="&#x1e81;" horiz-adv-x="1542" 
d="M1063 1532l-21 -78l-563 150l21 79zM1174 1331h348l-283 -1331h-528v973l-162 -973h-529v1331h308v-1055l155 1055h535v-1055z" />
    <glyph glyph-name="Wacute" unicode="&#x1e82;" horiz-adv-x="1542" 
d="M1063 1911l-563 -150l-21 78l563 152zM1174 1638h348l-283 -1638h-528v1198l-162 -1198h-529v1638h308v-1296l155 1296h535v-1296z" />
    <glyph glyph-name="wacute" unicode="&#x1e83;" horiz-adv-x="1542" 
d="M1063 1604l-563 -150l-21 78l563 151zM1174 1331h348l-283 -1331h-528v973l-162 -973h-529v1331h308v-1055l155 1055h535v-1055z" />
    <glyph glyph-name="Wdieresis" unicode="&#x1e84;" horiz-adv-x="1542" 
d="M623 1753q-42 0 -72.5 28.5t-30.5 71.5q0 48 30 76.5t73 28.5q42 0 72 -28.5t30 -76.5q0 -43 -30.5 -71.5t-71.5 -28.5zM920 1753q-42 0 -72.5 28.5t-30.5 71.5q0 48 30 76.5t73 28.5q42 0 72 -28.5t30 -76.5q0 -43 -30.5 -71.5t-71.5 -28.5zM1174 1638h348l-283 -1638
h-528v1198l-162 -1198h-529v1638h308v-1296l155 1296h535v-1296z" />
    <glyph glyph-name="wdieresis" unicode="&#x1e85;" horiz-adv-x="1542" 
d="M623 1446q-42 0 -72.5 28.5t-30.5 71.5q0 48 30 76.5t73 28.5q42 0 72 -28.5t30 -76.5q0 -43 -30.5 -71.5t-71.5 -28.5zM920 1446q-42 0 -72.5 28.5t-30.5 71.5q0 48 30 76.5t73 28.5q42 0 72 -28.5t30 -76.5q0 -43 -30.5 -71.5t-71.5 -28.5zM1174 1331h348l-283 -1331
h-528v973l-162 -973h-529v1331h308v-1055l155 1055h535v-1055z" />
    <glyph glyph-name="Ygrave" unicode="&#x1ef2;" horiz-adv-x="937" 
d="M760 1839l-21 -78l-563 150l21 80zM315 573l-295 1065h328l121 -700l121 700h328l-295 -1065v-573h-308v573z" />
    <glyph glyph-name="ygrave" unicode="&#x1ef3;" 
d="M696 1532l-20 -78l-563 150l20 79zM483 1331h308v-1294q0 -87 -5.5 -148t-20 -114t-38.5 -86t-63 -56t-92 -33t-126 -10h-364v287h283q64 0 91 31t27 129v113q-31 -70 -89.5 -120t-149.5 -50q-56 0 -95.5 17.5t-64.5 49t-39 85.5t-19.5 118t-5.5 156v925h308v-946
q0 -70 18.5 -94.5t59.5 -24.5t59 24.5t18 94.5v946z" />
    <glyph glyph-name="endash" unicode="&#x2013;" horiz-adv-x="1228" 
d="M20 727h1188v-102h-1188v102z" />
    <glyph glyph-name="emdash" unicode="&#x2014;" horiz-adv-x="2088" 
d="M20 727h2048v-102h-2048v102z" />
    <glyph glyph-name="quoteleft" unicode="&#x2018;" horiz-adv-x="204" 
d="M123 1147h-103l82 512h82z" />
    <glyph glyph-name="quoteright" unicode="&#x2019;" horiz-adv-x="204" 
d="M82 1659h102l-82 -512h-82z" />
    <glyph glyph-name="quotesinglbase" unicode="&#x201a;" horiz-adv-x="368" 
d="M20 141q0 75 47.5 120.5t116.5 45.5q72 0 118 -52.5t46 -154.5q0 -28 -5.5 -59t-23.5 -75.5t-47.5 -83t-84 -77.5t-126.5 -63v102q131 55 144 156q-69 -15 -127 27t-58 114z" />
    <glyph glyph-name="quotedblleft" unicode="&#x201c;" horiz-adv-x="368" 
d="M123 1147h-103l82 512h82zM287 1147h-103l82 512h82z" />
    <glyph glyph-name="quotedblright" unicode="&#x201d;" horiz-adv-x="368" 
d="M82 1659h102l-82 -512h-82zM246 1659h102l-82 -512h-82z" />
    <glyph glyph-name="quotedblbase" unicode="&#x201e;" horiz-adv-x="368" 
d="M184 307q72 0 118 -52.5t46 -154.5q0 -28 -5.5 -59t-23.5 -75.5t-47.5 -83t-84 -77.5t-126.5 -63v102q131 55 144 156q-69 -15 -127 27t-58 114q0 75 47.5 120.5t116.5 45.5z" />
    <glyph glyph-name="dagger" unicode="&#x2020;" horiz-adv-x="376" 
d="M356 1331v-102h-116v-594h-103v594h-117v102h117v307h103v-307h116z" />
    <glyph glyph-name="daggerdbl" unicode="&#x2021;" horiz-adv-x="376" 
d="M356 1229h-116v-205h116v-102h-116v-287h-103v287h-117v102h117v205h-117v102h117v307h103v-307h116v-102z" />
    <glyph glyph-name="bullet" unicode="&#x2022;" horiz-adv-x="602" 
d="M301 395q-118 0 -199.5 77t-81.5 200q0 127 81 204.5t200 77.5t200 -77.5t81 -204.5q0 -123 -81.5 -200t-199.5 -77z" />
    <glyph glyph-name="ellipsis" unicode="&#x2026;" horiz-adv-x="1105" 
d="M184 -20q-69 0 -116.5 44.5t-47.5 116.5q0 75 47.5 120.5t116.5 45.5t116.5 -45.5t47.5 -120.5q0 -72 -47.5 -116.5t-116.5 -44.5zM553 -20q-69 0 -116.5 44.5t-47.5 116.5q0 75 47.5 120.5t116.5 45.5t116.5 -45.5t47.5 -120.5q0 -72 -47.5 -116.5t-116.5 -44.5z
M922 -20q-69 0 -116.5 44.5t-47.5 116.5q0 75 47.5 120.5t116.5 45.5t116 -45.5t47 -120.5q0 -72 -47 -116.5t-116 -44.5z" />
    <glyph glyph-name="perthousand" unicode="&#x2030;" horiz-adv-x="1564" 
d="M270 1044q67 0 117 25.5t78 70.5t41.5 98t13.5 114t-13.5 114t-41.5 97.5t-78 70t-117 25.5t-117 -25.5t-78 -70t-41.5 -97.5t-13.5 -114t13.5 -114t41.5 -98t78 -70.5t117 -25.5zM860 1659l-608 -1679h-109l609 1679h108zM270 1147q-147 0 -147 205q0 204 147 204
q148 0 148 -204q0 -205 -148 -205zM733 -20q67 0 117 25.5t78 70t41.5 97.5t13.5 114t-13.5 114t-41.5 97.5t-78 70t-117 25.5t-117 -25.5t-78 -70t-41.5 -97.5t-13.5 -114t13.5 -114t41.5 -97.5t78 -70t117 -25.5zM1294 -20q67 0 117 25.5t78 70t41.5 97.5t13.5 114
t-13.5 114t-41.5 97.5t-78 70t-117 25.5t-117 -25.5t-78 -70t-41.5 -97.5t-13.5 -114t13.5 -114t41.5 -97.5t78 -70t117 -25.5zM733 82q-147 0 -147 205t147 205q148 0 148 -205t-148 -205zM1294 82q-147 0 -147 205t147 205q148 0 148 -205t-148 -205z" />
    <glyph glyph-name="guilsinglleft" unicode="&#x2039;" horiz-adv-x="346" 
d="M326 1042v-122l-228 -244l228 -244v-123l-306 326v82z" />
    <glyph glyph-name="guilsinglright" unicode="&#x203a;" horiz-adv-x="346" 
d="M20 1042l306 -325v-82l-306 -326v123l228 244l-228 244v122z" />
    <glyph glyph-name="fraction" unicode="&#x2044;" horiz-adv-x="757" 
d="M737 1659l-608 -1679h-109l609 1679h108z" />
    <glyph glyph-name="Euro" unicode="&#x20ac;" horiz-adv-x="823" 
d="M508 82q163 0 192 225h103q-14 -168 -94.5 -247.5t-200.5 -79.5q-176 0 -268.5 157.5t-112.5 489.5h-107v102h103v82h-103v102h105q9 384 101 565t282 181q119 0 200 -79.5t95 -248.5h-103q-29 225 -192 225q-145 0 -210 -153t-73 -490h434v-102h-434v-82h434v-102h-430
q14 -284 79 -414.5t200 -130.5z" />
    <glyph glyph-name="trademark" unicode="&#x2122;" horiz-adv-x="937" 
d="M356 1638v-102h-116v-901h-103v901h-117v102h336zM815 1638h103v-1003h-103v510l-106 -510h-103l-106 510v-510h-103v1003h103l157 -804z" />
    <glyph glyph-name="arrowleft" unicode="&#x2190;" horiz-adv-x="880" 
d="M860 727v-102h-696q91 -37 161.5 -123t84.5 -226h-103q-14 128 -99 221.5t-188 127.5v102q104 35 188.5 127.5t98.5 220.5h103q-7 -73 -32 -134t-61 -102t-73.5 -68t-79.5 -44h696z" />
    <glyph glyph-name="arrowup" unicode="&#x2191;" horiz-adv-x="839" 
d="M471 1090q35 -104 127.5 -188.5t220.5 -98.5v-103q-73 7 -134 32t-102 61t-68 73.5t-44 79.5v-696h-102v696q-37 -91 -123 -161.5t-226 -84.5v103q128 14 221.5 99t127.5 188h102z" />
    <glyph glyph-name="arrowright" unicode="&#x2192;" horiz-adv-x="880" 
d="M573 1075q14 -128 98.5 -220.5t188.5 -127.5v-102q-103 -34 -188 -127.5t-99 -221.5h-102q14 140 84.5 226t161.5 123h-697v102h697q-42 17 -79.5 44t-73.5 68t-61 102t-32 134h102z" />
    <glyph glyph-name="arrowdown" unicode="&#x2193;" horiz-adv-x="839" 
d="M471 408q37 91 122.5 161t225.5 84v-102q-128 -14 -220.5 -98.5t-127.5 -188.5h-102q-34 103 -127.5 188t-221.5 99v102q140 -14 226 -84t123 -161v696h102v-696z" />
    <glyph glyph-name="arrowboth" unicode="&#x2194;" horiz-adv-x="1126" 
d="M819 1075q14 -128 98.5 -220.5t188.5 -127.5v-102q-103 -34 -188 -127.5t-99 -221.5h-102q14 140 84.5 226t161.5 123h-799q91 -37 161.5 -123t84.5 -226h-103q-14 128 -99 221.5t-188 127.5v102q104 35 188.5 127.5t98.5 220.5h103q-7 -73 -32 -134t-61 -102t-73.5 -68
t-79.5 -44h799q-42 17 -79.5 44t-73.5 68t-61 102t-32 134h102z" />
    <glyph glyph-name="arrowupdn" unicode="&#x2195;" horiz-adv-x="839" 
d="M471 276q17 42 44 79.5t68 73.5t102 61t134 32v-102q-128 -14 -220.5 -98.5t-127.5 -188.5h-102q-34 103 -127.5 188t-221.5 99v102q140 -14 226 -84.5t123 -161.5v799q-37 -91 -123 -161.5t-226 -84.5v103q128 14 221.5 99t127.5 188h102q35 -104 127.5 -188.5
t220.5 -98.5v-103q-73 7 -134 32t-102 61t-68 73.5t-44 79.5v-799z" />
    <glyph glyph-name="uni2196" unicode="&#x2196;" horiz-adv-x="749" 
d="M586 1087l71 -73q-75 -61 -157.5 -84.5t-144 -17.5t-117.5 30l-103 100q62 -30 136 -40.5t160 10t155 75.5zM657 377l-594 594l72 71l594 -593zM20 522q54 68 74 153.5t9.5 159.5t-40.5 136l101 -103q25 -56 31.5 -117.5t-17.5 -144t-86 -157.5z" />
    <glyph glyph-name="uni2197" unicode="&#x2197;" horiz-adv-x="751" 
d="M166 1012q68 -54 153.5 -74t159 -9.5t135.5 40.5l-102 -101q-56 -25 -118 -31.5t-144.5 17.5t-157.5 86zM20 375l594 594l72 -72l-594 -594zM731 446l-74 -71q-61 75 -84.5 157.5t-17 144.5t30.5 118l100 102q-30 -62 -40.5 -136t10 -160t75.5 -155z" />
    <glyph glyph-name="uni2198" unicode="&#x2198;" horiz-adv-x="749" 
d="M92 1051l594 -594l-72 -72l-594 594zM729 905q-54 -68 -74 -153.5t-9.5 -159t40.5 -135.5l-100 102q-25 56 -32 118t17 144.5t86 157.5zM164 340l-72 74q75 61 157.5 84.5t144.5 17t118 -30.5l102 -100q-62 30 -135.5 40.5t-159.5 -10t-155 -75.5z" />
    <glyph glyph-name="uni2199" unicode="&#x2199;" horiz-adv-x="751" 
d="M731 967l-594 -594l-71 71l593 594zM20 895l74 72q61 -75 84.5 -157.5t17.5 -144.5t-30 -118l-100 -103q30 62 40 136t-10.5 160t-75.5 155zM586 330q-68 54 -153.5 74t-159.5 9.5t-136 -40.5l103 100q56 25 117.5 31.5t144 -17.5t157.5 -86z" />
    <glyph glyph-name="partialdiff" unicode="&#x2202;" horiz-adv-x="950" 
d="M260 1413q120 -52 217.5 -117.5t183.5 -160.5t144 -211t91.5 -271.5t33.5 -339.5q0 -244 -124.5 -391t-330.5 -147q-95 0 -178.5 37.5t-144.5 104.5t-96.5 166t-35.5 216q0 70 13.5 136.5t46.5 132.5t81.5 115t124 79.5t169.5 30.5q122 0 211 -55t141 -150
q-47 268 -192 445t-396 286zM475 -123q166 0 259 120t93 316q-8 106 -44.5 183t-91 117.5t-113 58.5t-123.5 18q-108 0 -184.5 -53t-112 -140t-35.5 -198q0 -194 101 -308t251 -114z" />
    <glyph glyph-name="emptyset" unicode="&#x2205;" horiz-adv-x="1146" 
d="M811 1327q150 -63 232.5 -199.5t82.5 -306.5q0 -114 -37 -214t-105.5 -176t-174.5 -120.5t-234 -44.5q-59 0 -143 15l-108 -301h-109l121 331q-151 63 -233.5 200.5t-82.5 309.5q0 112 37.5 211.5t106 175.5t175 120t236.5 44q80 0 140 -14l108 301h109zM123 821
q0 -89 26 -167.5t83 -144t139 -101.5l309 854q-66 8 -105 8q-113 0 -201.5 -37.5t-142 -101.5t-81 -143t-27.5 -167zM575 369q111 0 199 37.5t141.5 101.5t81 143.5t27.5 169.5q0 135 -63.5 246.5t-184.5 163.5l-307 -852q55 -10 106 -10z" />
    <glyph glyph-name="product" unicode="&#x220f;" horiz-adv-x="880" 
d="M860 1423v-102h-166v-1546h-102v1546h-305v-1546h-103v1546h-164v102h840z" />
    <glyph glyph-name="summation" unicode="&#x2211;" horiz-adv-x="880" 
d="M860 1423v-102h-721l436 -727l-436 -727h721v-103h-840v103l441 725l-441 729v102h840z" />
    <glyph glyph-name="minus" unicode="&#x2212;" horiz-adv-x="880" 
d="M20 727h840v-102h-840v102z" />
    <glyph glyph-name="radical" unicode="&#x221a;" horiz-adv-x="1081" 
d="M700 1413h361v-82h-279l-333 -1556h-138l-291 733h109l246 -631z" />
    <glyph glyph-name="infinity" unicode="&#x221e;" horiz-adv-x="1126" 
d="M881 942q40 0 78.5 -14.5t72 -44.5t54 -83.5t20.5 -123.5t-20.5 -123.5t-54 -83.5t-72 -44.5t-78.5 -14.5q-80 0 -155.5 52t-162.5 144q-87 -92 -162 -144t-155 -52q-40 0 -78.5 14.5t-72.5 44.5t-54.5 83.5t-20.5 123.5t20.5 123.5t54.5 83.5t72.5 44.5t78.5 14.5
q80 0 155 -52t162 -145q87 93 162.5 145t155.5 52zM256 512q54 0 109 41.5t133 122.5q-78 81 -133 122.5t-109 41.5q-133 0 -133 -164t133 -164zM872 512q66 0 99 43t33 121t-33 121t-99 43q-54 0 -110 -41.5t-133 -122.5q77 -81 133 -122.5t110 -41.5z" />
    <glyph glyph-name="integral" unicode="&#x222b;" horiz-adv-x="618" 
d="M20 -143q71 0 118 53t69.5 143.5t34 207t16.5 245.5t12 258t26 245.5t52 207t96.5 143.5t153.5 53v-82q-71 0 -118 -53t-69.5 -143.5t-34 -207t-16.5 -245.5t-12 -258t-26 -245.5t-52 -207t-96.5 -143.5t-153.5 -53v82z" />
    <glyph glyph-name="approxequal" unicode="&#x2248;" horiz-adv-x="880" 
d="M20 758q0 69 19.5 116.5t53 69.5t65 30.5t67.5 8.5q55 0 107 -19t92 -46t77 -54t77 -46t77 -19q47 0 75 31.5t28 91.5h102q0 -56 -14 -98t-34.5 -66t-49.5 -38.5t-54 -19t-53 -4.5q-67 0 -131.5 29t-107 63.5t-94.5 63.5t-97 29q-47 0 -74.5 -31.5t-27.5 -91.5h-103z
M20 430q0 69 19.5 116.5t53 69.5t65 30.5t67.5 8.5q55 0 107 -19t92 -46t77 -54t77 -46t77 -19q47 0 75 31.5t28 91.5h102q0 -69 -19.5 -116.5t-53 -69.5t-65 -30.5t-67.5 -8.5q-55 0 -107 19t-92 46t-77 54t-77 46t-77 19q-47 0 -74.5 -31.5t-27.5 -91.5h-103z" />
    <glyph glyph-name="notequal" unicode="&#x2260;" horiz-adv-x="880" 
d="M860 727h-346l-37 -102h383v-103h-422l-135 -362h-108l135 362h-310v103h349l37 102h-386v102h424l136 363h108l-135 -363h307v-102z" />
    <glyph glyph-name="lessequal" unicode="&#x2264;" horiz-adv-x="880" 
d="M860 1042v-102l-696 -264l696 -264v-166h-840v102h740l-740 287v82z" />
    <glyph glyph-name="greaterequal" unicode="&#x2265;" horiz-adv-x="880" 
d="M860 717v-82l-739 -287h739v-102h-840v166l697 264l-697 264v102z" />
    <glyph glyph-name="lozenge" unicode="&#x25ca;" horiz-adv-x="688" 
d="M418 1382l250 -614l-250 -614h-148l-250 614l250 614h148zM344 244l213 524l-213 524l-213 -524z" />
    <glyph glyph-name="B.001" horiz-adv-x="815" 
d="M610 862q185 -91 185 -352v-84q0 -231 -103.5 -328t-363.5 -98h-308v1638h308q133 0 217.5 -22.5t136.5 -77.5t72 -136.5t20 -209.5v-14q0 -234 -164 -316zM328 1331v-334q89 0 114 25.5t25 114.5v55q0 89 -25 114t-114 25zM328 307q93 0 126 26.5t33 112.5v105
q0 86 -33 112.5t-126 26.5v-383z" />
    <glyph glyph-name="D.001" horiz-adv-x="815" 
d="M328 1638q262 0 364.5 -99t102.5 -347v-746q0 -246 -103 -346t-364 -100h-308v1638h308zM328 307q93 0 126 26.5t33 112.5v746q0 86 -33 112.5t-126 26.5v-1024z" />
    <glyph glyph-name="A.ss01" horiz-adv-x="1763" 
d="M1411 0l-115 289h-829l-115 -289h-332l652 1638h420l651 -1638h-332zM582 575h600l-299 756z" />
    <glyph glyph-name="Aacute.ss01" horiz-adv-x="1763" 
d="M1174 1911l-564 -150l-20 78l563 152zM1411 0l-115 289h-829l-115 -289h-332l652 1638h420l651 -1638h-332zM582 575h600l-299 756z" />
    <glyph glyph-name="Abreve.ss01" horiz-adv-x="1763" 
d="M885 1761q-57 0 -107 11.5t-93.5 36.5t-69 71.5t-25.5 110.5h102q0 -41 19 -72t49.5 -46.5t61.5 -22.5t63 -7t62 7t59 22.5t47 46t18 72.5h103q0 -64 -24.5 -110.5t-67 -71.5t-91.5 -36.5t-106 -11.5zM1411 0l-115 289h-829l-115 -289h-332l652 1638h420l651 -1638h-332z
M582 575h600l-299 756z" />
    <glyph glyph-name="Acircumflex.ss01" horiz-adv-x="1763" 
d="M885 1929l-162 -168h-133l223 230h143l218 -230h-134zM1411 0l-115 289h-829l-115 -289h-332l652 1638h420l651 -1638h-332zM582 575h600l-299 756z" />
    <glyph glyph-name="Adieresis.ss01" horiz-adv-x="1763" 
d="M733 1753q-42 0 -72 28.5t-30 71.5q0 48 29.5 76.5t72.5 28.5q42 0 72.5 -29t30.5 -76q0 -43 -31 -71.5t-72 -28.5zM1030 1753q-42 0 -72 28.5t-30 71.5q0 48 29.5 76.5t72.5 28.5q42 0 72.5 -29t30.5 -76q0 -43 -31 -71.5t-72 -28.5zM1411 0l-115 289h-829l-115 -289
h-332l652 1638h420l651 -1638h-332zM582 575h600l-299 756z" />
    <glyph glyph-name="Agrave.ss01" horiz-adv-x="1763" 
d="M1174 1839l-21 -78l-563 150l20 80zM1411 0l-115 289h-829l-115 -289h-332l652 1638h420l651 -1638h-332zM582 575h600l-299 756z" />
    <glyph glyph-name="Amacron.ss01" horiz-adv-x="1763" 
d="M1174 1917v-82h-584v82h584zM1411 0l-115 289h-829l-115 -289h-332l652 1638h420l651 -1638h-332zM582 575h600l-299 756z" />
    <glyph glyph-name="Aogonek.ss01" horiz-adv-x="1763" 
d="M1413 -184q0 -65 59.5 -99.5t206.5 -38.5l-82 -81q-40 0 -73.5 2.5t-73.5 9t-70 21t-56 35.5t-40 55t-14 77q0 142 196 203h-55l-115 289h-829l-115 -289h-332l652 1638h420l651 -1638h-135q-103 -42 -149 -85t-46 -99zM582 575h600l-299 756z" />
    <glyph glyph-name="Aring.ss01" horiz-adv-x="1763" 
d="M883 1761q-55 0 -95 39t-40 96q0 58 40 97t95 39t95 -39t40 -97q0 -57 -40 -96t-95 -39zM883 1950q-24 0 -39 -15t-15 -39t14.5 -38.5t39.5 -14.5q24 0 38.5 14.5t14.5 38.5t-14.5 39t-38.5 15zM1411 0l-115 289h-829l-115 -289h-332l652 1638h420l651 -1638h-332z
M582 575h600l-299 756z" />
    <glyph glyph-name="Atilde.ss01" horiz-adv-x="1763" 
d="M760 1909q-68 0 -68 -123h-102q0 205 164 205q44 0 77.5 -15t53.5 -37t37 -44t37.5 -37t44.5 -15q67 0 67 123h103q0 -205 -164 -205q-44 0 -77.5 15t-53.5 37t-37 44t-37.5 37t-44.5 15zM1411 0l-115 289h-829l-115 -289h-332l652 1638h420l651 -1638h-332zM582 575h600
l-299 756z" />
    <glyph glyph-name="B.ss01" horiz-adv-x="1619" 
d="M1341 870q258 -92 258 -403q0 -256 -137.5 -361.5t-451.5 -105.5h-990v1638h949q207 0 326 -43t171 -134t52 -249q0 -247 -177 -342zM328 1352v-365h620q75 0 118 6t79 26t50.5 59t14.5 104q0 45 -10.5 75.5t-29 49t-53 28.5t-72.5 13.5t-97 3.5h-620zM1010 287
q76 0 121.5 6t85.5 25t57.5 58t17.5 101q0 71 -17.5 116t-57 68t-86.5 31t-121 8h-682v-413h682z" />
    <glyph glyph-name="C.ss01" horiz-adv-x="1669" 
d="M20 821q0 171 54.5 322t156.5 266.5t261 182.5t356 67q176 0 324 -54.5t248.5 -148t160 -217t68.5 -264.5h-312q-7 78 -42 148t-94.5 126.5t-151 89.5t-201.5 33q-107 0 -195 -30.5t-147.5 -82t-100 -122.5t-59 -150t-18.5 -166q0 -88 18.5 -168t59 -151.5t100 -123
t147 -82t195.5 -30.5q111 0 203 33.5t151.5 90.5t94 128.5t40.5 149.5h312q-9 -141 -68 -265.5t-160 -219t-249 -149t-324 -54.5q-197 0 -356 67t-261 182.5t-156.5 267t-54.5 324.5z" />
    <glyph glyph-name="Cacute.ss01" horiz-adv-x="1669" 
d="M543 1839l563 152l20 -80l-563 -150zM20 821q0 171 54.5 322t156.5 266.5t261 182.5t356 67q176 0 324 -54.5t248.5 -148t160 -217t68.5 -264.5h-312q-7 78 -42 148t-94.5 126.5t-151 89.5t-201.5 33q-107 0 -195 -30.5t-147.5 -82t-100 -122.5t-59 -150t-18.5 -166
q0 -88 18.5 -168t59 -151.5t100 -123t147 -82t195.5 -30.5q111 0 203 33.5t151.5 90.5t94 128.5t40.5 149.5h312q-9 -141 -68 -265.5t-160 -219t-249 -149t-324 -54.5q-197 0 -356 67t-261 182.5t-156.5 267t-54.5 324.5z" />
    <glyph glyph-name="Ccaron.ss01" horiz-adv-x="1669" 
d="M766 1761l-223 230h133l162 -168l155 168h133l-217 -230h-143zM20 821q0 171 54.5 322t156.5 266.5t261 182.5t356 67q176 0 324 -54.5t248.5 -148t160 -217t68.5 -264.5h-312q-7 78 -42 148t-94.5 126.5t-151 89.5t-201.5 33q-107 0 -195 -30.5t-147.5 -82t-100 -122.5
t-59 -150t-18.5 -166q0 -88 18.5 -168t59 -151.5t100 -123t147 -82t195.5 -30.5q111 0 203 33.5t151.5 90.5t94 128.5t40.5 149.5h312q-9 -141 -68 -265.5t-160 -219t-249 -149t-324 -54.5q-197 0 -356 67t-261 182.5t-156.5 267t-54.5 324.5z" />
    <glyph glyph-name="Ccedilla.ss01" horiz-adv-x="1669" 
d="M848 266q111 0 203 33.5t151.5 90.5t94 128.5t40.5 149.5h312q-9 -138 -65.5 -260.5t-152.5 -216t-237.5 -150t-310.5 -61.5l-29 -117q227 37 227 -123q0 -34 -14 -60.5t-33.5 -43.5t-54 -29t-62 -18t-72 -9t-68 -3.5t-66.5 -0.5l2 82q147 0 206.5 15.5t59.5 66.5
q0 52 -56.5 62t-168.5 -9l28 189q-146 9 -270 57t-214 125.5t-153 180.5t-94 223.5t-31 252.5q0 171 54.5 322t156.5 266.5t261 182.5t356 67q176 0 324 -54.5t248.5 -148t160 -217t68.5 -264.5h-312q-7 78 -42 148t-94.5 126.5t-151 89.5t-201.5 33q-107 0 -195 -30.5
t-147.5 -82t-100 -122.5t-59 -150t-18.5 -166q0 -88 18.5 -168t59 -151.5t100 -123t147 -82t195.5 -30.5z" />
    <glyph glyph-name="Cdotaccent.ss01" horiz-adv-x="1669" 
d="M836 1753q-42 0 -72.5 28.5t-30.5 71.5q0 48 30 76.5t73 28.5q42 0 72 -28.5t30 -76.5q0 -43 -30.5 -71.5t-71.5 -28.5zM20 821q0 171 54.5 322t156.5 266.5t261 182.5t356 67q176 0 324 -54.5t248.5 -148t160 -217t68.5 -264.5h-312q-7 78 -42 148t-94.5 126.5
t-151 89.5t-201.5 33q-107 0 -195 -30.5t-147.5 -82t-100 -122.5t-59 -150t-18.5 -166q0 -88 18.5 -168t59 -151.5t100 -123t147 -82t195.5 -30.5q111 0 203 33.5t151.5 90.5t94 128.5t40.5 149.5h312q-9 -141 -68 -265.5t-160 -219t-249 -149t-324 -54.5q-197 0 -356 67
t-261 182.5t-156.5 267t-54.5 324.5z" />
    <glyph glyph-name="D.ss01" horiz-adv-x="1630" 
d="M836 1638q136 0 247 -20.5t211.5 -73t168 -136.5t107.5 -216.5t40 -306.5v-131q0 -145 -27 -261t-78 -198t-119.5 -140t-157.5 -91.5t-184 -48.5t-208 -15h-816v1638h816zM836 287q54 0 96 3.5t92.5 15t88.5 31t75.5 55t61 83.5t38.5 119t15 160v131q0 89 -15 160
t-38.5 119t-61 83.5t-75.5 55t-88.5 31t-92.5 15t-96 3.5h-508v-1065h508z" />
    <glyph glyph-name="Eth.ss01" horiz-adv-x="1748" 
d="M954 1638q136 0 247 -20.5t211.5 -73t168.5 -136.5t108 -216.5t40 -306.5v-131q0 -173 -40 -305.5t-108 -216.5t-168.5 -137t-211.5 -74t-247 -21h-815v778h-139v82h139v778h815zM954 287q54 0 96 3.5t92.5 15t88.5 31t75.5 55t61 83.5t38.5 119t15 160v131q0 89 -15 160
t-38.5 119t-61 83.5t-75.5 55t-88.5 31t-92.5 15t-96 3.5h-508v-492h486v-82h-486v-491h508z" />
    <glyph glyph-name="Dcaron.ss01" horiz-adv-x="1630" 
d="M889 1761h-144l-223 230h133l162 -168l156 168h133zM836 1638q136 0 247 -20.5t211.5 -73t168 -136.5t107.5 -216.5t40 -306.5v-131q0 -145 -27 -261t-78 -198t-119.5 -140t-157.5 -91.5t-184 -48.5t-208 -15h-816v1638h816zM836 287q54 0 96 3.5t92.5 15t88.5 31
t75.5 55t61 83.5t38.5 119t15 160v131q0 89 -15 160t-38.5 119t-61 83.5t-75.5 55t-88.5 31t-92.5 15t-96 3.5h-508v-1065h508z" />
    <glyph glyph-name="Dcroat.ss01" horiz-adv-x="1748" 
d="M954 1638q136 0 247 -20.5t211.5 -73t168.5 -136.5t108 -216.5t40 -306.5v-131q0 -173 -40 -305.5t-108 -216.5t-168.5 -137t-211.5 -74t-247 -21h-815v778h-139v82h139v778h815zM954 287q54 0 96 3.5t92.5 15t88.5 31t75.5 55t61 83.5t38.5 119t15 160v131q0 89 -15 160
t-38.5 119t-61 83.5t-75.5 55t-88.5 31t-92.5 15t-96 3.5h-508v-492h486v-82h-486v-491h508z" />
    <glyph glyph-name="E.ss01" horiz-adv-x="1249" 
d="M1229 1352h-901v-389h901v-287h-901v-389h901v-287h-1209v1638h1209v-286z" />
    <glyph glyph-name="Eacute.ss01" horiz-adv-x="1249" 
d="M915 1911l-563 -150l-20 78l563 152zM1229 1352h-901v-389h901v-287h-901v-389h901v-287h-1209v1638h1209v-286z" />
    <glyph glyph-name="Ecaron.ss01" horiz-adv-x="1249" 
d="M698 1761h-143l-223 230h133l162 -168l155 168h133zM1229 1352h-901v-389h901v-287h-901v-389h901v-287h-1209v1638h1209v-286z" />
    <glyph glyph-name="Ecircumflex.ss01" horiz-adv-x="1249" 
d="M627 1929l-162 -168h-133l223 230h143l217 -230h-133zM1229 1352h-901v-389h901v-287h-901v-389h901v-287h-1209v1638h1209v-286z" />
    <glyph glyph-name="Edieresis.ss01" horiz-adv-x="1249" 
d="M475 1753q-42 0 -72 28.5t-30 71.5q0 48 29.5 76.5t72.5 28.5q42 0 72.5 -29t30.5 -76q0 -43 -31 -71.5t-72 -28.5zM772 1753q-42 0 -72 28.5t-30 71.5q0 48 29.5 76.5t72.5 28.5q42 0 72 -28.5t30 -76.5q0 -43 -30.5 -71.5t-71.5 -28.5zM1229 1352h-901v-389h901v-287
h-901v-389h901v-287h-1209v1638h1209v-286z" />
    <glyph glyph-name="Edotaccent.ss01" horiz-adv-x="1249" 
d="M625 1753q-42 0 -72.5 28.5t-30.5 71.5q0 48 30 76.5t73 28.5q42 0 72 -28.5t30 -76.5q0 -43 -30.5 -71.5t-71.5 -28.5zM1229 1352h-901v-389h901v-287h-901v-389h901v-287h-1209v1638h1209v-286z" />
    <glyph glyph-name="Egrave.ss01" horiz-adv-x="1249" 
d="M915 1839l-20 -78l-563 150l20 80zM1229 1352h-901v-389h901v-287h-901v-389h901v-287h-1209v1638h1209v-286z" />
    <glyph glyph-name="Emacron.ss01" horiz-adv-x="1249" 
d="M915 1917v-82h-583v82h583zM1229 1352h-901v-389h901v-287h-901v-389h901v-287h-1209v1638h1209v-286z" />
    <glyph glyph-name="Eogonek.ss01" horiz-adv-x="1249" 
d="M1229 1352h-901v-389h901v-287h-901v-389h901v-287h-84q-103 -42 -149 -85t-46 -99q0 -65 60 -99.5t207 -38.5l-82 -81q-49 0 -89 3.5t-87 15.5t-78 32.5t-52.5 58.5t-21.5 90q0 142 197 203h-984v1638h1209v-286z" />
    <glyph glyph-name="F.ss01" horiz-adv-x="1249" 
d="M1229 1352h-901v-471h901v-287h-901v-594h-308v1638h1209v-286z" />
    <glyph glyph-name="G.ss01" horiz-adv-x="1669" 
d="M649 563v287h1000v-850h-205l-45 250q-193 -270 -572 -270q-189 0 -343.5 67t-255 182.5t-154.5 267.5t-54 324q0 171 54.5 322t156.5 266.5t261 182.5t356 67q176 0 324 -54.5t248.5 -148t160 -217t68.5 -264.5h-312q-7 78 -42 148t-94.5 126.5t-151 89.5t-201.5 33
q-107 0 -195 -30.5t-147.5 -82t-100 -122.5t-59 -150t-18.5 -166q0 -88 18.5 -168t59 -151.5t100 -123t147 -82t195.5 -30.5q179 0 294 82t167 215h-660z" />
    <glyph glyph-name="Gbreve.ss01" horiz-adv-x="1669" 
d="M838 1761q-57 0 -107 11.5t-93.5 36.5t-69 71.5t-25.5 110.5h102q0 -41 19 -72t49.5 -46.5t61.5 -22.5t63 -7t62 7t59 22.5t47 46t18 72.5h102q0 -64 -24.5 -110.5t-66.5 -71.5t-91 -36.5t-106 -11.5zM649 563v287h1000v-850h-205l-45 250q-193 -270 -572 -270
q-189 0 -343.5 67t-255 182.5t-154.5 267.5t-54 324q0 171 54.5 322t156.5 266.5t261 182.5t356 67q176 0 324 -54.5t248.5 -148t160 -217t68.5 -264.5h-312q-7 78 -42 148t-94.5 126.5t-151 89.5t-201.5 33q-107 0 -195 -30.5t-147.5 -82t-100 -122.5t-59 -150t-18.5 -166
q0 -88 18.5 -168t59 -151.5t100 -123t147 -82t195.5 -30.5q179 0 294 82t167 215h-660z" />
    <glyph glyph-name="Gcommaaccent.ss01" horiz-adv-x="1669" 
d="M649 563v287h1000v-850h-205l-45 250q-193 -270 -572 -270q-189 0 -343.5 67t-255 182.5t-154.5 267.5t-54 324q0 171 54.5 322t156.5 266.5t261 182.5t356 67q176 0 324 -54.5t248.5 -148t160 -217t68.5 -264.5h-312q-7 78 -42 148t-94.5 126.5t-151 89.5t-201.5 33
q-107 0 -195 -30.5t-147.5 -82t-100 -122.5t-59 -150t-18.5 -166q0 -88 18.5 -168t59 -151.5t100 -123t147 -82t195.5 -30.5q179 0 294 82t167 215h-660zM836 -117q40 0 67 -26.5t27 -77.5q0 -164 -164 -244v90q61 28 72 80q-44 -7 -71.5 16.5t-27.5 65.5q0 41 28 68.5
t69 27.5z" />
    <glyph glyph-name="Gdotaccent.ss01" horiz-adv-x="1669" 
d="M836 1753q-42 0 -72.5 28.5t-30.5 71.5q0 48 30 76.5t73 28.5q42 0 72 -28.5t30 -76.5q0 -43 -30.5 -71.5t-71.5 -28.5zM649 563v287h1000v-850h-205l-45 250q-193 -270 -572 -270q-189 0 -343.5 67t-255 182.5t-154.5 267.5t-54 324q0 171 54.5 322t156.5 266.5
t261 182.5t356 67q176 0 324 -54.5t248.5 -148t160 -217t68.5 -264.5h-312q-7 78 -42 148t-94.5 126.5t-151 89.5t-201.5 33q-107 0 -195 -30.5t-147.5 -82t-100 -122.5t-59 -150t-18.5 -166q0 -88 18.5 -168t59 -151.5t100 -123t147 -82t195.5 -30.5q179 0 294 82t167 215
h-660z" />
    <glyph glyph-name="H.ss01" horiz-adv-x="1603" 
d="M1276 1638h307v-1638h-307v676h-948v-676h-308v1638h308v-675h948v675z" />
    <glyph glyph-name="Hbar.ss01" horiz-adv-x="1849" 
d="M1849 1413v-82h-143v-1331h-307v676h-948v-676h-308v1331h-143v82h143v225h308v-225h948v225h307v-225h143zM1399 963v368h-948v-368h948z" />
    <glyph glyph-name="I.ss01" horiz-adv-x="1167" 
d="M1147 1352h-410v-1065h410v-287h-1127v287h410v1065h-410v286h1127v-286z" />
    <glyph glyph-name="Iacute.ss01" horiz-adv-x="1167" 
d="M874 1911l-563 -150l-20 78l563 152zM1147 1352h-410v-1065h410v-287h-1127v287h410v1065h-410v286h1127v-286z" />
    <glyph glyph-name="Icircumflex.ss01" horiz-adv-x="1167" 
d="M586 1929l-162 -168h-133l223 230h143l217 -230h-133zM1147 1352h-410v-1065h410v-287h-1127v287h410v1065h-410v286h1127v-286z" />
    <glyph glyph-name="Idieresis.ss01" horiz-adv-x="1167" 
d="M434 1753q-42 0 -72 28.5t-30 71.5q0 48 29.5 76.5t72.5 28.5q42 0 72.5 -29t30.5 -76q0 -43 -31 -71.5t-72 -28.5zM731 1753q-42 0 -72 28.5t-30 71.5q0 48 29.5 76.5t72.5 28.5q42 0 72.5 -29t30.5 -76q0 -43 -31 -71.5t-72 -28.5zM1147 1352h-410v-1065h410v-287
h-1127v287h410v1065h-410v286h1127v-286z" />
    <glyph glyph-name="Idotaccent.ss01" horiz-adv-x="1167" 
d="M584 1753q-42 0 -72.5 28.5t-30.5 71.5q0 48 30 76.5t73 28.5q42 0 72 -28.5t30 -76.5q0 -43 -30.5 -71.5t-71.5 -28.5zM1147 1352h-410v-1065h410v-287h-1127v287h410v1065h-410v286h1127v-286z" />
    <glyph glyph-name="Igrave.ss01" horiz-adv-x="1167" 
d="M874 1839l-20 -78l-563 150l20 80zM1147 1352h-410v-1065h410v-287h-1127v287h410v1065h-410v286h1127v-286z" />
    <glyph glyph-name="Imacron.ss01" horiz-adv-x="1167" 
d="M874 1917v-82h-583v82h583zM1147 1352h-410v-1065h410v-287h-1127v287h410v1065h-410v286h1127v-286z" />
    <glyph glyph-name="Iogonek.ss01" horiz-adv-x="1167" 
d="M901 -205q0 -65 59.5 -99t206.5 -38l-82 -82q-40 0 -73.5 2.5t-73.5 9.5t-70 21.5t-56 35.5t-40 55t-14 77q0 50 24 90t66.5 65.5t90.5 42t105 25.5h-1024v287h410v1065h-410v286h1127v-286h-410v-1065h410v-287q-130 -48 -188 -95.5t-58 -109.5z" />
    <glyph glyph-name="J.ss01" horiz-adv-x="1622" 
d="M1602 1638v-987q0 -357 -182.5 -514t-608.5 -157t-608.5 157t-182.5 514v101h308v-101q0 -96 21 -163t73.5 -119.5t148.5 -77.5t240 -25t240 25t148.5 77.5t73.5 119.5t21 163v987h308z" />
    <glyph glyph-name="K.ss01" horiz-adv-x="1630" 
d="M1610 1638l-932 -819l932 -819h-463l-744 676h-75v-676h-308v1638h308v-675h75l744 675h463z" />
    <glyph glyph-name="Kcommaaccent.ss01" horiz-adv-x="1630" 
d="M1610 1638l-932 -819l932 -819h-463l-744 676h-75v-676h-308v1638h308v-675h75l744 675h463zM696 -117q40 0 67.5 -26.5t27.5 -77.5q0 -164 -164 -244v90q60 28 71 80q-43 -7 -70.5 16.5t-27.5 65.5q0 41 27.5 68.5t68.5 27.5z" />
    <glyph glyph-name="L.ss01" horiz-adv-x="1249" 
d="M328 287h901v-287h-1209v1638h308v-1351z" />
    <glyph glyph-name="Lacute.ss01" horiz-adv-x="1249" 
d="M444 1991l21 -80l-563 -150l-21 78zM328 287h901v-287h-1209v1638h308v-1351z" />
    <glyph glyph-name="Lcaron.ss01" horiz-adv-x="1249" 
d="M248 1761h-144l-223 230h133l162 -168l156 168h133zM328 287h901v-287h-1209v1638h308v-1351z" />
    <glyph glyph-name="Lcommaaccent.ss01" horiz-adv-x="1249" 
d="M328 287h901v-287h-1209v1638h308v-1351zM625 -117q40 0 67 -26.5t27 -77.5q0 -164 -164 -244v90q61 28 72 80q-44 -7 -71.5 16.5t-27.5 65.5q0 41 28 68.5t69 27.5z" />
    <glyph glyph-name="Lslash.ss01" horiz-adv-x="1372" 
d="M451 287h901v-287h-1209v811l-143 -88v115l143 88v712h308v-522l256 158v-115l-256 -158v-714z" />
    <glyph glyph-name="M.ss01" horiz-adv-x="2105" 
d="M1778 1638h307v-1638h-307v1053l-654 -1053h-143l-653 1053v-1053h-308v1638h308l725 -1177z" />
    <glyph glyph-name="N.ss01" horiz-adv-x="1839" 
d="M1511 1638h308v-1638h-308l-1183 1208v-1208h-308v1638h308l1183 -1208v1208z" />
    <glyph glyph-name="Nacute.ss01" horiz-adv-x="1839" 
d="M1210 1911l-563 -150l-20 78l563 152zM1511 1638h308v-1638h-308l-1183 1208v-1208h-308v1638h308l1183 -1208v1208z" />
    <glyph glyph-name="Ncaron.ss01" horiz-adv-x="1839" 
d="M993 1761h-143l-223 230h133l162 -168l155 168h133zM1511 1638h308v-1638h-308l-1183 1208v-1208h-308v1638h308l1183 -1208v1208z" />
    <glyph glyph-name="Ncommaaccent.ss01" horiz-adv-x="1839" 
d="M1511 1638h308v-1638h-308l-1183 1208v-1208h-308v1638h308l1183 -1208v1208zM920 -117q40 0 67 -26.5t27 -77.5q0 -164 -164 -244v90q61 28 72 80q-44 -7 -71.5 16.5t-27.5 65.5q0 41 28 68.5t69 27.5z" />
    <glyph glyph-name="Ntilde.ss01" horiz-adv-x="1839" 
d="M797 1909q-68 0 -68 -123h-102q0 205 164 205q44 0 77.5 -15t53.5 -37t36.5 -44t37 -37t44.5 -15q68 0 68 123h102q0 -205 -163 -205q-44 0 -77.5 15t-53.5 37t-37 44t-37.5 37t-44.5 15zM1511 1638h308v-1638h-308l-1183 1208v-1208h-308v1638h308l1183 -1208v1208z" />
    <glyph glyph-name="O.ss01" horiz-adv-x="1720" 
d="M862 -20q-197 0 -358 67t-266 182.5t-161.5 267.5t-56.5 324q0 136 35.5 261t106.5 230t170.5 182.5t235.5 121t294 43.5q157 0 292 -43.5t234.5 -121t170 -182.5t106 -230t35.5 -261q0 -172 -56.5 -324t-161 -267.5t-265 -182.5t-355.5 -67zM862 266q132 0 236 46
t167 124.5t95.5 176.5t32.5 208q0 109 -32.5 206t-95.5 175t-167 124t-236 46q-134 0 -238.5 -46t-167.5 -124t-95.5 -175t-32.5 -206q0 -111 32.5 -208.5t95.5 -176t167.5 -124.5t238.5 -46z" />
    <glyph glyph-name="Oacute.ss01" horiz-adv-x="1720" 
d="M567 1839l563 152l21 -80l-563 -150zM862 -20q-197 0 -358 67t-266 182.5t-161.5 267.5t-56.5 324q0 136 35.5 261t106.5 230t170.5 182.5t235.5 121t294 43.5q157 0 292 -43.5t234.5 -121t170 -182.5t106 -230t35.5 -261q0 -172 -56.5 -324t-161 -267.5t-265 -182.5
t-355.5 -67zM862 266q132 0 236 46t167 124.5t95.5 176.5t32.5 208q0 109 -32.5 206t-95.5 175t-167 124t-236 46q-134 0 -238.5 -46t-167.5 -124t-95.5 -175t-32.5 -206q0 -111 32.5 -208.5t95.5 -176t167.5 -124.5t238.5 -46z" />
    <glyph glyph-name="Ocircumflex.ss01" horiz-adv-x="1720" 
d="M791 1991h143l217 -230h-133l-156 168l-162 -168h-133zM862 -20q-197 0 -358 67t-266 182.5t-161.5 267.5t-56.5 324q0 136 35.5 261t106.5 230t170.5 182.5t235.5 121t294 43.5q157 0 292 -43.5t234.5 -121t170 -182.5t106 -230t35.5 -261q0 -172 -56.5 -324
t-161 -267.5t-265 -182.5t-355.5 -67zM862 266q132 0 236 46t167 124.5t95.5 176.5t32.5 208q0 109 -32.5 206t-95.5 175t-167 124t-236 46q-134 0 -238.5 -46t-167.5 -124t-95.5 -175t-32.5 -206q0 -111 32.5 -208.5t95.5 -176t167.5 -124.5t238.5 -46z" />
    <glyph glyph-name="Odieresis.ss01" horiz-adv-x="1720" 
d="M711 1753q-42 0 -72.5 28.5t-30.5 71.5q0 48 30 76.5t73 28.5q42 0 72 -28.5t30 -76.5q0 -43 -30.5 -71.5t-71.5 -28.5zM1008 1753q-42 0 -72.5 28.5t-30.5 71.5q0 48 30 76.5t73 28.5q42 0 72 -28.5t30 -76.5q0 -43 -30.5 -71.5t-71.5 -28.5zM862 -20q-197 0 -358 67
t-266 182.5t-161.5 267.5t-56.5 324q0 136 35.5 261t106.5 230t170.5 182.5t235.5 121t294 43.5q157 0 292 -43.5t234.5 -121t170 -182.5t106 -230t35.5 -261q0 -172 -56.5 -324t-161 -267.5t-265 -182.5t-355.5 -67zM862 266q132 0 236 46t167 124.5t95.5 176.5t32.5 208
q0 109 -32.5 206t-95.5 175t-167 124t-236 46q-134 0 -238.5 -46t-167.5 -124t-95.5 -175t-32.5 -206q0 -111 32.5 -208.5t95.5 -176t167.5 -124.5t238.5 -46z" />
    <glyph glyph-name="Ograve.ss01" horiz-adv-x="1720" 
d="M1151 1839l-21 -78l-563 150l21 80zM862 -20q-197 0 -358 67t-266 182.5t-161.5 267.5t-56.5 324q0 136 35.5 261t106.5 230t170.5 182.5t235.5 121t294 43.5q157 0 292 -43.5t234.5 -121t170 -182.5t106 -230t35.5 -261q0 -172 -56.5 -324t-161 -267.5t-265 -182.5
t-355.5 -67zM862 266q132 0 236 46t167 124.5t95.5 176.5t32.5 208q0 109 -32.5 206t-95.5 175t-167 124t-236 46q-134 0 -238.5 -46t-167.5 -124t-95.5 -175t-32.5 -206q0 -111 32.5 -208.5t95.5 -176t167.5 -124.5t238.5 -46z" />
    <glyph glyph-name="Ohungarumlaut.ss01" horiz-adv-x="1720" 
d="M805 1761h-143l235 230h123zM1030 1761h-143l235 230h123zM862 -20q-197 0 -358 67t-266 182.5t-161.5 267.5t-56.5 324q0 136 35.5 261t106.5 230t170.5 182.5t235.5 121t294 43.5q157 0 292 -43.5t234.5 -121t170 -182.5t106 -230t35.5 -261q0 -172 -56.5 -324
t-161 -267.5t-265 -182.5t-355.5 -67zM862 266q132 0 236 46t167 124.5t95.5 176.5t32.5 208q0 109 -32.5 206t-95.5 175t-167 124t-236 46q-134 0 -238.5 -46t-167.5 -124t-95.5 -175t-32.5 -206q0 -111 32.5 -208.5t95.5 -176t167.5 -124.5t238.5 -46z" />
    <glyph glyph-name="Omacron.ss01" horiz-adv-x="1720" 
d="M567 1917h584v-82h-584v82zM862 -20q-197 0 -358 67t-266 182.5t-161.5 267.5t-56.5 324q0 136 35.5 261t106.5 230t170.5 182.5t235.5 121t294 43.5q157 0 292 -43.5t234.5 -121t170 -182.5t106 -230t35.5 -261q0 -172 -56.5 -324t-161 -267.5t-265 -182.5t-355.5 -67z
M862 266q132 0 236 46t167 124.5t95.5 176.5t32.5 208q0 109 -32.5 206t-95.5 175t-167 124t-236 46q-134 0 -238.5 -46t-167.5 -124t-95.5 -175t-32.5 -206q0 -111 32.5 -208.5t95.5 -176t167.5 -124.5t238.5 -46z" />
    <glyph glyph-name="Oslash.ss01" horiz-adv-x="1720" 
d="M1198 1599q159 -60 273.5 -178.5t171.5 -272t57 -327.5q0 -172 -56.5 -324t-161 -267.5t-265 -182.5t-355.5 -67q-126 0 -241 28l-11 -28h-108l22 59q-240 92 -372 303t-132 479q0 136 35.5 261t106.5 230t170.5 182.5t235.5 121t294 43.5q119 0 238 -29l10 29h109z
M328 821q0 -170 74.5 -307.5t220.5 -200.5l378 1045q-60 14 -139 14q-134 0 -238.5 -46t-167.5 -124t-95.5 -175t-32.5 -206zM862 266q132 0 236 46t167 124.5t95.5 176.5t32.5 208q0 168 -75 304.5t-220 201.5l-379 -1046q84 -15 143 -15z" />
    <glyph glyph-name="Otilde.ss01" horiz-adv-x="1720" 
d="M567 1786q0 205 164 205q44 0 77.5 -15t53.5 -37t37 -44t37.5 -37t44.5 -15q68 0 68 123h102q0 -205 -164 -205q-44 0 -77.5 15t-53.5 37t-37 44t-37.5 37t-44.5 15q-67 0 -67 -123h-103zM862 -20q-197 0 -358 67t-266 182.5t-161.5 267.5t-56.5 324q0 136 35.5 261
t106.5 230t170.5 182.5t235.5 121t294 43.5q157 0 292 -43.5t234.5 -121t170 -182.5t106 -230t35.5 -261q0 -172 -56.5 -324t-161 -267.5t-265 -182.5t-355.5 -67zM862 266q132 0 236 46t167 124.5t95.5 176.5t32.5 208q0 109 -32.5 206t-95.5 175t-167 124t-236 46
q-134 0 -238.5 -46t-167.5 -124t-95.5 -175t-32.5 -206q0 -111 32.5 -208.5t95.5 -176t167.5 -124.5t238.5 -46z" />
    <glyph glyph-name="P.ss01" horiz-adv-x="1630" 
d="M1020 1638q301 0 445.5 -127t144.5 -421q0 -149 -36.5 -253.5t-112.5 -169.5t-183.5 -95.5t-257.5 -32.5h-692v-539h-308v1638h1000zM1020 825q79 0 129.5 11.5t86.5 41t51.5 81t15.5 131.5q0 79 -15.5 130t-51.5 80t-86.5 40.5t-129.5 11.5h-692v-527h692z" />
    <glyph glyph-name="Q.ss01" horiz-adv-x="1720" 
d="M1700 821q0 -208 -78.5 -382.5t-235.5 -294.5t-370 -152q215 -20 405 -94v-308q-175 71 -317.5 99t-353.5 45v252q-172 18 -311.5 91.5t-230 185.5t-139.5 255t-49 303q0 136 35.5 261t106.5 230t170.5 182.5t235.5 121t294 43.5q157 0 292 -43.5t234.5 -121t170 -182.5
t106 -230t35.5 -261zM862 266q132 0 236 46t167 124.5t95.5 176.5t32.5 208q0 109 -32.5 206t-95.5 175t-167 124t-236 46q-134 0 -238.5 -46t-167.5 -124t-95.5 -175t-32.5 -206q0 -111 32.5 -208.5t95.5 -176t167.5 -124.5t238.5 -46z" />
    <glyph glyph-name="R.ss01" horiz-adv-x="1511" 
d="M1489 145q0 -117 22 -145h-307q-22 28 -22 145v193q0 95 -35 149.5t-129 83.5t-264 29h-426v-600h-308v1638h877q299 0 444.5 -122.5t145.5 -395.5q0 -306 -230 -434q232 -99 232 -348v-193zM328 887h569q155 0 219 50t64 183q0 132 -64 182t-219 50h-569v-465z" />
    <glyph glyph-name="Racute.ss01" horiz-adv-x="1511" 
d="M1047 1911l-564 -150l-20 78l563 152zM1489 145q0 -117 22 -145h-307q-22 28 -22 145v193q0 95 -35 149.5t-129 83.5t-264 29h-426v-600h-308v1638h877q299 0 444.5 -122.5t145.5 -395.5q0 -306 -230 -434q232 -99 232 -348v-193zM328 887h569q155 0 219 50t64 183
q0 132 -64 182t-219 50h-569v-465z" />
    <glyph glyph-name="Rcaron.ss01" horiz-adv-x="1511" 
d="M829 1761h-143l-223 230h133l162 -168l155 168h134zM1489 145q0 -117 22 -145h-307q-22 28 -22 145v193q0 95 -35 149.5t-129 83.5t-264 29h-426v-600h-308v1638h877q299 0 444.5 -122.5t145.5 -395.5q0 -306 -230 -434q232 -99 232 -348v-193zM328 887h569q155 0 219 50
t64 183q0 132 -64 182t-219 50h-569v-465z" />
    <glyph glyph-name="Rcommaaccent.ss01" horiz-adv-x="1511" 
d="M1489 145q0 -117 22 -145h-307q-22 28 -22 145v193q0 95 -35 149.5t-129 83.5t-264 29h-426v-600h-308v1638h877q299 0 444.5 -122.5t145.5 -395.5q0 -306 -230 -434q232 -99 232 -348v-193zM328 887h569q155 0 219 50t64 183q0 132 -64 182t-219 50h-569v-465zM756 -117
q40 0 67 -26.5t27 -77.5q0 -164 -164 -244v90q61 28 72 80q-44 -7 -71.5 16.5t-27.5 65.5q0 41 28 68.5t69 27.5z" />
    <glyph glyph-name="S.ss01" horiz-adv-x="1622" 
d="M803 989q278 -41 349 -55q238 -50 340 -149q110 -107 110 -298q0 -178 -73 -288t-235.5 -164.5t-429.5 -54.5q-164 0 -293.5 20t-234.5 64.5t-173.5 115t-105.5 173.5t-37 237h308q0 -114 49 -183t167.5 -105t319.5 -36q238 0 334 47t96 154q0 30 -8 55t-20 44t-36 35.5
t-46 28.5t-59.5 22.5t-67 17.5t-79.5 15.5t-85.5 13.5t-95.5 13.5t-101 14.5q-79 12 -134 22.5t-127 29.5t-120.5 41.5t-100.5 58.5t-82.5 80t-50.5 106t-20 137q0 86 22 155t74 126.5t133.5 95.5t203.5 59t282 21q292 0 468.5 -55.5t256.5 -170.5t80 -303h-307
q0 135 -110 188.5t-388 53.5q-161 0 -252 -20.5t-123 -56t-32 -93.5q0 -28 8.5 -51t29.5 -41.5t40 -32t57.5 -26t63 -20t76 -16.5t76.5 -13t83 -13z" />
    <glyph glyph-name="Sacute.ss01" horiz-adv-x="1622" 
d="M1102 1911l-563 -150l-21 78l563 152zM803 989q278 -41 349 -55q238 -50 340 -149q110 -107 110 -298q0 -178 -73 -288t-235.5 -164.5t-429.5 -54.5q-164 0 -293.5 20t-234.5 64.5t-173.5 115t-105.5 173.5t-37 237h308q0 -114 49 -183t167.5 -105t319.5 -36
q238 0 334 47t96 154q0 30 -8 55t-20 44t-36 35.5t-46 28.5t-59.5 22.5t-67 17.5t-79.5 15.5t-85.5 13.5t-95.5 13.5t-101 14.5q-79 12 -134 22.5t-127 29.5t-120.5 41.5t-100.5 58.5t-82.5 80t-50.5 106t-20 137q0 86 22 155t74 126.5t133.5 95.5t203.5 59t282 21
q292 0 468.5 -55.5t256.5 -170.5t80 -303h-307q0 135 -110 188.5t-388 53.5q-161 0 -252 -20.5t-123 -56t-32 -93.5q0 -28 8.5 -51t29.5 -41.5t40 -32t57.5 -26t63 -20t76 -16.5t76.5 -13t83 -13z" />
    <glyph glyph-name="Scaron.ss01" horiz-adv-x="1622" 
d="M885 1761h-144l-223 230h133l162 -168l156 168h133zM803 989q278 -41 349 -55q238 -50 340 -149q110 -107 110 -298q0 -178 -73 -288t-235.5 -164.5t-429.5 -54.5q-164 0 -293.5 20t-234.5 64.5t-173.5 115t-105.5 173.5t-37 237h308q0 -114 49 -183t167.5 -105
t319.5 -36q238 0 334 47t96 154q0 30 -8 55t-20 44t-36 35.5t-46 28.5t-59.5 22.5t-67 17.5t-79.5 15.5t-85.5 13.5t-95.5 13.5t-101 14.5q-79 12 -134 22.5t-127 29.5t-120.5 41.5t-100.5 58.5t-82.5 80t-50.5 106t-20 137q0 86 22 155t74 126.5t133.5 95.5t203.5 59
t282 21q292 0 468.5 -55.5t256.5 -170.5t80 -303h-307q0 135 -110 188.5t-388 53.5q-161 0 -252 -20.5t-123 -56t-32 -93.5q0 -28 8.5 -51t29.5 -41.5t40 -32t57.5 -26t63 -20t76 -16.5t76.5 -13t83 -13z" />
    <glyph glyph-name="Scedilla.ss01" horiz-adv-x="1622" 
d="M864 -20h-6l-29 -117q228 37 228 -123q0 -34 -14 -60.5t-33.5 -43.5t-54.5 -29t-62 -18t-72 -9t-68.5 -3.5t-66.5 -0.5l2 82q147 0 206.5 15.5t59.5 66.5q0 52 -56 62t-169 -9l29 189q-144 6 -257.5 30t-204.5 71t-151.5 116.5t-92.5 167.5t-32 223h308q0 -114 49 -183
t167.5 -105t319.5 -36q238 0 334 47t96 154q0 30 -8 55t-20 44t-36 35.5t-46 28.5t-59.5 22.5t-67 17.5t-79.5 15.5t-85.5 13.5t-95.5 13.5t-101 14.5q-79 12 -134 22.5t-127 29.5t-120.5 41.5t-100.5 58.5t-82.5 80t-50.5 106t-20 137q0 86 22 155t74 126.5t133.5 95.5
t203.5 59t282 21q292 0 468.5 -55.5t256.5 -170.5t80 -303h-307q0 135 -110 188.5t-388 53.5q-161 0 -252 -20.5t-123 -56t-32 -93.5q0 -28 8.5 -51t29.5 -41.5t40 -32t57.5 -26t63 -20t76 -16.5t76.5 -13t83 -13q278 -41 349 -55q238 -50 340 -149q110 -107 110 -298
q0 -178 -73 -288t-235.5 -164.5t-429.5 -54.5z" />
    <glyph glyph-name="Scommaaccent.ss01" horiz-adv-x="1622" 
d="M803 989q278 -41 349 -55q238 -50 340 -149q110 -107 110 -298q0 -178 -73 -288t-235.5 -164.5t-429.5 -54.5q-164 0 -293.5 20t-234.5 64.5t-173.5 115t-105.5 173.5t-37 237h308q0 -114 49 -183t167.5 -105t319.5 -36q238 0 334 47t96 154q0 30 -8 55t-20 44t-36 35.5
t-46 28.5t-59.5 22.5t-67 17.5t-79.5 15.5t-85.5 13.5t-95.5 13.5t-101 14.5q-79 12 -134 22.5t-127 29.5t-120.5 41.5t-100.5 58.5t-82.5 80t-50.5 106t-20 137q0 86 22 155t74 126.5t133.5 95.5t203.5 59t282 21q292 0 468.5 -55.5t256.5 -170.5t80 -303h-307
q0 135 -110 188.5t-388 53.5q-161 0 -252 -20.5t-123 -56t-32 -93.5q0 -28 8.5 -51t29.5 -41.5t40 -32t57.5 -26t63 -20t76 -16.5t76.5 -13t83 -13zM811 -117q40 0 67 -26.5t27 -77.5q0 -164 -164 -244v90q61 28 72 80q-43 -7 -70.5 16.5t-27.5 65.5q0 41 27.5 68.5
t68.5 27.5z" />
    <glyph glyph-name="T.ss01" horiz-adv-x="1540" 
d="M1520 1638v-286h-596v-1352h-308v1352h-596v286h1500z" />
    <glyph glyph-name="Tbar.ss01" horiz-adv-x="1540" 
d="M1520 1352h-596v-492h352v-82h-352v-778h-308v778h-354v82h354v492h-596v286h1500v-286z" />
    <glyph glyph-name="Tcaron.ss01" horiz-adv-x="1540" 
d="M844 1761h-144l-223 230h133l162 -168l156 168h133zM1520 1638v-286h-596v-1352h-308v1352h-596v286h1500z" />
    <glyph glyph-name="uni0162.ss01" horiz-adv-x="1540" 
d="M924 0h-103l-33 -137q228 37 228 -123q0 -34 -14 -60.5t-33.5 -43.5t-54.5 -29t-62 -18t-72 -9t-68.5 -3.5t-66.5 -0.5l2 82q147 0 206.5 15.5t59.5 66.5q0 52 -56.5 62t-168.5 -9l31 207h-103v1352h-596v286h1500v-286h-596v-1352z" />
    <glyph glyph-name="uni021A.ss01" horiz-adv-x="1540" 
d="M1520 1638v-286h-596v-1352h-308v1352h-596v286h1500zM770 -117q40 0 67 -26.5t27 -77.5q0 -164 -164 -244v90q61 28 72 80q-43 -7 -70.5 16.5t-27.5 65.5q0 41 27.5 68.5t68.5 27.5z" />
    <glyph glyph-name="U.ss01" horiz-adv-x="1622" 
d="M1602 1638v-987q0 -357 -182.5 -514t-608.5 -157t-608.5 157t-182.5 514v987h308v-987q0 -96 21 -163t73.5 -119.5t148.5 -77.5t240 -25t240 25t148.5 77.5t73.5 119.5t21 163v987h308z" />
    <glyph glyph-name="Uacute.ss01" horiz-adv-x="1622" 
d="M518 1839l563 152l21 -80l-563 -150zM1602 1638v-987q0 -357 -182.5 -514t-608.5 -157t-608.5 157t-182.5 514v987h308v-987q0 -96 21 -163t73.5 -119.5t148.5 -77.5t240 -25t240 25t148.5 77.5t73.5 119.5t21 163v987h308z" />
    <glyph glyph-name="Ucircumflex.ss01" horiz-adv-x="1622" 
d="M741 1991h144l217 -230h-133l-156 168l-162 -168h-133zM1602 1638v-987q0 -357 -182.5 -514t-608.5 -157t-608.5 157t-182.5 514v987h308v-987q0 -96 21 -163t73.5 -119.5t148.5 -77.5t240 -25t240 25t148.5 77.5t73.5 119.5t21 163v987h308z" />
    <glyph glyph-name="Udieresis.ss01" horiz-adv-x="1622" 
d="M662 1753q-42 0 -72.5 28.5t-30.5 71.5q0 48 30 76.5t73 28.5q42 0 72 -28.5t30 -76.5q0 -43 -30.5 -71.5t-71.5 -28.5zM958 1753q-42 0 -72 28.5t-30 71.5q0 48 29.5 76.5t72.5 28.5q42 0 72.5 -29t30.5 -76q0 -43 -31 -71.5t-72 -28.5zM1602 1638v-987
q0 -357 -182.5 -514t-608.5 -157t-608.5 157t-182.5 514v987h308v-987q0 -96 21 -163t73.5 -119.5t148.5 -77.5t240 -25t240 25t148.5 77.5t73.5 119.5t21 163v987h308z" />
    <glyph glyph-name="Ugrave.ss01" horiz-adv-x="1622" 
d="M1102 1839l-21 -78l-563 150l21 80zM1602 1638v-987q0 -357 -182.5 -514t-608.5 -157t-608.5 157t-182.5 514v987h308v-987q0 -96 21 -163t73.5 -119.5t148.5 -77.5t240 -25t240 25t148.5 77.5t73.5 119.5t21 163v987h308z" />
    <glyph glyph-name="Uhungarumlaut.ss01" horiz-adv-x="1622" 
d="M756 1761h-144l236 230h123zM981 1761h-143l235 230h123zM1602 1638v-987q0 -357 -182.5 -514t-608.5 -157t-608.5 157t-182.5 514v987h308v-987q0 -96 21 -163t73.5 -119.5t148.5 -77.5t240 -25t240 25t148.5 77.5t73.5 119.5t21 163v987h308z" />
    <glyph glyph-name="Umacron.ss01" horiz-adv-x="1622" 
d="M518 1917h584v-82h-584v82zM1602 1638v-987q0 -357 -182.5 -514t-608.5 -157t-608.5 157t-182.5 514v987h308v-987q0 -96 21 -163t73.5 -119.5t148.5 -77.5t240 -25t240 25t148.5 77.5t73.5 119.5t21 163v987h308z" />
    <glyph glyph-name="Uogonek.ss01" horiz-adv-x="1622" 
d="M1294 1638h308v-987q0 -267 -100 -420.5t-322 -212.5q-128 -46 -185 -93t-57 -109q0 -65 59.5 -99.5t206.5 -38.5l-82 -81q-40 0 -73.5 2.5t-73.5 9t-70 21t-56 35.5t-40 55t-14 77q0 125 149 187q-86 -4 -133 -4q-426 0 -608.5 157t-182.5 514v987h308v-987
q0 -96 21 -163t73.5 -119.5t148.5 -77.5t240 -25t240 25t148.5 77.5t73.5 119.5t21 163v987z" />
    <glyph glyph-name="Uring.ss01" horiz-adv-x="1622" 
d="M811 1761q-55 0 -95 39t-40 96q0 58 40 97t95 39t95 -39t40 -97q0 -57 -40 -96t-95 -39zM811 1843q24 0 38.5 14.5t14.5 38.5t-14.5 39t-38.5 15t-38.5 -15t-14.5 -39t14.5 -38.5t38.5 -14.5zM1602 1638v-987q0 -357 -182.5 -514t-608.5 -157t-608.5 157t-182.5 514v987
h308v-987q0 -96 21 -163t73.5 -119.5t148.5 -77.5t240 -25t240 25t148.5 77.5t73.5 119.5t21 163v987h308z" />
    <glyph glyph-name="V.ss01" horiz-adv-x="1763" 
d="M1411 1638h332l-651 -1638h-420l-652 1638h332l531 -1331z" />
    <glyph glyph-name="W.ss01" horiz-adv-x="3084" 
d="M2681 1638h383l-1192 -1638h-465v1268l-922 -1268h-465v1638h308v-1329l966 1329h420v-1329z" />
    <glyph glyph-name="Wacute.ss01" horiz-adv-x="3084" 
d="M1833 1911l-563 -150l-21 78l563 152zM2681 1638h383l-1192 -1638h-465v1268l-922 -1268h-465v1638h308v-1329l966 1329h420v-1329z" />
    <glyph glyph-name="Wcircumflex.ss01" horiz-adv-x="3084" 
d="M1544 1929l-162 -168h-133l224 230h143l217 -230h-133zM2681 1638h383l-1192 -1638h-465v1268l-922 -1268h-465v1638h308v-1329l966 1329h420v-1329z" />
    <glyph glyph-name="Wdieresis.ss01" horiz-adv-x="3084" 
d="M1393 1753q-42 0 -72.5 28.5t-30.5 71.5q0 48 30 76.5t73 28.5q42 0 72 -28.5t30 -76.5q0 -43 -30.5 -71.5t-71.5 -28.5zM1690 1753q-42 0 -72.5 28.5t-30.5 71.5q0 48 30 76.5t73 28.5q42 0 72 -28.5t30 -76.5q0 -43 -30.5 -71.5t-71.5 -28.5zM2681 1638h383
l-1192 -1638h-465v1268l-922 -1268h-465v1638h308v-1329l966 1329h420v-1329z" />
    <glyph glyph-name="Wgrave.ss01" horiz-adv-x="3084" 
d="M1833 1839l-21 -78l-563 150l21 80zM2681 1638h383l-1192 -1638h-465v1268l-922 -1268h-465v1638h308v-1329l966 1329h420v-1329z" />
    <glyph glyph-name="X.ss01" horiz-adv-x="1875" 
d="M20 0l713 819l-713 819h410l508 -594l508 594h409l-712 -819l712 -819h-409l-508 594l-508 -594h-410z" />
    <glyph glyph-name="Y.ss01" horiz-adv-x="1875" 
d="M784 573l-764 1065h379l539 -753l539 753h378l-763 -1065v-573h-308v573z" />
    <glyph glyph-name="Yacute.ss01" horiz-adv-x="1875" 
d="M645 1839l563 152l21 -80l-563 -150zM784 573l-764 1065h379l539 -753l539 753h378l-763 -1065v-573h-308v573z" />
    <glyph glyph-name="Ycircumflex.ss01" horiz-adv-x="1875" 
d="M868 1991h144l217 -230h-133l-156 168l-162 -168h-133zM784 573l-764 1065h379l539 -753l539 753h378l-763 -1065v-573h-308v573z" />
    <glyph glyph-name="Ydieresis.ss01" horiz-adv-x="1875" 
d="M788 1753q-42 0 -72 28.5t-30 71.5q0 48 29.5 76.5t72.5 28.5q42 0 72.5 -29t30.5 -76q0 -43 -31 -71.5t-72 -28.5zM1085 1753q-42 0 -72 28.5t-30 71.5q0 48 29.5 76.5t72.5 28.5q42 0 72.5 -29t30.5 -76q0 -43 -31 -71.5t-72 -28.5zM784 573l-764 1065h379l539 -753
l539 753h378l-763 -1065v-573h-308v573z" />
    <glyph glyph-name="Ygrave.ss01" horiz-adv-x="1875" 
d="M1229 1839l-21 -78l-563 150l21 80zM784 573l-764 1065h379l539 -753l539 753h378l-763 -1065v-573h-308v573z" />
    <glyph glyph-name="Z.ss01" horiz-adv-x="1495" 
d="M1475 1638v-286l-1024 -1065h1024v-287h-1455v287l1024 1065h-1024v286h1455z" />
    <glyph glyph-name="Zacute.ss01" horiz-adv-x="1495" 
d="M1038 1911l-563 -150l-20 78l563 152zM1475 1638v-286l-1024 -1065h1024v-287h-1455v287l1024 1065h-1024v286h1455z" />
    <glyph glyph-name="Zcaron.ss01" horiz-adv-x="1495" 
d="M821 1761h-143l-223 230h133l162 -168l155 168h133zM1475 1638v-286l-1024 -1065h1024v-287h-1455v287l1024 1065h-1024v286h1455z" />
    <glyph glyph-name="Zdotaccent.ss01" horiz-adv-x="1495" 
d="M748 1753q-42 0 -72.5 28.5t-30.5 71.5q0 48 30 76.5t73 28.5q42 0 72 -28.5t30 -76.5q0 -43 -30.5 -71.5t-71.5 -28.5zM1475 1638v-286l-1024 -1065h1024v-287h-1455v287l1024 1065h-1024v286h1455z" />
    <glyph glyph-name="i.loclTRK" horiz-adv-x="348" 
d="M174 1446q-42 0 -72 28.5t-30 71.5q0 48 29.5 76.5t72.5 28.5q42 0 72 -28.5t30 -76.5q0 -43 -30.5 -71.5t-71.5 -28.5zM20 1331h308v-1331h-308v1331z" />
    <glyph glyph-name="zero.ss01" horiz-adv-x="1720" 
d="M862 1659q157 0 292 -43.5t234.5 -121t170 -182.5t106 -230t35.5 -261q0 -172 -56.5 -324t-161 -267.5t-265 -182.5t-355.5 -67q-197 0 -358 67t-266 182.5t-161.5 267.5t-56.5 324q0 136 35.5 261t106.5 230t170.5 182.5t235.5 121t294 43.5zM862 1372
q-134 0 -238.5 -46t-167.5 -124t-95.5 -175t-32.5 -206q0 -152 57 -272l803 725q-132 98 -326 98zM862 266q132 0 236 46t167 124.5t95.5 176.5t32.5 208q0 149 -58 271l-803 -727q136 -99 330 -99z" />
    <glyph glyph-name="one.ss01" horiz-adv-x="1335" 
d="M821 287h494v-287h-1295v287h494v1024q-104 -60 -235.5 -91.5t-258.5 -31.5v287q157 0 284.5 33t230.5 130h286v-1351z" />
    <glyph glyph-name="two.ss01" horiz-adv-x="1601" 
d="M872 637q-115 -23 -171.5 -34.5t-128 -30t-99 -28.5t-64 -31t-45.5 -37t-21.5 -48t-13.5 -61.5t-1 -79.5h1253v-287h-1561v287q0 88 9 153t34.5 129.5t72 112t119.5 90.5t180.5 74.5t250.5 54.5q269 43 367 73q181 54 213 155q8 25 8 53q0 37 -7 62t-31.5 51.5
t-68.5 41.5t-121.5 25t-187.5 10q-197 0 -308.5 -29.5t-156.5 -89t-45 -163.5h-307q0 200 77.5 322.5t257.5 184.5t482 62q202 0 342.5 -32.5t224 -98.5t120 -157.5t36.5 -219.5q0 -77 -23 -142t-52.5 -109.5t-92.5 -84t-105.5 -61.5t-131 -47t-130.5 -34t-140 -29
q-23 -5 -34 -7z" />
    <glyph glyph-name="three.ss01" horiz-adv-x="1581" 
d="M1331 831q230 -93 230 -364q0 -249 -182.5 -368t-573.5 -119q-387 0 -586 128t-199 400h308q0 -129 122.5 -185.5t354.5 -56.5q249 0 348.5 50t99.5 171q0 110 -58.5 155.5t-188.5 45.5h-437v287h437q130 0 188.5 44.5t58.5 151.5q0 71 -42 114.5t-141 65t-265 21.5
q-477 0 -477 -221h-308q0 508 785 508q389 0 572.5 -117t183.5 -356q0 -262 -230 -355z" />
    <glyph glyph-name="four.ss01" horiz-adv-x="1540" 
d="M1520 578v-287h-291v-291h-307v291h-902v287l902 1060h307v-1060h291zM328 578h594v692z" />
    <glyph glyph-name="five.ss01" horiz-adv-x="1662" 
d="M932 1098q368 0 539 -131t171 -428q0 -559 -813 -559q-402 0 -605.5 127.5t-203.5 400.5h308q0 -88 61.5 -142.5t169 -77t270.5 -22.5q123 0 212 13t157.5 44t102.5 84.5t34 131.5q0 62 -23 109t-64.5 78t-105.5 50t-139.5 27t-173.5 8q-179 0 -290.5 -30t-210.5 -89
h-287l41 946h1499v-286h-1229l-22 -416q257 162 602 162z" />
    <glyph glyph-name="six.ss01" horiz-adv-x="1662" 
d="M887 1126q354 0 534.5 -144t180.5 -429q0 -194 -76.5 -318.5t-249.5 -189.5t-451 -65q-802 0 -805 675v240q1 406 194.5 585t621.5 179q365 0 545 -120.5t180 -367.5h-308q0 104 -101.5 152.5t-315.5 48.5q-508 0 -508 -354v-82q99 88 241 139t318 51zM825 266
q175 0 279.5 33t147 94.5t42.5 159.5t-42.5 159.5t-147 94.5t-279.5 33q-262 0 -379.5 -70.5t-117.5 -216.5t117.5 -216.5t379.5 -70.5z" />
    <glyph glyph-name="seven.ss01" horiz-adv-x="1540" 
d="M20 1638h1500v-286q-166 -88 -296.5 -186t-217.5 -188t-148.5 -197.5t-94.5 -194t-51 -200t-22 -193t-4 -193.5h-307q0 121 2.5 197.5t18 199.5t43.5 209.5t83 199t133 199.5t198 179.5t273 167.5h-1110v286z" />
    <glyph glyph-name="eight.ss01" horiz-adv-x="1581" 
d="M1192 881q369 -104 369 -416q0 -236 -190 -360.5t-580 -124.5t-580.5 124.5t-190.5 360.5q0 312 369 416q-307 102 -307 352q0 204 180.5 315t528.5 111q347 0 527.5 -111t180.5 -315q0 -250 -307 -352zM791 1372q-228 0 -325 -41.5t-97 -132.5t97.5 -133.5t324.5 -42.5
t324 42.5t97 133.5t-96.5 132.5t-324.5 41.5zM791 266q256 0 359 56t103 180q0 82 -42.5 132t-144 75.5t-275.5 25.5t-276 -25.5t-144.5 -75.5t-42.5 -132q0 -124 103.5 -180t359.5 -56z" />
    <glyph glyph-name="nine.ss01" horiz-adv-x="1662" 
d="M838 1659q801 0 804 -676v-240q-1 -406 -194 -584.5t-621 -178.5q-365 0 -545 120t-180 367h308q0 -104 101.5 -152.5t315.5 -48.5q508 0 508 355v81q-99 -88 -241 -139t-318 -51q-354 0 -534.5 144t-180.5 429q0 194 76.5 319t249.5 190t451 65zM838 799
q262 0 379.5 70.5t117.5 215.5q0 146 -117.5 216.5t-379.5 70.5q-175 0 -279.5 -33t-147 -94.5t-42.5 -159.5t42.5 -159t147 -94t279.5 -33z" />
    <glyph glyph-name="ampersand.ss01" horiz-adv-x="1595" 
d="M1575 975v-287h-178v-180q0 -276 -164 -402t-514 -126q-250 0 -405.5 53t-224.5 154t-69 259q0 289 230 385q-230 90 -230 361q0 158 69 259.5t224.5 154.5t405.5 53q348 0 513 -123t165 -385h-307q0 118 -89.5 169.5t-281.5 51.5q-215 0 -303 -47t-88 -154t58.5 -151.5
t188.5 -44.5h515v96h307v-96h178zM1090 508v180h-515q-130 0 -188.5 -45.5t-58.5 -155.5q0 -121 86.5 -171t304.5 -50q194 0 282.5 55t88.5 187z" />
    </font>
</defs>
</svg>
