<?xml version="1.0" standalone="no"?>
<!DOCTYPE svg PUBLIC "-//W3C//DTD SVG 1.1//EN" "http://www.w3.org/Graphics/SVG/1.1/DTD/svg11.dtd" >
<svg xmlns="http://www.w3.org/2000/svg" xmlns:xlink="http://www.w3.org/1999/xlink" version="1.1">
<metadata>
Created by FontForge 20201107 at Sat Aug 10 16:21:47 2024
 By 
copyright missing
</metadata>
<defs>
<font id="FormulaCondensed-Light" horiz-adv-x="811" >
  <font-face 
    font-family="Formula Condensed Light"
    font-weight="300"
    font-stretch="normal"
    units-per-em="2048"
    panose-1="0 0 4 0 0 0 0 0 0 0"
    ascent="1638"
    descent="-410"
    x-height="1331"
    cap-height="1638"
    bbox="-692 -614 3019 2032"
    underline-thickness="102"
    underline-position="-204"
    unicode-range="U+0020-25CA"
  />
<missing-glyph horiz-adv-x="1126" 
d="M924 1638v-2252h-715v2252h715zM750 1487h-371v-74h145v-84h-147v-74h373v74h-148v84h148v74zM602 1196h-225v-233h373v75h-148v158zM524 1120v-82h-73v82h73zM750 901h-373v-74h147v-84h-147v-73h225v157h148v74zM750 766h-74v-148h-299v-77h373v225zM750 492h-226v-125
h78v51h74v-107h-225v181h-74v-254h373v254zM750 102h-373v-254h373v254zM676 29v-107h-225v107h225zM750 -205h-373v-74h158l-158 -106v-74h373v74h-230l158 106h72v74z" />
    <glyph glyph-name=".notdef" horiz-adv-x="1126" 
d="M924 1638v-2252h-715v2252h715zM750 1487h-371v-74h145v-84h-147v-74h373v74h-148v84h148v74zM602 1196h-225v-233h373v75h-148v158zM524 1120v-82h-73v82h73zM750 901h-373v-74h147v-84h-147v-73h225v157h148v74zM750 766h-74v-148h-299v-77h373v225zM750 492h-226v-125
h78v51h74v-107h-225v181h-74v-254h373v254zM750 102h-373v-254h373v254zM676 29v-107h-225v107h225zM750 -205h-373v-74h158l-158 -106v-74h373v74h-230l158 106h72v74z" />
    <glyph glyph-name=".null" horiz-adv-x="0" 
 />
    <glyph glyph-name="nonmarkingreturn" horiz-adv-x="682" 
 />
    <glyph glyph-name="space" unicode=" " horiz-adv-x="378" 
 />
    <glyph glyph-name="exclam" unicode="!" horiz-adv-x="323" 
d="M84 1638h154l-7 -1126h-143zM162 -20q-39 0 -66.5 26t-27.5 68t27.5 69t66.5 27t66.5 -27t27.5 -69t-27.5 -68t-66.5 -26z" />
    <glyph glyph-name="quotedbl" unicode="&#x22;" horiz-adv-x="399" 
d="M68 1659h102v-512h-102v512zM231 1659h103v-512h-103v512z" />
    <glyph glyph-name="numbersign" unicode="#" horiz-adv-x="1568" 
d="M1503 1034h-362l-158 -430h363v-102h-400l-188 -522h-109l189 522h-342l-189 -522h-108l188 522h-319v102h356l158 430h-357v103h393l189 522h108l-188 -522h342l188 522h109l-188 -522h325v-103zM874 604l158 430h-342l-158 -430h342z" />
    <glyph glyph-name="dollar" unicode="$" horiz-adv-x="882" 
d="M817 477q0 -152 -79.5 -238.5t-243.5 -95.5v-163h-103v167q-159 18 -241 131.5t-82 342.5h102q0 -183 52.5 -268t168.5 -103v551q-147 54 -225 140t-78 230q0 136 77 223t226 99v166h103v-166q84 -10 145 -46.5t94.5 -93.5t48.5 -121.5t15 -141.5h-103q0 267 -200 299
v-521q60 -25 99 -44.5t86 -53.5t74 -71.5t45.5 -94.5t18.5 -127zM190 1171q0 -100 54 -160t147 -102v482q-201 -19 -201 -220zM494 246q123 7 172 65.5t49 165.5q0 58 -17.5 104.5t-51.5 79.5t-69 54.5t-83 42.5v-512z" />
    <glyph glyph-name="percent" unicode="%" horiz-adv-x="1095" 
d="M317 1044q67 0 117 25.5t78 70.5t41.5 98t13.5 114t-13.5 114t-41.5 97.5t-78 70t-117 25.5t-117 -25.5t-78 -70t-41 -97t-13 -114.5t13 -114.5t41 -97.5t78 -70.5t117 -25.5zM905 1659l-608 -1679h-109l609 1679h108zM317 1147q-147 0 -147 205q0 204 147 204
q148 0 148 -204q0 -205 -148 -205zM780 -20q67 0 117 25.5t78 70t41.5 97.5t13.5 114t-13.5 114t-41.5 97.5t-78 70t-117 25.5t-117 -25.5t-78 -70t-41.5 -97.5t-13.5 -114t13.5 -114t41.5 -97.5t78 -70t117 -25.5zM780 82q-147 0 -147 205t147 205q148 0 148 -205
t-148 -205z" />
    <glyph glyph-name="ampersand" unicode="&#x26;" horiz-adv-x="927" 
d="M862 903v-143h-96v-266q0 -262 -82.5 -388t-271.5 -126q-93 0 -162 34.5t-107.5 94t-56.5 130t-18 152.5q0 338 180 440q-180 99 -180 418q0 65 10.5 122.5t36.5 111t64.5 92t98 61.5t134.5 23q188 0 271 -122.5t83 -369.5h-154q0 104 -13 172t-40.5 103.5t-61.5 49
t-85 13.5q-95 0 -143 -71t-48 -226q0 -79 15 -136.5t38 -89.5t59 -50.5t69 -23.5t77 -5h133v127h154v-127h96zM612 494v266h-133q-45 0 -77.5 -5.5t-68.5 -25t-59 -53.5t-38 -96t-15 -148q0 -299 191 -299q51 0 85 14t61.5 52t40.5 111t13 184z" />
    <glyph glyph-name="quotesingle" unicode="'" horiz-adv-x="235" 
d="M68 1659h102v-512h-102v512z" />
    <glyph glyph-name="parenleft" unicode="(" horiz-adv-x="399" 
d="M231 1659h103q-86 -210 -125 -411.5t-39 -428.5t39 -428t125 -411h-103q-86 209 -124.5 410t-38.5 429t38.5 429.5t124.5 410.5z" />
    <glyph glyph-name="parenright" unicode=")" horiz-adv-x="399" 
d="M168 1659q86 -210 125 -411.5t39 -428.5t-39 -428t-125 -411h-102q86 209 124.5 410t38.5 429t-38.5 429.5t-124.5 410.5h102z" />
    <glyph glyph-name="asterisk" unicode="*" horiz-adv-x="636" 
d="M571 1450l-170 -98l170 -99l-41 -69l-170 98v-238h-81v238l-170 -98l-41 69l170 99l-170 98l41 70l170 -99v238h81v-238l170 99z" />
    <glyph glyph-name="plus" unicode="+" horiz-adv-x="972" 
d="M907 680v-102h-370v-369h-103v369h-366v102h366v369h103v-369h370z" />
    <glyph glyph-name="comma" unicode="," horiz-adv-x="323" 
d="M68 76q0 44 27 69t67 25q41 0 67.5 -32t26.5 -95q0 -162 -164 -238v72q42 23 60 52t20 71q-41 -15 -72.5 8.5t-31.5 67.5z" />
    <glyph glyph-name="hyphen" unicode="-" horiz-adv-x="972" 
d="M68 727h839v-102h-839v102z" />
    <glyph glyph-name="period" unicode="." horiz-adv-x="323" 
d="M162 -20q-39 0 -66.5 26t-27.5 68t27.5 69t66.5 27t66.5 -27t27.5 -69t-27.5 -68t-66.5 -26z" />
    <glyph glyph-name="slash" unicode="/" horiz-adv-x="849" 
d="M782 1659l-608 -1679h-108l608 1679h108z" />
    <glyph glyph-name="zero" unicode="0" 
d="M406 1659q178 0 258.5 -103.5t80.5 -347.5v-776q0 -244 -80.5 -348t-258.5 -104q-176 0 -257 104.5t-81 347.5v776q0 243 81 347t257 104zM406 1505q-106 0 -145.5 -62t-39.5 -224v-584l371 579v5q0 163 -39 224.5t-147 61.5zM592 422v584l-371 -582v-2
q0 -164 39.5 -226.5t145.5 -62.5q108 0 147 62.5t39 226.5z" />
    <glyph glyph-name="one" unicode="1" horiz-adv-x="770" 
d="M463 154h242v-154h-637v154h241v1269q-35 -68 -88 -97.5t-153 -29.5v148q174 0 251 194h144v-1484z" />
    <glyph glyph-name="two" unicode="2" horiz-adv-x="831" 
d="M451 707q-12 -13 -39 -40.5t-38 -38.5t-33 -36.5t-31 -40.5t-25 -42.5t-23 -50.5t-17 -57t-14 -69.5t-7 -80.5t-3 -97h545v-154h-698v154q0 74 5 136.5t17.5 115.5t24.5 94t36 82t41.5 68t51.5 63.5t55 57.5t63 60q44 42 67.5 65t64 71t62 87t39 94.5t17.5 111.5
q0 127 -40 186t-126 59q-53 0 -88.5 -14.5t-63 -52t-40 -106.5t-12.5 -175h-154q0 260 85 381t273 121q85 0 148 -30t100 -85t54.5 -125.5t17.5 -158.5q0 -48 -9 -95t-21 -84t-36 -78t-41.5 -67.5t-51 -65t-51.5 -57t-55 -55.5t-50 -51z" />
    <glyph glyph-name="three" unicode="3" horiz-adv-x="831" 
d="M586 831q180 -104 180 -440q0 -65 -11 -122.5t-37 -111t-64.5 -92.5t-98.5 -62t-135 -23q-189 0 -270.5 126t-81.5 388h153q0 -111 13 -184t41 -111t61.5 -52t83.5 -14q96 0 144 72t48 227q0 86 -15 148t-38 96t-59 53.5t-68.5 25t-77.5 5.5h-67v143h67q44 0 77 5
t69 23.5t59 50.5t38 89.5t15 136.5q0 155 -48 226t-144 71q-39 0 -68 -8t-55 -29.5t-42 -59t-25 -98t-9 -143.5h-153q0 247 82 369.5t270 122.5q93 0 162.5 -34.5t108 -94t57 -129.5t18.5 -152q0 -317 -180 -418z" />
    <glyph glyph-name="four" unicode="4" horiz-adv-x="817" 
d="M750 522v-153h-162v-369h-154v369h-366v153l366 1116h154v-1116h162zM186 522h248v754z" />
    <glyph glyph-name="five" unicode="5" horiz-adv-x="831" 
d="M481 1098q285 0 285 -537q0 -77 -5 -140t-17.5 -133t-38 -122t-63 -96t-96.5 -67t-134 -23q-176 0 -260 124t-84 390h153q0 -184 41 -272.5t150 -88.5q49 0 84 18.5t57.5 51.5t35.5 87.5t18 118.5t5 152q0 213 -40 298t-130 85q-88 0 -141 -69.5t-65 -165.5h-148l41 929
h571v-153h-432l-24 -510q104 123 237 123z" />
    <glyph glyph-name="six" unicode="6" horiz-adv-x="831" 
d="M473 1098q153 0 223 -141t70 -414q0 -128 -17.5 -226.5t-57 -176.5t-109.5 -119t-168 -41q-80 0 -141 31t-99 82.5t-62 128.5t-33.5 160.5t-10.5 186.5v537q2 290 79 421.5t267 131.5q311 0 311 -430h-154q0 139 -34.5 207.5t-122.5 68.5q-66 0 -106.5 -27.5t-63.5 -101
t-23 -198.5v-236q91 156 252 156zM414 133q68 0 109.5 35t65 127t23.5 248q0 155 -21 244.5t-58.5 123t-100.5 33.5q-211 0 -211 -375q0 -164 22.5 -261.5t63.5 -136t107 -38.5z" />
    <glyph glyph-name="seven" unicode="7" horiz-adv-x="862" 
d="M68 1638h729v-153q-216 -315 -301.5 -653t-85.5 -832h-154q0 496 87 833.5t308 651.5h-583v153z" />
    <glyph glyph-name="eight" unicode="8" 
d="M571 862q174 -100 174 -381v-67q0 -212 -85.5 -323t-253.5 -111t-253 111t-85 323v67q0 281 174 381q-154 100 -154 350v41q0 184 82 295t236 111q155 0 237 -110.5t82 -295.5v-41q0 -248 -154 -350zM406 1505q-86 0 -128 -68.5t-42 -215.5t42 -216t128 -69
q87 0 128 68.5t41 216.5t-41 216t-128 68zM592 438v37q0 169 -47 238t-139 69q-91 0 -138 -69.5t-47 -237.5v-37q0 -91 12.5 -152t38 -94t57.5 -46t77 -13q46 0 78 13t57.5 46t38 94t12.5 152z" />
    <glyph glyph-name="nine" unicode="9" horiz-adv-x="831" 
d="M418 1659q80 0 141 -31t99 -83t62 -129t33.5 -160.5t10.5 -186.5v-537q-2 -290 -79 -421t-267 -131q-312 0 -312 430h154q0 -139 35 -208t123 -69q99 0 145.5 72t46.5 256v235q-91 -155 -252 -155q-152 0 -222 141t-70 414q0 128 17.5 226.5t57 176.5t109.5 119t168 41z
M399 694q211 0 211 375q0 164 -22 261t-63 136t-107 39q-68 0 -110 -35t-65.5 -126.5t-23.5 -247.5t21 -245.5t58.5 -123t100.5 -33.5z" />
    <glyph glyph-name="colon" unicode=":" horiz-adv-x="323" 
d="M162 625q-39 0 -66.5 26t-27.5 68t27.5 69t66.5 27t66.5 -27t27.5 -69t-27.5 -68t-66.5 -26zM162 -20q-39 0 -66.5 26t-27.5 68t27.5 69t66.5 27t66.5 -27t27.5 -69t-27.5 -68t-66.5 -26z" />
    <glyph glyph-name="semicolon" unicode=";" horiz-adv-x="323" 
d="M162 625q-39 0 -66.5 26t-27.5 68t27.5 69t66.5 27t66.5 -27t27.5 -69t-27.5 -68t-66.5 -26zM68 76q0 44 27 69t67 25q41 0 67.5 -32t26.5 -95q0 -162 -164 -238v72q42 23 60 52t20 71q-41 -15 -72.5 8.5t-31.5 67.5z" />
    <glyph glyph-name="less" unicode="&#x3c;" horiz-adv-x="972" 
d="M907 1042v-102l-696 -264l696 -264v-103l-839 326v82z" />
    <glyph glyph-name="equal" unicode="=" horiz-adv-x="972" 
d="M68 829h839v-102h-839v102zM68 625h839v-103h-839v103z" />
    <glyph glyph-name="greater" unicode="&#x3e;" horiz-adv-x="972" 
d="M66 1042l839 -325v-82l-839 -326v103l696 264l-696 264v102z" />
    <glyph glyph-name="question" unicode="?" 
d="M426 1505q-105 0 -155 -74t-50 -264h-153q0 243 85 367.5t273 124.5q82 0 145 -27t100 -75.5t55.5 -109t18.5 -132.5q0 -71 -18 -132.5t-46.5 -108t-62.5 -91t-68.5 -91.5t-63 -99t-46.5 -124t-18 -157h-143q0 94 17.5 175t45 138t60.5 107t66.5 93t61 84t45 91t17.5 105
q0 200 -166 200zM352 170q39 0 66.5 -27t27.5 -69t-27.5 -68t-66.5 -26t-66.5 26t-27.5 68t27.5 69t66.5 27z" />
    <glyph glyph-name="at" unicode="@" horiz-adv-x="1196" 
d="M776 1151h103v-653q0 -100 8 -155t22 -75t39 -20q27 0 43.5 35t26.5 131t10 262q0 106 -6.5 193t-22.5 174t-45 151.5t-71 115t-105 77t-143 26.5q-120 0 -210.5 -52.5t-145.5 -149t-82 -225.5t-27 -290q0 -131 15 -236.5t50.5 -196.5t92 -152.5t142 -96t196.5 -34.5
q196 0 348 61v-102q-154 -62 -348 -62q-133 0 -236 39.5t-170.5 109.5t-111 174t-62 225t-18.5 271q0 185 33 332.5t100 258t177 170t257 59.5q117 0 205 -44t142.5 -118t88.5 -184t46.5 -228.5t12.5 -265.5q0 -103 -4.5 -179.5t-16 -145.5t-31.5 -112.5t-52.5 -68.5
t-77.5 -25q-82 0 -120.5 56.5t-47.5 179.5q-73 -152 -205 -152q-130 0 -196 121.5t-66 349.5t66 349.5t196 121.5q129 0 201 -145v125zM606 332q90 0 130 86t40 282q0 195 -41 282t-129 87q-190 0 -190 -369q0 -368 190 -368z" />
    <glyph glyph-name="A" unicode="A" horiz-adv-x="862" 
d="M643 0l-51 356h-320l-51 -356h-153l254 1638h219l256 -1638h-154zM295 510h274l-137 950z" />
    <glyph glyph-name="B" unicode="B" horiz-adv-x="815" 
d="M530 881q220 -84 220 -379v-84q0 -235 -94 -326.5t-343 -91.5h-245v1638h245q227 0 313.5 -83.5t86.5 -301.5v-59q0 -235 -183 -313zM313 1485h-92v-533h92q63 0 103 8t75 31t51.5 70.5t16.5 122.5v69q0 54 -3 88t-14 62t-26.5 42.5t-45.5 24t-65.5 12.5t-91.5 3z
M313 154q94 0 147 10.5t85 43t41.5 81t9.5 135.5v88q0 154 -65 220.5t-218 66.5h-92v-645h92z" />
    <glyph glyph-name="C" unicode="C" 
d="M592 973v246q0 163 -39 224.5t-147 61.5q-106 0 -145.5 -62t-39.5 -224v-797q0 -164 39.5 -226.5t145.5 -62.5q108 0 147 62.5t39 226.5v244h153v-234q0 -244 -80.5 -348t-258.5 -104q-176 0 -257 104.5t-81 347.5v776q0 243 81 347t257 104q178 0 258.5 -103.5
t80.5 -347.5v-235h-153z" />
    <glyph glyph-name="D" unicode="D" horiz-adv-x="815" 
d="M283 1638q85 0 145.5 -6t116.5 -23t91.5 -47t62.5 -77.5t39 -116t12 -160.5v-776q0 -92 -12 -160.5t-39 -116.5t-62.5 -78t-91 -47t-116.5 -23.5t-146 -6.5h-215v1638h215zM283 154q65 0 108 3.5t80.5 14.5t59 30t37.5 50.5t22 74.5t6 105v776q0 62 -6 105t-22 74.5
t-37.5 50t-59.5 29.5t-80.5 14.5t-107.5 3.5h-62v-1331h62z" />
    <glyph glyph-name="E" unicode="E" horiz-adv-x="624" 
d="M559 1485h-338v-588h338v-154h-338v-589h338v-154h-491v1638h491v-153z" />
    <glyph glyph-name="F" unicode="F" horiz-adv-x="624" 
d="M559 1485h-338v-670h338v-153h-338v-662h-153v1638h491v-153z" />
    <glyph glyph-name="G" unicode="G" 
d="M745 1042h-153v177q0 162 -39.5 224t-146.5 62q-106 0 -145.5 -62t-39.5 -224v-797q0 -164 39.5 -226.5t145.5 -62.5q108 0 147 62.5t39 226.5v252h-186v153h339v-827h-92l-16 125q-89 -145 -258 -145q-159 0 -235 108.5t-76 343.5v776q0 234 82 342.5t256 108.5
q175 0 257 -108.5t82 -342.5v-166z" />
    <glyph glyph-name="H" unicode="H" horiz-adv-x="847" 
d="M629 1638h153v-1638h-153v743h-408v-743h-153v1638h153v-741h408v741z" />
    <glyph glyph-name="I" unicode="I" horiz-adv-x="286" 
d="M68 1638h153v-1638h-153v1638z" />
    <glyph glyph-name="J" unicode="J" 
d="M745 1638v-1206q0 -244 -80.5 -348t-258.5 -104q-176 0 -257 104.5t-81 347.5v137h153v-147q0 -164 39.5 -226.5t145.5 -62.5q108 0 147 62.5t39 226.5v1216h153z" />
    <glyph glyph-name="K" unicode="K" horiz-adv-x="856" 
d="M68 1638h153v-1638h-153v1638zM791 1638l-406 -819l406 -819h-164l-406 819l406 819h164z" />
    <glyph glyph-name="L" unicode="L" horiz-adv-x="624" 
d="M221 154h338v-154h-491v1638h153v-1484z" />
    <glyph glyph-name="M" unicode="M" horiz-adv-x="1052" 
d="M834 1638h153v-1638h-153v1087l-244 -1087h-127l-242 1087v-1087h-153v1638h153l305 -1329z" />
    <glyph glyph-name="N" unicode="N" horiz-adv-x="919" 
d="M700 1638h154v-1638h-154l-479 1231v-1231h-153v1638h153l479 -1230v1230z" />
    <glyph glyph-name="O" unicode="O" 
d="M406 1659q178 0 258.5 -103.5t80.5 -347.5v-776q0 -244 -80.5 -348t-258.5 -104q-176 0 -257 104.5t-81 347.5v776q0 243 81 347t257 104zM592 422v797q0 163 -39 224.5t-147 61.5q-106 0 -145.5 -62t-39.5 -224v-797q0 -164 39.5 -226.5t145.5 -62.5q108 0 147 62.5
t39 226.5z" />
    <glyph glyph-name="P" unicode="P" horiz-adv-x="815" 
d="M297 1638q99 0 171.5 -12t122.5 -39t81.5 -63t48.5 -93.5t23 -119t6 -150.5v-84q0 -65 -3 -114t-12 -97t-24 -82t-39 -65t-57.5 -51.5t-79.5 -36t-105 -23t-133 -8.5h-76v-600h-153v1638h229zM297 754q59 0 102 5t76 14.5t54 29t35 42t20.5 60t9 75.5t2.5 97v84
q0 69 -3 111.5t-14 83t-30.5 62t-53.5 38.5t-81.5 23t-116.5 6h-76v-731h76z" />
    <glyph glyph-name="Q" unicode="Q" 
d="M406 1659q178 0 258.5 -103.5t80.5 -347.5v-776q0 -217 -64 -322t-202 -126q122 -23 215 -103v-172q-88 78 -179.5 110.5t-211.5 37.5v133q-121 27 -178 132t-57 310v776q0 243 81 347t257 104zM592 422v797q0 163 -39 224.5t-147 61.5q-106 0 -145.5 -62t-39.5 -224
v-797q0 -164 39.5 -226.5t145.5 -62.5q108 0 147 62.5t39 226.5z" />
    <glyph glyph-name="R" unicode="R" horiz-adv-x="815" 
d="M748 145q0 -117 22 -145h-154q-22 28 -22 145v285q0 54 -10 96t-25 69t-41 46.5t-47.5 29t-57 14.5t-57.5 6t-59 1h-76v-692h-153v1638h229q95 0 166 -12t121 -38t82.5 -60.5t51 -87.5t25.5 -111t7 -137v-37q0 -157 -43 -254.5t-150 -146.5q96 -30 143.5 -109t47.5 -229
v-271zM221 846h76q95 0 155 18.5t91.5 60.5t42 94t10.5 136v37q0 58 -4 98t-16 75t-32.5 56t-54.5 36.5t-80.5 21.5t-111.5 6h-76v-639z" />
    <glyph glyph-name="S" unicode="S" 
d="M440 934q62 -46 100.5 -79t81.5 -83t67 -100.5t40 -121.5t16 -157q0 -413 -319 -413q-134 0 -211 55t-112 179t-35 341h153q0 -176 20 -266t62 -123t123 -33q60 0 94.5 21t53 78.5t18.5 160.5q0 78 -13 134.5t-46.5 104.5t-71 83t-105.5 86q-64 49 -105.5 88.5t-84 97.5
t-63.5 131t-21 162q0 177 80 278t244 101q171 0 252 -119.5t81 -372.5h-153q0 105 -12 173.5t-37.5 103.5t-55.5 48t-75 13q-86 0 -128 -50t-42 -175q0 -115 49 -190t155 -156z" />
    <glyph glyph-name="T" unicode="T" horiz-adv-x="770" 
d="M705 1638v-153h-242v-1485h-154v1485h-241v153h637z" />
    <glyph glyph-name="U" unicode="U" 
d="M745 1638v-1206q0 -244 -80.5 -348t-258.5 -104q-176 0 -257 104.5t-81 347.5v1206h153v-1216q0 -164 39.5 -226.5t145.5 -62.5q108 0 147 62.5t39 226.5v1216h153z" />
    <glyph glyph-name="V" unicode="V" horiz-adv-x="862" 
d="M643 1638h154l-256 -1638h-219l-254 1638h153l211 -1460z" />
    <glyph glyph-name="W" unicode="W" horiz-adv-x="1542" 
d="M1309 1638h168l-547 -1638h-213v1354l-438 -1354h-211v1638h153v-1364l436 1364h213v-1370z" />
    <glyph glyph-name="X" unicode="X" horiz-adv-x="937" 
d="M68 0l301 819l-301 819h161l240 -686l240 686h163l-303 -819l303 -819h-163l-240 686l-240 -686h-161z" />
    <glyph glyph-name="Y" unicode="Y" horiz-adv-x="937" 
d="M393 573l-325 1065h161l240 -854l242 854h161l-325 -1065v-573h-154v573z" />
    <glyph glyph-name="Z" unicode="Z" horiz-adv-x="747" 
d="M682 1638v-153l-461 -1331h461v-154h-614v154l458 1331h-458v153h614z" />
    <glyph glyph-name="bracketleft" unicode="[" horiz-adv-x="399" 
d="M334 1577h-164v-1516h164v-81h-266v1679h266v-82z" />
    <glyph glyph-name="backslash" unicode="\" horiz-adv-x="849" 
d="M68 1659h108l608 -1679h-108z" />
    <glyph glyph-name="bracketright" unicode="]" horiz-adv-x="399" 
d="M332 1659v-1679h-266v81h163v1516h-163v82h266z" />
    <glyph glyph-name="asciicircum" unicode="^" horiz-adv-x="780" 
d="M715 1024h-111l-213 524l-213 -524h-110l249 614h148z" />
    <glyph glyph-name="underscore" unicode="_" horiz-adv-x="1320" 
d="M68 -10h1187v-103h-1187v103z" />
    <glyph glyph-name="grave" unicode="`" horiz-adv-x="624" 
d="M604 1532l-20 -78l-564 150l21 79z" />
    <glyph glyph-name="a" unicode="a" horiz-adv-x="851" 
d="M766 193q0 -107 20 -193h-143q-31 63 -31 150q-80 -170 -268 -170q-126 0 -201 84.5t-75 246.5q0 93 30 168t78 123.5t106 89t116 74t106 67t78 79t30 100.5v2q0 102 -44 153.5t-124 51.5q-93 0 -138.5 -59t-45.5 -187v-58h-154v27q0 92 15 161t51 128t104.5 90t167.5 31
q322 0 322 -379v-780zM612 309v475q-11 -28 -46 -58.5t-77.5 -55.5t-90.5 -60.5t-87 -72.5t-64.5 -92.5t-25.5 -120.5q0 -95 42 -153t136 -58q49 0 91 24t66.5 58.5t38.5 64.5t17 49z" />
    <glyph glyph-name="b" unicode="b" horiz-adv-x="827" 
d="M492 1352q141 0 204.5 -97t63.5 -313v-551q0 -217 -63.5 -314t-204.5 -97q-180 0 -256 170q0 -33 -8.5 -81t-22.5 -69h-144q14 46 17.5 85t3.5 112v1441h154v-456q76 170 256 170zM606 354v623q0 117 -39 179.5t-131 62.5q-100 0 -150 -74.5t-50 -181.5v-592
q0 -68 19.5 -124.5t66 -95t114.5 -38.5q92 0 131 63t39 178z" />
    <glyph glyph-name="c" unicode="c" 
d="M592 809v106q0 91 -12 151.5t-36.5 93.5t-56 46t-77.5 13q-45 0 -77.5 -13t-59 -45.5t-39.5 -93.5t-13 -152v-499q0 -90 13 -151t39.5 -93.5t59 -45.5t77.5 -13q46 0 77.5 13t56 46t36.5 93.5t12 150.5v106h153v-59q0 -253 -76.5 -368t-258.5 -115q-183 0 -262.5 116
t-79.5 367v407q0 251 79.5 366.5t262.5 115.5q182 0 258.5 -114.5t76.5 -367.5v-61h-153z" />
    <glyph glyph-name="d" unicode="d" horiz-adv-x="827" 
d="M745 197q0 -73 3.5 -112t17.5 -85h-143q-14 21 -22.5 69t-8.5 81q-76 -170 -256 -170q-141 0 -204.5 97t-63.5 314v551q0 216 63.5 313t204.5 97q180 0 256 -170v456h153v-1441zM592 371v592q0 107 -50.5 181.5t-150.5 74.5q-92 0 -131 -62.5t-39 -179.5v-623
q0 -115 39 -178t131 -63q100 0 150.5 75.5t50.5 182.5z" />
    <glyph glyph-name="e" unicode="e" 
d="M410 1352q182 0 258.5 -114.5t76.5 -367.5v-221h-524v-233q0 -90 13 -151t39.5 -93.5t59 -45.5t77.5 -13q46 0 77.5 13t56 46t36.5 93.5t12 150.5v106h153v-59q0 -253 -76.5 -368t-258.5 -115q-183 0 -262.5 116t-79.5 367v407q0 251 79.5 366.5t262.5 115.5zM592 915
q0 91 -12 151.5t-36.5 93.5t-56 46t-77.5 13q-45 0 -77.5 -13t-59 -45.5t-39.5 -93.5t-13 -152v-153h371v153z" />
    <glyph glyph-name="f" unicode="f" horiz-adv-x="675" 
d="M498 1536q-75 0 -99 -36.5t-24 -123.5v-80q51 35 235 35v-133h-235v-1198h-154v1198h-153v133h153v51q0 45 4.5 81t18.5 74.5t38.5 63.5t66.5 41.5t100 16.5q72 0 161 -21v-116q-66 14 -112 14z" />
    <glyph glyph-name="g" unicode="g" 
d="M592 1331h153v-1294q0 -92 -8 -156.5t-31.5 -123t-65 -93t-108.5 -54.5t-161 -20h-258v134h252q69 0 114 20t69.5 62t34 96.5t9.5 134.5v113q-76 -170 -256 -170q-141 0 -204.5 97t-63.5 314v551q0 216 63.5 313t204.5 97q180 0 256 -170v149zM391 113q100 0 150.5 75.5
t50.5 182.5v592q0 107 -50.5 181.5t-150.5 74.5q-92 0 -131 -62.5t-39 -179.5v-623q0 -115 39 -178t131 -63z" />
    <glyph glyph-name="h" unicode="h" 
d="M475 1352q141 0 205.5 -97t64.5 -313v-942h-153v977q0 242 -170 242q-100 0 -150.5 -74.5t-50.5 -181.5v-963h-153v1638h153v-456q76 170 254 170z" />
    <glyph glyph-name="i" unicode="i" horiz-adv-x="286" 
d="M143 1485q-37 0 -64.5 25.5t-27.5 60.5q0 36 27.5 62t64.5 26q38 0 65.5 -25.5t27.5 -62.5q0 -35 -27.5 -60.5t-65.5 -25.5zM68 1331h153v-1331h-153v1331z" />
    <glyph glyph-name="j" unicode="j" horiz-adv-x="548" 
d="M406 1485q-38 0 -65.5 25.5t-27.5 60.5q0 37 27.5 62.5t65.5 25.5q37 0 64.5 -26t27.5 -62q0 -35 -27.5 -60.5t-64.5 -25.5zM328 37v1294h153v-1294q0 -67 -2.5 -115t-9.5 -98t-20.5 -83t-35.5 -64t-53 -48.5t-75 -28t-101 -10.5h-137v134h117q45 0 76 15t48.5 38
t26.5 67t11 84.5t2 108.5z" />
    <glyph glyph-name="k" unicode="k" horiz-adv-x="856" 
d="M68 1638h153v-1638h-153v1638zM791 1331l-404 -665l404 -666h-173l-397 666l397 665h173z" />
    <glyph glyph-name="l" unicode="l" horiz-adv-x="286" 
d="M68 1638h153v-1638h-153v1638z" />
    <glyph glyph-name="m" unicode="m" horiz-adv-x="1232" 
d="M930 1352q136 0 186.5 -93.5t50.5 -316.5v-942h-153v977q0 119 -29.5 180.5t-107.5 61.5q-88 0 -135.5 -75.5t-47.5 -180.5v-21v-942h-153v977q0 119 -30 180.5t-108 61.5q-88 0 -135 -75t-47 -181v-963h-153v1331h153v-149q28 75 86 122.5t150 47.5q95 0 147 -44.5
t72 -140.5q82 185 254 185z" />
    <glyph glyph-name="n" unicode="n" 
d="M475 1352q141 0 205.5 -97t64.5 -313v-942h-153v977q0 242 -170 242q-100 0 -150.5 -74.5t-50.5 -181.5v-963h-153v1331h153v-149q76 170 254 170z" />
    <glyph glyph-name="o" unicode="o" 
d="M68 463v407q0 252 77.5 367t260.5 115t261 -115t78 -367v-407q0 -252 -78 -367.5t-261 -115.5t-260.5 115.5t-77.5 367.5zM221 416q0 -174 46 -238.5t139 -64.5q46 0 78 13t57.5 46t38 93.5t12.5 150.5v499q0 91 -12.5 152t-38.5 93.5t-58 45.5t-77 13t-77 -13
t-57.5 -45.5t-38 -93.5t-12.5 -152v-499z" />
    <glyph glyph-name="p" unicode="p" 
d="M475 1352q141 0 205.5 -97t64.5 -313v-551q0 -216 -64.5 -313.5t-205.5 -97.5q-178 0 -254 170v-560h-153v1741h153v-149q76 170 254 170zM592 354v623q0 242 -170 242q-100 0 -150.5 -74.5t-50.5 -181.5v-592q0 -107 50.5 -182.5t150.5 -75.5q170 0 170 241z" />
    <glyph glyph-name="q" unicode="q" 
d="M590 1331h153v-1741h-153v560q-76 -170 -254 -170q-141 0 -205.5 97.5t-64.5 313.5v551q0 216 64.5 313t205.5 97q178 0 254 -170v149zM590 371v592q0 107 -50.5 181.5t-150.5 74.5q-170 0 -170 -242v-623q0 -241 170 -241q100 0 150.5 75.5t50.5 182.5z" />
    <glyph glyph-name="r" unicode="r" horiz-adv-x="780" 
d="M492 1352q55 0 94 -17t64 -47.5t39.5 -81t20 -109.5t5.5 -141v-51h-154v88q0 43 -2 73t-9.5 61t-21 49.5t-37 30.5t-57.5 12q-62 0 -112.5 -51.5t-75.5 -122t-25 -138.5v-907h-153v1331h153v-172q88 193 271 193z" />
    <glyph glyph-name="s" unicode="s" 
d="M473 745q46 -37 63.5 -52t55 -49t53 -54.5t39.5 -55.5t34 -65.5t18.5 -71.5t8.5 -86q0 -331 -323 -331q-106 0 -175.5 27t-108.5 86.5t-54.5 140t-15.5 202.5h153q0 -187 43.5 -255t157.5 -68q170 0 170 198q0 36 -5.5 65.5t-22 58.5t-32 50.5t-51 53.5t-62 54.5
t-81.5 65.5q-11 9 -42 33t-45.5 35t-41.5 36t-41 43t-33.5 47t-29 56.5t-16.5 63.5t-7 76q0 43 8 82.5t30 80.5t56.5 71t92.5 49.5t132 19.5q184 0 261 -109.5t77 -320.5h-153q0 75 -8.5 129t-23 86.5t-39 51t-51 24.5t-63.5 6q-73 0 -119 -43.5t-46 -126.5q0 -35 8.5 -65.5
t20 -51t37.5 -46.5t45 -41.5t60 -47.5t66 -52z" />
    <glyph glyph-name="t" unicode="t" horiz-adv-x="675" 
d="M375 1198v-752v-8v-63t1.5 -54t4 -50t7 -40.5t12 -35.5t18 -26t25 -21t33 -10.5t42.5 -4.5h92v-133h-106q-50 0 -89.5 7t-68.5 23.5t-50 35.5t-34.5 51.5t-22 62.5t-12.5 78t-5 87t-1 101v752h-153v133q88 26 139 112t49 195h154q0 -111 -48 -198.5t-110 -108.5h358v-133
h-235z" />
    <glyph glyph-name="u" unicode="u" 
d="M745 197q0 -73 3.5 -112t17.5 -85h-143q-14 21 -22.5 69t-8.5 81q-76 -170 -256 -170q-141 0 -204.5 97t-63.5 314v940h153v-977q0 -115 39 -178t131 -63q100 0 150.5 75.5t50.5 182.5v960h153v-1134z" />
    <glyph glyph-name="v" unicode="v" horiz-adv-x="821" 
d="M602 1331h154l-246 -1331h-199l-243 1331h153l191 -1130z" />
    <glyph glyph-name="w" unicode="w" horiz-adv-x="1542" 
d="M1309 1331h168l-547 -1331h-213v1100l-438 -1100h-211v1331h153v-1108l436 1108h213v-1112z" />
    <glyph glyph-name="x" unicode="x" horiz-adv-x="937" 
d="M68 0l307 666l-307 665h165l236 -543l236 543h167l-309 -665l309 -666h-167l-236 543l-236 -543h-165z" />
    <glyph glyph-name="y" unicode="y" 
d="M592 1331h153v-1294q0 -92 -8 -156.5t-31.5 -123t-65 -93t-108.5 -54.5t-161 -20h-258v134h252q69 0 114 20t69.5 62t34 96.5t9.5 134.5v113q-76 -170 -256 -170q-141 0 -204.5 97t-63.5 314v940h153v-977q0 -115 39 -178t131 -63q100 0 150.5 75.5t50.5 182.5v960z" />
    <glyph glyph-name="z" unicode="z" horiz-adv-x="747" 
d="M682 1331v-133l-455 -1065h455v-133h-614v133l454 1065h-454v133h614z" />
    <glyph glyph-name="braceleft" unicode="{" horiz-adv-x="399" 
d="M334 1659v-82q-54 0 -78.5 -48.5t-23.5 -122.5t5.5 -164l8.5 -170t-14 -143.5t-62 -82.5v-53q44 -19 62 -82.5t14 -144t-8.5 -170.5t-5.5 -164t23.5 -122.5t78.5 -48.5v-81q-81 0 -128 41.5t-60.5 107.5t-13.5 146t7 160.5t8.5 146.5t-17 107.5t-62.5 41.5v176
q44 0 62.5 41.5t17 108t-8.5 146.5t-7 160t13.5 146.5t60.5 108t128 41.5z" />
    <glyph glyph-name="bar" unicode="|" horiz-adv-x="235" 
d="M68 1659h102v-1679h-102v1679z" />
    <glyph glyph-name="braceright" unicode="}" horiz-adv-x="399" 
d="M66 1659q81 0 128 -41.5t60.5 -108t13.5 -146.5t-7 -160t-8.5 -146.5t17 -108t62.5 -41.5v-176q-44 0 -62.5 -41.5t-17 -107.5t8.5 -146t7 -160.5t-13.5 -146.5t-60.5 -107.5t-128 -41.5v81q47 0 71 36t28.5 95t1 131t-9 147.5t-4.5 141t19.5 115t56.5 66.5v53
q-38 17 -56.5 66.5t-19.5 114.5t4.5 140.5t9 147.5t-1 131t-28.5 95t-71 36v82z" />
    <glyph glyph-name="asciitilde" unicode="~" horiz-adv-x="972" 
d="M68 594q0 69 19.5 116.5t52.5 69.5t64.5 30.5t67.5 8.5q55 0 107 -19t92 -46t77 -54t77 -46t77 -19q47 0 75 31.5t28 91.5h102q0 -56 -14 -98t-34.5 -66t-49.5 -38.5t-54 -19t-53 -4.5q-67 0 -131.5 29t-107 63.5t-94.5 63.5t-97 29q-47 0 -74.5 -31.5t-27.5 -91.5h-102z
" />
    <glyph glyph-name="exclamdown" unicode="&#xa1;" horiz-adv-x="323" 
d="M162 1352q39 0 66.5 -26.5t27.5 -68.5t-27.5 -69t-66.5 -27t-66.5 27t-27.5 69t27.5 68.5t66.5 26.5zM84 -307l4 1126h143l7 -1126h-154z" />
    <glyph glyph-name="cent" unicode="&#xa2;" horiz-adv-x="903" 
d="M504 412q104 14 167.5 95.5t63.5 225.5h103q0 -176 -90.5 -292.5t-243.5 -131.5v-329h-103v331q-151 24 -242 156.5t-91 351.5t91 351.5t242 156.5v332h103v-330q153 -15 243.5 -131.5t90.5 -292.5h-103q0 144 -64 226t-167 96v-815zM170 819q0 -183 64 -282t167 -121
v807q-103 -22 -167 -121.5t-64 -282.5z" />
    <glyph glyph-name="sterling" unicode="&#xa3;" horiz-adv-x="874" 
d="M309 618q14 -91 16.5 -158t-9 -137.5t-48 -126.5t-98.5 -98h639v-98h-741v98q62 42 98.5 98t48 126.5t9 137.5t-16.5 158h-139v103h120q-2 10 -14.5 75.5t-16 84.5t-12.5 75t-12 87t-6.5 76t-3.5 85q0 123 27.5 214t76 142t107 75t129.5 24t130.5 -26.5t109.5 -83.5
t78 -158.5t28 -239.5h-102q0 405 -244 405q-55 0 -96.5 -17t-74.5 -56.5t-50 -109.5t-17 -169q0 -39 3 -83.5t7 -78.5t12.5 -85t13 -77t15.5 -83t15 -76h366v-103h-348z" />
    <glyph glyph-name="currency" unicode="&#xa4;" horiz-adv-x="776" 
d="M668 819q0 -168 -70 -280l113 -154l-72 -72l-109 152q-59 -47 -141 -47t-141 47l-109 -152l-71 72l112 154q-69 110 -69 280q0 171 69 281l-112 153l71 72l109 -151q59 47 141 47q80 0 141 -45l109 149l72 -72l-113 -155q70 -112 70 -279zM213 819q0 -85 18 -150.5
t58.5 -107t99.5 -41.5t99.5 41.5t58.5 107t18 150.5t-18 150.5t-58.5 107t-99.5 41.5t-99.5 -41.5t-58.5 -107t-18 -150.5z" />
    <glyph glyph-name="yen" unicode="&#xa5;" horiz-adv-x="1030" 
d="M965 1638l-369 -989h240v-102h-269v-82h269v-103h-269v-362h-102v362h-268v103h268v82h-268v102h239l-368 989h112l336 -919l336 919h113z" />
    <glyph glyph-name="brokenbar" unicode="&#xa6;" horiz-adv-x="235" 
d="M68 1659h102v-655h-102v655zM68 635h102v-655h-102v655z" />
    <glyph glyph-name="section" unicode="&#xa7;" horiz-adv-x="841" 
d="M606 514q78 -44 114 -102t36 -150q0 -121 -79 -201.5t-245 -80.5q-344 0 -344 405h102q0 -66 10 -116t35 -94.5t75 -68.5t122 -24q125 0 173 48t48 132q0 98 -70 153t-216 97q-167 48 -233 95t-66 132q0 90 45 132.5t125 54.5q-78 44 -114 102t-36 150q0 121 79 201.5
t245 80.5q344 0 344 -405h-103q0 66 -10 116t-35 94.5t-74.5 68.5t-121.5 24q-125 0 -173.5 -48t-48.5 -132q0 -98 70.5 -153t216.5 -97q167 -48 233 -95.5t66 -132.5q0 -90 -45 -132t-125 -54zM170 762q0 -58 48 -89t190 -77h2q64 -21 112.5 -26.5t76.5 2t45.5 25t23.5 37
t6 44.5q0 58 -48 89t-190 77h-2q-64 21 -112.5 26.5t-76.5 -2t-45.5 -25t-23.5 -37t-6 -44.5z" />
    <glyph glyph-name="dieresis" unicode="&#xa8;" horiz-adv-x="542" 
d="M100 1493q-33 0 -56.5 21.5t-23.5 54.5q0 38 23 60t57 22q33 0 56.5 -22t23.5 -60q0 -33 -24 -54.5t-56 -21.5zM442 1493q-33 0 -55 21.5t-22 54.5q0 39 21.5 60.5t55.5 21.5q33 0 56.5 -22t23.5 -60q0 -33 -24 -54.5t-56 -21.5z" />
    <glyph glyph-name="copyright" unicode="&#xa9;" horiz-adv-x="1329" 
d="M666 -20q598 0 598 839q0 840 -598 840t-598 -840q0 -839 598 -839zM666 82q-111 0 -197 37t-142 101t-91.5 158.5t-50.5 202t-15 238.5t15 238.5t50.5 202t91.5 158.5t142 101t197 37t196.5 -37t141.5 -101t91.5 -158.5t50.5 -202t15 -238.5t-15 -238.5t-50.5 -202
t-91.5 -158.5t-141.5 -101t-196.5 -37zM907 905q0 131 -66 207t-165 76q-118 0 -185 -90t-67 -279t67 -278.5t185 -89.5q100 0 165.5 75.5t65.5 206.5h103q0 -104 -39.5 -191t-117 -140.5t-177.5 -53.5q-168 0 -261 126t-93 345t93 345t261 126q100 0 177.5 -53.5
t117 -140.5t39.5 -191h-103z" />
    <glyph glyph-name="guillemotleft" unicode="&#xab;" horiz-adv-x="724" 
d="M373 920l-228 -244l228 -244v-123l-305 326v82l305 325v-122zM659 1042v-122l-227 -244l227 -244v-123l-305 326v82z" />
    <glyph glyph-name="logicalnot" unicode="&#xac;" horiz-adv-x="972" 
d="M68 727h839v-387h-102v285h-737v102z" />
    <glyph glyph-name="registered" unicode="&#xae;" horiz-adv-x="919" 
d="M461 635q69 0 125.5 17t96.5 46t71 70.5t49.5 85.5t30 96.5t16 99.5t4.5 97t-4.5 97t-16 99.5t-30 96.5t-49.5 85.5t-71 70.5t-96.5 46t-125.5 17t-125.5 -17t-96.5 -46t-71 -70.5t-49.5 -85.5t-30 -96.5t-16 -99.5t-4.5 -97t4.5 -97t16 -99.5t30 -96.5t49.5 -85.5
t71 -70.5t96.5 -46t125.5 -17zM461 737q-62 0 -110.5 19t-79 53.5t-51.5 74t-31.5 89t-14.5 90t-4 84.5q0 54 5.5 102.5t23.5 107t48.5 100.5t85.5 70.5t128 28.5t128 -28.5t85.5 -70.5t48.5 -100.5t23.5 -107t5.5 -102.5q0 -44 -4 -84.5t-14.5 -90t-31.5 -89t-51.5 -74
t-79 -53.5t-110.5 -19zM311 926v454h144q99 0 141.5 -41.5t42.5 -121.5q0 -100 -64 -138l62 -153h-111l-51 127h-61v-127h-103zM414 1155h41q43 0 62.5 14.5t19.5 47.5t-19.5 47t-62.5 14h-41v-123z" />
    <glyph glyph-name="macron" unicode="&#xaf;" horiz-adv-x="624" 
d="M20 1610h584v-82h-584v82z" />
    <glyph glyph-name="degree" unicode="&#xb0;" horiz-adv-x="632" 
d="M317 1044q67 0 117 25.5t78 70.5t41.5 98t13.5 114t-13.5 114t-41.5 97.5t-78 70t-117 25.5t-117 -25.5t-78 -70t-41 -97t-13 -114.5t13 -114.5t41 -97.5t78 -70.5t117 -25.5zM317 1147q-147 0 -147 205q0 204 147 204q148 0 148 -204q0 -205 -148 -205z" />
    <glyph glyph-name="plusminus" unicode="&#xb1;" horiz-adv-x="972" 
d="M907 625h-368v-277h368v-102h-839v102h368v277h-368v102h368v369h103v-369h368v-102z" />
    <glyph glyph-name="acute" unicode="&#xb4;" horiz-adv-x="624" 
d="M20 1532l564 151l20 -79l-563 -150z" />
    <glyph glyph-name="paragraph" unicode="&#xb6;" horiz-adv-x="712" 
d="M340 1638h102v-1638h-102v926q-74 0 -120.5 13t-83 50.5t-52.5 108.5t-16 184t16 184t52.5 108.5t83 50.5t120.5 13zM545 1638h102v-1638h-102v1638z" />
    <glyph glyph-name="periodcentered" unicode="&#xb7;" horiz-adv-x="323" 
d="M162 571q-39 0 -66.5 26.5t-27.5 68.5t27.5 69t66.5 27t66.5 -27t27.5 -69t-27.5 -68.5t-66.5 -26.5z" />
    <glyph glyph-name="cedilla" unicode="&#xb8;" horiz-adv-x="411" 
d="M94 0h103l-33 -137q227 37 227 -123q0 -34 -14 -60.5t-33.5 -43.5t-54.5 -29t-62 -18t-72 -9t-68.5 -3.5t-66.5 -0.5l3 82q147 0 206.5 15.5t59.5 66.5q0 27 -13 42t-44.5 19.5t-69 2t-99.5 -10.5z" />
    <glyph glyph-name="guillemotright" unicode="&#xbb;" horiz-adv-x="724" 
d="M371 717v-82l-305 -326v123l227 244l-227 244v122zM352 1042l305 -325v-82l-305 -326v123l228 244l-228 244v122z" />
    <glyph glyph-name="questiondown" unicode="&#xbf;" 
d="M459 1161q-39 0 -66.5 27t-27.5 69t27.5 68.5t66.5 26.5t66.5 -26.5t27.5 -68.5t-27.5 -69t-66.5 -27zM590 164h153q0 -243 -85 -367.5t-273 -124.5q-82 0 -145 27t-100 75.5t-55.5 109t-18.5 132.5q0 71 18 132.5t46.5 108t63 91t68.5 91.5t62.5 99t46.5 124t18 157h143
q0 -94 -17.5 -174.5t-45 -138t-60.5 -107.5t-66.5 -92.5t-61 -84t-45 -91t-17.5 -104.5q0 -201 166 -201q105 0 155 74t50 264z" />
    <glyph glyph-name="Agrave" unicode="&#xc0;" horiz-adv-x="862" 
d="M723 1839l-21 -78l-563 150l21 80zM643 0l-51 356h-320l-51 -356h-153l254 1638h219l256 -1638h-154zM295 510h274l-137 950z" />
    <glyph glyph-name="Aacute" unicode="&#xc1;" horiz-adv-x="862" 
d="M723 1911l-563 -150l-21 78l563 152zM643 0l-51 356h-320l-51 -356h-153l254 1638h219l256 -1638h-154zM295 510h274l-137 950z" />
    <glyph glyph-name="Acircumflex" unicode="&#xc2;" horiz-adv-x="862" 
d="M434 1929l-162 -168h-133l223 230h144l217 -230h-133zM643 0l-51 356h-320l-51 -356h-153l254 1638h219l256 -1638h-154zM295 510h274l-137 950z" />
    <glyph glyph-name="Atilde" unicode="&#xc3;" horiz-adv-x="862" 
d="M309 1909q-67 0 -67 -123h-103q0 205 164 205q44 0 77.5 -15t53.5 -37t37 -44t37.5 -37t44.5 -15q68 0 68 123h102q0 -205 -164 -205q-44 0 -77.5 15t-53.5 37t-37 44t-37.5 37t-44.5 15zM643 0l-51 356h-320l-51 -356h-153l254 1638h219l256 -1638h-154zM295 510h274
l-137 950z" />
    <glyph glyph-name="Adieresis" unicode="&#xc4;" horiz-adv-x="862" 
d="M260 1800q-33 0 -56.5 21.5t-23.5 54.5q0 38 23 60t57 22q33 0 56.5 -22t23.5 -60q0 -33 -24 -54.5t-56 -21.5zM602 1800q-33 0 -55.5 21.5t-22.5 54.5q0 38 22 60t56 22q33 0 56.5 -22t23.5 -60q0 -33 -24 -54.5t-56 -21.5zM643 0l-51 356h-320l-51 -356h-153l254 1638
h219l256 -1638h-154zM295 510h274l-137 950z" />
    <glyph glyph-name="Aring" unicode="&#xc5;" horiz-adv-x="862" 
d="M432 1761q-55 0 -95 39t-40 96q0 58 40 97t95 39t95 -39t40 -97q0 -57 -40 -96t-95 -39zM432 1950q-24 0 -38.5 -15t-14.5 -39t14.5 -38.5t38.5 -14.5t38.5 14.5t14.5 38.5t-14.5 39t-38.5 15zM643 0l-51 356h-320l-51 -356h-153l254 1638h219l256 -1638h-154zM295 510
h274l-137 950z" />
    <glyph glyph-name="AE" unicode="&#xc6;" horiz-adv-x="1187" 
d="M784 1485v-588h338v-154h-338v-589h338v-154h-491v356h-352l-58 -356h-153l262 1638h792v-153h-338zM301 510h330v975h-174z" />
    <glyph glyph-name="Ccedilla" unicode="&#xc7;" 
d="M745 973h-153v246q0 163 -39 224.5t-147 61.5q-106 0 -145.5 -62t-39.5 -224v-797q0 -164 39.5 -226.5t145.5 -62.5q108 0 147 62.5t39 226.5v244h153v-234q0 -228 -69.5 -333t-222.5 -117l-29 -119q227 37 227 -123q0 -34 -14 -60.5t-33.5 -43.5t-54 -29t-62 -18t-72 -9
t-68 -3.5t-66.5 -0.5l2 82q147 0 206.5 15.5t59.5 66.5q0 52 -56.5 62t-168.5 -9l28 189q-148 14 -216 119.5t-68 330.5v776q0 243 81 347t257 104q178 0 258.5 -103.5t80.5 -347.5v-235z" />
    <glyph glyph-name="Egrave" unicode="&#xc8;" horiz-adv-x="624" 
d="M41 1991l563 -152l-20 -78l-564 150zM559 1638v-153h-338v-588h338v-154h-338v-589h338v-154h-491v1638h491z" />
    <glyph glyph-name="Eacute" unicode="&#xc9;" horiz-adv-x="624" 
d="M584 1991l20 -80l-563 -150l-21 78zM559 1638v-153h-338v-588h338v-154h-338v-589h338v-154h-491v1638h491z" />
    <glyph glyph-name="Ecircumflex" unicode="&#xca;" horiz-adv-x="624" 
d="M315 1929l-161 -168h-134l224 230h143l217 -230h-133zM559 1638v-153h-338v-588h338v-154h-338v-589h338v-154h-491v1638h491z" />
    <glyph glyph-name="Edieresis" unicode="&#xcb;" horiz-adv-x="624" 
d="M141 1800q-33 0 -56.5 21.5t-23.5 54.5q0 38 23 60t57 22q33 0 56.5 -22t23.5 -60q0 -33 -24 -54.5t-56 -21.5zM483 1800q-33 0 -55 21.5t-22 54.5q0 38 22 60t55 22t56.5 -22t23.5 -60q0 -33 -24 -54.5t-56 -21.5zM559 1638v-153h-338v-588h338v-154h-338v-589h338v-154
h-491v1638h491z" />
    <glyph glyph-name="Igrave" unicode="&#xcc;" horiz-adv-x="286" 
d="M434 1839l-20 -78l-564 150l21 80zM68 1638h153v-1638h-153v1638z" />
    <glyph glyph-name="Iacute" unicode="&#xcd;" horiz-adv-x="286" 
d="M-150 1839l564 152l20 -80l-563 -150zM68 1638h153v-1638h-153v1638z" />
    <glyph glyph-name="Icircumflex" unicode="&#xce;" horiz-adv-x="286" 
d="M74 1991h143l217 -230h-133l-156 168l-161 -168h-134zM68 1638h153v-1638h-153v1638z" />
    <glyph glyph-name="Idieresis" unicode="&#xcf;" horiz-adv-x="286" 
d="M-29 1800q-33 0 -56.5 21.5t-23.5 54.5q0 38 23 60t57 22q33 0 56.5 -22t23.5 -60q0 -33 -24 -54.5t-56 -21.5zM313 1800q-33 0 -55 21.5t-22 54.5q0 38 22 60t55 22t56.5 -22t23.5 -60q0 -33 -24 -54.5t-56 -21.5zM68 1638h153v-1638h-153v1638z" />
    <glyph glyph-name="Eth" unicode="&#xd0;" horiz-adv-x="933" 
d="M401 1638q85 0 145.5 -6t116.5 -23t91.5 -47t62.5 -77.5t39 -116t12 -160.5v-776q0 -92 -12 -160.5t-39 -116.5t-62.5 -78t-91 -47t-116.5 -23.5t-146 -6.5h-215v778h-186v82h186v778h215zM401 154q65 0 108 3.5t80.5 14.5t59.5 30t38 50.5t22 74.5t6 105v776
q0 62 -6 105t-22 74.5t-38 50t-59.5 29.5t-80.5 14.5t-108 3.5h-61v-625h244v-82h-244v-624h61z" />
    <glyph glyph-name="Ntilde" unicode="&#xd1;" horiz-adv-x="919" 
d="M338 1909q-68 0 -68 -123h-102q0 205 164 205q44 0 77.5 -15t53.5 -37t37 -44t37.5 -37t44.5 -15q67 0 67 123h103q0 -205 -164 -205q-44 0 -77.5 15t-53.5 37t-37 44t-37.5 37t-44.5 15zM700 1638h154v-1638h-154l-479 1231v-1231h-153v1638h153l479 -1230v1230z" />
    <glyph glyph-name="Ograve" unicode="&#xd2;" 
d="M696 1839l-20 -78l-563 150l20 80zM406 1659q178 0 258.5 -103.5t80.5 -347.5v-776q0 -244 -80.5 -348t-258.5 -104q-176 0 -257 104.5t-81 347.5v776q0 243 81 347t257 104zM592 422v797q0 163 -39 224.5t-147 61.5q-106 0 -145.5 -62t-39.5 -224v-797
q0 -164 39.5 -226.5t145.5 -62.5q108 0 147 62.5t39 226.5z" />
    <glyph glyph-name="Oacute" unicode="&#xd3;" 
d="M696 1911l-563 -150l-20 78l563 152zM406 1659q178 0 258.5 -103.5t80.5 -347.5v-776q0 -244 -80.5 -348t-258.5 -104q-176 0 -257 104.5t-81 347.5v776q0 243 81 347t257 104zM592 422v797q0 163 -39 224.5t-147 61.5q-106 0 -145.5 -62t-39.5 -224v-797
q0 -164 39.5 -226.5t145.5 -62.5q108 0 147 62.5t39 226.5z" />
    <glyph glyph-name="Ocircumflex" unicode="&#xd4;" 
d="M408 1929l-162 -168h-133l223 230h143l217 -230h-133zM406 1659q178 0 258.5 -103.5t80.5 -347.5v-776q0 -244 -80.5 -348t-258.5 -104q-176 0 -257 104.5t-81 347.5v776q0 243 81 347t257 104zM592 422v797q0 163 -39 224.5t-147 61.5q-106 0 -145.5 -62t-39.5 -224
v-797q0 -164 39.5 -226.5t145.5 -62.5q108 0 147 62.5t39 226.5z" />
    <glyph glyph-name="Otilde" unicode="&#xd5;" 
d="M283 1909q-68 0 -68 -123h-102q0 205 163 205q44 0 77.5 -15t53.5 -37t37 -44t37.5 -37t44.5 -15q68 0 68 123h102q0 -205 -164 -205q-44 0 -77.5 15t-53.5 37t-36.5 44t-37 37t-44.5 15zM406 1659q178 0 258.5 -103.5t80.5 -347.5v-776q0 -244 -80.5 -348t-258.5 -104
q-176 0 -257 104.5t-81 347.5v776q0 243 81 347t257 104zM592 422v797q0 163 -39 224.5t-147 61.5q-106 0 -145.5 -62t-39.5 -224v-797q0 -164 39.5 -226.5t145.5 -62.5q108 0 147 62.5t39 226.5z" />
    <glyph glyph-name="Odieresis" unicode="&#xd6;" 
d="M233 1800q-33 0 -56 21.5t-23 54.5q0 38 22.5 60t56.5 22q33 0 56.5 -22t23.5 -60q0 -33 -24 -54.5t-56 -21.5zM575 1800q-33 0 -55 21.5t-22 54.5q0 38 22 60t55 22t56.5 -22t23.5 -60q0 -33 -24 -54.5t-56 -21.5zM406 1659q178 0 258.5 -103.5t80.5 -347.5v-776
q0 -244 -80.5 -348t-258.5 -104q-176 0 -257 104.5t-81 347.5v776q0 243 81 347t257 104zM592 422v797q0 163 -39 224.5t-147 61.5q-106 0 -145.5 -62t-39.5 -224v-797q0 -164 39.5 -226.5t145.5 -62.5q108 0 147 62.5t39 226.5z" />
    <glyph glyph-name="multiply" unicode="&#xd7;" horiz-adv-x="862" 
d="M764 903l-260 -260l260 -260l-72 -74l-260 262l-262 -262l-74 72l262 262l-260 260l72 74l262 -260l258 258z" />
    <glyph glyph-name="Oslash" unicode="&#xd8;" 
d="M762 1659l-62 -170q43 -104 43 -281v-776q0 -244 -81 -348t-259 -104q-148 0 -225 69l-24 -69h-109l64 174q-43 101 -43 278v776q0 244 80.5 347.5t256.5 103.5q146 0 226 -68l24 68h109zM219 1219v-758l346 954q-20 49 -58 69.5t-104 20.5q-106 0 -145 -61.5t-39 -224.5
zM590 1184l-346 -959q19 -49 56.5 -70.5t102.5 -21.5q108 0 147.5 62.5t39.5 226.5v762z" />
    <glyph glyph-name="Ugrave" unicode="&#xd9;" 
d="M696 1839l-20 -78l-563 150l20 80zM745 1638v-1206q0 -244 -80.5 -348t-258.5 -104q-176 0 -257 104.5t-81 347.5v1206h153v-1216q0 -164 39.5 -226.5t145.5 -62.5q108 0 147 62.5t39 226.5v1216h153z" />
    <glyph glyph-name="Uacute" unicode="&#xda;" 
d="M113 1839l563 152l20 -80l-563 -150zM745 1638v-1206q0 -244 -80.5 -348t-258.5 -104q-176 0 -257 104.5t-81 347.5v1206h153v-1216q0 -164 39.5 -226.5t145.5 -62.5q108 0 147 62.5t39 226.5v1216h153z" />
    <glyph glyph-name="Ucircumflex" unicode="&#xdb;" 
d="M336 1991h143l217 -230h-133l-155 168l-162 -168h-133zM745 1638v-1206q0 -244 -80.5 -348t-258.5 -104q-176 0 -257 104.5t-81 347.5v1206h153v-1216q0 -164 39.5 -226.5t145.5 -62.5q108 0 147 62.5t39 226.5v1216h153z" />
    <glyph glyph-name="Udieresis" unicode="&#xdc;" 
d="M233 1800q-33 0 -56 21.5t-23 54.5q0 38 22.5 60t56.5 22q33 0 56.5 -22t23.5 -60q0 -33 -24 -54.5t-56 -21.5zM575 1800q-33 0 -55 21.5t-22 54.5q0 38 22 60t55 22t56.5 -22t23.5 -60q0 -33 -24 -54.5t-56 -21.5zM745 1638v-1206q0 -244 -80.5 -348t-258.5 -104
q-176 0 -257 104.5t-81 347.5v1206h153v-1216q0 -164 39.5 -226.5t145.5 -62.5q108 0 147 62.5t39 226.5v1216h153z" />
    <glyph glyph-name="Yacute" unicode="&#xdd;" horiz-adv-x="937" 
d="M176 1839l563 152l21 -80l-563 -150zM393 573l-325 1065h161l240 -854l242 854h161l-325 -1065v-573h-154v573z" />
    <glyph glyph-name="Thorn" unicode="&#xde;" horiz-adv-x="815" 
d="M221 1331q115 0 198 -10.5t142 -36t96 -59.5t57.5 -89.5t28 -116.5t7.5 -149v-114q0 -87 -7.5 -147.5t-28 -115.5t-57.5 -89t-96 -60t-142 -37.5t-198 -13.5v-293h-153v1638h153v-307zM221 446q86 0 144 5t101.5 20t67.5 35.5t38.5 58.5t19 80.5t4.5 110.5v114
q0 67 -4.5 109.5t-19 80t-38.5 58t-67.5 35.5t-101.5 20t-144 5v-732z" />
    <glyph glyph-name="germandbls" unicode="&#xdf;" horiz-adv-x="851" 
d="M594 856q192 -97 192 -430q0 -232 -82.5 -329t-283.5 -97h-121v133h121q46 0 81.5 12.5t58.5 37t38 53.5t22.5 69.5t10 77t2.5 84.5q0 64 -12 118t-38.5 101t-76 73.5t-117.5 26.5h-90v134h90q54 0 92.5 17t59.5 42t33 65t15 74t3 80q0 178 -41 253t-141 75
q-102 0 -145.5 -83t-43.5 -292v-1151h-153v1151q0 101 8.5 176t31.5 140t61 105.5t98.5 63.5t142.5 23q335 0 335 -416q0 -293 -151 -387z" />
    <glyph glyph-name="agrave" unicode="&#xe0;" horiz-adv-x="851" 
d="M717 1532l-21 -78l-563 150l21 79zM766 193q0 -107 20 -193h-143q-31 63 -31 150q-80 -170 -268 -170q-126 0 -201 84.5t-75 246.5q0 93 30 168t78 123.5t106 89t116 74t106 67t78 79t30 100.5v2q0 102 -44 153.5t-124 51.5q-93 0 -138.5 -59t-45.5 -187v-58h-154v27
q0 92 15 161t51 128t104.5 90t167.5 31q322 0 322 -379v-780zM612 309v475q-11 -28 -46 -58.5t-77.5 -55.5t-90.5 -60.5t-87 -72.5t-64.5 -92.5t-25.5 -120.5q0 -95 42 -153t136 -58q49 0 91 24t66.5 58.5t38.5 64.5t17 49z" />
    <glyph glyph-name="aacute" unicode="&#xe1;" horiz-adv-x="851" 
d="M717 1604l-563 -150l-21 78l563 151zM766 193q0 -107 20 -193h-143q-31 63 -31 150q-80 -170 -268 -170q-126 0 -201 84.5t-75 246.5q0 93 30 168t78 123.5t106 89t116 74t106 67t78 79t30 100.5v2q0 102 -44 153.5t-124 51.5q-93 0 -138.5 -59t-45.5 -187v-58h-154v27
q0 92 15 161t51 128t104.5 90t167.5 31q322 0 322 -379v-780zM612 309v475q-11 -28 -46 -58.5t-77.5 -55.5t-90.5 -60.5t-87 -72.5t-64.5 -92.5t-25.5 -120.5q0 -95 42 -153t136 -58q49 0 91 24t66.5 58.5t38.5 64.5t17 49z" />
    <glyph glyph-name="acircumflex" unicode="&#xe2;" horiz-adv-x="851" 
d="M428 1622l-162 -168h-133l223 229h144l217 -229h-133zM766 193q0 -107 20 -193h-143q-31 63 -31 150q-80 -170 -268 -170q-126 0 -201 84.5t-75 246.5q0 93 30 168t78 123.5t106 89t116 74t106 67t78 79t30 100.5v2q0 102 -44 153.5t-124 51.5q-93 0 -138.5 -59
t-45.5 -187v-58h-154v27q0 92 15 161t51 128t104.5 90t167.5 31q322 0 322 -379v-780zM612 309v475q-11 -28 -46 -58.5t-77.5 -55.5t-90.5 -60.5t-87 -72.5t-64.5 -92.5t-25.5 -120.5q0 -95 42 -153t136 -58q49 0 91 24t66.5 58.5t38.5 64.5t17 49z" />
    <glyph glyph-name="atilde" unicode="&#xe3;" horiz-adv-x="851" 
d="M303 1602q-67 0 -67 -123h-103q0 204 164 204q44 0 77.5 -15t53.5 -36.5t37 -43.5t37.5 -37t44.5 -15q67 0 67 123h103q0 -205 -164 -205q-44 0 -77.5 15t-53.5 37t-37 44t-37.5 37t-44.5 15zM766 193q0 -107 20 -193h-143q-31 63 -31 150q-80 -170 -268 -170
q-126 0 -201 84.5t-75 246.5q0 93 30 168t78 123.5t106 89t116 74t106 67t78 79t30 100.5v2q0 102 -44 153.5t-124 51.5q-93 0 -138.5 -59t-45.5 -187v-58h-154v27q0 92 15 161t51 128t104.5 90t167.5 31q322 0 322 -379v-780zM612 309v475q-11 -28 -46 -58.5t-77.5 -55.5
t-90.5 -60.5t-87 -72.5t-64.5 -92.5t-25.5 -120.5q0 -95 42 -153t136 -58q49 0 91 24t66.5 58.5t38.5 64.5t17 49z" />
    <glyph glyph-name="adieresis" unicode="&#xe4;" horiz-adv-x="851" 
d="M254 1493q-33 0 -56.5 21.5t-23.5 54.5q0 38 23 60t57 22q33 0 56.5 -22t23.5 -60q0 -33 -24 -54.5t-56 -21.5zM596 1493q-33 0 -55.5 21.5t-22.5 54.5q0 38 22 60t56 22q33 0 56.5 -22t23.5 -60q0 -33 -24 -54.5t-56 -21.5zM766 193q0 -107 20 -193h-143q-31 63 -31 150
q-80 -170 -268 -170q-126 0 -201 84.5t-75 246.5q0 93 30 168t78 123.5t106 89t116 74t106 67t78 79t30 100.5v2q0 102 -44 153.5t-124 51.5q-93 0 -138.5 -59t-45.5 -187v-58h-154v27q0 92 15 161t51 128t104.5 90t167.5 31q322 0 322 -379v-780zM612 309v475
q-11 -28 -46 -58.5t-77.5 -55.5t-90.5 -60.5t-87 -72.5t-64.5 -92.5t-25.5 -120.5q0 -95 42 -153t136 -58q49 0 91 24t66.5 58.5t38.5 64.5t17 49z" />
    <glyph glyph-name="aring" unicode="&#xe5;" horiz-adv-x="851" 
d="M426 1454q-55 0 -95 39t-40 96t40 96t95 39t95 -39t40 -96t-40 -96t-95 -39zM426 1642q-24 0 -38.5 -14.5t-14.5 -38.5t14.5 -38.5t38.5 -14.5t38.5 14.5t14.5 38.5t-14.5 38.5t-38.5 14.5zM766 193q0 -107 20 -193h-143q-31 63 -31 150q-80 -170 -268 -170
q-126 0 -201 84.5t-75 246.5q0 93 30 168t78 123.5t106 89t116 74t106 67t78 79t30 100.5v2q0 102 -44 153.5t-124 51.5q-93 0 -138.5 -59t-45.5 -187v-58h-154v27q0 92 15 161t51 128t104.5 90t167.5 31q322 0 322 -379v-780zM612 309v475q-11 -28 -46 -58.5t-77.5 -55.5
t-90.5 -60.5t-87 -72.5t-64.5 -92.5t-25.5 -120.5q0 -95 42 -153t136 -58q49 0 91 24t66.5 58.5t38.5 64.5t17 49z" />
    <glyph glyph-name="ae" unicode="&#xe6;" horiz-adv-x="1294" 
d="M893 1352q183 0 259.5 -114.5t76.5 -367.5v-221h-524v-233q0 -90 13 -151t39 -93.5t58.5 -45.5t77.5 -13q46 0 77.5 13t56 46t36.5 93.5t12 150.5v106h154v-59q0 -253 -76.5 -368t-259.5 -115q-218 0 -293 167q-80 -167 -262 -167q-120 0 -195 81.5t-75 235.5
q0 93 26.5 168.5t69 125.5t94 92t103.5 77t94.5 70t69 81t26.5 101v2q0 205 -137 205q-70 0 -112 -60.5t-42 -185.5v-58h-154v27q0 410 297 410q151 0 222 -123q81 123 268 123zM1075 915q0 91 -12 151.5t-36.5 93.5t-56 46t-77.5 13q-45 0 -77.5 -13t-58.5 -45.5t-39 -93.5
t-13 -152v-153h370v153zM381 113q64 0 111 43t75 104q-16 91 -16 203v315q-13 -32 -52.5 -67t-85 -68.5t-90 -75t-73.5 -104t-29 -139.5q0 -93 39.5 -152t120.5 -59z" />
    <glyph glyph-name="ccedilla" unicode="&#xe7;" 
d="M745 809h-153v106q0 91 -12 151.5t-36.5 93.5t-56 46t-77.5 13q-45 0 -77.5 -13t-59 -45.5t-39.5 -93.5t-13 -152v-499q0 -90 13 -151t39.5 -93.5t59 -45.5t77.5 -13q46 0 77.5 13t56 46t36.5 93.5t12 150.5v106h153v-59q0 -238 -67 -353.5t-225 -127.5l-29 -119
q227 37 227 -123q0 -34 -14 -60.5t-33.5 -43.5t-54 -29t-62 -18t-72 -9t-68 -3.5t-66.5 -0.5l2 82q147 0 206.5 15.5t59.5 66.5q0 52 -56.5 62t-168.5 -9l28 191q-151 17 -217.5 132.5t-66.5 346.5v407q0 251 79.5 366.5t262.5 115.5q182 0 258.5 -114.5t76.5 -367.5v-61z
" />
    <glyph glyph-name="egrave" unicode="&#xe8;" 
d="M696 1532l-20 -78l-563 150l20 79zM410 1352q182 0 258.5 -114.5t76.5 -367.5v-221h-524v-233q0 -90 13 -151t39.5 -93.5t59 -45.5t77.5 -13q46 0 77.5 13t56 46t36.5 93.5t12 150.5v106h153v-59q0 -253 -76.5 -368t-258.5 -115q-183 0 -262.5 116t-79.5 367v407
q0 251 79.5 366.5t262.5 115.5zM592 915q0 91 -12 151.5t-36.5 93.5t-56 46t-77.5 13q-45 0 -77.5 -13t-59 -45.5t-39.5 -93.5t-13 -152v-153h371v153z" />
    <glyph glyph-name="eacute" unicode="&#xe9;" 
d="M696 1604l-563 -150l-20 78l563 151zM410 1352q182 0 258.5 -114.5t76.5 -367.5v-221h-524v-233q0 -90 13 -151t39.5 -93.5t59 -45.5t77.5 -13q46 0 77.5 13t56 46t36.5 93.5t12 150.5v106h153v-59q0 -253 -76.5 -368t-258.5 -115q-183 0 -262.5 116t-79.5 367v407
q0 251 79.5 366.5t262.5 115.5zM592 915q0 91 -12 151.5t-36.5 93.5t-56 46t-77.5 13q-45 0 -77.5 -13t-59 -45.5t-39.5 -93.5t-13 -152v-153h371v153z" />
    <glyph glyph-name="ecircumflex" unicode="&#xea;" 
d="M408 1622l-162 -168h-133l223 229h143l217 -229h-133zM410 1352q182 0 258.5 -114.5t76.5 -367.5v-221h-524v-233q0 -90 13 -151t39.5 -93.5t59 -45.5t77.5 -13q46 0 77.5 13t56 46t36.5 93.5t12 150.5v106h153v-59q0 -253 -76.5 -368t-258.5 -115q-183 0 -262.5 116
t-79.5 367v407q0 251 79.5 366.5t262.5 115.5zM592 915q0 91 -12 151.5t-36.5 93.5t-56 46t-77.5 13q-45 0 -77.5 -13t-59 -45.5t-39.5 -93.5t-13 -152v-153h371v153z" />
    <glyph glyph-name="edieresis" unicode="&#xeb;" 
d="M233 1493q-33 0 -56 21.5t-23 54.5q0 38 22.5 60t56.5 22q33 0 56.5 -22t23.5 -60q0 -33 -24 -54.5t-56 -21.5zM575 1493q-33 0 -55 21.5t-22 54.5q0 39 22 60.5t55 21.5t56.5 -22t23.5 -60q0 -33 -24 -54.5t-56 -21.5zM410 1352q182 0 258.5 -114.5t76.5 -367.5v-221
h-524v-233q0 -90 13 -151t39.5 -93.5t59 -45.5t77.5 -13q46 0 77.5 13t56 46t36.5 93.5t12 150.5v106h153v-59q0 -253 -76.5 -368t-258.5 -115q-183 0 -262.5 116t-79.5 367v407q0 251 79.5 366.5t262.5 115.5zM592 915q0 91 -12 151.5t-36.5 93.5t-56 46t-77.5 13
q-45 0 -77.5 -13t-59 -45.5t-39.5 -93.5t-13 -152v-153h371v153z" />
    <glyph glyph-name="igrave" unicode="&#xec;" horiz-adv-x="286" 
d="M434 1532l-20 -78l-564 150l21 79zM68 1331h153v-1331h-153v1331z" />
    <glyph glyph-name="iacute" unicode="&#xed;" horiz-adv-x="286" 
d="M-150 1532l564 151l20 -79l-563 -150zM68 1331h153v-1331h-153v1331z" />
    <glyph glyph-name="icircumflex" unicode="&#xee;" horiz-adv-x="286" 
d="M74 1683h143l217 -229h-133l-156 168l-161 -168h-134zM68 1331h153v-1331h-153v1331z" />
    <glyph glyph-name="idieresis" unicode="&#xef;" horiz-adv-x="286" 
d="M-29 1493q-33 0 -56.5 21.5t-23.5 54.5q0 38 23 60t57 22q33 0 56.5 -22t23.5 -60q0 -33 -24 -54.5t-56 -21.5zM313 1493q-33 0 -55 21.5t-22 54.5q0 39 22 60.5t55 21.5t56.5 -22t23.5 -60q0 -33 -24 -54.5t-56 -21.5zM68 1331h153v-1331h-153v1331z" />
    <glyph glyph-name="eth" unicode="&#xf0;" horiz-adv-x="950" 
d="M631 1368q254 -292 254 -819q0 -267 -105 -418t-309 -151q-193 0 -298 141.5t-105 388.5q0 91 22.5 175.5t67 157.5t122 117t177.5 44q169 0 258 -148q-46 266 -211 434l-367 -227v115l293 180q-97 76 -231 135l61 135q176 -72 301 -188l283 174v-115zM475 129
q140 0 198 99.5t58 287.5q-23 338 -256 338q-118 0 -186 -96t-68 -252q0 -186 64 -281.5t190 -95.5z" />
    <glyph glyph-name="ntilde" unicode="&#xf1;" 
d="M283 1602q-68 0 -68 -123h-102q0 204 163 204q44 0 77.5 -15t53.5 -36.5t37 -43.5t37.5 -37t44.5 -15q68 0 68 123h102q0 -205 -164 -205q-44 0 -77.5 15t-53.5 37t-36.5 44t-37 37t-44.5 15zM475 1352q141 0 205.5 -97t64.5 -313v-942h-153v977q0 242 -170 242
q-100 0 -150.5 -74.5t-50.5 -181.5v-963h-153v1331h153v-149q76 170 254 170z" />
    <glyph glyph-name="ograve" unicode="&#xf2;" 
d="M696 1532l-20 -78l-563 150l20 79zM68 463v407q0 252 77.5 367t260.5 115t261 -115t78 -367v-407q0 -252 -78 -367.5t-261 -115.5t-260.5 115.5t-77.5 367.5zM221 416q0 -174 46 -238.5t139 -64.5q46 0 78 13t57.5 46t38 93.5t12.5 150.5v499q0 91 -12.5 152t-38.5 93.5
t-58 45.5t-77 13t-77 -13t-57.5 -45.5t-38 -93.5t-12.5 -152v-499z" />
    <glyph glyph-name="oacute" unicode="&#xf3;" 
d="M113 1532l563 151l20 -79l-563 -150zM68 463v407q0 252 77.5 367t260.5 115t261 -115t78 -367v-407q0 -252 -78 -367.5t-261 -115.5t-260.5 115.5t-77.5 367.5zM221 416q0 -174 46 -238.5t139 -64.5q46 0 78 13t57.5 46t38 93.5t12.5 150.5v499q0 91 -12.5 152
t-38.5 93.5t-58 45.5t-77 13t-77 -13t-57.5 -45.5t-38 -93.5t-12.5 -152v-499z" />
    <glyph glyph-name="ocircumflex" unicode="&#xf4;" 
d="M336 1683h143l217 -229h-133l-155 168l-162 -168h-133zM68 463v407q0 252 77.5 367t260.5 115t261 -115t78 -367v-407q0 -252 -78 -367.5t-261 -115.5t-260.5 115.5t-77.5 367.5zM221 416q0 -174 46 -238.5t139 -64.5q46 0 78 13t57.5 46t38 93.5t12.5 150.5v499
q0 91 -12.5 152t-38.5 93.5t-58 45.5t-77 13t-77 -13t-57.5 -45.5t-38 -93.5t-12.5 -152v-499z" />
    <glyph glyph-name="otilde" unicode="&#xf5;" 
d="M113 1479q0 204 163 204q44 0 77.5 -15t53.5 -36.5t37 -43.5t37.5 -37t44.5 -15q68 0 68 123h102q0 -205 -164 -205q-44 0 -77.5 15t-53.5 37t-36.5 44t-37 37t-44.5 15q-68 0 -68 -123h-102zM68 463v407q0 252 77.5 367t260.5 115t261 -115t78 -367v-407
q0 -252 -78 -367.5t-261 -115.5t-260.5 115.5t-77.5 367.5zM221 416q0 -174 46 -238.5t139 -64.5q46 0 78 13t57.5 46t38 93.5t12.5 150.5v499q0 91 -12.5 152t-38.5 93.5t-58 45.5t-77 13t-77 -13t-57.5 -45.5t-38 -93.5t-12.5 -152v-499z" />
    <glyph glyph-name="odieresis" unicode="&#xf6;" 
d="M233 1493q-33 0 -56 21.5t-23 54.5q0 38 22.5 60t56.5 22q33 0 56.5 -22t23.5 -60q0 -33 -24 -54.5t-56 -21.5zM575 1493q-33 0 -55 21.5t-22 54.5q0 39 22 60.5t55 21.5t56.5 -22t23.5 -60q0 -33 -24 -54.5t-56 -21.5zM68 463v407q0 252 77.5 367t260.5 115t261 -115
t78 -367v-407q0 -252 -78 -367.5t-261 -115.5t-260.5 115.5t-77.5 367.5zM221 416q0 -174 46 -238.5t139 -64.5q46 0 78 13t57.5 46t38 93.5t12.5 150.5v499q0 91 -12.5 152t-38.5 93.5t-58 45.5t-77 13t-77 -13t-57.5 -45.5t-38 -93.5t-12.5 -152v-499z" />
    <glyph glyph-name="divide" unicode="&#xf7;" horiz-adv-x="972" 
d="M487 850q-26 0 -43.5 17.5t-17.5 43.5q0 25 17.5 43.5t43.5 18.5q25 0 43.5 -18.5t18.5 -43.5q0 -26 -18.5 -43.5t-43.5 -17.5zM68 727h839v-102h-839v102zM487 379q-26 0 -43.5 17.5t-17.5 43.5q0 25 17.5 43.5t43.5 18.5q25 0 43.5 -18.5t18.5 -43.5q0 -26 -18.5 -43.5
t-43.5 -17.5z" />
    <glyph glyph-name="oslash" unicode="&#xf8;" horiz-adv-x="808" 
d="M762 1505l-96 -268q77 -112 77 -367v-407q0 -252 -78.5 -367.5t-261.5 -115.5q-115 0 -180 40l-69 -194h-109l98 270q-77 112 -77 367v407q0 252 77 367t260 115q115 0 181 -41l69 194h109zM219 416q0 -39 4 -97l309 850q-45 50 -129 50q-61 0 -99 -23.5t-61.5 -92
t-23.5 -188.5v-499zM590 915q0 43 -4 101l-310 -852q41 -51 127 -51q46 0 78 13t58 46t38.5 93.5t12.5 150.5v499z" />
    <glyph glyph-name="ugrave" unicode="&#xf9;" 
d="M696 1532l-20 -78l-563 150l20 79zM745 197q0 -73 3.5 -112t17.5 -85h-143q-14 21 -22.5 69t-8.5 81q-76 -170 -256 -170q-141 0 -204.5 97t-63.5 314v940h153v-977q0 -115 39 -178t131 -63q100 0 150.5 75.5t50.5 182.5v960h153v-1134z" />
    <glyph glyph-name="uacute" unicode="&#xfa;" 
d="M696 1604l-563 -150l-20 78l563 151zM745 197q0 -73 3.5 -112t17.5 -85h-143q-14 21 -22.5 69t-8.5 81q-76 -170 -256 -170q-141 0 -204.5 97t-63.5 314v940h153v-977q0 -115 39 -178t131 -63q100 0 150.5 75.5t50.5 182.5v960h153v-1134z" />
    <glyph glyph-name="ucircumflex" unicode="&#xfb;" 
d="M408 1622l-162 -168h-133l223 229h143l217 -229h-133zM745 197q0 -73 3.5 -112t17.5 -85h-143q-14 21 -22.5 69t-8.5 81q-76 -170 -256 -170q-141 0 -204.5 97t-63.5 314v940h153v-977q0 -115 39 -178t131 -63q100 0 150.5 75.5t50.5 182.5v960h153v-1134z" />
    <glyph glyph-name="udieresis" unicode="&#xfc;" 
d="M233 1493q-33 0 -56 21.5t-23 54.5q0 38 22.5 60t56.5 22q33 0 56.5 -22t23.5 -60q0 -33 -24 -54.5t-56 -21.5zM575 1493q-33 0 -55 21.5t-22 54.5q0 39 22 60.5t55 21.5t56.5 -22t23.5 -60q0 -33 -24 -54.5t-56 -21.5zM745 197q0 -73 3.5 -112t17.5 -85h-143
q-14 21 -22.5 69t-8.5 81q-76 -170 -256 -170q-141 0 -204.5 97t-63.5 314v940h153v-977q0 -115 39 -178t131 -63q100 0 150.5 75.5t50.5 182.5v960h153v-1134z" />
    <glyph glyph-name="yacute" unicode="&#xfd;" 
d="M696 1604l-563 -150l-20 78l563 151zM592 1331h153v-1294q0 -92 -8 -156.5t-31.5 -123t-65 -93t-108.5 -54.5t-161 -20h-258v134h252q69 0 114 20t69.5 62t34 96.5t9.5 134.5v113q-76 -170 -256 -170q-141 0 -204.5 97t-63.5 314v940h153v-977q0 -115 39 -178t131 -63
q100 0 150.5 75.5t50.5 182.5v960z" />
    <glyph glyph-name="thorn" unicode="&#xfe;" 
d="M475 1352q141 0 205.5 -97t64.5 -313v-551q0 -216 -64.5 -313.5t-205.5 -97.5q-178 0 -254 170v-560h-153v2048h153v-456q76 170 254 170zM592 354v623q0 242 -170 242q-100 0 -150.5 -74.5t-50.5 -181.5v-592q0 -107 50.5 -182.5t150.5 -75.5q170 0 170 241z" />
    <glyph glyph-name="ydieresis" unicode="&#xff;" 
d="M233 1493q-33 0 -56 21.5t-23 54.5q0 38 22.5 60t56.5 22q33 0 56.5 -22t23.5 -60q0 -33 -24 -54.5t-56 -21.5zM575 1493q-33 0 -55 21.5t-22 54.5q0 39 22 60.5t55 21.5t56.5 -22t23.5 -60q0 -33 -24 -54.5t-56 -21.5zM592 1331h153v-1294q0 -92 -8 -156.5t-31.5 -123
t-65 -93t-108.5 -54.5t-161 -20h-258v134h252q69 0 114 20t69.5 62t34 96.5t9.5 134.5v113q-76 -170 -256 -170q-141 0 -204.5 97t-63.5 314v940h153v-977q0 -115 39 -178t131 -63q100 0 150.5 75.5t50.5 182.5v960z" />
    <glyph glyph-name="Amacron" unicode="&#x100;" horiz-adv-x="862" 
d="M723 1917v-82h-584v82h584zM643 0l-51 356h-320l-51 -356h-153l254 1638h219l256 -1638h-154zM295 510h274l-137 950z" />
    <glyph glyph-name="amacron" unicode="&#x101;" horiz-adv-x="851" 
d="M717 1610v-82h-584v82h584zM766 193q0 -107 20 -193h-143q-31 63 -31 150q-80 -170 -268 -170q-126 0 -201 84.5t-75 246.5q0 93 30 168t78 123.5t106 89t116 74t106 67t78 79t30 100.5v2q0 102 -44 153.5t-124 51.5q-93 0 -138.5 -59t-45.5 -187v-58h-154v27
q0 92 15 161t51 128t104.5 90t167.5 31q322 0 322 -379v-780zM612 309v475q-11 -28 -46 -58.5t-77.5 -55.5t-90.5 -60.5t-87 -72.5t-64.5 -92.5t-25.5 -120.5q0 -95 42 -153t136 -58q49 0 91 24t66.5 58.5t38.5 64.5t17 49z" />
    <glyph glyph-name="Abreve" unicode="&#x102;" horiz-adv-x="862" 
d="M434 1761q-57 0 -107 11.5t-93.5 36.5t-69 71.5t-25.5 110.5h103q0 -41 19 -72t49 -46.5t61 -22.5t63 -7t62 7t59.5 22.5t47.5 46t18 72.5h102q0 -64 -24.5 -110.5t-67 -71.5t-91.5 -36.5t-106 -11.5zM643 0l-51 356h-320l-51 -356h-153l254 1638h219l256 -1638h-154z
M295 510h274l-137 950z" />
    <glyph glyph-name="abreve" unicode="&#x103;" horiz-adv-x="851" 
d="M428 1454q-58 0 -107.5 11t-93 36t-69 71.5t-25.5 110.5h103q0 -41 19 -71.5t49.5 -46t61 -22.5t62.5 -7t62 7t59 22.5t47 45.5t18 72h103q0 -64 -24.5 -110.5t-67 -71.5t-91.5 -36t-106 -11zM766 193q0 -107 20 -193h-143q-31 63 -31 150q-80 -170 -268 -170
q-126 0 -201 84.5t-75 246.5q0 93 30 168t78 123.5t106 89t116 74t106 67t78 79t30 100.5v2q0 102 -44 153.5t-124 51.5q-93 0 -138.5 -59t-45.5 -187v-58h-154v27q0 92 15 161t51 128t104.5 90t167.5 31q322 0 322 -379v-780zM612 309v475q-11 -28 -46 -58.5t-77.5 -55.5
t-90.5 -60.5t-87 -72.5t-64.5 -92.5t-25.5 -120.5q0 -95 42 -153t136 -58q49 0 91 24t66.5 58.5t38.5 64.5t17 49z" />
    <glyph glyph-name="Aogonek" unicode="&#x104;" horiz-adv-x="862" 
d="M551 -199q0 -65 59.5 -99t206.5 -38l-82 -82q-40 0 -73.5 2.5t-73.5 9.5t-70 21.5t-56 35.5t-40 55t-14 77q0 89 71 141.5t183 75.5h-19l-51 356h-320l-51 -356h-153l254 1638h219l256 -1632v-6h-17q-121 -47 -175 -93t-54 -106zM295 510h274l-137 950z" />
    <glyph glyph-name="aogonek" unicode="&#x105;" horiz-adv-x="851" 
d="M541 -205q0 -65 59.5 -99t206.5 -38l-82 -82q-49 0 -89 3.5t-86.5 15.5t-78 33t-53 59t-21.5 90q0 50 24.5 90t67 65.5t90.5 42t105 25.5h-41q-31 63 -31 150q-80 -170 -268 -170q-126 0 -201 84.5t-75 246.5q0 93 30 168t78 123.5t106 89t116 74t106 67t78 79t30 100.5
v2q0 102 -44 153.5t-124 51.5q-93 0 -138.5 -59t-45.5 -187v-58h-154v27q0 92 15 161t51 128t104.5 90t167.5 31q322 0 322 -379v-780q0 -107 20 -193q-130 -48 -187.5 -95.5t-57.5 -109.5zM612 309v475q-11 -28 -46 -58.5t-77.5 -55.5t-90.5 -60.5t-87 -72.5t-64.5 -92.5
t-25.5 -120.5q0 -95 42 -153t136 -58q49 0 91 24t66.5 58.5t38.5 64.5t17 49z" />
    <glyph glyph-name="Cacute" unicode="&#x106;" 
d="M113 1839l563 152l20 -80l-563 -150zM592 973v246q0 163 -39 224.5t-147 61.5q-106 0 -145.5 -62t-39.5 -224v-797q0 -164 39.5 -226.5t145.5 -62.5q108 0 147 62.5t39 226.5v244h153v-234q0 -244 -80.5 -348t-258.5 -104q-176 0 -257 104.5t-81 347.5v776q0 243 81 347
t257 104q178 0 258.5 -103.5t80.5 -347.5v-235h-153z" />
    <glyph glyph-name="cacute" unicode="&#x107;" 
d="M113 1532l563 151l20 -79l-563 -150zM592 809v106q0 91 -12 151.5t-36.5 93.5t-56 46t-77.5 13q-45 0 -77.5 -13t-59 -45.5t-39.5 -93.5t-13 -152v-499q0 -90 13 -151t39.5 -93.5t59 -45.5t77.5 -13q46 0 77.5 13t56 46t36.5 93.5t12 150.5v106h153v-59
q0 -253 -76.5 -368t-258.5 -115q-183 0 -262.5 116t-79.5 367v407q0 251 79.5 366.5t262.5 115.5q182 0 258.5 -114.5t76.5 -367.5v-61h-153z" />
    <glyph glyph-name="Cdotaccent" unicode="&#x10a;" 
d="M406 1800q-33 0 -56.5 21.5t-23.5 54.5q0 38 23 60t57 22q33 0 56 -22t23 -60q0 -33 -23.5 -54.5t-55.5 -21.5zM592 973v246q0 163 -39 224.5t-147 61.5q-106 0 -145.5 -62t-39.5 -224v-797q0 -164 39.5 -226.5t145.5 -62.5q108 0 147 62.5t39 226.5v244h153v-234
q0 -244 -80.5 -348t-258.5 -104q-176 0 -257 104.5t-81 347.5v776q0 243 81 347t257 104q178 0 258.5 -103.5t80.5 -347.5v-235h-153z" />
    <glyph glyph-name="cdotaccent" unicode="&#x10b;" 
d="M406 1493q-33 0 -56.5 21.5t-23.5 54.5q0 38 23 60t57 22q33 0 56 -22t23 -60q0 -33 -23.5 -54.5t-55.5 -21.5zM592 809v106q0 91 -12 151.5t-36.5 93.5t-56 46t-77.5 13q-45 0 -77.5 -13t-59 -45.5t-39.5 -93.5t-13 -152v-499q0 -90 13 -151t39.5 -93.5t59 -45.5
t77.5 -13q46 0 77.5 13t56 46t36.5 93.5t12 150.5v106h153v-59q0 -253 -76.5 -368t-258.5 -115q-183 0 -262.5 116t-79.5 367v407q0 251 79.5 366.5t262.5 115.5q182 0 258.5 -114.5t76.5 -367.5v-61h-153z" />
    <glyph glyph-name="Ccaron" unicode="&#x10c;" 
d="M336 1761l-223 230h133l162 -168l155 168h133l-217 -230h-143zM592 973v246q0 163 -39 224.5t-147 61.5q-106 0 -145.5 -62t-39.5 -224v-797q0 -164 39.5 -226.5t145.5 -62.5q108 0 147 62.5t39 226.5v244h153v-234q0 -244 -80.5 -348t-258.5 -104q-176 0 -257 104.5
t-81 347.5v776q0 243 81 347t257 104q178 0 258.5 -103.5t80.5 -347.5v-235h-153z" />
    <glyph glyph-name="ccaron" unicode="&#x10d;" 
d="M336 1454l-223 229h133l162 -167l155 167h133l-217 -229h-143zM592 809v106q0 91 -12 151.5t-36.5 93.5t-56 46t-77.5 13q-45 0 -77.5 -13t-59 -45.5t-39.5 -93.5t-13 -152v-499q0 -90 13 -151t39.5 -93.5t59 -45.5t77.5 -13q46 0 77.5 13t56 46t36.5 93.5t12 150.5v106
h153v-59q0 -253 -76.5 -368t-258.5 -115q-183 0 -262.5 116t-79.5 367v407q0 251 79.5 366.5t262.5 115.5q182 0 258.5 -114.5t76.5 -367.5v-61h-153z" />
    <glyph glyph-name="Dcaron" unicode="&#x10e;" horiz-adv-x="815" 
d="M481 1761h-143l-223 230h133l162 -168l155 168h133zM283 1638q85 0 145.5 -6t116.5 -23t91.5 -47t62.5 -77.5t39 -116t12 -160.5v-776q0 -92 -12 -160.5t-39 -116.5t-62.5 -78t-91 -47t-116.5 -23.5t-146 -6.5h-215v1638h215zM283 154q65 0 108 3.5t80.5 14.5t59 30
t37.5 50.5t22 74.5t6 105v776q0 62 -6 105t-22 74.5t-37.5 50t-59.5 29.5t-80.5 14.5t-107.5 3.5h-62v-1331h62z" />
    <glyph glyph-name="dcaron" unicode="&#x10f;" horiz-adv-x="1103" 
d="M1001 1659h103l-82 -512h-82zM745 1638v-1441q0 -73 3.5 -112t17.5 -85h-143q-14 21 -22.5 69t-8.5 81q-76 -170 -256 -170q-141 0 -204.5 97t-63.5 314v551q0 216 63.5 313t204.5 97q180 0 256 -170v456h153zM592 371v592q0 107 -50.5 181.5t-150.5 74.5
q-92 0 -131 -62.5t-39 -179.5v-623q0 -115 39 -178t131 -63q100 0 150.5 75.5t50.5 182.5z" />
    <glyph glyph-name="Dcroat" unicode="&#x110;" horiz-adv-x="933" 
d="M401 1638q85 0 145.5 -6t116.5 -23t91.5 -47t62.5 -77.5t39 -116t12 -160.5v-776q0 -92 -12 -160.5t-39 -116.5t-62.5 -78t-91 -47t-116.5 -23.5t-146 -6.5h-215v778h-186v82h186v778h215zM401 154q65 0 108 3.5t80.5 14.5t59.5 30t38 50.5t22 74.5t6 105v776
q0 62 -6 105t-22 74.5t-38 50t-59.5 29.5t-80.5 14.5t-108 3.5h-61v-625h244v-82h-244v-624h61z" />
    <glyph glyph-name="dcroat" unicode="&#x111;" horiz-adv-x="827" 
d="M932 1423h-187v-1226q0 -73 3.5 -112t17.5 -85h-143q-14 21 -22.5 69t-8.5 81q-76 -170 -256 -170q-141 0 -204.5 97t-63.5 314v551q0 216 63.5 313t204.5 97q180 0 256 -170v241h-244v82h244v133h153v-133h187v-82zM592 371v592q0 107 -50.5 181.5t-150.5 74.5
q-92 0 -131 -62.5t-39 -179.5v-623q0 -115 39 -178t131 -63q100 0 150.5 75.5t50.5 182.5z" />
    <glyph glyph-name="Emacron" unicode="&#x112;" horiz-adv-x="624" 
d="M20 1917h584v-82h-584v82zM559 1638v-153h-338v-588h338v-154h-338v-589h338v-154h-491v1638h491z" />
    <glyph glyph-name="emacron" unicode="&#x113;" 
d="M696 1610v-82h-583v82h583zM410 1352q182 0 258.5 -114.5t76.5 -367.5v-221h-524v-233q0 -90 13 -151t39.5 -93.5t59 -45.5t77.5 -13q46 0 77.5 13t56 46t36.5 93.5t12 150.5v106h153v-59q0 -253 -76.5 -368t-258.5 -115q-183 0 -262.5 116t-79.5 367v407
q0 251 79.5 366.5t262.5 115.5zM592 915q0 91 -12 151.5t-36.5 93.5t-56 46t-77.5 13q-45 0 -77.5 -13t-59 -45.5t-39.5 -93.5t-13 -152v-153h371v153z" />
    <glyph glyph-name="Edotaccent" unicode="&#x116;" horiz-adv-x="624" 
d="M313 1800q-33 0 -56.5 21.5t-23.5 54.5q0 38 23 60t57 22q33 0 56.5 -22t23.5 -60q0 -33 -24 -54.5t-56 -21.5zM559 1485h-338v-588h338v-154h-338v-589h338v-154h-491v1638h491v-153z" />
    <glyph glyph-name="edotaccent" unicode="&#x117;" 
d="M406 1493q-33 0 -56.5 21.5t-23.5 54.5q0 38 23 60t57 22q33 0 56 -22t23 -60q0 -33 -23.5 -54.5t-55.5 -21.5zM410 1352q182 0 258.5 -114.5t76.5 -367.5v-221h-524v-233q0 -90 13 -151t39.5 -93.5t59 -45.5t77.5 -13q46 0 77.5 13t56 46t36.5 93.5t12 150.5v106h153
v-59q0 -253 -76.5 -368t-258.5 -115q-183 0 -262.5 116t-79.5 367v407q0 251 79.5 366.5t262.5 115.5zM592 915q0 91 -12 151.5t-36.5 93.5t-56 46t-77.5 13q-45 0 -77.5 -13t-59 -45.5t-39.5 -93.5t-13 -152v-153h371v153z" />
    <glyph glyph-name="Eogonek" unicode="&#x118;" horiz-adv-x="624" 
d="M313 -205q0 -65 60 -99t207 -38l-82 -82q-49 0 -89 3.5t-86.5 15.5t-78 33t-53 59t-21.5 90q0 50 24.5 90t67 65.5t90.5 42t105 25.5h-389v1638h491v-153h-338v-588h338v-154h-338v-589h338v-154q-130 -48 -188 -95.5t-58 -109.5z" />
    <glyph glyph-name="eogonek" unicode="&#x119;" 
d="M410 1352q182 0 258.5 -114.5t76.5 -367.5v-221h-524v-233q0 -90 13 -151t39.5 -93.5t59 -45.5t77.5 -13q46 0 77.5 13t56 46t36.5 93.5t12 150.5v106h153v-59q0 -214 -53 -327.5t-176 -143.5q-118 -47 -170.5 -92.5t-52.5 -104.5q0 -65 59.5 -99t206.5 -38l-82 -82
q-40 0 -73.5 2.5t-73.5 9.5t-70 21.5t-56 35.5t-40 55t-14 77q0 148 204 205q-153 17 -219.5 132.5t-66.5 348.5v407q0 251 79.5 366.5t262.5 115.5zM592 915q0 91 -12 151.5t-36.5 93.5t-56 46t-77.5 13q-45 0 -77.5 -13t-59 -45.5t-39.5 -93.5t-13 -152v-153h371v153z" />
    <glyph glyph-name="Ecaron" unicode="&#x11a;" horiz-adv-x="624" 
d="M387 1761h-143l-224 230h134l161 -168l156 168h133zM559 1638v-153h-338v-588h338v-154h-338v-589h338v-154h-491v1638h491z" />
    <glyph glyph-name="ecaron" unicode="&#x11b;" 
d="M479 1454h-143l-223 229h133l162 -167l155 167h133zM410 1352q182 0 258.5 -114.5t76.5 -367.5v-221h-524v-233q0 -90 13 -151t39.5 -93.5t59 -45.5t77.5 -13q46 0 77.5 13t56 46t36.5 93.5t12 150.5v106h153v-59q0 -253 -76.5 -368t-258.5 -115q-183 0 -262.5 116
t-79.5 367v407q0 251 79.5 366.5t262.5 115.5zM592 915q0 91 -12 151.5t-36.5 93.5t-56 46t-77.5 13q-45 0 -77.5 -13t-59 -45.5t-39.5 -93.5t-13 -152v-153h371v153z" />
    <glyph glyph-name="Gbreve" unicode="&#x11e;" 
d="M408 1761q-57 0 -107 11.5t-93.5 36.5t-69 71.5t-25.5 110.5h102q0 -41 19 -72t49.5 -46.5t61.5 -22.5t63 -7t62 7t59 22.5t47 46t18 72.5h102q0 -64 -24.5 -110.5t-66.5 -71.5t-91 -36.5t-106 -11.5zM745 1042h-153v177q0 162 -39.5 224t-146.5 62q-106 0 -145.5 -62
t-39.5 -224v-797q0 -164 39.5 -226.5t145.5 -62.5q108 0 147 62.5t39 226.5v252h-186v153h339v-827h-92l-16 125q-89 -145 -258 -145q-159 0 -235 108.5t-76 343.5v776q0 234 82 342.5t256 108.5q175 0 257 -108.5t82 -342.5v-166z" />
    <glyph glyph-name="gbreve" unicode="&#x11f;" 
d="M408 1454q-58 0 -107.5 11t-93 36t-69 71.5t-25.5 110.5h102q0 -41 19 -71.5t49.5 -46t61.5 -22.5t63 -7t62 7t59 22.5t47 45.5t18 72h102q0 -64 -24.5 -110.5t-66.5 -71.5t-91 -36t-106 -11zM592 1331h153v-1294q0 -92 -8 -156.5t-31.5 -123t-65 -93t-108.5 -54.5
t-161 -20h-258v134h252q69 0 114 20t69.5 62t34 96.5t9.5 134.5v113q-76 -170 -256 -170q-141 0 -204.5 97t-63.5 314v551q0 216 63.5 313t204.5 97q180 0 256 -170v149zM391 113q100 0 150.5 75.5t50.5 182.5v592q0 107 -50.5 181.5t-150.5 74.5q-92 0 -131 -62.5
t-39 -179.5v-623q0 -115 39 -178t131 -63z" />
    <glyph glyph-name="Gdotaccent" unicode="&#x120;" 
d="M406 1800q-33 0 -56.5 21.5t-23.5 54.5q0 38 23 60t57 22q33 0 56 -22t23 -60q0 -33 -23.5 -54.5t-55.5 -21.5zM745 1042h-153v177q0 162 -39.5 224t-146.5 62q-106 0 -145.5 -62t-39.5 -224v-797q0 -164 39.5 -226.5t145.5 -62.5q108 0 147 62.5t39 226.5v252h-186v153
h339v-827h-92l-16 125q-89 -145 -258 -145q-159 0 -235 108.5t-76 343.5v776q0 234 82 342.5t256 108.5q175 0 257 -108.5t82 -342.5v-166z" />
    <glyph glyph-name="gdotaccent" unicode="&#x121;" 
d="M406 1493q-33 0 -56.5 21.5t-23.5 54.5q0 38 23 60t57 22q33 0 56 -22t23 -60q0 -33 -23.5 -54.5t-55.5 -21.5zM592 1331h153v-1294q0 -92 -8 -156.5t-31.5 -123t-65 -93t-108.5 -54.5t-161 -20h-258v134h252q69 0 114 20t69.5 62t34 96.5t9.5 134.5v113
q-76 -170 -256 -170q-141 0 -204.5 97t-63.5 314v551q0 216 63.5 313t204.5 97q180 0 256 -170v149zM391 113q100 0 150.5 75.5t50.5 182.5v592q0 107 -50.5 181.5t-150.5 74.5q-92 0 -131 -62.5t-39 -179.5v-623q0 -115 39 -178t131 -63z" />
    <glyph glyph-name="Gcommaaccent" unicode="&#x122;" 
d="M745 1042h-153v177q0 162 -39.5 224t-146.5 62q-106 0 -145.5 -62t-39.5 -224v-797q0 -164 39.5 -226.5t145.5 -62.5q108 0 147 62.5t39 226.5v252h-186v153h339v-827h-92l-16 125q-89 -145 -258 -145q-159 0 -235 108.5t-76 343.5v776q0 234 82 342.5t256 108.5
q175 0 257 -108.5t82 -342.5v-166zM416 -102q40 0 67 -27t27 -78q0 -164 -164 -244v91q61 28 72 79q-44 -7 -71.5 16.5t-27.5 65.5q0 41 28 69t69 28z" />
    <glyph glyph-name="gcommaaccent" unicode="&#x123;" 
d="M410 1454q-50 0 -74.5 34t-24.5 91q0 56 38 113.5t126 89.5v-90q-61 -28 -72 -80q44 21 71.5 1.5t27.5 -63.5q0 -42 -25.5 -69t-66.5 -27zM592 1331h153v-1294q0 -92 -8 -156.5t-31.5 -123t-65 -93t-108.5 -54.5t-161 -20h-258v134h252q69 0 114 20t69.5 62t34 96.5
t9.5 134.5v113q-76 -170 -256 -170q-141 0 -204.5 97t-63.5 314v551q0 216 63.5 313t204.5 97q180 0 256 -170v149zM391 113q100 0 150.5 75.5t50.5 182.5v592q0 107 -50.5 181.5t-150.5 74.5q-92 0 -131 -62.5t-39 -179.5v-623q0 -115 39 -178t131 -63z" />
    <glyph glyph-name="Hbar" unicode="&#x126;" horiz-adv-x="993" 
d="M993 1505v-82h-137v-1423h-154v743h-407v-743h-154v1423h-141v82h141v133h154v-133h407v133h154v-133h137zM702 897v526h-407v-526h407z" />
    <glyph glyph-name="hbar" unicode="&#x127;" 
d="M475 1352q141 0 205.5 -97t64.5 -313v-942h-153v977q0 242 -170 242q-100 0 -150.5 -74.5t-50.5 -181.5v-963h-153v1423h-187v82h187v133h153v-133h244v-82h-244v-241q76 170 254 170z" />
    <glyph glyph-name="Imacron" unicode="&#x12a;" horiz-adv-x="286" 
d="M-150 1917h584v-82h-584v82zM68 1638h153v-1638h-153v1638z" />
    <glyph glyph-name="imacron" unicode="&#x12b;" horiz-adv-x="286" 
d="M-150 1610h584v-82h-584v82zM68 1331h153v-1331h-153v1331z" />
    <glyph glyph-name="Iogonek" unicode="&#x12e;" horiz-adv-x="286" 
d="M-25 -205q0 -65 60 -99t207 -38l-82 -82q-49 0 -89 3.5t-86.5 15.5t-78 33t-53 59t-21.5 90q0 50 24.5 90t67 65.5t90.5 42t105 25.5h-51v1638h153v-1638q-130 -48 -188 -95.5t-58 -109.5z" />
    <glyph glyph-name="iogonek" unicode="&#x12f;" horiz-adv-x="286" 
d="M143 1493q-33 0 -56.5 21.5t-23.5 54.5q0 38 23 60t57 22q33 0 56.5 -22t23.5 -60q0 -33 -24 -54.5t-56 -21.5zM-25 -205q0 -65 60 -99t207 -38l-82 -82q-49 0 -89 3.5t-86.5 15.5t-78 33t-53 59t-21.5 90q0 50 24.5 90t67 65.5t90.5 42t105 25.5h-51v1331h153v-1331
q-130 -48 -188 -95.5t-58 -109.5z" />
    <glyph glyph-name="Idotaccent" unicode="&#x130;" horiz-adv-x="286" 
d="M143 1800q-33 0 -56.5 21.5t-23.5 54.5q0 38 23 60t57 22q33 0 56.5 -22t23.5 -60q0 -33 -24 -54.5t-56 -21.5zM68 1638h153v-1638h-153v1638z" />
    <glyph glyph-name="dotlessi" unicode="&#x131;" horiz-adv-x="286" 
d="M68 1331h153v-1331h-153v1331z" />
    <glyph glyph-name="Kcommaaccent" unicode="&#x136;" horiz-adv-x="856" 
d="M68 1638h153v-1638h-153v1638zM791 1638l-406 -819l406 -819h-164l-406 819l406 819h164zM428 -102q40 0 67 -27t27 -78q0 -164 -164 -244v91q61 28 72 79q-43 -7 -70.5 16.5t-27.5 65.5q0 41 27.5 69t68.5 28z" />
    <glyph glyph-name="kcommaaccent" unicode="&#x137;" horiz-adv-x="856" 
d="M68 1638h153v-1638h-153v1638zM791 1331l-404 -665l404 -666h-173l-397 666l397 665h173zM428 -102q40 0 67 -27t27 -78q0 -164 -164 -244v91q61 28 72 79q-43 -7 -70.5 16.5t-27.5 65.5q0 41 27.5 69t68.5 28z" />
    <glyph glyph-name="Lacute" unicode="&#x139;" horiz-adv-x="624" 
d="M453 1991l20 -80l-563 -150l-21 78zM221 154h338v-154h-491v1638h153v-1484z" />
    <glyph glyph-name="lacute" unicode="&#x13a;" horiz-adv-x="286" 
d="M-150 1839l564 152l20 -80l-563 -150zM68 1638h153v-1638h-153v1638z" />
    <glyph glyph-name="Lcommaaccent" unicode="&#x13b;" horiz-adv-x="624" 
d="M221 154h338v-154h-491v1638h153v-1484zM313 -102q40 0 67.5 -27t27.5 -78q0 -164 -164 -244v91q60 28 71 79q-43 -7 -70.5 16.5t-27.5 65.5q0 41 27.5 69t68.5 28z" />
    <glyph glyph-name="lcommaaccent" unicode="&#x13c;" horiz-adv-x="286" 
d="M68 1638h153v-1638h-153v1638zM145 -281q-43 -7 -70.5 16.5t-27.5 65.5q0 41 27.5 69t68.5 28q40 0 67.5 -27t27.5 -78q0 -164 -164 -244v91q60 28 71 79z" />
    <glyph glyph-name="Lcaron" unicode="&#x13d;" horiz-adv-x="624" 
d="M575 1659l-81 -512h-82l61 512h102zM221 1638v-1484h338v-154h-491v1638h153z" />
    <glyph glyph-name="lcaron" unicode="&#x13e;" horiz-adv-x="573" 
d="M518 1659h103l-82 -512h-82zM68 1638h153v-1638h-153v1638z" />
    <glyph glyph-name="Lslash" unicode="&#x141;" horiz-adv-x="727" 
d="M324 154h338v-154h-492v827l-170 -104v115l170 104v696h154v-600l225 140v-115l-225 -139v-770z" />
    <glyph glyph-name="lslash" unicode="&#x142;" horiz-adv-x="706" 
d="M707 1274v-115l-306 -188v-971h-153v877l-248 -154v115l248 153v647h153v-553z" />
    <glyph glyph-name="Nacute" unicode="&#x143;" horiz-adv-x="919" 
d="M752 1911l-564 -150l-20 78l563 152zM700 1638h154v-1638h-154l-479 1231v-1231h-153v1638h153l479 -1230v1230z" />
    <glyph glyph-name="nacute" unicode="&#x144;" 
d="M696 1604l-563 -150l-20 78l563 151zM475 1352q141 0 205.5 -97t64.5 -313v-942h-153v977q0 242 -170 242q-100 0 -150.5 -74.5t-50.5 -181.5v-963h-153v1331h153v-149q76 170 254 170z" />
    <glyph glyph-name="Ncommaaccent" unicode="&#x145;" horiz-adv-x="919" 
d="M700 1638h154v-1638h-154l-479 1231v-1231h-153v1638h153l479 -1230v1230zM461 -102q40 0 67 -27t27 -78q0 -164 -164 -244v91q61 28 72 79q-43 -7 -70.5 16.5t-27.5 65.5q0 41 27.5 69t68.5 28z" />
    <glyph glyph-name="ncommaaccent" unicode="&#x146;" 
d="M475 1352q141 0 205.5 -97t64.5 -313v-942h-153v977q0 242 -170 242q-100 0 -150.5 -74.5t-50.5 -181.5v-963h-153v1331h153v-149q76 170 254 170zM406 -102q40 0 67 -27t27 -78q0 -164 -164 -244v91q61 28 72 79q-44 -7 -71.5 16.5t-27.5 65.5q0 41 28 69t69 28z" />
    <glyph glyph-name="Ncaron" unicode="&#x147;" horiz-adv-x="919" 
d="M535 1761h-144l-223 230h133l162 -168l155 168h134zM700 1638h154v-1638h-154l-479 1231v-1231h-153v1638h153l479 -1230v1230z" />
    <glyph glyph-name="ncaron" unicode="&#x148;" 
d="M479 1454h-143l-223 229h133l162 -167l155 167h133zM475 1352q141 0 205.5 -97t64.5 -313v-942h-153v977q0 242 -170 242q-100 0 -150.5 -74.5t-50.5 -181.5v-963h-153v1331h153v-149q76 170 254 170z" />
    <glyph glyph-name="Eng" unicode="&#x14a;" horiz-adv-x="919" 
d="M700 1638h154v-1638q0 -94 -7 -156t-26 -114t-54 -80.5t-89 -44t-133 -15.5h-127v148h86q67 0 106.5 13t60.5 47.5t26 79.5t3 122l-479 1231v-1231h-153v1638h153l479 -1230v1230z" />
    <glyph glyph-name="eng" unicode="&#x14b;" 
d="M475 1352q141 0 205.5 -97t64.5 -313v-942q0 -83 -5.5 -139t-23 -111.5t-49.5 -87.5t-87 -52t-134 -20h-137v134h117q46 0 77.5 14.5t48.5 36t26.5 61t11.5 74t2 90.5v977q0 242 -170 242q-100 0 -150.5 -74.5t-50.5 -181.5v-963h-153v1331h153v-149q76 170 254 170z" />
    <glyph glyph-name="Omacron" unicode="&#x14c;" 
d="M696 1917v-82h-583v82h583zM406 1659q178 0 258.5 -103.5t80.5 -347.5v-776q0 -244 -80.5 -348t-258.5 -104q-176 0 -257 104.5t-81 347.5v776q0 243 81 347t257 104zM592 422v797q0 163 -39 224.5t-147 61.5q-106 0 -145.5 -62t-39.5 -224v-797q0 -164 39.5 -226.5
t145.5 -62.5q108 0 147 62.5t39 226.5z" />
    <glyph glyph-name="omacron" unicode="&#x14d;" 
d="M113 1610h583v-82h-583v82zM68 463v407q0 252 77.5 367t260.5 115t261 -115t78 -367v-407q0 -252 -78 -367.5t-261 -115.5t-260.5 115.5t-77.5 367.5zM221 416q0 -174 46 -238.5t139 -64.5q46 0 78 13t57.5 46t38 93.5t12.5 150.5v499q0 91 -12.5 152t-38.5 93.5
t-58 45.5t-77 13t-77 -13t-57.5 -45.5t-38 -93.5t-12.5 -152v-499z" />
    <glyph glyph-name="Ohungarumlaut" unicode="&#x150;" 
d="M565 1991l-215 -230h-143l235 230h123zM575 1761h-143l236 230h123zM406 1659q178 0 258.5 -103.5t80.5 -347.5v-776q0 -244 -80.5 -348t-258.5 -104q-176 0 -257 104.5t-81 347.5v776q0 243 81 347t257 104zM592 422v797q0 163 -39 224.5t-147 61.5q-106 0 -145.5 -62
t-39.5 -224v-797q0 -164 39.5 -226.5t145.5 -62.5q108 0 147 62.5t39 226.5z" />
    <glyph glyph-name="ohungarumlaut" unicode="&#x151;" 
d="M350 1454h-143l235 229h123zM575 1454h-143l236 229h123zM68 463v407q0 252 77.5 367t260.5 115t261 -115t78 -367v-407q0 -252 -78 -367.5t-261 -115.5t-260.5 115.5t-77.5 367.5zM221 416q0 -174 46 -238.5t139 -64.5q46 0 78 13t57.5 46t38 93.5t12.5 150.5v499
q0 91 -12.5 152t-38.5 93.5t-58 45.5t-77 13t-77 -13t-57.5 -45.5t-38 -93.5t-12.5 -152v-499z" />
    <glyph glyph-name="OE" unicode="&#x152;" horiz-adv-x="1169" 
d="M1104 1485h-338v-588h338v-154h-338v-589h338v-154h-492v121q-70 -141 -237 -141q-155 0 -231 105.5t-76 346.5v776q0 241 76 346t231 105q167 0 237 -141v120h492v-153zM575 422v797q0 162 -38 224t-140 62q-101 0 -138.5 -62t-37.5 -224v-797q0 -164 37.5 -226.5
t138.5 -62.5q102 0 140 62.5t38 226.5z" />
    <glyph glyph-name="oe" unicode="&#x153;" horiz-adv-x="1273" 
d="M872 1352q183 0 259.5 -114.5t76.5 -367.5v-221h-524v-233q0 -90 13 -151t39 -93.5t58.5 -45.5t77.5 -13q46 0 77.5 13t56.5 46t37 93.5t12 150.5v106h153v-59q0 -253 -77 -368t-259 -115q-203 0 -282 149q-64 -149 -230 -149q-152 0 -222 117t-70 366v407q0 248 70 365
t222 117q167 0 230 -150q78 150 282 150zM530 416v499q0 149 -33 226.5t-112 77.5q-61 0 -94.5 -24t-51.5 -90.5t-18 -189.5v-499q0 -122 18 -188.5t51.5 -90.5t94.5 -24q80 0 112.5 77t32.5 226zM1055 915q0 91 -12 151.5t-37 93.5t-56.5 46t-77.5 13q-45 0 -77.5 -13
t-58.5 -45.5t-39 -93.5t-13 -152v-153h371v153z" />
    <glyph glyph-name="Racute" unicode="&#x154;" horiz-adv-x="815" 
d="M700 1911l-563 -150l-20 78l563 152zM748 145q0 -117 22 -145h-154q-22 28 -22 145v285q0 54 -10 96t-25 69t-41 46.5t-47.5 29t-57 14.5t-57.5 6t-59 1h-76v-692h-153v1638h229q95 0 166 -12t121 -38t82.5 -60.5t51 -87.5t25.5 -111t7 -137v-37q0 -157 -43 -254.5
t-150 -146.5q96 -30 143.5 -109t47.5 -229v-271zM221 846h76q95 0 155 18.5t91.5 60.5t42 94t10.5 136v37q0 58 -4 98t-16 75t-32.5 56t-54.5 36.5t-80.5 21.5t-111.5 6h-76v-639z" />
    <glyph glyph-name="racute" unicode="&#x155;" horiz-adv-x="780" 
d="M696 1604l-563 -150l-20 78l563 151zM492 1352q55 0 94 -17t64 -47.5t39.5 -81t20 -109.5t5.5 -141v-51h-154v88q0 43 -2 73t-9.5 61t-21 49.5t-37 30.5t-57.5 12q-62 0 -112.5 -51.5t-75.5 -122t-25 -138.5v-907h-153v1331h153v-172q88 193 271 193z" />
    <glyph glyph-name="Rcommaaccent" unicode="&#x156;" horiz-adv-x="815" 
d="M748 145q0 -117 22 -145h-154q-22 28 -22 145v285q0 54 -10 96t-25 69t-41 46.5t-47.5 29t-57 14.5t-57.5 6t-59 1h-76v-692h-153v1638h229q95 0 166 -12t121 -38t82.5 -60.5t51 -87.5t25.5 -111t7 -137v-37q0 -157 -43 -254.5t-150 -146.5q96 -30 143.5 -109t47.5 -229
v-271zM221 846h76q95 0 155 18.5t91.5 60.5t42 94t10.5 136v37q0 58 -4 98t-16 75t-32.5 56t-54.5 36.5t-80.5 21.5t-111.5 6h-76v-639zM410 -102q40 0 67 -27t27 -78q0 -164 -164 -244v91q61 28 72 79q-44 -7 -71.5 16.5t-27.5 65.5q0 41 28 69t69 28z" />
    <glyph glyph-name="rcommaaccent" unicode="&#x157;" horiz-adv-x="780" 
d="M492 1352q55 0 94 -17t64 -47.5t39.5 -81t20 -109.5t5.5 -141v-51h-154v88q0 43 -2 73t-9.5 61t-21 49.5t-37 30.5t-57.5 12q-62 0 -112.5 -51.5t-75.5 -122t-25 -138.5v-907h-153v1331h153v-172q88 193 271 193zM143 -102q40 0 67.5 -27t27.5 -78q0 -164 -164 -244v91
q60 28 71 79q-43 -7 -70.5 16.5t-27.5 65.5q0 41 27.5 69t68.5 28z" />
    <glyph glyph-name="Rcaron" unicode="&#x158;" horiz-adv-x="815" 
d="M483 1761h-143l-223 230h133l162 -168l155 168h133zM748 145q0 -117 22 -145h-154q-22 28 -22 145v285q0 54 -10 96t-25 69t-41 46.5t-47.5 29t-57 14.5t-57.5 6t-59 1h-76v-692h-153v1638h229q95 0 166 -12t121 -38t82.5 -60.5t51 -87.5t25.5 -111t7 -137v-37
q0 -157 -43 -254.5t-150 -146.5q96 -30 143.5 -109t47.5 -229v-271zM221 846h76q95 0 155 18.5t91.5 60.5t42 94t10.5 136v37q0 58 -4 98t-16 75t-32.5 56t-54.5 36.5t-80.5 21.5t-111.5 6h-76v-639z" />
    <glyph glyph-name="rcaron" unicode="&#x159;" horiz-adv-x="780" 
d="M479 1454h-143l-223 229h133l162 -167l155 167h133zM492 1352q55 0 94 -17t64 -47.5t39.5 -81t20 -109.5t5.5 -141v-51h-154v88q0 43 -2 73t-9.5 61t-21 49.5t-37 30.5t-57.5 12q-62 0 -112.5 -51.5t-75.5 -122t-25 -138.5v-907h-153v1331h153v-172q88 193 271 193z" />
    <glyph glyph-name="Sacute" unicode="&#x15a;" 
d="M696 1911l-563 -150l-20 78l563 152zM440 934q62 -46 100.5 -79t81.5 -83t67 -100.5t40 -121.5t16 -157q0 -413 -319 -413q-134 0 -211 55t-112 179t-35 341h153q0 -176 20 -266t62 -123t123 -33q60 0 94.5 21t53 78.5t18.5 160.5q0 78 -13 134.5t-46.5 104.5t-71 83
t-105.5 86q-64 49 -105.5 88.5t-84 97.5t-63.5 131t-21 162q0 177 80 278t244 101q171 0 252 -119.5t81 -372.5h-153q0 105 -12 173.5t-37.5 103.5t-55.5 48t-75 13q-86 0 -128 -50t-42 -175q0 -115 49 -190t155 -156z" />
    <glyph glyph-name="sacute" unicode="&#x15b;" 
d="M696 1604l-563 -150l-20 78l563 151zM473 745q46 -37 63.5 -52t55 -49t53 -54.5t39.5 -55.5t34 -65.5t18.5 -71.5t8.5 -86q0 -331 -323 -331q-106 0 -175.5 27t-108.5 86.5t-54.5 140t-15.5 202.5h153q0 -187 43.5 -255t157.5 -68q170 0 170 198q0 36 -5.5 65.5t-22 58.5
t-32 50.5t-51 53.5t-62 54.5t-81.5 65.5q-11 9 -42 33t-45.5 35t-41.5 36t-41 43t-33.5 47t-29 56.5t-16.5 63.5t-7 76q0 43 8 82.5t30 80.5t56.5 71t92.5 49.5t132 19.5q184 0 261 -109.5t77 -320.5h-153q0 75 -8.5 129t-23 86.5t-39 51t-51 24.5t-63.5 6q-73 0 -119 -43.5
t-46 -126.5q0 -35 8.5 -65.5t20 -51t37.5 -46.5t45 -41.5t60 -47.5t66 -52z" />
    <glyph glyph-name="Scedilla" unicode="&#x15e;" 
d="M444 -137q228 37 228 -123q0 -34 -14 -60.5t-33.5 -43.5t-54.5 -29t-62 -18t-72 -9t-68.5 -3.5t-66.5 -0.5l2 82q147 0 206.5 15.5t59.5 66.5q0 52 -56.5 62t-168.5 -9l29 189q-167 15 -236 145t-69 428h153q0 -176 20 -266t62 -123t123 -33q60 0 94.5 21t53 78.5
t18.5 160.5q0 78 -13 134.5t-46.5 104.5t-71 83t-105.5 86q-64 49 -105.5 88.5t-84 97.5t-63.5 131t-21 162q0 177 80 278t244 101q171 0 252 -119.5t81 -372.5h-153q0 105 -12 173.5t-37.5 103.5t-55.5 48t-75 13q-86 0 -128 -50t-42 -175q0 -115 49 -190t155 -156
q62 -46 100.5 -79t81.5 -83t67 -100.5t40 -121.5t16 -157q0 -382 -272 -411z" />
    <glyph glyph-name="scedilla" unicode="&#x15f;" 
d="M745 311q0 -315 -292 -331l-29 -117q227 37 227 -123q0 -34 -14 -60.5t-33.5 -43.5t-54 -29t-62 -18t-72 -9t-68 -3.5t-66.5 -0.5l2 82q147 0 206.5 15.5t59.5 66.5q0 52 -56.5 62t-168.5 -9l28 191q-84 9 -140 40t-87.5 89.5t-44 135t-12.5 187.5h153q0 -187 43.5 -255
t157.5 -68q170 0 170 198q0 36 -5.5 65.5t-22 58.5t-32 50.5t-51 53.5t-62 54.5t-81.5 65.5q-11 9 -42 33t-45.5 35t-41.5 36t-41 43t-33.5 47t-29 56.5t-16.5 63.5t-7 76q0 43 8 82.5t30 80.5t56.5 71t92.5 49.5t132 19.5q184 0 261 -109.5t77 -320.5h-153q0 75 -8.5 129
t-23 86.5t-39 51t-51 24.5t-63.5 6q-73 0 -119 -43.5t-46 -126.5q0 -35 8.5 -65.5t20 -51t37.5 -46.5t45 -41.5t60 -47.5t66 -52q46 -37 63.5 -52t55 -49t53 -54.5t39.5 -55.5t34 -65.5t18.5 -71.5t8.5 -86z" />
    <glyph glyph-name="Scaron" unicode="&#x160;" 
d="M479 1761h-143l-223 230h133l162 -168l155 168h133zM440 934q62 -46 100.5 -79t81.5 -83t67 -100.5t40 -121.5t16 -157q0 -413 -319 -413q-134 0 -211 55t-112 179t-35 341h153q0 -176 20 -266t62 -123t123 -33q60 0 94.5 21t53 78.5t18.5 160.5q0 78 -13 134.5
t-46.5 104.5t-71 83t-105.5 86q-64 49 -105.5 88.5t-84 97.5t-63.5 131t-21 162q0 177 80 278t244 101q171 0 252 -119.5t81 -372.5h-153q0 105 -12 173.5t-37.5 103.5t-55.5 48t-75 13q-86 0 -128 -50t-42 -175q0 -115 49 -190t155 -156z" />
    <glyph glyph-name="scaron" unicode="&#x161;" 
d="M479 1454h-143l-223 229h133l162 -167l155 167h133zM473 745q46 -37 63.5 -52t55 -49t53 -54.5t39.5 -55.5t34 -65.5t18.5 -71.5t8.5 -86q0 -331 -323 -331q-106 0 -175.5 27t-108.5 86.5t-54.5 140t-15.5 202.5h153q0 -187 43.5 -255t157.5 -68q170 0 170 198
q0 36 -5.5 65.5t-22 58.5t-32 50.5t-51 53.5t-62 54.5t-81.5 65.5q-11 9 -42 33t-45.5 35t-41.5 36t-41 43t-33.5 47t-29 56.5t-16.5 63.5t-7 76q0 43 8 82.5t30 80.5t56.5 71t92.5 49.5t132 19.5q184 0 261 -109.5t77 -320.5h-153q0 75 -8.5 129t-23 86.5t-39 51t-51 24.5
t-63.5 6q-73 0 -119 -43.5t-46 -126.5q0 -35 8.5 -65.5t20 -51t37.5 -46.5t45 -41.5t60 -47.5t66 -52z" />
    <glyph glyph-name="uni0162" unicode="&#x162;" horiz-adv-x="770" 
d="M463 0h-27l-33 -137q228 37 228 -123q0 -34 -14 -60.5t-33.5 -43.5t-54.5 -29t-62 -18t-72 -9t-68.5 -3.5t-66.5 -0.5l2 82q147 0 206.5 15.5t59.5 66.5q0 52 -56 62t-169 -9l31 207h-25v1485h-241v153h637v-153h-242v-1485z" />
    <glyph glyph-name="uni0163" unicode="&#x163;" horiz-adv-x="675" 
d="M453 -119q227 37 227 -123q0 -34 -14 -60.5t-33.5 -43.5t-54.5 -29t-62 -18t-72 -9t-68.5 -3.5t-66.5 -0.5l2 82q147 0 207 15.5t60 66.5q0 27 -13.5 42.5t-44.5 20t-68.5 2t-99.5 -10.5l31 202q-38 12 -65.5 31.5t-45 51t-28 63.5t-15.5 83t-6.5 93t-1.5 110v752h-153
v133q88 26 139 112t49 195h154q0 -111 -48 -198.5t-110 -108.5h358v-133h-235v-752v-8v-63t1.5 -54t4 -50t7 -40.5t12 -35.5t18 -26t25 -21t33 -10.5t42.5 -4.5h92v-133h-106h-23z" />
    <glyph glyph-name="Tcaron" unicode="&#x164;" horiz-adv-x="770" 
d="M459 1761h-144l-223 230h133l162 -168l156 168h133zM705 1638v-153h-242v-1485h-154v1485h-241v153h637z" />
    <glyph glyph-name="tcaron" unicode="&#x165;" horiz-adv-x="675" 
d="M676 1659l-82 -246h-82l61 246h103zM252 1331h358v-133h-235v-752v-8v-63t1.5 -54t4 -50t7 -40.5t12 -35.5t18 -26t25 -21t33 -10.5t42.5 -4.5h92v-133h-106q-50 0 -89.5 7t-68.5 23.5t-50 35.5t-34.5 51.5t-22 62.5t-12.5 78t-5 87t-1 101v752h-153v133q88 26 139 112
t49 195h154q0 -111 -48 -198.5t-110 -108.5z" />
    <glyph glyph-name="Tbar" unicode="&#x166;" horiz-adv-x="770" 
d="M705 1485h-242v-625h213v-82h-213v-778h-154v778h-217v82h217v625h-241v153h637v-153z" />
    <glyph glyph-name="tbar" unicode="&#x167;" horiz-adv-x="675" 
d="M610 1198h-235v-430h233v-82h-233v-240v-8v-63t1.5 -54t4 -50t7 -40.5t12 -35.5t18 -26t25 -21t33 -10.5t42.5 -4.5h92v-133h-106q-50 0 -89.5 7t-68.5 23.5t-50 35.5t-34.5 51.5t-22 62.5t-12.5 78t-5 87t-1 101v240h-196v82h196v430h-153v133q88 26 139 112t49 195h154
q0 -111 -48 -198.5t-110 -108.5h358v-133z" />
    <glyph glyph-name="Umacron" unicode="&#x16a;" 
d="M113 1917h583v-82h-583v82zM745 1638v-1206q0 -244 -80.5 -348t-258.5 -104q-176 0 -257 104.5t-81 347.5v1206h153v-1216q0 -164 39.5 -226.5t145.5 -62.5q108 0 147 62.5t39 226.5v1216h153z" />
    <glyph glyph-name="umacron" unicode="&#x16b;" 
d="M696 1610v-82h-583v82h583zM745 197q0 -73 3.5 -112t17.5 -85h-143q-14 21 -22.5 69t-8.5 81q-76 -170 -256 -170q-141 0 -204.5 97t-63.5 314v940h153v-977q0 -115 39 -178t131 -63q100 0 150.5 75.5t50.5 182.5v960h153v-1134z" />
    <glyph glyph-name="Uring" unicode="&#x16e;" 
d="M406 1761q-55 0 -95.5 39t-40.5 96t40.5 96.5t95.5 39.5t95 -39t40 -97q0 -57 -40 -96t-95 -39zM406 1843q24 0 38.5 14.5t14.5 38.5t-14.5 39t-38.5 15t-39 -15t-15 -39t15 -38.5t39 -14.5zM745 1638v-1206q0 -244 -80.5 -348t-258.5 -104q-176 0 -257 104.5t-81 347.5
v1206h153v-1216q0 -164 39.5 -226.5t145.5 -62.5q108 0 147 62.5t39 226.5v1216h153z" />
    <glyph glyph-name="uring" unicode="&#x16f;" 
d="M406 1454q-55 0 -95.5 39t-40.5 96t40.5 96t95.5 39t95 -39t40 -96t-40 -96t-95 -39zM406 1642q-24 0 -39 -15t-15 -38t15 -38t39 -15t38.5 14.5t14.5 38.5t-14.5 38.5t-38.5 14.5zM745 197q0 -73 3.5 -112t17.5 -85h-143q-14 21 -22.5 69t-8.5 81q-76 -170 -256 -170
q-141 0 -204.5 97t-63.5 314v940h153v-977q0 -115 39 -178t131 -63q100 0 150.5 75.5t50.5 182.5v960h153v-1134z" />
    <glyph glyph-name="Uhungarumlaut" unicode="&#x170;" 
d="M350 1761h-143l235 230h123zM575 1761h-143l236 230h123zM745 1638v-1206q0 -244 -80.5 -348t-258.5 -104q-176 0 -257 104.5t-81 347.5v1206h153v-1216q0 -164 39.5 -226.5t145.5 -62.5q108 0 147 62.5t39 226.5v1216h153z" />
    <glyph glyph-name="uhungarumlaut" unicode="&#x171;" 
d="M565 1683l-215 -229h-143l235 229h123zM575 1454h-143l236 229h123zM745 1331v-1134q0 -73 3.5 -112t17.5 -85h-143q-14 21 -22.5 69t-8.5 81q-76 -170 -256 -170q-141 0 -204.5 97t-63.5 314v940h153v-977q0 -115 39 -178t131 -63q100 0 150.5 75.5t50.5 182.5v960h153z
" />
    <glyph glyph-name="Uogonek" unicode="&#x172;" 
d="M592 1638h153v-1206q0 -198 -53 -302.5t-166 -135.5q-121 -47 -175 -93t-54 -106q0 -65 59.5 -99t206.5 -38l-82 -82q-40 0 -73.5 2.5t-73.5 9.5t-70 21.5t-56 35.5t-40 55t-14 77q0 78 55.5 129t146.5 76q-149 12 -218.5 118t-69.5 332v1206h153v-1216
q0 -164 39.5 -226.5t145.5 -62.5q108 0 147 62.5t39 226.5v1216z" />
    <glyph glyph-name="uogonek" unicode="&#x173;" 
d="M520 -205q0 -65 59.5 -99t206.5 -38l-81 -82q-49 0 -89 3.5t-86.5 15.5t-78 33t-53 59t-21.5 90q0 50 24.5 90t67 65.5t90.5 42t105 25.5h-41q-14 21 -22.5 69t-8.5 81q-76 -170 -256 -170q-141 0 -204.5 97t-63.5 314v940h153v-977q0 -115 39 -178t131 -63
q100 0 150.5 75.5t50.5 182.5v960h153v-1134q0 -73 3.5 -112t17.5 -85q-130 -48 -188 -95.5t-58 -109.5z" />
    <glyph glyph-name="Wcircumflex" unicode="&#x174;" horiz-adv-x="1542" 
d="M774 1929l-162 -168h-133l223 230h144l217 -230h-133zM1309 1638h168l-547 -1638h-213v1354l-438 -1354h-211v1638h153v-1364l436 1364h213v-1370z" />
    <glyph glyph-name="wcircumflex" unicode="&#x175;" horiz-adv-x="1542" 
d="M774 1622l-162 -168h-133l223 229h144l217 -229h-133zM1309 1331h168l-547 -1331h-213v1100l-438 -1100h-211v1331h153v-1108l436 1108h213v-1112z" />
    <glyph glyph-name="Ycircumflex" unicode="&#x176;" horiz-adv-x="937" 
d="M399 1991h144l217 -230h-133l-156 168l-162 -168h-133zM393 573l-325 1065h161l240 -854l242 854h161l-325 -1065v-573h-154v573z" />
    <glyph glyph-name="ycircumflex" unicode="&#x177;" 
d="M408 1622l-162 -168h-133l223 229h143l217 -229h-133zM592 1331h153v-1294q0 -92 -8 -156.5t-31.5 -123t-65 -93t-108.5 -54.5t-161 -20h-258v134h252q69 0 114 20t69.5 62t34 96.5t9.5 134.5v113q-76 -170 -256 -170q-141 0 -204.5 97t-63.5 314v940h153v-977
q0 -115 39 -178t131 -63q100 0 150.5 75.5t50.5 182.5v960z" />
    <glyph glyph-name="Ydieresis" unicode="&#x178;" horiz-adv-x="937" 
d="M297 1800q-33 0 -56.5 21.5t-23.5 54.5q0 38 23 60t57 22q33 0 56.5 -22t23.5 -60q0 -33 -24 -54.5t-56 -21.5zM639 1800q-33 0 -55.5 21.5t-22.5 54.5q0 38 22 60t56 22q33 0 56.5 -22t23.5 -60q0 -33 -24 -54.5t-56 -21.5zM393 573l-325 1065h161l240 -854l242 854h161
l-325 -1065v-573h-154v573z" />
    <glyph glyph-name="Zacute" unicode="&#x179;" horiz-adv-x="747" 
d="M666 1911l-564 -150l-20 78l563 152zM682 1638v-153l-461 -1331h461v-154h-614v154l458 1331h-458v153h614z" />
    <glyph glyph-name="zacute" unicode="&#x17a;" horiz-adv-x="747" 
d="M666 1604l-564 -150l-20 78l563 151zM682 1331v-133l-455 -1065h455v-133h-614v133l454 1065h-454v133h614z" />
    <glyph glyph-name="Zdotaccent" unicode="&#x17b;" horiz-adv-x="747" 
d="M375 1800q-33 0 -56.5 21.5t-23.5 54.5q0 38 23 60t57 22q33 0 56.5 -22t23.5 -60q0 -33 -24 -54.5t-56 -21.5zM682 1638v-153l-461 -1331h461v-154h-614v154l458 1331h-458v153h614z" />
    <glyph glyph-name="zdotaccent" unicode="&#x17c;" horiz-adv-x="747" 
d="M375 1493q-33 0 -56.5 21.5t-23.5 54.5q0 38 23 60t57 22q33 0 56.5 -22t23.5 -60q0 -33 -24 -54.5t-56 -21.5zM682 1331v-133l-455 -1065h455v-133h-614v133l454 1065h-454v133h614z" />
    <glyph glyph-name="Zcaron" unicode="&#x17d;" horiz-adv-x="747" 
d="M449 1761h-144l-223 230h133l162 -168l155 168h134zM682 1638v-153l-461 -1331h461v-154h-614v154l458 1331h-458v153h614z" />
    <glyph glyph-name="zcaron" unicode="&#x17e;" horiz-adv-x="747" 
d="M449 1454h-144l-223 229h133l162 -167l155 167h134zM682 1331v-133l-455 -1065h455v-133h-614v133l454 1065h-454v133h614z" />
    <glyph glyph-name="Scommaaccent" unicode="&#x218;" 
d="M440 934q62 -46 100.5 -79t81.5 -83t67 -100.5t40 -121.5t16 -157q0 -413 -319 -413q-134 0 -211 55t-112 179t-35 341h153q0 -176 20 -266t62 -123t123 -33q60 0 94.5 21t53 78.5t18.5 160.5q0 78 -13 134.5t-46.5 104.5t-71 83t-105.5 86q-64 49 -105.5 88.5t-84 97.5
t-63.5 131t-21 162q0 177 80 278t244 101q171 0 252 -119.5t81 -372.5h-153q0 105 -12 173.5t-37.5 103.5t-55.5 48t-75 13q-86 0 -128 -50t-42 -175q0 -115 49 -190t155 -156zM426 -102q40 0 67 -27t27 -78q0 -164 -164 -244v91q61 28 72 79q-43 -7 -70.5 16.5t-27.5 65.5
q0 41 27.5 69t68.5 28z" />
    <glyph glyph-name="scommaaccent" unicode="&#x219;" 
d="M473 745q46 -37 63.5 -52t55 -49t53 -54.5t39.5 -55.5t34 -65.5t18.5 -71.5t8.5 -86q0 -331 -323 -331q-106 0 -175.5 27t-108.5 86.5t-54.5 140t-15.5 202.5h153q0 -187 43.5 -255t157.5 -68q170 0 170 198q0 36 -5.5 65.5t-22 58.5t-32 50.5t-51 53.5t-62 54.5
t-81.5 65.5q-11 9 -42 33t-45.5 35t-41.5 36t-41 43t-33.5 47t-29 56.5t-16.5 63.5t-7 76q0 43 8 82.5t30 80.5t56.5 71t92.5 49.5t132 19.5q184 0 261 -109.5t77 -320.5h-153q0 75 -8.5 129t-23 86.5t-39 51t-51 24.5t-63.5 6q-73 0 -119 -43.5t-46 -126.5q0 -35 8.5 -65.5
t20 -51t37.5 -46.5t45 -41.5t60 -47.5t66 -52zM406 -102q40 0 67 -27t27 -78q0 -164 -164 -244v91q61 28 72 79q-44 -7 -71.5 16.5t-27.5 65.5q0 41 28 69t69 28z" />
    <glyph glyph-name="uni021A" unicode="&#x21a;" horiz-adv-x="770" 
d="M705 1638v-153h-242v-1485h-154v1485h-241v153h637zM385 -102q40 0 67 -27t27 -78q0 -164 -164 -244v91q61 28 72 79q-43 -7 -70.5 16.5t-27.5 65.5q0 41 27.5 69t68.5 28z" />
    <glyph glyph-name="uni021B" unicode="&#x21b;" horiz-adv-x="675" 
d="M375 1198v-752v-8v-63t1.5 -54t4 -50t7 -40.5t12 -35.5t18 -26t25 -21t33 -10.5t42.5 -4.5h92v-133h-106q-50 0 -89.5 7t-68.5 23.5t-50 35.5t-34.5 51.5t-22 62.5t-12.5 78t-5 87t-1 101v752h-153v133q88 26 139 112t49 195h154q0 -111 -48 -198.5t-110 -108.5h358v-133
h-235zM434 -84q40 0 67 -26.5t27 -77.5q0 -165 -163 -244v90q60 28 71 80q-43 -7 -70.5 16.5t-27.5 65.5q0 41 27.5 68.5t68.5 27.5z" />
    <glyph glyph-name="circumflex" unicode="&#x2c6;" horiz-adv-x="624" 
d="M244 1683h143l217 -229h-133l-156 168l-161 -168h-134z" />
    <glyph glyph-name="caron" unicode="&#x2c7;" horiz-adv-x="624" 
d="M244 1454l-224 229h134l161 -167l156 167h133l-217 -229h-143z" />
    <glyph glyph-name="breve" unicode="&#x2d8;" horiz-adv-x="624" 
d="M315 1454q-58 0 -107.5 11t-93 36t-69 71.5t-25.5 110.5h103q0 -41 19 -71.5t49.5 -46t61 -22.5t62.5 -7t62 7t59.5 22.5t47.5 45.5t18 72h102q0 -64 -24.5 -110.5t-67 -71.5t-91.5 -36t-106 -11z" />
    <glyph glyph-name="dotaccent" unicode="&#x2d9;" horiz-adv-x="245" 
d="M123 1493q-33 0 -56.5 21.5t-23.5 54.5q0 38 23 60t57 22q33 0 56.5 -22t23.5 -60q0 -33 -24 -54.5t-56 -21.5z" />
    <glyph glyph-name="ring" unicode="&#x2da;" horiz-adv-x="311" 
d="M156 1454q-55 0 -95.5 39t-40.5 96t40.5 96t95.5 39t95 -39t40 -96t-40 -96t-95 -39zM156 1536q24 0 38.5 14.5t14.5 38.5t-14.5 38.5t-38.5 14.5t-39 -15t-15 -38t15 -38t39 -15z" />
    <glyph glyph-name="ogonek" unicode="&#x2db;" horiz-adv-x="411" 
d="M369 0q-130 -48 -188 -95.5t-58 -109.5q0 -65 59.5 -99t206.5 -38l-82 -82q-40 0 -73.5 2.5t-73.5 9.5t-70 21.5t-56 35.5t-40 55t-14 77q0 50 24 90t66.5 65.5t90.5 42t105 25.5h103z" />
    <glyph glyph-name="tilde" unicode="&#x2dc;" horiz-adv-x="624" 
d="M20 1479q0 204 164 204q44 0 77.5 -15t53.5 -36.5t37 -43.5t37.5 -37t44.5 -15q68 0 68 123h102q0 -205 -164 -205q-44 0 -77.5 15t-53.5 37t-37 44t-37.5 37t-44.5 15q-67 0 -67 -123h-103z" />
    <glyph glyph-name="hungarumlaut" unicode="&#x2dd;" horiz-adv-x="624" 
d="M164 1454h-144l236 229h123zM389 1454h-143l235 229h123z" />
    <glyph glyph-name="gravecomb" unicode="&#x300;" horiz-adv-x="0" 
d="M-20 1532l-21 -78l-563 150l20 79z" />
    <glyph glyph-name="acutecomb" unicode="&#x301;" horiz-adv-x="0" 
d="M-604 1532l563 151l21 -79l-564 -150z" />
    <glyph glyph-name="uni0302" unicode="&#x302;" horiz-adv-x="0" 
d="M-381 1683h143l218 -229h-134l-155 168l-162 -168h-133z" />
    <glyph glyph-name="tildecomb" unicode="&#x303;" horiz-adv-x="0" 
d="M-604 1479q0 204 164 204q44 0 77.5 -15t53.5 -36.5t37 -43.5t37.5 -37t44.5 -15q67 0 67 123h103q0 -205 -164 -205q-44 0 -77.5 15t-53.5 37t-37 44t-37.5 37t-44.5 15q-68 0 -68 -123h-102z" />
    <glyph glyph-name="uni0304" unicode="&#x304;" horiz-adv-x="0" 
d="M-604 1610h584v-82h-584v82z" />
    <glyph glyph-name="uni0306" unicode="&#x306;" horiz-adv-x="0" 
d="M-309 1454q-58 0 -107.5 11t-93 36t-69 71.5t-25.5 110.5h102q0 -41 19 -71.5t49.5 -46t61.5 -22.5t63 -7t62 7t59 22.5t47 45.5t18 72h103q0 -64 -24.5 -110.5t-67 -71.5t-91.5 -36t-106 -11z" />
    <glyph glyph-name="uni0307" unicode="&#x307;" horiz-adv-x="0" 
d="M-123 1493q-33 0 -56.5 21.5t-23.5 54.5q0 38 23 60t57 22q33 0 56.5 -22t23.5 -60q0 -33 -24 -54.5t-56 -21.5z" />
    <glyph glyph-name="uni0308" unicode="&#x308;" horiz-adv-x="0" 
d="M-442 1493q-33 0 -56.5 21.5t-23.5 54.5q0 38 23 60t57 22q33 0 56.5 -22t23.5 -60q0 -33 -24 -54.5t-56 -21.5zM-100 1493q-33 0 -55.5 21.5t-22.5 54.5q0 38 22 60t56 22q33 0 56.5 -22t23.5 -60q0 -33 -24 -54.5t-56 -21.5z" />
    <glyph glyph-name="uni030A" unicode="&#x30a;" horiz-adv-x="0" 
d="M-156 1454q-55 0 -95 39t-40 96t40 96t95 39t95.5 -39t40.5 -96t-40.5 -96t-95.5 -39zM-156 1536q24 0 39 15t15 38t-15 38t-39 15t-38.5 -14.5t-14.5 -38.5t14.5 -38.5t38.5 -14.5z" />
    <glyph glyph-name="uni030B" unicode="&#x30b;" horiz-adv-x="0" 
d="M-461 1454h-143l235 229h123zM-236 1454h-143l236 229h123z" />
    <glyph glyph-name="uni030C" unicode="&#x30c;" horiz-adv-x="0" 
d="M-381 1454l-223 229h133l162 -167l155 167h134l-218 -229h-143z" />
    <glyph glyph-name="uni0312" unicode="&#x312;" horiz-adv-x="0" 
d="M-119 1612q44 21 71.5 1.5t27.5 -63.5q0 -42 -26 -69t-67 -27q-50 0 -74 34t-24 91q0 56 38 113.5t126 89.5v-90q-61 -28 -72 -80z" />
    <glyph glyph-name="uni0326" unicode="&#x326;" horiz-adv-x="0" 
d="M-113 -281q-43 -7 -70.5 16.5t-27.5 65.5q0 41 27.5 69t68.5 28q40 0 67.5 -27t27.5 -78q0 -164 -164 -244v91q60 28 71 79z" />
    <glyph glyph-name="uni0327" unicode="&#x327;" horiz-adv-x="0" 
d="M-317 0h102l-33 -137q228 37 228 -123q0 -34 -14 -60.5t-33.5 -43.5t-54.5 -29t-62 -18t-72 -9t-68.5 -3.5t-66.5 -0.5l2 82q147 0 206.5 15.5t59.5 66.5q0 52 -56.5 62t-168.5 -9z" />
    <glyph glyph-name="uni0328" unicode="&#x328;" horiz-adv-x="0" 
d="M-43 0q-130 -48 -188 -95.5t-58 -109.5q0 -65 59.5 -99t206.5 -38l-81 -82q-49 0 -89 3.5t-86.5 15.5t-78 33t-53 59t-21.5 90q0 50 24.5 90t67 65.5t90.5 42t105 25.5h102z" />
    <glyph glyph-name="uni0335" unicode="&#x335;" horiz-adv-x="0" 
d="M-604 717h584v-82h-584v82z" />
    <glyph glyph-name="uni0336" unicode="&#x336;" horiz-adv-x="0" 
d="M-604 717h584v-82h-584v82z" />
    <glyph glyph-name="uni0337" unicode="&#x337;" horiz-adv-x="0" 
d="M25 1659l-609 -1679h-108l608 1679h109z" />
    <glyph glyph-name="uni0338" unicode="&#x338;" horiz-adv-x="0" 
d="M25 1659l-609 -1679h-108l608 1679h109z" />
    <glyph glyph-name="Wgrave" unicode="&#x1e80;" horiz-adv-x="1542" 
d="M1063 1839l-21 -78l-563 150l21 80zM1309 1638h168l-547 -1638h-213v1354l-438 -1354h-211v1638h153v-1364l436 1364h213v-1370z" />
    <glyph glyph-name="wgrave" unicode="&#x1e81;" horiz-adv-x="1542" 
d="M1063 1532l-21 -78l-563 150l21 79zM1309 1331h168l-547 -1331h-213v1100l-438 -1100h-211v1331h153v-1108l436 1108h213v-1112z" />
    <glyph glyph-name="Wacute" unicode="&#x1e82;" horiz-adv-x="1542" 
d="M1063 1911l-563 -150l-21 78l563 152zM1309 1638h168l-547 -1638h-213v1354l-438 -1354h-211v1638h153v-1364l436 1364h213v-1370z" />
    <glyph glyph-name="wacute" unicode="&#x1e83;" horiz-adv-x="1542" 
d="M1063 1604l-563 -150l-21 78l563 151zM1309 1331h168l-547 -1331h-213v1100l-438 -1100h-211v1331h153v-1108l436 1108h213v-1112z" />
    <glyph glyph-name="Wdieresis" unicode="&#x1e84;" horiz-adv-x="1542" 
d="M600 1800q-33 0 -56.5 21.5t-23.5 54.5q0 38 23 60t57 22q33 0 56.5 -22t23.5 -60q0 -33 -24 -54.5t-56 -21.5zM942 1800q-33 0 -55.5 21.5t-22.5 54.5q0 38 22 60t56 22q33 0 56.5 -22t23.5 -60q0 -33 -24 -54.5t-56 -21.5zM1309 1638h168l-547 -1638h-213v1354
l-438 -1354h-211v1638h153v-1364l436 1364h213v-1370z" />
    <glyph glyph-name="wdieresis" unicode="&#x1e85;" horiz-adv-x="1542" 
d="M600 1493q-33 0 -56.5 21.5t-23.5 54.5q0 38 23 60t57 22q33 0 56.5 -22t23.5 -60q0 -33 -24 -54.5t-56 -21.5zM942 1493q-33 0 -55.5 21.5t-22.5 54.5q0 38 22 60t56 22q33 0 56.5 -22t23.5 -60q0 -33 -24 -54.5t-56 -21.5zM1309 1331h168l-547 -1331h-213v1100
l-438 -1100h-211v1331h153v-1108l436 1108h213v-1112z" />
    <glyph glyph-name="Ygrave" unicode="&#x1ef2;" horiz-adv-x="937" 
d="M760 1839l-21 -78l-563 150l21 80zM393 573l-325 1065h161l240 -854l242 854h161l-325 -1065v-573h-154v573z" />
    <glyph glyph-name="ygrave" unicode="&#x1ef3;" 
d="M696 1532l-20 -78l-563 150l20 79zM592 1331h153v-1294q0 -92 -8 -156.5t-31.5 -123t-65 -93t-108.5 -54.5t-161 -20h-258v134h252q69 0 114 20t69.5 62t34 96.5t9.5 134.5v113q-76 -170 -256 -170q-141 0 -204.5 97t-63.5 314v940h153v-977q0 -115 39 -178t131 -63
q100 0 150.5 75.5t50.5 182.5v960z" />
    <glyph glyph-name="endash" unicode="&#x2013;" horiz-adv-x="1320" 
d="M68 727h1187v-102h-1187v102z" />
    <glyph glyph-name="emdash" unicode="&#x2014;" horiz-adv-x="2181" 
d="M68 727h2048v-102h-2048v102z" />
    <glyph glyph-name="quoteleft" unicode="&#x2018;" horiz-adv-x="296" 
d="M168 1147h-102l81 512h82z" />
    <glyph glyph-name="quoteright" unicode="&#x2019;" horiz-adv-x="296" 
d="M129 1659h102l-81 -512h-82z" />
    <glyph glyph-name="quotesinglbase" unicode="&#x201a;" horiz-adv-x="323" 
d="M68 76q0 44 27 69t67 25q41 0 67.5 -32t26.5 -95q0 -162 -164 -238v72q42 23 60 52t20 71q-41 -15 -72.5 8.5t-31.5 67.5z" />
    <glyph glyph-name="quotedblleft" unicode="&#x201c;" horiz-adv-x="460" 
d="M168 1147h-102l81 512h82zM332 1147h-103l82 512h82z" />
    <glyph glyph-name="quotedblright" unicode="&#x201d;" horiz-adv-x="460" 
d="M129 1659h102l-81 -512h-82zM293 1659h102l-82 -512h-82z" />
    <glyph glyph-name="quotedblbase" unicode="&#x201e;" horiz-adv-x="323" 
d="M162 170q41 0 67.5 -32t26.5 -95q0 -162 -164 -238v72q42 23 60 52t20 71q-41 -15 -72.5 8.5t-31.5 67.5t27 69t67 25z" />
    <glyph glyph-name="dagger" unicode="&#x2020;" horiz-adv-x="468" 
d="M403 1331v-102h-116v-594h-103v594h-116v102h116v307h103v-307h116z" />
    <glyph glyph-name="daggerdbl" unicode="&#x2021;" horiz-adv-x="468" 
d="M403 1229h-116v-205h116v-102h-116v-287h-103v287h-116v102h116v205h-116v102h116v307h103v-307h116v-102z" />
    <glyph glyph-name="bullet" unicode="&#x2022;" horiz-adv-x="458" 
d="M229 504q-68 0 -114.5 45t-46.5 117q0 71 47 117t114 46t114.5 -46t47.5 -117q0 -72 -47 -117t-115 -45z" />
    <glyph glyph-name="ellipsis" unicode="&#x2026;" horiz-adv-x="937" 
d="M162 -20q-39 0 -66.5 26t-27.5 68t27.5 69t66.5 27t66.5 -27t27.5 -69t-27.5 -68t-66.5 -26zM469 -20q-39 0 -66.5 26t-27.5 68t27.5 69t66.5 27t66.5 -27t27.5 -69t-27.5 -68t-66.5 -26zM776 -20q-39 0 -66.5 26t-27.5 68t27.5 69t66.5 27t66.5 -27t27.5 -69t-27.5 -68
t-66.5 -26z" />
    <glyph glyph-name="perthousand" unicode="&#x2030;" horiz-adv-x="1656" 
d="M317 1044q67 0 117 25.5t78 70.5t41.5 98t13.5 114t-13.5 114t-41.5 97.5t-78 70t-117 25.5t-117 -25.5t-78 -70t-41 -97t-13 -114.5t13 -114.5t41 -97.5t78 -70.5t117 -25.5zM905 1659l-608 -1679h-109l609 1679h108zM317 1147q-147 0 -147 205q0 204 147 204
q148 0 148 -204q0 -205 -148 -205zM780 -20q67 0 117 25.5t78 70t41.5 97.5t13.5 114t-13.5 114t-41.5 97.5t-78 70t-117 25.5t-117 -25.5t-78 -70t-41.5 -97.5t-13.5 -114t13.5 -114t41.5 -97.5t78 -70t117 -25.5zM1341 -20q67 0 117 25.5t78 70t41.5 97.5t13.5 114
t-13.5 114t-41.5 97.5t-78 70t-117 25.5t-117 -25.5t-78 -70t-41 -97t-13 -114.5t13 -114.5t41 -97t78 -70t117 -25.5zM780 82q-147 0 -147 205t147 205q148 0 148 -205t-148 -205zM1341 82q-147 0 -147 205t147 205q148 0 148 -205t-148 -205z" />
    <glyph glyph-name="guilsinglleft" unicode="&#x2039;" horiz-adv-x="438" 
d="M373 1042v-122l-228 -244l228 -244v-123l-305 326v82z" />
    <glyph glyph-name="guilsinglright" unicode="&#x203a;" horiz-adv-x="438" 
d="M66 1042l305 -325v-82l-305 -326v123l227 244l-227 244v122z" />
    <glyph glyph-name="fraction" unicode="&#x2044;" horiz-adv-x="757" 
d="M782 1659l-608 -1679h-108l608 1679h108z" />
    <glyph glyph-name="Euro" unicode="&#x20ac;" horiz-adv-x="915" 
d="M555 82q164 0 193 225h102q-14 -168 -94.5 -247.5t-200.5 -79.5q-176 0 -268.5 157.5t-112.5 489.5h-106v102h102v82h-102v102h104q9 384 101 565t282 181q119 0 200 -79.5t95 -248.5h-102q-29 225 -193 225q-145 0 -210 -153t-73 -490h435v-102h-435v-82h435v-102h-431
q14 -284 79 -414.5t200 -130.5z" />
    <glyph glyph-name="trademark" unicode="&#x2122;" horiz-adv-x="1030" 
d="M403 1638v-102h-116v-901h-103v901h-116v102h335zM862 1638h103v-1003h-103v510l-106 -510h-103l-106 510v-510h-103v1003h103l158 -804z" />
    <glyph glyph-name="arrowleft" unicode="&#x2190;" horiz-adv-x="972" 
d="M905 727v-102h-696q91 -37 161.5 -123t84.5 -226h-103q-14 128 -98.5 221.5t-187.5 127.5v102q103 34 187.5 127t98.5 221h103q-7 -73 -32 -134t-61 -102t-73.5 -68t-79.5 -44h696z" />
    <glyph glyph-name="arrowup" unicode="&#x2191;" horiz-adv-x="931" 
d="M518 1137q35 -104 127.5 -188.5t220.5 -98.5v-102q-140 14 -225.5 84t-122.5 161v-696h-102v696q-37 -91 -122.5 -161t-225.5 -84v102q128 14 220.5 98.5t127.5 188.5h102z" />
    <glyph glyph-name="arrowright" unicode="&#x2192;" horiz-adv-x="972" 
d="M621 1075q14 -128 98.5 -221t187.5 -127v-102q-103 -34 -187.5 -127.5t-98.5 -221.5h-103q14 140 84.5 226t161.5 123h-696v102h696q-42 17 -79.5 44t-73.5 68t-61 102t-32 134h103z" />
    <glyph glyph-name="arrowdown" unicode="&#x2193;" horiz-adv-x="931" 
d="M516 360q17 42 44 79.5t68 73.5t102 61t134 32v-102q-128 -14 -220.5 -98.5t-127.5 -188.5h-102q-35 104 -127.5 188.5t-220.5 98.5v102q73 -7 134 -32t102 -61t68 -73.5t44 -79.5v697h102v-697z" />
    <glyph glyph-name="arrowboth" unicode="&#x2194;" horiz-adv-x="1218" 
d="M866 1075q14 -128 98.5 -220.5t188.5 -127.5v-102q-103 -34 -188 -127.5t-99 -221.5h-102q14 140 84.5 226t161.5 123h-801q91 -37 161.5 -123t84.5 -226h-103q-14 128 -98.5 221.5t-187.5 127.5v102q103 34 187.5 127t98.5 221h103q-7 -73 -32 -134t-61 -102t-73.5 -68
t-79.5 -44h801q-42 17 -79.5 44t-73.5 68t-61 102t-32 134h102z" />
    <glyph glyph-name="arrowupdn" unicode="&#x2195;" horiz-adv-x="931" 
d="M516 276q17 42 44 79.5t68 73.5t102 61t134 32v-102q-128 -14 -220.5 -98.5t-127.5 -188.5h-102q-35 104 -127.5 188.5t-220.5 98.5v102q73 -7 134 -32t102 -61t68 -73.5t44 -79.5v801q-17 -42 -44 -79.5t-68 -73.5t-102 -61t-134 -32v103q128 14 220.5 98.5t127.5 188.5
h102q35 -104 127.5 -188.5t220.5 -98.5v-103q-73 7 -134 32t-102 61t-68 73.5t-44 79.5v-801z" />
    <glyph glyph-name="uni2196" unicode="&#x2196;" horiz-adv-x="841" 
d="M774 483l-72 -73l-493 493q18 -42 25.5 -87.5t4 -100.5t-29 -115.5t-72.5 -116.5l-71 72q54 69 74 155t9.5 159.5t-40.5 134.5l71 73q62 -31 136 -41.5t159.5 9.5t153.5 75l73 -73q-75 -61 -157.5 -84.5t-144 -17.5t-117.5 30z" />
    <glyph glyph-name="uni2197" unicode="&#x2197;" horiz-adv-x="843" 
d="M735 930q-31 -62 -41.5 -136t9.5 -159.5t75 -153.5l-73 -73q-61 75 -84.5 157.5t-17.5 144t30 117.5l-492 -491l-73 72l493 493q-42 -18 -87.5 -25.5t-100.5 -4t-115.5 29t-116.5 72.5l72 71q69 -54 155 -74t159.5 -9.5t134.5 40.5z" />
    <glyph glyph-name="uni2198" unicode="&#x2198;" horiz-adv-x="841" 
d="M776 872q-54 -69 -74 -154.5t-9.5 -159t40.5 -134.5l-71 -74q-62 31 -136 41.5t-159.5 -9.5t-153.5 -75l-74 74q75 61 157.5 84.5t144.5 17.5t118 -30l-491 491l71 74l494 -494q-18 42 -25.5 87.5t-4 100.5t29 115.5t72.5 116.5z" />
    <glyph glyph-name="uni2199" unicode="&#x2199;" horiz-adv-x="843" 
d="M283 440q58 24 119 31t143.5 -17t156.5 -85l-71 -72q-69 54 -155 74t-159.5 9.5t-134.5 -40.5l-73 72q31 62 41.5 135.5t-9.5 159t-75 153.5l73 74q61 -75 84.5 -157.5t17.5 -144.5t-30 -118l491 492l74 -72z" />
    <glyph glyph-name="partialdiff" unicode="&#x2202;" horiz-adv-x="1042" 
d="M307 1413q120 -52 217.5 -117.5t183.5 -160.5t144 -211t91.5 -271.5t33.5 -339.5q0 -244 -124.5 -391t-330.5 -147q-95 0 -178 37.5t-144 104.5t-96.5 166t-35.5 216q0 70 13.5 136.5t46 132.5t81 115t124 79.5t169.5 30.5q122 0 211 -55t141 -150q-47 268 -192 445
t-396 286zM522 -123q166 0 259 120t93 316q-8 106 -44.5 183t-91 117.5t-113 58.5t-123.5 18q-108 0 -184.5 -53t-112 -140t-35.5 -198q0 -194 101 -308t251 -114z" />
    <glyph glyph-name="emptyset" unicode="&#x2205;" horiz-adv-x="1239" 
d="M856 1327q151 -62 234.5 -198.5t83.5 -307.5q0 -114 -37 -214t-105.5 -176t-174.5 -120.5t-234 -44.5q-62 0 -146 15l-108 -301h-109l121 333q-149 63 -231 200t-82 308q0 112 37.5 211.5t106 175.5t175 120t236.5 44q77 0 137 -14l108 301h109zM170 821
q0 -137 62.5 -247.5t183.5 -163.5l309 852q-44 8 -102 8q-113 0 -201.5 -37.5t-142.5 -101.5t-81.5 -143t-27.5 -167zM623 369q111 0 199 37.5t141 101.5t80.5 143.5t27.5 169.5q0 135 -63.5 247t-186.5 165l-307 -854q55 -10 109 -10z" />
    <glyph glyph-name="product" unicode="&#x220f;" horiz-adv-x="972" 
d="M907 1423v-102h-166v-1546h-102v1546h-305v-1546h-103v1546h-163v102h839z" />
    <glyph glyph-name="summation" unicode="&#x2211;" horiz-adv-x="972" 
d="M907 1423v-102h-717l433 -727l-433 -727h717v-103h-839v103h4l436 725l-436 729h-4v102h839z" />
    <glyph glyph-name="minus" unicode="&#x2212;" horiz-adv-x="972" 
d="M68 680h839v-102h-839v102z" />
    <glyph glyph-name="radical" unicode="&#x221a;" horiz-adv-x="1173" 
d="M748 1413h360v-82h-279l-333 -1556h-138l-290 733h108l246 -631z" />
    <glyph glyph-name="infinity" unicode="&#x221e;" horiz-adv-x="1218" 
d="M928 942q40 0 78.5 -14.5t72 -44.5t54 -83.5t20.5 -123.5t-20.5 -123.5t-54 -83.5t-72 -44.5t-78.5 -14.5q-80 0 -155.5 52t-162.5 144q-87 -92 -162 -144t-155 -52q-40 0 -78.5 14.5t-72 44.5t-54 83.5t-20.5 123.5t20.5 123.5t54 83.5t72 44.5t78.5 14.5q80 0 155 -52
t162 -145q87 93 162.5 145t155.5 52zM303 512q54 0 109 41.5t133 122.5q-78 81 -133 122.5t-109 41.5q-133 0 -133 -164t133 -164zM920 512q131 0 131 164t-131 164q-54 0 -110.5 -42t-133.5 -122q77 -80 133.5 -122t110.5 -42z" />
    <glyph glyph-name="integral" unicode="&#x222b;" horiz-adv-x="710" 
d="M68 -143q71 0 118 53t69.5 143.5t33.5 207t16.5 245.5t12 258t25.5 245.5t52 207t96.5 143.5t153.5 53v-82q-71 0 -118 -53t-69.5 -143.5t-33.5 -207t-16.5 -245.5t-12 -258t-25.5 -245.5t-52 -207t-96.5 -143.5t-153.5 -53v82z" />
    <glyph glyph-name="approxequal" unicode="&#x2248;" horiz-adv-x="972" 
d="M68 758q0 69 19.5 116.5t52.5 69.5t64.5 30.5t67.5 8.5q55 0 107 -19t92 -46t77 -54t77 -46t77 -19q47 0 75 31.5t28 91.5h102q0 -56 -14 -98t-34.5 -66t-49.5 -38.5t-54 -19t-53 -4.5q-67 0 -131.5 29t-107 63.5t-94.5 63.5t-97 29q-47 0 -74.5 -31.5t-27.5 -91.5h-102z
M68 430q0 69 19.5 116.5t52.5 69.5t64.5 30.5t67.5 8.5q55 0 107 -19t92 -46t77 -54t77 -46t77 -19q47 0 75 31.5t28 91.5h102q0 -69 -19.5 -116.5t-53 -69.5t-65 -30.5t-67.5 -8.5q-55 0 -107 19t-92 46t-77 54t-77 46t-77 19q-47 0 -74.5 -31.5t-27.5 -91.5h-102z" />
    <glyph glyph-name="notequal" unicode="&#x2260;" horiz-adv-x="972" 
d="M907 727h-346l-37 -102h383v-103h-422l-135 -362h-108l135 362h-309v103h348l37 102h-385v102h424l135 363h108l-135 -363h307v-102z" />
    <glyph glyph-name="lessequal" unicode="&#x2264;" horiz-adv-x="972" 
d="M907 1042v-102l-696 -264l696 -264v-166h-839v102h739l-739 287v82z" />
    <glyph glyph-name="greaterequal" unicode="&#x2265;" horiz-adv-x="972" 
d="M922 717v-82l-740 -287h740v-102h-840v166l696 264l-696 264v102z" />
    <glyph glyph-name="lozenge" unicode="&#x25ca;" horiz-adv-x="780" 
d="M465 1382l250 -614l-250 -614h-148l-249 614l249 614h148zM391 244l213 524l-213 524l-213 -524z" />
    <glyph glyph-name="B.001" horiz-adv-x="815" 
d="M526 883q224 -80 224 -365v-100q0 -124 -28 -204t-94 -128t-162.5 -67t-244.5 -19h-153v1638h153q137 0 225.5 -17t151 -60.5t89 -118t26.5 -189.5v-59q0 -237 -187 -311zM221 1485v-533q74 0 122.5 4.5t93 18t69 39t39 67.5t14.5 103v69q0 51 -7 87.5t-24.5 63t-41 42
t-64.5 24.5t-86.5 12t-114.5 3zM221 154q219 0 297 54t78 216v104q0 144 -83.5 207.5t-291.5 63.5v-645z" />
    <glyph glyph-name="D.001" horiz-adv-x="815" 
d="M221 1638q68 0 115 -1.5t98.5 -6t86 -13.5t70.5 -23.5t59 -35.5t44 -50.5t32 -68.5t17.5 -88.5t6.5 -111.5v-838q0 -70 -7 -124t-24.5 -95t-39 -70.5t-58 -50t-72.5 -32.5t-92 -18.5t-108 -8.5t-128 -2h-153v1638h153zM221 154q86 0 128.5 1.5t94.5 9t73.5 22t43.5 42.5
t28.5 69.5t6.5 102.5v838q0 53 -7 90t-16 64.5t-35 44t-47.5 26.5t-70.5 14.5t-86.5 5.5t-112.5 1v-1331z" />
    <glyph glyph-name="A.ss01" horiz-adv-x="1763" 
d="M1530 0l-158 358h-981l-158 -358h-165l723 1638h184l723 -1638h-168zM455 506h854l-426 973z" />
    <glyph glyph-name="Aacute.ss01" horiz-adv-x="1763" 
d="M1174 1911l-564 -150l-20 78l563 152zM1530 0l-158 358h-981l-158 -358h-165l723 1638h184l723 -1638h-168zM455 506h854l-426 973z" />
    <glyph glyph-name="Abreve.ss01" horiz-adv-x="1763" 
d="M885 1761q-57 0 -107 11.5t-93.5 36.5t-69 71.5t-25.5 110.5h102q0 -41 19 -72t49.5 -46.5t61.5 -22.5t63 -7t62 7t59 22.5t47 46t18 72.5h103q0 -64 -24.5 -110.5t-67 -71.5t-91.5 -36.5t-106 -11.5zM1530 0l-158 358h-981l-158 -358h-165l723 1638h184l723 -1638h-168z
M455 506h854l-426 973z" />
    <glyph glyph-name="Acircumflex.ss01" horiz-adv-x="1763" 
d="M885 1929l-162 -168h-133l223 230h143l218 -230h-134zM1530 0l-158 358h-981l-158 -358h-165l723 1638h184l723 -1638h-168zM455 506h854l-426 973z" />
    <glyph glyph-name="Adieresis.ss01" horiz-adv-x="1763" 
d="M711 1800q-33 0 -56.5 21.5t-23.5 54.5q0 38 23 60t57 22q33 0 56.5 -22t23.5 -60q0 -33 -24 -54.5t-56 -21.5zM1053 1800q-33 0 -55.5 21.5t-22.5 54.5q0 38 22 60t56 22q33 0 56.5 -22t23.5 -60q0 -33 -24 -54.5t-56 -21.5zM1530 0l-158 358h-981l-158 -358h-165
l723 1638h184l723 -1638h-168zM455 506h854l-426 973z" />
    <glyph glyph-name="Agrave.ss01" horiz-adv-x="1763" 
d="M1174 1839l-21 -78l-563 150l20 80zM1530 0l-158 358h-981l-158 -358h-165l723 1638h184l723 -1638h-168zM455 506h854l-426 973z" />
    <glyph glyph-name="Amacron.ss01" horiz-adv-x="1763" 
d="M1174 1917v-82h-584v82h584zM1530 0l-158 358h-981l-158 -358h-165l723 1638h184l723 -1638h-168zM455 506h854l-426 973z" />
    <glyph glyph-name="Aogonek.ss01" horiz-adv-x="1763" 
d="M1430 -199q0 -65 59.5 -99t206.5 -38l-82 -82q-49 0 -89 3.5t-86.5 15.5t-78 33t-53 59t-21.5 90q0 89 71 141.5t183 75.5h-10l-158 358h-981l-158 -358h-165l723 1638h184l723 -1638h-39q-121 -47 -175 -93t-54 -106zM455 506h854l-426 973z" />
    <glyph glyph-name="Aring.ss01" horiz-adv-x="1763" 
d="M883 1761q-55 0 -95 39t-40 96q0 58 40 97t95 39t95 -39t40 -97q0 -57 -40 -96t-95 -39zM883 1950q-24 0 -39 -15t-15 -39t14.5 -38.5t39.5 -14.5q24 0 38.5 14.5t14.5 38.5t-14.5 39t-38.5 15zM1530 0l-158 358h-981l-158 -358h-165l723 1638h184l723 -1638h-168z
M455 506h854l-426 973z" />
    <glyph glyph-name="Atilde.ss01" horiz-adv-x="1763" 
d="M760 1909q-68 0 -68 -123h-102q0 205 164 205q44 0 77.5 -15t53.5 -37t37 -44t37.5 -37t44.5 -15q67 0 67 123h103q0 -205 -164 -205q-44 0 -77.5 15t-53.5 37t-37 44t-37.5 37t-44.5 15zM1530 0l-158 358h-981l-158 -358h-165l723 1638h184l723 -1638h-168zM455 506h854
l-426 973z" />
    <glyph glyph-name="B.ss01" horiz-adv-x="1619" 
d="M1278 864q276 -88 276 -411q0 -228 -146 -340.5t-398 -112.5h-942v1638h886q119 0 212 -23.5t163 -73t107 -133t37 -196.5q0 -253 -195 -348zM221 1491v-573h713q43 0 78 2t76.5 9t73 18t62.5 31t51 47.5t32 67t12 89.5q0 94 -25 156t-76.5 95t-114.5 45.5t-155 12.5
h-727zM1010 150q191 0 291 72.5t100 240.5q0 76 -19.5 131.5t-53 89t-87 53t-111 26.5t-135.5 7h-774v-620h789z" />
    <glyph glyph-name="C.ss01" horiz-adv-x="1669" 
d="M68 821q0 172 49.5 322t144 266t245.5 183t341 67q170 0 310.5 -54t234 -148t148 -217.5t63.5 -264.5h-158q-7 117 -50 215t-117.5 169.5t-185 111.5t-245.5 40q-157 0 -278.5 -52.5t-197 -146.5t-113.5 -218t-38 -273q0 -150 38 -274.5t113.5 -218.5t197 -146.5
t278.5 -52.5q270 0 428 149.5t170 389.5h158q-9 -142 -63 -266t-147.5 -218.5t-234.5 -149t-311 -54.5q-153 0 -281 43.5t-219.5 121t-155 183.5t-94 230.5t-30.5 262.5z" />
    <glyph glyph-name="Cacute.ss01" horiz-adv-x="1669" 
d="M543 1839l563 152l20 -80l-563 -150zM68 821q0 172 49.5 322t144 266t245.5 183t341 67q170 0 310.5 -54t234 -148t148 -217.5t63.5 -264.5h-158q-7 117 -50 215t-117.5 169.5t-185 111.5t-245.5 40q-157 0 -278.5 -52.5t-197 -146.5t-113.5 -218t-38 -273
q0 -150 38 -274.5t113.5 -218.5t197 -146.5t278.5 -52.5q270 0 428 149.5t170 389.5h158q-9 -142 -63 -266t-147.5 -218.5t-234.5 -149t-311 -54.5q-153 0 -281 43.5t-219.5 121t-155 183.5t-94 230.5t-30.5 262.5z" />
    <glyph glyph-name="Ccaron.ss01" horiz-adv-x="1669" 
d="M766 1761l-223 230h133l162 -168l155 168h133l-217 -230h-143zM68 821q0 172 49.5 322t144 266t245.5 183t341 67q170 0 310.5 -54t234 -148t148 -217.5t63.5 -264.5h-158q-7 117 -50 215t-117.5 169.5t-185 111.5t-245.5 40q-157 0 -278.5 -52.5t-197 -146.5
t-113.5 -218t-38 -273q0 -150 38 -274.5t113.5 -218.5t197 -146.5t278.5 -52.5q270 0 428 149.5t170 389.5h158q-9 -142 -63 -266t-147.5 -218.5t-234.5 -149t-311 -54.5q-153 0 -281 43.5t-219.5 121t-155 183.5t-94 230.5t-30.5 262.5z" />
    <glyph glyph-name="Ccedilla.ss01" horiz-adv-x="1669" 
d="M848 129q270 0 428 149.5t170 389.5h158q-9 -138 -61 -259.5t-141 -215t-223 -150.5t-296 -63l-29 -117q227 37 227 -123q0 -34 -14 -60.5t-33.5 -43.5t-54 -29t-62 -18t-72 -9t-68 -3.5t-66.5 -0.5l2 82q147 0 206.5 15.5t59.5 66.5q0 52 -56.5 62t-168.5 -9l28 189
q-175 11 -313 82.5t-224.5 186t-131.5 259.5t-45 311q0 172 49.5 322t144 266t245.5 183t341 67q170 0 310.5 -54t234 -148t148 -217.5t63.5 -264.5h-158q-7 117 -50 215t-117.5 169.5t-185 111.5t-245.5 40q-157 0 -278.5 -52.5t-197 -146.5t-113.5 -218t-38 -273
q0 -150 38 -274.5t113.5 -218.5t197 -146.5t278.5 -52.5z" />
    <glyph glyph-name="Cdotaccent.ss01" horiz-adv-x="1669" 
d="M836 1800q-33 0 -56.5 21.5t-23.5 54.5q0 38 23 60t57 22q33 0 56 -22t23 -60q0 -33 -23.5 -54.5t-55.5 -21.5zM68 821q0 172 49.5 322t144 266t245.5 183t341 67q170 0 310.5 -54t234 -148t148 -217.5t63.5 -264.5h-158q-7 117 -50 215t-117.5 169.5t-185 111.5
t-245.5 40q-157 0 -278.5 -52.5t-197 -146.5t-113.5 -218t-38 -273q0 -150 38 -274.5t113.5 -218.5t197 -146.5t278.5 -52.5q270 0 428 149.5t170 389.5h158q-9 -142 -63 -266t-147.5 -218.5t-234.5 -149t-311 -54.5q-153 0 -281 43.5t-219.5 121t-155 183.5t-94 230.5
t-30.5 262.5z" />
    <glyph glyph-name="D.ss01" horiz-adv-x="1630" 
d="M805 1638q139 0 251.5 -24t209 -80.5t161.5 -145.5t101.5 -224t36.5 -310v-70q0 -174 -36.5 -308.5t-101.5 -223.5t-161 -146t-209 -81.5t-252 -24.5h-737v1638h737zM821 150q297 0 443.5 151.5t146.5 482.5v70q0 331 -146.5 484t-443.5 153h-600v-1341h600z" />
    <glyph glyph-name="Eth.ss01" horiz-adv-x="1748" 
d="M924 1638q139 0 251.5 -24t209 -80.5t161 -145.5t101 -224t36.5 -310v-70q0 -174 -36.5 -308.5t-101 -223.5t-161 -146t-209 -81.5t-251.5 -24.5h-738v778h-186v82h186v778h738zM940 150q297 0 443.5 151.5t146.5 482.5v70q0 331 -146.5 484t-443.5 153h-600v-631h592
v-82h-592v-628h600z" />
    <glyph glyph-name="Dcaron.ss01" horiz-adv-x="1630" 
d="M889 1761h-144l-223 230h133l162 -168l156 168h133zM805 1638q139 0 251.5 -24t209 -80.5t161.5 -145.5t101.5 -224t36.5 -310v-70q0 -174 -36.5 -308.5t-101.5 -223.5t-161 -146t-209 -81.5t-252 -24.5h-737v1638h737zM821 150q297 0 443.5 151.5t146.5 482.5v70
q0 331 -146.5 484t-443.5 153h-600v-1341h600z" />
    <glyph glyph-name="Dcroat.ss01" horiz-adv-x="1748" 
d="M924 1638q139 0 251.5 -24t209 -80.5t161 -145.5t101 -224t36.5 -310v-70q0 -174 -36.5 -308.5t-101 -223.5t-161 -146t-209 -81.5t-251.5 -24.5h-738v778h-186v82h186v778h738zM940 150q297 0 443.5 151.5t146.5 482.5v70q0 331 -146.5 484t-443.5 153h-600v-631h592
v-82h-592v-628h600z" />
    <glyph glyph-name="E.ss01" horiz-adv-x="1249" 
d="M1184 1491h-963v-598h963v-148h-963v-595h963v-150h-1116v1638h1116v-147z" />
    <glyph glyph-name="Eacute.ss01" horiz-adv-x="1249" 
d="M915 1911l-563 -150l-20 78l563 152zM1184 1491h-963v-598h963v-148h-963v-595h963v-150h-1116v1638h1116v-147z" />
    <glyph glyph-name="Ecaron.ss01" horiz-adv-x="1249" 
d="M698 1761h-143l-223 230h133l162 -168l155 168h133zM1184 1491h-963v-598h963v-148h-963v-595h963v-150h-1116v1638h1116v-147z" />
    <glyph glyph-name="Ecircumflex.ss01" horiz-adv-x="1249" 
d="M627 1929l-162 -168h-133l223 230h143l217 -230h-133zM1184 1491h-963v-598h963v-148h-963v-595h963v-150h-1116v1638h1116v-147z" />
    <glyph glyph-name="Edieresis.ss01" horiz-adv-x="1249" 
d="M453 1800q-33 0 -56.5 21.5t-23.5 54.5q0 38 23 60t57 22q33 0 56 -22t23 -60q0 -33 -23.5 -54.5t-55.5 -21.5zM795 1800q-33 0 -55.5 21.5t-22.5 54.5q0 38 22 60t56 22q33 0 56 -22t23 -60q0 -33 -23.5 -54.5t-55.5 -21.5zM1184 1491h-963v-598h963v-148h-963v-595h963
v-150h-1116v1638h1116v-147z" />
    <glyph glyph-name="Edotaccent.ss01" horiz-adv-x="1249" 
d="M625 1800q-33 0 -56.5 21.5t-23.5 54.5q0 38 23 60t57 22q33 0 56.5 -22t23.5 -60q0 -33 -24 -54.5t-56 -21.5zM1184 1491h-963v-598h963v-148h-963v-595h963v-150h-1116v1638h1116v-147z" />
    <glyph glyph-name="Egrave.ss01" horiz-adv-x="1249" 
d="M915 1839l-20 -78l-563 150l20 80zM1184 1491h-963v-598h963v-148h-963v-595h963v-150h-1116v1638h1116v-147z" />
    <glyph glyph-name="Emacron.ss01" horiz-adv-x="1249" 
d="M915 1917v-82h-583v82h583zM1184 1491h-963v-598h963v-148h-963v-595h963v-150h-1116v1638h1116v-147z" />
    <glyph glyph-name="Eogonek.ss01" horiz-adv-x="1249" 
d="M930 -199q0 -65 59.5 -99t206.5 -38l-82 -82q-49 0 -89 3.5t-86.5 15.5t-78 33t-53 59t-21.5 90q0 89 71 141.5t183 75.5h-972v1638h1116v-147h-963v-598h963v-148h-963v-595h963v-150h-25q-121 -47 -175 -93t-54 -106z" />
    <glyph glyph-name="F.ss01" horiz-adv-x="1249" 
d="M1184 1491h-963v-680h963v-147h-963v-664h-153v1638h1116v-147z" />
    <glyph glyph-name="G.ss01" horiz-adv-x="1669" 
d="M649 641v150h955v-791h-113l-21 330q-96 -160 -260 -255t-383 -95q-183 0 -329.5 67t-239 182.5t-141.5 266.5t-49 325q0 172 49.5 322t144 266t245.5 183t341 67q170 0 310.5 -54t234 -148t148 -217.5t63.5 -264.5h-158q-7 117 -50 215t-117.5 169.5t-185 111.5
t-245.5 40q-157 0 -278.5 -52.5t-197 -146.5t-113.5 -218t-38 -273q0 -150 38 -274.5t113.5 -218.5t197 -146.5t278.5 -52.5q243 0 406 143t190 369h-795z" />
    <glyph glyph-name="Gbreve.ss01" horiz-adv-x="1669" 
d="M838 1761q-57 0 -107 11.5t-93.5 36.5t-69 71.5t-25.5 110.5h102q0 -41 19 -72t49.5 -46.5t61.5 -22.5t63 -7t62 7t59 22.5t47 46t18 72.5h102q0 -64 -24.5 -110.5t-66.5 -71.5t-91 -36.5t-106 -11.5zM649 641v150h955v-791h-113l-21 330q-96 -160 -260 -255t-383 -95
q-183 0 -329.5 67t-239 182.5t-141.5 266.5t-49 325q0 172 49.5 322t144 266t245.5 183t341 67q170 0 310.5 -54t234 -148t148 -217.5t63.5 -264.5h-158q-7 117 -50 215t-117.5 169.5t-185 111.5t-245.5 40q-157 0 -278.5 -52.5t-197 -146.5t-113.5 -218t-38 -273
q0 -150 38 -274.5t113.5 -218.5t197 -146.5t278.5 -52.5q243 0 406 143t190 369h-795z" />
    <glyph glyph-name="Gcommaaccent.ss01" horiz-adv-x="1669" 
d="M649 641v150h955v-791h-113l-21 330q-96 -160 -260 -255t-383 -95q-183 0 -329.5 67t-239 182.5t-141.5 266.5t-49 325q0 172 49.5 322t144 266t245.5 183t341 67q170 0 310.5 -54t234 -148t148 -217.5t63.5 -264.5h-158q-7 117 -50 215t-117.5 169.5t-185 111.5
t-245.5 40q-157 0 -278.5 -52.5t-197 -146.5t-113.5 -218t-38 -273q0 -150 38 -274.5t113.5 -218.5t197 -146.5t278.5 -52.5q243 0 406 143t190 369h-795zM836 -102q40 0 67 -27t27 -78q0 -164 -164 -244v91q61 28 72 79q-44 -7 -71.5 16.5t-27.5 65.5q0 41 28 69t69 28z
" />
    <glyph glyph-name="Gdotaccent.ss01" horiz-adv-x="1669" 
d="M836 1800q-33 0 -56.5 21.5t-23.5 54.5q0 38 23 60t57 22q33 0 56 -22t23 -60q0 -33 -23.5 -54.5t-55.5 -21.5zM649 641v150h955v-791h-113l-21 330q-96 -160 -260 -255t-383 -95q-183 0 -329.5 67t-239 182.5t-141.5 266.5t-49 325q0 172 49.5 322t144 266t245.5 183
t341 67q170 0 310.5 -54t234 -148t148 -217.5t63.5 -264.5h-158q-7 117 -50 215t-117.5 169.5t-185 111.5t-245.5 40q-157 0 -278.5 -52.5t-197 -146.5t-113.5 -218t-38 -273q0 -150 38 -274.5t113.5 -218.5t197 -146.5t278.5 -52.5q243 0 406 143t190 369h-795z" />
    <glyph glyph-name="H.ss01" horiz-adv-x="1603" 
d="M1384 1638h154v-1638h-154v745h-1163v-745h-153v1638h153v-745h1163v745z" />
    <glyph glyph-name="Hbar.ss01" horiz-adv-x="1849" 
d="M1849 1413v-82h-188v-1331h-154v745h-1163v-745h-154v1331h-190v82h190v225h154v-225h1163v225h154v-225h188zM1507 893v438h-1163v-438h1163z" />
    <glyph glyph-name="I.ss01" horiz-adv-x="1167" 
d="M1102 1491h-440v-1341h440v-150h-1034v150h440v1341h-440v147h1034v-147z" />
    <glyph glyph-name="Iacute.ss01" horiz-adv-x="1167" 
d="M874 1911l-563 -150l-20 78l563 152zM1102 1491h-440v-1341h440v-150h-1034v150h440v1341h-440v147h1034v-147z" />
    <glyph glyph-name="Icircumflex.ss01" horiz-adv-x="1167" 
d="M586 1929l-162 -168h-133l223 230h143l217 -230h-133zM1102 1491h-440v-1341h440v-150h-1034v150h440v1341h-440v147h1034v-147z" />
    <glyph glyph-name="Idieresis.ss01" horiz-adv-x="1167" 
d="M412 1800q-33 0 -56.5 21.5t-23.5 54.5q0 38 23 60t57 22q33 0 56.5 -22t23.5 -60q0 -33 -24 -54.5t-56 -21.5zM754 1800q-33 0 -55.5 21.5t-22.5 54.5q0 38 22 60t56 22q33 0 56.5 -22t23.5 -60q0 -33 -24 -54.5t-56 -21.5zM1102 1491h-440v-1341h440v-150h-1034v150
h440v1341h-440v147h1034v-147z" />
    <glyph glyph-name="Idotaccent.ss01" horiz-adv-x="1167" 
d="M584 1800q-33 0 -56.5 21.5t-23.5 54.5q0 38 23 60t57 22q33 0 56.5 -22t23.5 -60q0 -33 -24 -54.5t-56 -21.5zM1102 1491h-440v-1341h440v-150h-1034v150h440v1341h-440v147h1034v-147z" />
    <glyph glyph-name="Igrave.ss01" horiz-adv-x="1167" 
d="M874 1839l-20 -78l-563 150l20 80zM1102 1491h-440v-1341h440v-150h-1034v150h440v1341h-440v147h1034v-147z" />
    <glyph glyph-name="Imacron.ss01" horiz-adv-x="1167" 
d="M874 1917v-82h-583v82h583zM1102 1491h-440v-1341h440v-150h-1034v150h440v1341h-440v147h1034v-147z" />
    <glyph glyph-name="Iogonek.ss01" horiz-adv-x="1167" 
d="M856 -205q0 -65 59.5 -99t206.5 -38l-82 -82q-40 0 -73.5 2.5t-73.5 9.5t-70 21.5t-56 35.5t-40 55t-14 77q0 50 24 90t66.5 65.5t90.5 42t105 25.5h-931v150h440v1341h-440v147h1034v-147h-440v-1341h440v-150q-130 -48 -188 -95.5t-58 -109.5z" />
    <glyph glyph-name="J.ss01" horiz-adv-x="1622" 
d="M1556 1638v-987q0 -356 -173.5 -513.5t-571.5 -157.5q-397 0 -570 157.5t-173 513.5v101h153v-101q0 -106 16 -186.5t50.5 -138t81.5 -96t116 -61t146.5 -31.5t179.5 -9t180 9t147 31.5t116 61t82 96t51 138t16 186.5v987h153z" />
    <glyph glyph-name="K.ss01" horiz-adv-x="1630" 
d="M1565 1638l-1024 -819l1024 -819h-240l-926 745h-178v-745h-153v1638h153v-745h178l926 745h240z" />
    <glyph glyph-name="Kcommaaccent.ss01" horiz-adv-x="1630" 
d="M1565 1638l-1024 -819l1024 -819h-240l-926 745h-178v-745h-153v1638h153v-745h178l926 745h240zM696 -102q40 0 67.5 -27t27.5 -78q0 -164 -164 -244v91q60 28 71 79q-43 -7 -70.5 16.5t-27.5 65.5q0 41 27.5 69t68.5 28z" />
    <glyph glyph-name="L.ss01" horiz-adv-x="1249" 
d="M221 150h963v-150h-1116v1638h153v-1488z" />
    <glyph glyph-name="Lacute.ss01" horiz-adv-x="1249" 
d="M414 1991l20 -80l-563 -150l-21 78zM221 150h963v-150h-1116v1638h153v-1488z" />
    <glyph glyph-name="Lcaron.ss01" horiz-adv-x="1249" 
d="M217 1761h-143l-224 230h134l161 -168l156 168h133zM221 150h963v-150h-1116v1638h153v-1488z" />
    <glyph glyph-name="Lcommaaccent.ss01" horiz-adv-x="1249" 
d="M221 150h963v-150h-1116v1638h153v-1488zM625 -102q40 0 67 -27t27 -78q0 -164 -164 -244v91q61 28 72 79q-44 -7 -71.5 16.5t-27.5 65.5q0 41 28 69t69 28z" />
    <glyph glyph-name="Lslash.ss01" horiz-adv-x="1372" 
d="M344 150h963v-150h-1117v840l-190 -117v115l190 116v684h154v-587l363 223v-115l-363 -223v-786z" />
    <glyph glyph-name="M.ss01" horiz-adv-x="2105" 
d="M1886 1638h154v-1638h-154v1339l-776 -1339h-113l-776 1339v-1339h-153v1638h153l832 -1437z" />
    <glyph glyph-name="N.ss01" horiz-adv-x="1839" 
d="M1620 1638h154v-1638h-154l-1399 1423v-1423h-153v1638h153l1399 -1423v1423z" />
    <glyph glyph-name="Nacute.ss01" horiz-adv-x="1839" 
d="M1210 1911l-563 -150l-20 78l563 152zM1620 1638h154v-1638h-154l-1399 1423v-1423h-153v1638h153l1399 -1423v1423z" />
    <glyph glyph-name="Ncaron.ss01" horiz-adv-x="1839" 
d="M993 1761h-143l-223 230h133l162 -168l155 168h133zM1620 1638h154v-1638h-154l-1399 1423v-1423h-153v1638h153l1399 -1423v1423z" />
    <glyph glyph-name="Ncommaaccent.ss01" horiz-adv-x="1839" 
d="M1620 1638h154v-1638h-154l-1399 1423v-1423h-153v1638h153l1399 -1423v1423zM920 -102q40 0 67 -27t27 -78q0 -164 -164 -244v91q61 28 72 79q-44 -7 -71.5 16.5t-27.5 65.5q0 41 28 69t69 28z" />
    <glyph glyph-name="Ntilde.ss01" horiz-adv-x="1839" 
d="M797 1909q-68 0 -68 -123h-102q0 205 164 205q44 0 77.5 -15t53.5 -37t36.5 -44t37 -37t44.5 -15q68 0 68 123h102q0 -205 -163 -205q-44 0 -77.5 15t-53.5 37t-37 44t-37.5 37t-44.5 15zM1620 1638h154v-1638h-154l-1399 1423v-1423h-153v1638h153l1399 -1423v1423z" />
    <glyph glyph-name="O.ss01" horiz-adv-x="1720" 
d="M862 -20q-144 0 -271 43.5t-221.5 121t-163 182.5t-103.5 231t-35 263q0 136 35 261t103.5 230t163 182.5t221.5 121t271 43.5q184 0 335.5 -67t250.5 -182t153 -266.5t54 -322.5q0 -172 -54 -324.5t-153 -267.5t-250.5 -182t-335.5 -67zM862 129q194 0 340 89
t222.5 245.5t76.5 357.5q0 199 -76.5 355t-222.5 245.5t-340 89.5q-188 0 -335 -89t-226.5 -246t-79.5 -355q0 -150 46.5 -278t130 -219.5t203.5 -143t261 -51.5z" />
    <glyph glyph-name="Oacute.ss01" horiz-adv-x="1720" 
d="M567 1839l563 152l21 -80l-563 -150zM862 -20q-144 0 -271 43.5t-221.5 121t-163 182.5t-103.5 231t-35 263q0 136 35 261t103.5 230t163 182.5t221.5 121t271 43.5q184 0 335.5 -67t250.5 -182t153 -266.5t54 -322.5q0 -172 -54 -324.5t-153 -267.5t-250.5 -182
t-335.5 -67zM862 129q194 0 340 89t222.5 245.5t76.5 357.5q0 199 -76.5 355t-222.5 245.5t-340 89.5q-188 0 -335 -89t-226.5 -246t-79.5 -355q0 -150 46.5 -278t130 -219.5t203.5 -143t261 -51.5z" />
    <glyph glyph-name="Ocircumflex.ss01" horiz-adv-x="1720" 
d="M791 1991h143l217 -230h-133l-156 168l-162 -168h-133zM862 -20q-144 0 -271 43.5t-221.5 121t-163 182.5t-103.5 231t-35 263q0 136 35 261t103.5 230t163 182.5t221.5 121t271 43.5q184 0 335.5 -67t250.5 -182t153 -266.5t54 -322.5q0 -172 -54 -324.5t-153 -267.5
t-250.5 -182t-335.5 -67zM862 129q194 0 340 89t222.5 245.5t76.5 357.5q0 199 -76.5 355t-222.5 245.5t-340 89.5q-188 0 -335 -89t-226.5 -246t-79.5 -355q0 -150 46.5 -278t130 -219.5t203.5 -143t261 -51.5z" />
    <glyph glyph-name="Odieresis.ss01" horiz-adv-x="1720" 
d="M688 1800q-33 0 -56.5 21.5t-23.5 54.5q0 38 23 60t57 22q33 0 56.5 -22t23.5 -60q0 -33 -24 -54.5t-56 -21.5zM1030 1800q-33 0 -55.5 21.5t-22.5 54.5q0 38 22 60t56 22q33 0 56.5 -22t23.5 -60q0 -33 -24 -54.5t-56 -21.5zM862 -20q-144 0 -271 43.5t-221.5 121
t-163 182.5t-103.5 231t-35 263q0 136 35 261t103.5 230t163 182.5t221.5 121t271 43.5q184 0 335.5 -67t250.5 -182t153 -266.5t54 -322.5q0 -172 -54 -324.5t-153 -267.5t-250.5 -182t-335.5 -67zM862 129q194 0 340 89t222.5 245.5t76.5 357.5q0 199 -76.5 355
t-222.5 245.5t-340 89.5q-188 0 -335 -89t-226.5 -246t-79.5 -355q0 -150 46.5 -278t130 -219.5t203.5 -143t261 -51.5z" />
    <glyph glyph-name="Ograve.ss01" horiz-adv-x="1720" 
d="M1151 1839l-21 -78l-563 150l21 80zM862 -20q-144 0 -271 43.5t-221.5 121t-163 182.5t-103.5 231t-35 263q0 136 35 261t103.5 230t163 182.5t221.5 121t271 43.5q184 0 335.5 -67t250.5 -182t153 -266.5t54 -322.5q0 -172 -54 -324.5t-153 -267.5t-250.5 -182
t-335.5 -67zM862 129q194 0 340 89t222.5 245.5t76.5 357.5q0 199 -76.5 355t-222.5 245.5t-340 89.5q-188 0 -335 -89t-226.5 -246t-79.5 -355q0 -150 46.5 -278t130 -219.5t203.5 -143t261 -51.5z" />
    <glyph glyph-name="Ohungarumlaut.ss01" horiz-adv-x="1720" 
d="M805 1761h-143l235 230h123zM1030 1761h-143l235 230h123zM862 -20q-144 0 -271 43.5t-221.5 121t-163 182.5t-103.5 231t-35 263q0 136 35 261t103.5 230t163 182.5t221.5 121t271 43.5q184 0 335.5 -67t250.5 -182t153 -266.5t54 -322.5q0 -172 -54 -324.5t-153 -267.5
t-250.5 -182t-335.5 -67zM862 129q194 0 340 89t222.5 245.5t76.5 357.5q0 199 -76.5 355t-222.5 245.5t-340 89.5q-188 0 -335 -89t-226.5 -246t-79.5 -355q0 -150 46.5 -278t130 -219.5t203.5 -143t261 -51.5z" />
    <glyph glyph-name="Omacron.ss01" horiz-adv-x="1720" 
d="M567 1917h584v-82h-584v82zM862 -20q-144 0 -271 43.5t-221.5 121t-163 182.5t-103.5 231t-35 263q0 136 35 261t103.5 230t163 182.5t221.5 121t271 43.5q184 0 335.5 -67t250.5 -182t153 -266.5t54 -322.5q0 -172 -54 -324.5t-153 -267.5t-250.5 -182t-335.5 -67z
M862 129q194 0 340 89t222.5 245.5t76.5 357.5q0 199 -76.5 355t-222.5 245.5t-340 89.5q-188 0 -335 -89t-226.5 -246t-79.5 -355q0 -150 46.5 -278t130 -219.5t203.5 -143t261 -51.5z" />
    <glyph glyph-name="Oslash.ss01" horiz-adv-x="1720" 
d="M1233 1575q201 -101 311.5 -303t110.5 -451q0 -172 -54 -324.5t-153 -267.5t-250.5 -182t-335.5 -67q-102 0 -198 22l-9 -22h-108l18 53q-232 90 -364.5 303.5t-132.5 484.5q0 136 35 261t103.5 230t163 182.5t221.5 121t271 43.5q146 0 277 -43l16 43h109zM221 821
q0 -231 105.5 -403t289.5 -244l474 1301q-101 36 -228 36q-188 0 -335 -89t-226.5 -246t-79.5 -355zM862 129q194 0 340 89t222.5 245.5t76.5 357.5q0 207 -83.5 367.5t-235.5 245.5l-467 -1291q82 -14 147 -14z" />
    <glyph glyph-name="Otilde.ss01" horiz-adv-x="1720" 
d="M567 1786q0 205 164 205q44 0 77.5 -15t53.5 -37t37 -44t37.5 -37t44.5 -15q68 0 68 123h102q0 -205 -164 -205q-44 0 -77.5 15t-53.5 37t-37 44t-37.5 37t-44.5 15q-67 0 -67 -123h-103zM862 -20q-144 0 -271 43.5t-221.5 121t-163 182.5t-103.5 231t-35 263
q0 136 35 261t103.5 230t163 182.5t221.5 121t271 43.5q184 0 335.5 -67t250.5 -182t153 -266.5t54 -322.5q0 -172 -54 -324.5t-153 -267.5t-250.5 -182t-335.5 -67zM862 129q194 0 340 89t222.5 245.5t76.5 357.5q0 199 -76.5 355t-222.5 245.5t-340 89.5q-188 0 -335 -89
t-226.5 -246t-79.5 -355q0 -150 46.5 -278t130 -219.5t203.5 -143t261 -51.5z" />
    <glyph glyph-name="P.ss01" horiz-adv-x="1630" 
d="M989 1638q292 0 434 -127.5t142 -420.5q0 -148 -36.5 -253t-111 -170t-179 -95.5t-249.5 -32.5h-768v-539h-153v1638h921zM989 688q106 0 178 16t130 58.5t86 123.5t28 204q0 122 -28 203t-86 123.5t-130 58.5t-178 16h-768v-803h768z" />
    <glyph glyph-name="Q.ss01" horiz-adv-x="1720" 
d="M1655 821q0 -156 -44.5 -297t-127.5 -252.5t-209 -186.5t-281 -97q213 -26 363 -121v-172q-125 86 -261 121.5t-294 40.5v125q-167 11 -306 82.5t-232 184.5t-144 260.5t-51 311.5q0 136 35 261t103.5 230t163 182.5t221.5 121t271 43.5q184 0 335.5 -67t250.5 -182
t153 -266.5t54 -322.5zM862 129q194 0 340 89t222.5 245.5t76.5 357.5q0 199 -76.5 355t-222.5 245.5t-340 89.5q-188 0 -335 -89t-226.5 -246t-79.5 -355q0 -150 46.5 -278t130 -219.5t203.5 -143t261 -51.5z" />
    <glyph glyph-name="R.ss01" horiz-adv-x="1511" 
d="M1444 145q0 -117 22 -145h-153q-23 29 -23 145v117q0 55 -9 100t-24.5 80t-42.5 62t-56.5 46t-73 32.5t-85.5 21.5t-101 12t-111.5 5.5t-124.5 1.5h-441v-623h-153v1638h798q289 0 432.5 -121.5t143.5 -386.5q0 -184 -64 -291.5t-190 -158.5q128 -47 192 -147t64 -271
v-117zM221 772h600h4q73 0 109 1t95.5 7.5t88.5 19.5t68 39t57 63.5t31.5 95t13.5 132.5q0 86 -19 149.5t-53.5 104t-88.5 64.5t-116 33.5t-145 9.5h-645v-719z" />
    <glyph glyph-name="Racute.ss01" horiz-adv-x="1511" 
d="M1047 1911l-564 -150l-20 78l563 152zM1444 145q0 -117 22 -145h-153q-23 29 -23 145v117q0 55 -9 100t-24.5 80t-42.5 62t-56.5 46t-73 32.5t-85.5 21.5t-101 12t-111.5 5.5t-124.5 1.5h-441v-623h-153v1638h798q289 0 432.5 -121.5t143.5 -386.5q0 -184 -64 -291.5
t-190 -158.5q128 -47 192 -147t64 -271v-117zM221 772h600h4q73 0 109 1t95.5 7.5t88.5 19.5t68 39t57 63.5t31.5 95t13.5 132.5q0 86 -19 149.5t-53.5 104t-88.5 64.5t-116 33.5t-145 9.5h-645v-719z" />
    <glyph glyph-name="Rcaron.ss01" horiz-adv-x="1511" 
d="M829 1761h-143l-223 230h133l162 -168l155 168h134zM1444 145q0 -117 22 -145h-153q-23 29 -23 145v117q0 55 -9 100t-24.5 80t-42.5 62t-56.5 46t-73 32.5t-85.5 21.5t-101 12t-111.5 5.5t-124.5 1.5h-441v-623h-153v1638h798q289 0 432.5 -121.5t143.5 -386.5
q0 -184 -64 -291.5t-190 -158.5q128 -47 192 -147t64 -271v-117zM221 772h600h4q73 0 109 1t95.5 7.5t88.5 19.5t68 39t57 63.5t31.5 95t13.5 132.5q0 86 -19 149.5t-53.5 104t-88.5 64.5t-116 33.5t-145 9.5h-645v-719z" />
    <glyph glyph-name="Rcommaaccent.ss01" horiz-adv-x="1511" 
d="M1444 145q0 -117 22 -145h-153q-23 29 -23 145v117q0 55 -9 100t-24.5 80t-42.5 62t-56.5 46t-73 32.5t-85.5 21.5t-101 12t-111.5 5.5t-124.5 1.5h-441v-623h-153v1638h798q289 0 432.5 -121.5t143.5 -386.5q0 -184 -64 -291.5t-190 -158.5q128 -47 192 -147t64 -271
v-117zM221 772h600h4q73 0 109 1t95.5 7.5t88.5 19.5t68 39t57 63.5t31.5 95t13.5 132.5q0 86 -19 149.5t-53.5 104t-88.5 64.5t-116 33.5t-145 9.5h-645v-719zM756 -102q40 0 67 -27t27 -78q0 -164 -164 -244v91q61 28 72 79q-44 -7 -71.5 16.5t-27.5 65.5q0 41 28 69
t69 28z" />
    <glyph glyph-name="S.ss01" horiz-adv-x="1622" 
d="M803 928q283 -54 380 -82q215 -63 300 -175q73 -96 73 -249q0 -222 -161.5 -332t-513.5 -110q-252 0 -432.5 66.5t-280.5 204.5t-100 339h153q0 -228 171.5 -344.5t488.5 -116.5q192 0 308.5 33.5t165 95t48.5 158.5q0 42 -9 77t-21.5 62.5t-39 51.5t-48.5 40.5t-65 33
t-72.5 26.5t-86.5 23t-92 20t-104 20t-109 21q-111 22 -172 36t-147 40t-132.5 55t-94 72.5t-67.5 102.5t-20 134q0 206 170.5 317t499.5 111q361 0 552 -139t191 -404h-154q0 195 -147.5 295t-441.5 100q-517 0 -517 -280q0 -42 13.5 -76.5t35.5 -60t60 -47t77 -37
t97.5 -30t111 -25.5t126.5 -26q4 -1 6 -1z" />
    <glyph glyph-name="Sacute.ss01" horiz-adv-x="1622" 
d="M1102 1911l-563 -150l-21 78l563 152zM803 928q283 -54 380 -82q215 -63 300 -175q73 -96 73 -249q0 -222 -161.5 -332t-513.5 -110q-252 0 -432.5 66.5t-280.5 204.5t-100 339h153q0 -228 171.5 -344.5t488.5 -116.5q192 0 308.5 33.5t165 95t48.5 158.5q0 42 -9 77
t-21.5 62.5t-39 51.5t-48.5 40.5t-65 33t-72.5 26.5t-86.5 23t-92 20t-104 20t-109 21q-111 22 -172 36t-147 40t-132.5 55t-94 72.5t-67.5 102.5t-20 134q0 206 170.5 317t499.5 111q361 0 552 -139t191 -404h-154q0 195 -147.5 295t-441.5 100q-517 0 -517 -280
q0 -42 13.5 -76.5t35.5 -60t60 -47t77 -37t97.5 -30t111 -25.5t126.5 -26q4 -1 6 -1z" />
    <glyph glyph-name="Scaron.ss01" horiz-adv-x="1622" 
d="M885 1761h-144l-223 230h133l162 -168l156 168h133zM803 928q283 -54 380 -82q215 -63 300 -175q73 -96 73 -249q0 -222 -161.5 -332t-513.5 -110q-252 0 -432.5 66.5t-280.5 204.5t-100 339h153q0 -228 171.5 -344.5t488.5 -116.5q192 0 308.5 33.5t165 95t48.5 158.5
q0 42 -9 77t-21.5 62.5t-39 51.5t-48.5 40.5t-65 33t-72.5 26.5t-86.5 23t-92 20t-104 20t-109 21q-111 22 -172 36t-147 40t-132.5 55t-94 72.5t-67.5 102.5t-20 134q0 206 170.5 317t499.5 111q361 0 552 -139t191 -404h-154q0 195 -147.5 295t-441.5 100
q-517 0 -517 -280q0 -42 13.5 -76.5t35.5 -60t60 -47t77 -37t97.5 -30t111 -25.5t126.5 -26q4 -1 6 -1z" />
    <glyph glyph-name="Scedilla.ss01" horiz-adv-x="1622" 
d="M881 -20h-23l-29 -117q228 37 228 -123q0 -34 -14 -60.5t-33.5 -43.5t-54.5 -29t-62 -18t-72 -9t-68.5 -3.5t-66.5 -0.5l2 82q147 0 206.5 15.5t59.5 66.5q0 52 -56 62t-169 -9l29 191q-327 25 -508.5 178.5t-181.5 427.5h153q0 -228 171.5 -344.5t488.5 -116.5
q192 0 308.5 33.5t165 95t48.5 158.5q0 42 -9 77t-21.5 62.5t-39 51.5t-48.5 40.5t-65 33t-72.5 26.5t-86.5 23t-92 20t-104 20t-109 21q-111 22 -172 36t-147 40t-132.5 55t-94 72.5t-67.5 102.5t-20 134q0 206 170.5 317t499.5 111q361 0 552 -139t191 -404h-154
q0 195 -147.5 295t-441.5 100q-517 0 -517 -280q0 -42 13.5 -76.5t35.5 -60t60 -47t77 -37t97.5 -30t111 -25.5t126.5 -26q4 -1 6 -1q283 -54 380 -82q215 -63 300 -175q73 -96 73 -249q0 -222 -161.5 -332t-513.5 -110z" />
    <glyph glyph-name="Scommaaccent.ss01" horiz-adv-x="1622" 
d="M803 928q283 -54 380 -82q215 -63 300 -175q73 -96 73 -249q0 -222 -161.5 -332t-513.5 -110q-252 0 -432.5 66.5t-280.5 204.5t-100 339h153q0 -228 171.5 -344.5t488.5 -116.5q192 0 308.5 33.5t165 95t48.5 158.5q0 42 -9 77t-21.5 62.5t-39 51.5t-48.5 40.5t-65 33
t-72.5 26.5t-86.5 23t-92 20t-104 20t-109 21q-111 22 -172 36t-147 40t-132.5 55t-94 72.5t-67.5 102.5t-20 134q0 206 170.5 317t499.5 111q361 0 552 -139t191 -404h-154q0 195 -147.5 295t-441.5 100q-517 0 -517 -280q0 -42 13.5 -76.5t35.5 -60t60 -47t77 -37
t97.5 -30t111 -25.5t126.5 -26q4 -1 6 -1zM811 -102q40 0 67 -27t27 -78q0 -164 -164 -244v91q61 28 72 79q-43 -7 -70.5 16.5t-27.5 65.5q0 41 27.5 69t68.5 28z" />
    <glyph glyph-name="T.ss01" horiz-adv-x="1540" 
d="M1475 1638v-147h-627v-1491h-154v1491h-626v147h1407z" />
    <glyph glyph-name="Tbar.ss01" horiz-adv-x="1540" 
d="M1475 1491h-627v-631h428v-82h-428v-778h-154v778h-432v82h432v631h-626v147h1407v-147z" />
    <glyph glyph-name="Tcaron.ss01" horiz-adv-x="1540" 
d="M844 1761h-144l-223 230h133l162 -168l156 168h133zM1475 1638v-147h-627v-1491h-154v1491h-626v147h1407z" />
    <glyph glyph-name="uni0162.ss01" horiz-adv-x="1540" 
d="M848 0h-27l-33 -137q228 37 228 -123q0 -34 -14 -60.5t-33.5 -43.5t-54.5 -29t-62 -18t-72 -9t-68.5 -3.5t-66.5 -0.5l2 82q147 0 206.5 15.5t59.5 66.5q0 52 -56.5 62t-168.5 -9l31 207h-25v1491h-626v147h1407v-147h-627v-1491z" />
    <glyph glyph-name="uni021A.ss01" horiz-adv-x="1540" 
d="M1475 1638v-147h-627v-1491h-154v1491h-626v147h1407zM770 -102q40 0 67 -27t27 -78q0 -164 -164 -244v91q61 28 72 79q-43 -7 -70.5 16.5t-27.5 65.5q0 41 27.5 69t68.5 28z" />
    <glyph glyph-name="U.ss01" horiz-adv-x="1622" 
d="M1556 1638v-987q0 -356 -173.5 -513.5t-571.5 -157.5q-397 0 -570 157.5t-173 513.5v987h153v-987q0 -106 16 -186.5t50.5 -138t81.5 -96t116 -61t146.5 -31.5t179.5 -9t180 9t147 31.5t116 61t82 96t51 138t16 186.5v987h153z" />
    <glyph glyph-name="Uacute.ss01" horiz-adv-x="1622" 
d="M518 1839l563 152l21 -80l-563 -150zM1556 1638v-987q0 -356 -173.5 -513.5t-571.5 -157.5q-397 0 -570 157.5t-173 513.5v987h153v-987q0 -106 16 -186.5t50.5 -138t81.5 -96t116 -61t146.5 -31.5t179.5 -9t180 9t147 31.5t116 61t82 96t51 138t16 186.5v987h153z" />
    <glyph glyph-name="Ucircumflex.ss01" horiz-adv-x="1622" 
d="M741 1991h144l217 -230h-133l-156 168l-162 -168h-133zM1556 1638v-987q0 -356 -173.5 -513.5t-571.5 -157.5q-397 0 -570 157.5t-173 513.5v987h153v-987q0 -106 16 -186.5t50.5 -138t81.5 -96t116 -61t146.5 -31.5t179.5 -9t180 9t147 31.5t116 61t82 96t51 138
t16 186.5v987h153z" />
    <glyph glyph-name="Udieresis.ss01" horiz-adv-x="1622" 
d="M639 1800q-33 0 -56.5 21.5t-23.5 54.5q0 38 23 60t57 22q33 0 56.5 -22t23.5 -60q0 -33 -24 -54.5t-56 -21.5zM981 1800q-33 0 -55.5 21.5t-22.5 54.5q0 38 22 60t56 22q33 0 56.5 -22t23.5 -60q0 -33 -24 -54.5t-56 -21.5zM1556 1638v-987q0 -356 -173.5 -513.5
t-571.5 -157.5q-397 0 -570 157.5t-173 513.5v987h153v-987q0 -106 16 -186.5t50.5 -138t81.5 -96t116 -61t146.5 -31.5t179.5 -9t180 9t147 31.5t116 61t82 96t51 138t16 186.5v987h153z" />
    <glyph glyph-name="Ugrave.ss01" horiz-adv-x="1622" 
d="M1102 1839l-21 -78l-563 150l21 80zM1556 1638v-987q0 -356 -173.5 -513.5t-571.5 -157.5q-397 0 -570 157.5t-173 513.5v987h153v-987q0 -106 16 -186.5t50.5 -138t81.5 -96t116 -61t146.5 -31.5t179.5 -9t180 9t147 31.5t116 61t82 96t51 138t16 186.5v987h153z" />
    <glyph glyph-name="Uhungarumlaut.ss01" horiz-adv-x="1622" 
d="M756 1761h-144l236 230h123zM981 1761h-143l235 230h123zM1556 1638v-987q0 -356 -173.5 -513.5t-571.5 -157.5q-397 0 -570 157.5t-173 513.5v987h153v-987q0 -106 16 -186.5t50.5 -138t81.5 -96t116 -61t146.5 -31.5t179.5 -9t180 9t147 31.5t116 61t82 96t51 138
t16 186.5v987h153z" />
    <glyph glyph-name="Umacron.ss01" horiz-adv-x="1622" 
d="M518 1917h584v-82h-584v82zM1556 1638v-987q0 -356 -173.5 -513.5t-571.5 -157.5q-397 0 -570 157.5t-173 513.5v987h153v-987q0 -106 16 -186.5t50.5 -138t81.5 -96t116 -61t146.5 -31.5t179.5 -9t180 9t147 31.5t116 61t82 96t51 138t16 186.5v987h153z" />
    <glyph glyph-name="Uogonek.ss01" horiz-adv-x="1622" 
d="M1403 1638h153v-987q0 -288 -111.5 -444t-359.5 -205q-123 -46 -179 -93t-56 -108q0 -65 59.5 -99t206.5 -38l-82 -82q-40 0 -73.5 2.5t-73.5 9.5t-70 21.5t-56 35.5t-40 55t-14 77q0 135 182 199q-27 -2 -78 -2q-397 0 -570 157.5t-173 513.5v987h153v-987
q0 -106 16 -186.5t50.5 -138t81.5 -96t116 -61t146.5 -31.5t179.5 -9t180 9t147 31.5t116 61t82 96t51 138t16 186.5v987z" />
    <glyph glyph-name="Uring.ss01" horiz-adv-x="1622" 
d="M811 1761q-55 0 -95 39t-40 96q0 58 40 97t95 39t95 -39t40 -97q0 -57 -40 -96t-95 -39zM811 1843q24 0 38.5 14.5t14.5 38.5t-14.5 39t-38.5 15t-38.5 -15t-14.5 -39t14.5 -38.5t38.5 -14.5zM1556 1638v-987q0 -356 -173.5 -513.5t-571.5 -157.5q-397 0 -570 157.5
t-173 513.5v987h153v-987q0 -106 16 -186.5t50.5 -138t81.5 -96t116 -61t146.5 -31.5t179.5 -9t180 9t147 31.5t116 61t82 96t51 138t16 186.5v987h153z" />
    <glyph glyph-name="V.ss01" horiz-adv-x="1763" 
d="M1530 1638h168l-723 -1638h-184l-723 1638h165l650 -1478z" />
    <glyph glyph-name="W.ss01" horiz-adv-x="3084" 
d="M2822 1638h197l-1319 -1638h-215v1464l-1202 -1464h-215v1638h153v-1476l1213 1476h204v-1472z" />
    <glyph glyph-name="Wacute.ss01" horiz-adv-x="3084" 
d="M1833 1911l-563 -150l-21 78l563 152zM2822 1638h197l-1319 -1638h-215v1464l-1202 -1464h-215v1638h153v-1476l1213 1476h204v-1472z" />
    <glyph glyph-name="Wcircumflex.ss01" horiz-adv-x="3084" 
d="M1544 1929l-162 -168h-133l224 230h143l217 -230h-133zM2822 1638h197l-1319 -1638h-215v1464l-1202 -1464h-215v1638h153v-1476l1213 1476h204v-1472z" />
    <glyph glyph-name="Wdieresis.ss01" horiz-adv-x="3084" 
d="M1370 1800q-33 0 -56.5 21.5t-23.5 54.5q0 38 23 60t57 22q33 0 56.5 -22t23.5 -60q0 -33 -24 -54.5t-56 -21.5zM1712 1800q-33 0 -55.5 21.5t-22.5 54.5q0 38 22 60t56 22q33 0 56.5 -22t23.5 -60q0 -33 -24 -54.5t-56 -21.5zM2822 1638h197l-1319 -1638h-215v1464
l-1202 -1464h-215v1638h153v-1476l1213 1476h204v-1472z" />
    <glyph glyph-name="Wgrave.ss01" horiz-adv-x="3084" 
d="M1833 1839l-21 -78l-563 150l21 80zM2822 1638h197l-1319 -1638h-215v1464l-1202 -1464h-215v1638h153v-1476l1213 1476h204v-1472z" />
    <glyph glyph-name="X.ss01" horiz-adv-x="1875" 
d="M68 0l766 819l-766 819h206l664 -708l664 708h208l-768 -819l768 -819h-208l-664 709l-664 -709h-206z" />
    <glyph glyph-name="Y.ss01" horiz-adv-x="1875" 
d="M862 573l-794 1065h188l682 -909l682 909h190l-794 -1065v-573h-154v573z" />
    <glyph glyph-name="Yacute.ss01" horiz-adv-x="1875" 
d="M645 1839l563 152l21 -80l-563 -150zM862 573l-794 1065h188l682 -909l682 909h190l-794 -1065v-573h-154v573z" />
    <glyph glyph-name="Ycircumflex.ss01" horiz-adv-x="1875" 
d="M868 1991h144l217 -230h-133l-156 168l-162 -168h-133zM862 573l-794 1065h188l682 -909l682 909h190l-794 -1065v-573h-154v573z" />
    <glyph glyph-name="Ydieresis.ss01" horiz-adv-x="1875" 
d="M766 1800q-33 0 -56.5 21.5t-23.5 54.5q0 38 23 60t57 22q33 0 56.5 -22t23.5 -60q0 -33 -24 -54.5t-56 -21.5zM1108 1800q-33 0 -55.5 21.5t-22.5 54.5q0 38 22 60t56 22q33 0 56.5 -22t23.5 -60q0 -33 -24 -54.5t-56 -21.5zM862 573l-794 1065h188l682 -909l682 909
h190l-794 -1065v-573h-154v573z" />
    <glyph glyph-name="Ygrave.ss01" horiz-adv-x="1875" 
d="M1229 1839l-21 -78l-563 150l21 80zM862 573l-794 1065h188l682 -909l682 909h190l-794 -1065v-573h-154v573z" />
    <glyph glyph-name="Z.ss01" horiz-adv-x="1495" 
d="M1430 1638v-147l-1156 -1341h1156v-150h-1362v150l1153 1341h-1153v147h1362z" />
    <glyph glyph-name="Zacute.ss01" horiz-adv-x="1495" 
d="M1038 1911l-563 -150l-20 78l563 152zM1430 1638v-147l-1156 -1341h1156v-150h-1362v150l1153 1341h-1153v147h1362z" />
    <glyph glyph-name="Zcaron.ss01" horiz-adv-x="1495" 
d="M821 1761h-143l-223 230h133l162 -168l155 168h133zM1430 1638v-147l-1156 -1341h1156v-150h-1362v150l1153 1341h-1153v147h1362z" />
    <glyph glyph-name="Zdotaccent.ss01" horiz-adv-x="1495" 
d="M748 1800q-33 0 -56.5 21.5t-23.5 54.5q0 38 23 60t57 22q33 0 56 -22t23 -60q0 -33 -23.5 -54.5t-55.5 -21.5zM1430 1638v-147l-1156 -1341h1156v-150h-1362v150l1153 1341h-1153v147h1362z" />
    <glyph glyph-name="i.loclTRK" horiz-adv-x="286" 
d="M143 1493q-33 0 -56.5 21.5t-23.5 54.5q0 38 23 60t57 22q33 0 56.5 -22t23.5 -60q0 -33 -24 -54.5t-56 -21.5zM68 1331h153v-1331h-153v1331z" />
    <glyph glyph-name="zero.ss01" horiz-adv-x="1720" 
d="M862 1659q184 0 335.5 -67t250.5 -182t153 -266.5t54 -322.5q0 -172 -54 -324.5t-153 -267.5t-250.5 -182t-335.5 -67q-144 0 -271 43.5t-221.5 121t-163 182.5t-103.5 231t-35 263q0 136 35 261t103.5 230t163 182.5t221.5 121t271 43.5zM862 1511q-188 0 -335 -89
t-226.5 -246t-79.5 -355q0 -217 101 -395l999 899q-173 186 -459 186zM862 129q194 0 340 89t222.5 245.5t76.5 357.5q0 223 -98 393l-1000 -897q179 -188 459 -188z" />
    <glyph glyph-name="one.ss01" horiz-adv-x="1335" 
d="M745 150h525v-150h-1202v150h524v1314q-93 -103 -231.5 -155t-292.5 -52v148q158 0 281 53.5t233 179.5h163v-1488z" />
    <glyph glyph-name="two.ss01" horiz-adv-x="1601" 
d="M827 727q-117 -22 -204 -47t-152.5 -52.5t-109.5 -64.5t-72 -75.5t-42.5 -93.5t-20 -110.5t-5.5 -133.5h1315v-150h-1468v150q0 75 4.5 132.5t16 118.5t33.5 107t56.5 92.5t84 82.5t116.5 68.5t155.5 58.5t198.5 46q42 8 102.5 18.5t100 17t91.5 17t86 20t75 24t67 31
t52.5 39.5t41 50t24 62t9.5 77q0 162 -121 230.5t-403 68.5q-234 0 -365 -38t-191 -128.5t-60 -254.5h-154q0 117 22.5 204.5t76 158t142 115t220 68t309.5 23.5q154 0 271 -21t193.5 -59t125 -96t68.5 -125.5t20 -153.5q0 -228 -179 -334q-107 -64 -337 -107
q-30 -6 -92 -17q-68 -13 -101 -19z" />
    <glyph glyph-name="three.ss01" horiz-adv-x="1581" 
d="M1251 831q265 -106 265 -385q0 -466 -703 -466q-355 0 -550 131.5t-195 396.5h153q0 -379 592 -379q131 0 227.5 16t171 52t112.5 99.5t38 154.5q0 73 -27.5 129.5t-70 89.5t-100.5 53.5t-110.5 27.5t-109.5 7h-405v147h405q46 0 90 5t93.5 16.5t90 33t73.5 52t52 77
t19 103.5q0 90 -39 153t-115 99t-174 51.5t-229 15.5q-129 0 -229 -17t-183 -56.5t-127.5 -111.5t-44.5 -175h-153q0 252 186 380t551 128q711 0 711 -463q0 -139 -71.5 -229t-193.5 -136z" />
    <glyph glyph-name="four.ss01" horiz-adv-x="1540" 
d="M1475 508v-148h-322v-360h-154v360h-931v148l931 1130h154v-1130h322zM242 508h757v915z" />
    <glyph glyph-name="five.ss01" horiz-adv-x="1662" 
d="M948 1098q319 0 484 -141.5t165 -417.5q0 -177 -98.5 -304.5t-270.5 -191t-399 -63.5q-364 0 -562.5 127t-198.5 387h153q0 -365 608 -365q94 0 179 12.5t166 42.5t140 76t94.5 117.5t35.5 161.5q0 95 -28 167.5t-76 118t-119.5 74.5t-151 40t-178.5 11
q-134 0 -264 -41.5t-218 -96t-157 -120.5h-164l41 946h1391v-147h-1250l-32 -651q313 258 710 258z" />
    <glyph glyph-name="six.ss01" horiz-adv-x="1662" 
d="M907 1106q335 0 507.5 -149.5t172.5 -417.5q0 -279 -184.5 -419t-573.5 -140q-761 0 -761 614v301q1 196 43 336.5t133.5 237.5t238.5 143.5t357 46.5q348 0 519 -128t171 -360h-154q0 179 -138.5 259.5t-397.5 80.5q-153 0 -264.5 -28.5t-192.5 -92.5t-121.5 -172
t-40.5 -262v-106q92 123 270 189.5t416 66.5zM829 129q313 0 459 97t146 313q0 417 -543 417q-147 0 -266 -22t-211 -67.5t-142.5 -121t-50.5 -176.5q0 -229 148.5 -334.5t459.5 -105.5z" />
    <glyph glyph-name="seven.ss01" horiz-adv-x="1540" 
d="M68 1638h1407v-147q-136 -57 -250.5 -124t-202.5 -137t-159 -151t-121.5 -160.5t-88 -171.5t-60.5 -178t-37 -186t-19 -189t-5 -194h-153q0 130 7 239t29.5 238t59.5 236.5t101 223t151 210.5t213 185t283 159h-1155v147z" />
    <glyph glyph-name="eight.ss01" horiz-adv-x="1581" 
d="M1171 868q163 -52 254 -154t91 -257q0 -229 -183 -353t-542 -124q-357 0 -540 124t-183 353q0 302 344 411q-283 96 -283 361q0 217 164 323.5t498 106.5t498.5 -106.5t164.5 -323.5q0 -265 -283 -361zM276 1221q0 -79 36 -134.5t106.5 -86.5t160.5 -44.5t212 -13.5
t212 13.5t160 44.5t106 86.5t36 134.5q0 69 -24.5 120.5t-67 83.5t-109 51.5t-141 27t-172.5 7.5t-173 -7.5t-141.5 -27t-109 -51.5t-67 -83.5t-24.5 -120.5zM791 129q276 0 423.5 79.5t147.5 256.5q0 175 -147 252.5t-424 77.5q-108 0 -194 -11t-157.5 -35t-119 -62
t-73.5 -94t-26 -128q0 -177 147 -256.5t423 -79.5z" />
    <glyph glyph-name="nine.ss01" horiz-adv-x="1662" 
d="M834 1659q383 0 572 -156t189 -459v-301q-1 -196 -43 -336.5t-133.5 -237t-238.5 -143t-357 -46.5q-348 0 -519 128t-171 359h154q0 -179 138.5 -259.5t397.5 -80.5q153 0 264.5 28.5t192.5 92.5t121.5 172t40.5 262v106q-92 -123 -270 -189.5t-416 -66.5
q-335 0 -507.5 150t-172.5 418q0 279 184.5 419t573.5 140zM772 682q147 0 266 22t211 67.5t142.5 121t50.5 176.5q0 229 -148.5 334.5t-459.5 105.5q-314 0 -459.5 -96.5t-145.5 -312.5q0 -418 543 -418z" />
    <glyph glyph-name="ampersand.ss01" horiz-adv-x="1585" 
d="M1518 905v-147h-197v-250q0 -271 -152.5 -399.5t-468.5 -128.5q-320 0 -476 116.5t-156 349.5q0 283 260 385q-120 44 -190 133.5t-70 227.5q0 230 150 348.5t482 118.5q330 0 475.5 -125t145.5 -383h-154q0 83 -22 146t-60.5 103.5t-98 65.5t-128.5 35t-158 10
q-114 0 -199 -16t-149.5 -52.5t-97.5 -100.5t-33 -154q0 -68 27.5 -120.5t69.5 -82.5t100 -48.5t110 -25t109 -6.5h530v117h154v-117h197zM1167 508v250h-530q-57 0 -109 -6.5t-110 -26t-100 -51.5t-69.5 -88t-27.5 -129q0 -177 122.5 -252.5t356.5 -75.5q112 0 193.5 18
t145 60t96 117t32.5 184z" />
    </font>
</defs>
</svg>
