<svg width="33" height="33" viewBox="0 0 33 33" fill="none" xmlns="http://www.w3.org/2000/svg">
<path d="M27.2682 11.168H5.9349C5.19852 11.168 4.60156 11.7649 4.60156 12.5013V15.168C4.60156 15.9043 5.19852 16.5013 5.9349 16.5013H27.2682C28.0046 16.5013 28.6016 15.9043 28.6016 15.168V12.5013C28.6016 11.7649 28.0046 11.168 27.2682 11.168Z" stroke="#070707" stroke-width="2.66667" stroke-linecap="round" stroke-linejoin="round"/>
<path d="M16.6016 11.168V28.5013" stroke="#070707" stroke-width="2.66667" stroke-linecap="round" stroke-linejoin="round"/>
<path d="M25.9323 16.5V25.8333C25.9323 26.5406 25.6513 27.2189 25.1512 27.719C24.6511 28.219 23.9729 28.5 23.2656 28.5H9.93229C9.22505 28.5 8.54677 28.219 8.04667 27.719C7.54658 27.2189 7.26563 26.5406 7.26562 25.8333V16.5" stroke="#070707" stroke-width="2.66667" stroke-linecap="round" stroke-linejoin="round"/>
<path d="M10.599 11.1672C9.7149 11.1672 8.86706 10.8161 8.24194 10.1909C7.61681 9.56582 7.26563 8.71797 7.26562 7.83392C7.26563 6.94986 7.61681 6.10202 8.24194 5.47689C8.86706 4.85177 9.7149 4.50058 10.599 4.50058C11.8852 4.47817 13.1457 5.10226 14.2159 6.29146C15.2862 7.48067 16.1167 9.17979 16.599 11.1672C17.0813 9.17979 17.9117 7.48067 18.982 6.29146C20.0523 5.10226 21.3127 4.47817 22.599 4.50058C23.483 4.50058 24.3309 4.85177 24.956 5.47689C25.5811 6.10202 25.9323 6.94986 25.9323 7.83392C25.9323 8.71797 25.5811 9.56582 24.956 10.1909C24.3309 10.8161 23.483 11.1672 22.599 11.1672" stroke="#070707" stroke-width="2.66667" stroke-linecap="round" stroke-linejoin="round"/>
</svg>
