<svg width="39" height="26" viewBox="0 0 39 26" fill="none" xmlns="http://www.w3.org/2000/svg">
<path d="M19.125 0C8.57959 0 0 8.57959 0 19.125V20.625C0 21.2461 0.50391 21.75 1.125 21.75H7.125C7.74609 21.75 8.25 21.2461 8.25 20.625V19.125C8.25 13.1287 13.1279 8.25 19.125 8.25C25.1221 8.25 30 13.1287 30 19.125V20.625C30 21.2461 30.5039 21.75 31.125 21.75H37.125C37.7461 21.75 38.25 21.2461 38.25 20.625V19.125C38.25 8.57959 29.6704 0 19.125 0ZM6 19.125V19.5H2.25V19.125C2.25 15.2594 3.57056 11.7041 5.76536 8.85563L8.43988 11.5306C6.90985 13.677 6 16.2942 6 19.125ZM9.89612 9.80511L7.24613 7.15474C10.0476 4.37437 13.8197 2.58471 18 2.30694V6.05703C14.8525 6.32603 12.0183 7.70343 9.89612 9.80511ZM20.25 6.05703V2.30694C24.4303 2.58471 28.2024 4.37439 31.0039 7.15474L28.3539 9.80511C26.2317 7.70343 23.3975 6.32603 20.25 6.05703ZM36 19.5H32.25V19.125C32.25 16.2942 31.3401 13.677 29.8101 11.5306L32.4846 8.85552C34.6794 11.704 36 15.2594 36 19.125V19.5Z" fill="black"/>
<path d="M20.1895 12.1574L19.0232 16.806C18.0132 16.8393 17.0125 17.2299 16.2431 17.9993C14.6345 19.6079 14.6345 22.2244 16.2431 23.833C17.8517 25.4416 20.4682 25.4416 22.0768 23.833C23.6853 22.2244 23.6853 19.6079 22.0768 17.9993C21.8129 17.7355 21.5155 17.5312 21.2064 17.3539L22.373 12.7043C22.5232 12.1025 22.1581 11.4909 21.5552 11.3396C20.9524 11.1884 20.3433 11.553 20.1895 12.1574ZM20.4858 22.242C19.7545 22.9732 18.5654 22.9732 17.8341 22.242C17.1028 21.5107 17.1028 20.3216 17.8341 19.5903C18.5654 18.8591 19.7545 18.8591 20.4858 19.5903C21.217 20.3216 21.217 21.5107 20.4858 22.242Z" fill="black"/>
</svg>
