<svg width="32" height="32" viewBox="0 0 32 32" fill="none" xmlns="http://www.w3.org/2000/svg">
<path d="M7.33594 0.667969V7.33464C7.33594 8.04188 7.61689 8.72016 8.11699 9.22026C8.61708 9.72035 9.29536 10.0013 10.0026 10.0013M10.0026 10.0013C10.7098 10.0013 11.3881 9.72035 11.8882 9.22026C12.3883 8.72016 12.6693 8.04188 12.6693 7.33464V0.667969M10.0026 10.0013V22.0013M20.6693 22.0013V10.0013M19.3359 3.33464V7.33464M22.0026 3.33464V7.33464M10.0026 31.3346C9.64898 31.3346 9.30984 31.1942 9.0598 30.9441C8.80975 30.6941 8.66927 30.3549 8.66927 30.0013V22.0013H11.3359V30.0013C11.3359 30.3549 11.1955 30.6941 10.9454 30.9441C10.6954 31.1942 10.3562 31.3346 10.0026 31.3346ZM20.6693 31.3346C20.3157 31.3346 19.9765 31.1942 19.7265 30.9441C19.4764 30.6941 19.3359 30.3549 19.3359 30.0013V22.0013H22.0026V30.0013C22.0026 30.3549 21.8621 30.6941 21.6121 30.9441C21.362 31.1942 21.0229 31.3346 20.6693 31.3346ZM22.6693 10.0013H18.6693C18.1388 10.0013 17.6301 9.79059 17.2551 9.41552C16.88 9.04045 16.6693 8.53174 16.6693 8.0013V0.667969H24.6693V8.0013C24.6693 8.53174 24.4586 9.04045 24.0835 9.41552C23.7084 9.79059 23.1997 10.0013 22.6693 10.0013Z" stroke="#303C42" stroke-miterlimit="10" stroke-linecap="round" stroke-linejoin="round"/>
</svg>
