<svg width="34" height="34" viewBox="0 0 34 34" fill="none" xmlns="http://www.w3.org/2000/svg">
<g clip-path="url(#clip0_1_3931)">
<path d="M17.0017 3.36152C15.455 3.36152 14.1901 4.6265 14.1901 6.17313C14.1901 6.68228 14.3128 7.23553 14.5236 7.76647C8.10009 8.93571 3.22125 14.5618 3.22125 21.3203V22.8873C3.22125 23.8569 4.01854 24.6542 4.98822 24.6542H29.015C29.9847 24.6542 30.782 23.8569 30.782 22.8873V21.3203C30.782 14.5618 25.9031 8.93581 19.4796 7.76647C19.6904 7.23553 19.8132 6.68228 19.8132 6.17313C19.8132 4.62651 18.5483 3.36152 17.0017 3.36152ZM17.0017 4.80617C17.7628 4.80617 18.3686 5.41199 18.3686 6.17313C18.3686 6.51093 18.2233 7.08186 17.9783 7.57851C17.6568 7.55508 17.3316 7.5401 17.0016 7.5401C16.6717 7.5401 16.3466 7.55508 16.025 7.57852C15.78 7.08186 15.6347 6.51094 15.6347 6.17313C15.6347 5.412 16.2405 4.80617 17.0017 4.80617ZM17.0017 8.98474C23.8209 8.98474 29.3374 14.5013 29.3374 21.3205V22.8874C29.3374 23.0716 29.1993 23.2097 29.0151 23.2097H4.98828C4.80408 23.2097 4.66596 23.0716 4.66596 22.8874V21.3205C4.66596 14.5013 10.1825 8.98474 17.0017 8.98474ZM1.85435 25.8213C1.45543 25.8213 1.13203 26.1447 1.13203 26.5437C1.13203 26.9426 1.45543 27.266 1.85435 27.266H3.46695L4.43512 29.5238C4.43512 29.5238 4.43513 29.5238 4.43513 29.5238C4.79802 30.3705 5.63387 30.9222 6.55519 30.9222H27.448C28.3694 30.9222 29.2053 30.3705 29.5681 29.5238L30.5363 27.266H32.1489C32.5478 27.266 32.8712 26.9426 32.8712 26.5437C32.8712 26.1447 32.5478 25.8213 32.1489 25.8213H1.85435ZM5.76291 28.9551L5.03953 27.266H28.9639L28.2406 28.9551C28.1043 29.2733 27.7944 29.4776 27.4482 29.4776H6.55535C6.20913 29.4776 5.89929 29.2733 5.76293 28.9552C5.76292 28.9551 5.76292 28.9551 5.76291 28.9551Z" fill="black" stroke="black" stroke-width="0.4"/>
</g>
<defs>
<clipPath id="clip0_1_3931">
<rect width="33.4286" height="33.4286" fill="white" transform="translate(0.285156 0.428711)"/>
</clipPath>
</defs>
</svg>
