<svg width="32" height="33" viewBox="0 0 32 33" fill="none" xmlns="http://www.w3.org/2000/svg">
<path d="M23.9948 11.166C24.702 11.166 25.3803 10.8851 25.8804 10.385C26.3805 9.88487 26.6615 9.20659 26.6615 8.49935C26.6615 7.79211 26.3805 7.11383 25.8804 6.61373C25.3803 6.11363 24.702 5.83268 23.9948 5.83268C23.9948 5.12544 23.7138 4.44716 23.2137 3.94706C22.7136 3.44697 22.0354 3.16602 21.3281 3.16602C20.6209 3.16602 19.9426 3.44697 19.4425 3.94706C18.9424 4.44716 18.6615 5.12544 18.6615 5.83268C18.6615 5.12544 18.3805 4.44716 17.8804 3.94706C17.3803 3.44697 16.702 3.16602 15.9948 3.16602C15.2875 3.16602 14.6093 3.44697 14.1092 3.94706C13.6091 4.44716 13.3281 5.12544 13.3281 5.83268C13.3281 5.12544 13.0472 4.44716 12.5471 3.94706C12.047 3.44697 11.3687 3.16602 10.6615 3.16602C9.95421 3.16602 9.27594 3.44697 8.77584 3.94706C8.27574 4.44716 7.99479 5.12544 7.99479 5.83268C7.28755 5.83268 6.60927 6.11363 6.10917 6.61373C5.60908 7.11383 5.32813 7.79211 5.32812 8.49935C5.32813 9.20659 5.60908 9.88487 6.10917 10.385C6.60927 10.8851 7.28755 11.166 7.99479 11.166" stroke="#070707" stroke-width="3" stroke-linecap="round" stroke-linejoin="round"/>
<path d="M13.3333 29.8327L12 11.166" stroke="#070707" stroke-width="3" stroke-linecap="round" stroke-linejoin="round"/>
<path d="M18.6719 29.8327L20.0052 11.166" stroke="#070707" stroke-width="3" stroke-linecap="round" stroke-linejoin="round"/>
<path d="M26.6706 11.166C27.3372 11.166 27.8706 11.6993 27.7372 12.4993L24.2706 28.4993C24.1372 29.166 23.3372 29.8327 22.6706 29.8327H9.33723C8.53723 29.8327 7.87057 29.2993 7.73723 28.4993L4.27057 12.4993C4.13723 11.6993 4.67057 11.166 5.33723 11.166H26.6706Z" stroke="#070707" stroke-width="3" stroke-linecap="round" stroke-linejoin="round"/>
</svg>
