<svg width="20" height="20" viewBox="0 0 20 20" fill="none" xmlns="http://www.w3.org/2000/svg">
<g clip-path="url(#clip0_1_3696)">
<path d="M18.0036 18.255H5.83073C5.72022 18.255 5.61424 18.2111 5.5361 18.133C5.45796 18.0548 5.41406 17.9488 5.41406 17.8383C5.41406 14.1021 8.33115 11.0625 11.9166 11.0625C15.5024 11.0625 18.4199 14.1021 18.4199 17.8383C18.42 17.893 18.4093 17.9472 18.3884 17.9978C18.3676 18.0484 18.3369 18.0944 18.2982 18.1331C18.2596 18.1718 18.2137 18.2025 18.1631 18.2234C18.1125 18.2443 18.0584 18.2551 18.0036 18.255ZM6.26115 17.4217H17.5728C17.3682 14.3387 14.9091 11.8958 11.9166 11.8958C8.92406 11.8963 6.46573 14.3387 6.26115 17.4217ZM19.5811 19.9967H4.39323C4.28272 19.9967 4.17674 19.9528 4.0986 19.8746C4.02046 19.7965 3.97656 19.6905 3.97656 19.58C3.97656 19.4695 4.02046 19.3635 4.0986 19.2854C4.17674 19.2072 4.28272 19.1633 4.39323 19.1633H19.5811C19.6917 19.1633 19.7976 19.2072 19.8758 19.2854C19.9539 19.3635 19.9978 19.4695 19.9978 19.58C19.9978 19.6905 19.9539 19.7965 19.8758 19.8746C19.7976 19.9528 19.6917 19.9967 19.5811 19.9967Z" fill="#F4F4F4"/>
<path d="M13.6625 11.9004C13.552 11.9004 13.446 11.8565 13.3679 11.7784C13.2897 11.7002 13.2458 11.5943 13.2458 11.4838C13.2458 10.71 12.6504 10.08 11.9188 10.08C11.1875 10.08 10.5925 10.7096 10.5925 11.4838C10.5925 11.5943 10.5486 11.7002 10.4705 11.7784C10.3923 11.8565 10.2863 11.9004 10.1758 11.9004C10.0653 11.9004 9.95935 11.8565 9.88121 11.7784C9.80307 11.7002 9.75917 11.5943 9.75917 11.4838C9.75917 10.2504 10.7279 9.24667 11.9188 9.24667C13.1096 9.24667 14.0792 10.2504 14.0792 11.4838C14.0792 11.5943 14.0353 11.7002 13.9571 11.7784C13.879 11.8565 13.773 11.9004 13.6625 11.9004ZM13.8538 8.45375C13.7432 8.45375 13.6373 8.40985 13.5591 8.33171C13.481 8.25357 13.4371 8.14759 13.4371 8.03708V5.46375C13.4371 5.35324 13.481 5.24726 13.5591 5.16912C13.6373 5.09098 13.7432 5.04708 13.8538 5.04708C13.9643 5.04708 14.0702 5.09098 14.1484 5.16912C14.2265 5.24726 14.2704 5.35324 14.2704 5.46375V8.03708C14.2704 8.14759 14.2265 8.25357 14.1484 8.33171C14.0702 8.40985 13.9643 8.45375 13.8538 8.45375ZM11.9188 8.45375C11.8082 8.45375 11.7023 8.40985 11.6241 8.33171C11.546 8.25357 11.5021 8.14759 11.5021 8.03708V4.52792C11.5021 4.41741 11.546 4.31143 11.6241 4.23329C11.7023 4.15515 11.8082 4.11125 11.9188 4.11125C12.0293 4.11125 12.1352 4.15515 12.2134 4.23329C12.2915 4.31143 12.3354 4.41741 12.3354 4.52792V8.03708C12.3354 8.14759 12.2915 8.25357 12.2134 8.33171C12.1352 8.40985 12.0293 8.45375 11.9188 8.45375ZM9.98458 8.45375C9.87408 8.45375 9.7681 8.40985 9.68996 8.33171C9.61182 8.25357 9.56792 8.14759 9.56792 8.03708V5.46375C9.56792 5.35324 9.61182 5.24726 9.68996 5.16912C9.7681 5.09098 9.87408 5.04708 9.98458 5.04708C10.0951 5.04708 10.2011 5.09098 10.2792 5.16912C10.3574 5.24726 10.4012 5.35324 10.4012 5.46375V8.03708C10.4012 8.14759 10.3574 8.25357 10.2792 8.33171C10.2011 8.40985 10.0951 8.45375 9.98458 8.45375ZM4.035 8.03083C1.81 8.03083 0 6.22958 0 4.01542C0 1.80167 1.81 0 4.035 0C6.26 0 8.07 1.80125 8.07 4.01542C8.07 6.22958 6.26 8.03083 4.035 8.03083ZM4.035 0.833333C2.26958 0.833333 0.833333 2.26083 0.833333 4.01542C0.833333 5.77 2.26958 7.1975 4.035 7.1975C5.80042 7.1975 7.23667 5.77 7.23667 4.01542C7.23667 2.26083 5.80042 0.833333 4.035 0.833333Z" fill="#F4F4F4"/>
<path d="M5.14635 4.66083H4.03385C3.92335 4.66083 3.81737 4.61693 3.73923 4.53879C3.66109 4.46065 3.61719 4.35467 3.61719 4.24417V1.54167C3.61719 1.43116 3.66109 1.32518 3.73923 1.24704C3.81737 1.1689 3.92335 1.125 4.03385 1.125C4.14436 1.125 4.25034 1.1689 4.32848 1.24704C4.40662 1.32518 4.45052 1.43116 4.45052 1.54167V3.8275H5.14635C5.25686 3.8275 5.36284 3.8714 5.44098 3.94954C5.51912 4.02768 5.56302 4.13366 5.56302 4.24417C5.56302 4.35467 5.51912 4.46065 5.44098 4.53879C5.36284 4.61693 5.25686 4.66083 5.14635 4.66083Z" fill="#F4F4F4"/>
</g>
<defs>
<clipPath id="clip0_1_3696">
<rect width="20" height="20" fill="white"/>
</clipPath>
</defs>
</svg>
